<?xml version="1.0" encoding="UTF-8"?>
<svg id="Layer_1" data-name="Layer 1" xmlns="http://www.w3.org/2000/svg" viewBox="0 0 250 200">
  <defs>
    <style>
      .cls-1 {
        fill: #246136;
      }

      .cls-1, .cls-2, .cls-3 {
        stroke-width: 0px;
      }

      .cls-2 {
        fill: #514e4f;
      }

      .cls-3 {
        fill: #fdfdfd;
      }
    </style>
  </defs>
  <path class="cls-1" d="M5.12,58.97c.46-2.49.89-4.98,1.39-7.46,1.02-5.06,1-5.14,5.77-7,1.62-.63,2.46-1.63,3.14-3.15,4.99-11.09,12.87-19.4,24.13-24.27,7.7-3.33,15.79-5.14,24.21-4.82,3.97.15,7.91.95,11.74,2.13.55.17.84.51,1.11.95,1.01,1.67,1.97,3.36,2.52,5.24.16.54.38.91,1.02,1.14,15.6,5.66,24.97,16.97,29.21,32.68,2.39,8.86,1.99,17.79-.27,26.66-.17.67-.53,1.14-1.08,1.54-1.56,1.13-3.36,1.76-5.11,2.49-.59.25-.98.58-1.22,1.2-5.14,13.33-14.91,21.93-27.94,27.17-4.32,1.74-8.84,2.77-13.5,3.13-.19.01-.36.04-.45.24h-8.93c-.86-.52-1.84-.42-2.77-.55-4.62-.66-9.35-1.12-10.49-7-.18-.92-.87-1.39-1.75-1.77-16.1-7.08-26.17-19.08-29.68-36.41-.31-1.55-.26-3.19-1.05-4.63v-7.51ZM81.02,25.27c-.06-.14-.13-.28-.19-.42-.17.19-.11.38-.03.58.82,4.31,1.67,8.62,1.79,13.26-20.05-21.76-52.99-15.42-63.78,3.61,4.22-.69,8.34-1.84,12.75-1.45-20.04,18.21-17.13,51.04,4.08,62.84-.9-4.25-1.9-8.37-1.8-12.95,9.28,9.55,20.12,14.76,33.39,13.73,13.18-1.02,23.36-7.37,31.12-17.86-4.48.76-8.91,1.46-13.42,2.03.22-.7.79-1.07,1.22-1.52,4.1-4.3,7.58-9.05,9.64-14.65,5.29-14.38,2.6-27.57-6.32-39.69-2.26-3.07-5.02-5.7-8.45-7.52h0Z"/>
  <path class="cls-2" d="M45.08,178.04c-.07.09-.11.14-.14.19-.3.61-.18,1.57-.72,1.83-.61.3-1.47.09-2.22.11-2.64.07-5.29-.22-7.91.36-1.33.3-2.55.79-3.5,1.81-.15.16-.31.42-.56.29-.28-.15-.07-.4-.01-.6.5-1.78,1.63-3.08,3.12-4.12.31-.21.63-.4.92-.67-1.95.3-3.51,1.3-4.72,2.81-.32.4-.62.61-1.14.54-.45-.06-.91-.04-1.37-.06-3.49-.21-5.55-2.55-5.09-6,.53-3.99,1.83-7.78,3.44-11.45.78-1.79,2.4-2.68,4.21-3.03,3.55-.69,7.14-.75,10.68.13,2.45.61,3.47,2.21,3.11,4.72-.17,1.22-.44,2.43-.7,3.64-.51,2.32-1.23,4.58-2.06,6.81-.1.27-.24.53-.19.9,1.34,0,2.68,0,4.01,0,.3,0,.45-.07.52-.42.69-3.38,1.91-6.61,2.84-9.92.53-1.88,1.15-3.73,1.66-5.61.18-.67.5-.85,1.16-.83,1.3.05,2.62.06,3.92,0,.79-.03.93.16.7.93-1.33,4.35-2.61,8.72-3.91,13.08-.51,1.71-.12,2.36,1.66,2.73,2.37.5,4.26-.62,4.96-2.94,1.3-4.36,2.62-8.71,3.89-13.08.17-.58.42-.76,1-.74,1.6.04,3.2.03,4.8,0,.5,0,.62.13.48.61-1.61,5.35-3.17,10.72-4.82,16.05-.4,1.28-1.44,2.15-2.6,2.82-2.11,1.21-4.44,1.45-6.8,1.53-1.73.06-3.46.06-5.17-.27-1.42-.28-2.69-.79-3.45-2.15h0ZM30.22,176.58c2.3.01,3.27-.37,3.81-1.68,1.24-3.01,2.18-6.11,2.89-9.29.2-.91-.26-1.62-1.1-1.77-1.09-.19-2.21-.22-3.31-.05-1.02.15-1.66.76-2.04,1.73-1.09,2.72-1.86,5.54-2.53,8.38-.44,1.82-.07,2.34,1.8,2.62.23.03.45.05.49.05Z"/>
  <path class="cls-2" d="M161.76,159.67c-1.93,6.58-3.8,12.89-5.61,19.22-.27.97-.61,1.38-1.69,1.31-1.69-.12-3.4-.08-5.09,0-.74.03-.93-.26-1.05-.89-.78-4.08-1.59-8.16-2.4-12.25-.06-.28-.14-.56-.26-1.04-1.12,3.77-2.18,7.36-3.25,10.96-.24.81-.52,1.61-.7,2.43-.13.58-.36.8-.98.78-1.47-.05-2.94-.03-4.41,0-.6.01-.87-.01-.63-.78,1.92-6.38,3.79-12.77,5.65-19.16.15-.5.35-.66.86-.65,1.83.04,3.66,0,5.49.03,1.57.02,2.67.95,2.95,2.46.54,2.84,1.06,5.69,1.6,8.53.03.15.09.3.22.7.75-2.49,1.43-4.76,2.11-7.02.39-1.31.81-2.61,1.16-3.92.15-.55.36-.77.98-.77,7.54.03,15.09.03,22.63,0,.69,0,.85.15.62.81-.39,1.13-.74,2.29-1.04,3.45-.13.51-.36.67-.87.66-1.11-.04-2.22.03-3.33-.03-.76-.04-1.12.16-1.35.97-1.32,4.65-2.74,9.28-4.09,13.93-.19.66-.47.85-1.15.83-1.47-.06-2.94-.04-4.41,0-.67.02-.84-.1-.62-.81,1.41-4.59,2.78-9.2,4.16-13.8.32-1.08.33-1.08-.81-1.08-.82,0-1.64-.05-2.45.02-.66.05-.89-.22-1.04-.82-.34-1.28-.76-2.53-1.21-4.03h0Z"/>
  <path class="cls-2" d="M73.76,155.66c.93-3.24,1.85-6.46,2.78-9.67,1.43-4.96,2.87-9.92,4.27-14.89.17-.59.37-.84,1.03-.84,4.41.04,8.82,0,13.23.03,1.59,0,3.11.36,4.43,1.3,2.32,1.66,2.61,3.98,2.09,6.54-.77,3.76-1.75,7.46-3.1,11.06-.75,2.01-2.04,3.63-3.67,4.97-1.13.93-2.44,1.52-3.94,1.52-5.55.01-11.11.01-16.66.02-.13,0-.25-.03-.46-.05h0ZM85.97,150.47h0c.62,0,1.24,0,1.86,0,2.34-.04,2.98-.49,3.86-2.7.95-2.39,1.73-4.83,2.43-7.3.29-1.03.67-2.04.67-3.13,0-1.47-.88-2.4-2.33-2.41-1.57-.02-3.13,0-4.7,0-.37,0-.69,0-.83.47-1.34,4.82-2.7,9.63-4.06,14.44-.16.56.05.67.56.66.85-.03,1.7,0,2.55,0h0Z"/>
  <path class="cls-2" d="M128.32,155.74c-2.78,0-5.55-.02-8.33.01-.6,0-.69-.13-.53-.7,2.33-8.05,4.64-16.11,6.94-24.17.13-.45.32-.61.8-.61,4.47.02,8.95.01,13.43.03.91,0,1.82.17,2.69.46,2.85.94,4.42,3.4,3.94,6.38-.7,4.34-1.84,8.58-3.5,12.67-.77,1.9-2.1,3.44-3.77,4.66-1.19.87-2.52,1.29-4.03,1.26-2.55-.05-5.1-.01-7.64-.01v.02h0ZM131.5,150.54v-.03c.62,0,1.24-.04,1.86,0,2.09.14,3.24-.92,3.91-2.8.85-2.39,1.68-4.78,2.36-7.22.3-1.06.7-2.1.67-3.23-.04-1.42-.92-2.31-2.31-2.32-1.57-.01-3.13,0-4.7-.01-.45,0-.72.09-.85.57-1.34,4.81-2.7,9.62-4.06,14.42-.15.52.02.63.49.61.88-.02,1.76,0,2.64,0h0Z"/>
  <path class="cls-2" d="M61.77,156.07c-2.31-.02-4.47.06-6.57-.54-3.31-.94-4.61-3.3-3.63-6.57,1.79-5.98,3.59-11.95,5.36-17.93.18-.63.43-.88,1.13-.86,1.8.06,3.59.07,5.39.01.84-.03.8.25.61.89-1.69,5.6-3.34,11.2-5,16.81-.44,1.47-.05,2.21,1.37,2.7,1.63.56,3.21.39,4.74-.35,1.05-.51,1.69-1.36,2.02-2.49,1.66-5.61,3.35-11.2,5-16.81.18-.61.41-.84,1.05-.82,1.99.04,3.98.05,5.98,0,.73-.02.87.14.65.85-1.76,5.81-3.69,11.58-5.16,17.47-1.14,4.58-4.21,6.45-8.4,7.25-1.54.29-3.12.3-4.52.38h0Z"/>
  <path class="cls-2" d="M214.32,140.2c2.91,0,5.71.02,8.51-.01.75,0,.9.19.65.89-.38,1.07-.71,2.16-.97,3.27-.16.68-.5.83-1.16.82-2.58-.04-5.16,0-7.74-.03-.64,0-1.03.09-1.12.82-.07.57-.3,1.13-.43,1.7-.31,1.37.18,2,1.6,2.18,3.39.43,6.78.35,10.14-.22.58-.1.85-.18.61.6-.53,1.67-.98,3.37-1.42,5.07-.12.47-.33.62-.79.63-4.41.08-8.81.2-13.22.26-2.01.03-3.38-1.07-4.22-2.81-1.03-2.12-.96-4.36-.53-6.6.97-5.09,2.86-9.83,5.45-14.33.77-1.34,1.77-1.98,3.21-2.11.91-.09,1.82-.19,2.73-.2,4.44-.02,8.88,0,13.33-.03.83,0,.98.18.71.96-.5,1.44-.94,2.91-1.31,4.39-.17.7-.45.92-1.18.91-3.1-.04-6.21.03-9.31-.04-1.18-.03-1.94.42-2.42,1.43-.38.79-.71,1.59-1.1,2.47h0Z"/>
  <path class="cls-2" d="M184.55,130.14c-.57,1.94-1.13,3.77-1.64,5.61-.15.54-.45.59-.92.59-3.17-.02-6.34.04-9.5-.04-1.2-.03-1.92.47-2.41,1.45-.37.75-.68,1.54-1.08,2.44h7.96c1.44,0,1.44,0,1.03,1.38-.29.96-.63,1.91-.87,2.89-.14.55-.38.7-.94.69-2.68-.03-5.36,0-8.03-.03-.58,0-.88.14-.97.75-.11.7-.36,1.38-.46,2.09-.16,1.1.27,1.69,1.36,1.83,3.19.42,6.38.42,9.57-.05.51-.07,1.01-.16,1.63-.26-.56,2.04-1.11,4-1.64,5.96-.11.4-.36.45-.72.46-4.44.08-8.88.21-13.32.26-1.93.02-3.24-1.04-4.1-2.69-.97-1.85-1.05-3.85-.74-5.82.92-5.72,3.02-11.01,6.05-15.94.4-.66.91-1.08,1.67-1.19.84-.12,1.67-.36,2.51-.36,5.16-.03,10.32-.02,15.58-.02h0Z"/>
  <path class="cls-2" d="M24.85,155.7c.94-1.61,1.79-3.05,2.64-4.5,3.22-5.47,6.43-10.93,9.65-16.4.73-1.25,1.64-2.35,2.78-3.25.94-.74,1.96-1.27,3.21-1.27,2.15,0,4.31.02,6.46-.01.56,0,.7.16.7.71-.02,8.01-.02,16.02,0,24.03,0,.56-.15.72-.71.71-1.83-.03-3.66-.05-5.48,0-.66.02-.75-.25-.73-.8.03-1.27-.02-2.54.02-3.81.02-.58-.14-.83-.75-.82-2.12.02-4.24.02-6.37,0-.48,0-.69.25-.88.61-.78,1.42-1.6,2.83-2.36,4.27-.21.4-.45.55-.9.54-2.35-.02-4.7,0-7.28,0h0ZM43.47,136.62c-.06-.01-.13-.03-.19-.04-1.64,3-3.29,6-5,9.12,1.65,0,3.13-.02,4.62,0,.61.01.58-.35.58-.76,0-1.95,0-3.9,0-5.85v-2.48h0Z"/>
  <path class="cls-2" d="M22.22,130.19c2.76,0,4.94.01,7.13,0,.55,0,.75.07.58.69-.41,1.54-.75,3.1-1.08,4.65-.13.58-.34.83-1.02.82-3.13-.05-6.27,0-9.4-.01-.9,0-1.75.17-2.57.52-.95.41-1.49,1.37-1.29,2.28.22,1.02,1.05,1.27,1.93,1.3,1.96.07,3.92-.07,5.86.32,2.94.59,4.22,2.1,3.96,5.05-.25,2.78-1.34,5.29-3.24,7.38-1.41,1.56-3.32,2.12-5.35,2.3-4.4.38-8.81.13-13.22.22-.54.01-.59-.21-.49-.64.4-1.61.81-3.21,1.16-4.83.13-.61.53-.55.95-.55,3.3,0,6.6-.02,9.9-.02.82,0,1.63-.13,2.39-.45.85-.36,1.47-1.4,1.21-2.12-.3-.83-1.01-.97-1.83-.96-2.35.02-4.7.05-6.96-.78-.94-.35-1.53-.92-1.96-1.87-1.67-3.7-.47-6.84,1.55-9.99,1.41-2.2,3.26-3.17,5.8-3.24,2.19-.06,4.37-.04,6-.07h0Z"/>
  <path class="cls-2" d="M197.97,130.06c2.5,0,4.59.03,6.68-.01.66-.01.76.17.6.78-.4,1.54-.76,3.09-1.09,4.65-.12.56-.38.7-.93.7-3.1-.02-6.21,0-9.31,0-.92,0-1.82.15-2.67.51-.97.41-1.62,1.45-1.39,2.32.26.97,1.06,1.26,1.97,1.28,1.63.04,3.26.03,4.89.18,3.66.33,5.27,2.05,4.85,5.61-.31,2.7-1.4,5.16-3.33,7.13-1.85,1.89-4.32,2.2-6.79,2.26-3.85.09-7.71.04-11.56.07-.48,0-.72-.04-.56-.64.41-1.54.77-3.09,1.11-4.64.12-.55.39-.7.94-.7,3.46-.01,6.92.11,10.38-.07.82-.04,1.63-.16,2.33-.63.69-.47,1.01-1.19.8-1.95-.21-.74-.89-.87-1.66-.88-2.41-.03-4.83.06-7.15-.83-.98-.38-1.59-1-1.96-2-.65-1.75-1.02-3.48-.57-5.34.11-.45.27-.86.54-1.24,1.26-1.78,2.51-3.57,3.74-5.38.31-.46.68-.68,1.25-.79,3.08-.59,6.19-.31,8.87-.39h0Z"/>
  <path class="cls-2" d="M107.62,166.41c1.07-1.36,2.02-2.58,2.98-3.8.55-.69,1.02-1.44,1.74-1.98.85-.64,1.79-1.04,2.89-1.04,1.6,0,3.2.01,4.8,0,.55,0,.65.11.48.67-1.9,6.41-3.78,12.84-5.65,19.26-.14.49-.33.67-.86.65-1.53-.04-3.07-.04-4.6,0-.7.02-.81-.14-.61-.81,1.18-3.88,2.31-7.78,3.47-11.67.08-.28.22-.54.08-1.01-1.14,1.39-2.23,2.71-3.3,4.04-1.19,1.47-2.4,2.92-3.54,4.43-.44.59-.98.6-1.55.52-.62-.08-.4-.69-.47-1.04-.52-2.58-.98-5.17-1.47-7.75-.03-.15-.07-.29-.31-.46-.49,1.61-.98,3.23-1.46,4.84-.81,2.74-1.6,5.48-2.41,8.22-.11.36-.15.72-.73.7-1.79-.05-3.59-.02-5.48-.02.87-2.97,1.71-5.86,2.57-8.75,1.09-3.71,2.21-7.41,3.28-11.12.16-.55.38-.72.93-.7,1.8.04,3.59,0,5.39.03,1.58.02,2.63.88,2.97,2.43.3,1.38.55,2.77.86,4.37h0ZM112.52,166.64s.05-.04.05-.06c0-.02-.03-.04-.05-.07-.02.03-.04.06-.06.09.02.01.04.02.06.04h0Z"/>
  <path class="cls-2" d="M246.11,149.1c-.57,2.05-1.11,3.98-1.65,5.91-.09.32-.29.45-.63.5-4.57.71-9.15.91-13.74.19-3-.47-4.64-2.79-4.3-6.04.2-1.89.69-3.7,1.22-5.51,1.27-4.33,2.56-8.66,3.82-12.99.16-.57.39-.84,1.06-.82,1.96.05,3.92.04,5.88.01.65,0,.77.16.57.8-1.26,4.16-2.49,8.34-3.72,12.52-.38,1.28-.71,2.57-.87,3.89-.16,1.32.37,1.94,1.67,2.13,3.54.53,7.02.12,10.68-.58h0Z"/>
  <path class="cls-2" d="M12.23,167.56c2.32,0,4.5.03,6.69-.01.7-.01.83.16.59.81-.31.82-.58,1.66-.77,2.51-.13.57-.4.7-.95.69-2.06-.03-4.11.01-6.17-.03-.56-.01-.84.15-.92.7-.07.45-.2.89-.3,1.33-.24,1.07.14,1.58,1.25,1.71,2.67.33,5.34.31,7.99-.16.22-.04.44,0,.76,0-.44,1.59-.88,3.11-1.29,4.64-.09.33-.27.38-.56.42-3.77.58-7.55.61-11.32.12-1.69-.22-2.9-1.84-3.24-3.85-.3-1.79.06-3.5.46-5.21.81-3.48,2.25-6.7,3.97-9.82.7-1.26,1.68-1.67,2.98-1.79,2.48-.24,4.96-.09,7.44-.13,1.67-.02,3.33,0,5,0,.56,0,.87.02.61.74-.42,1.19-.74,2.42-1.07,3.64-.13.5-.4.64-.9.63-2.38-.03-4.77.06-7.15-.04-1.35-.06-2.07.52-2.52,1.67-.18.45-.36.89-.58,1.44h0Z"/>
  <path class="cls-2" d="M127.07,167.59h7.47c-.36,1.22-.71,2.33-1.01,3.46-.12.45-.4.5-.79.49-2.06-.02-4.11.01-6.17-.02-.63,0-.9.16-1.06.81-.65,2.64-.57,2.84,2.15,3.07,2.21.19,4.44.15,6.63-.27.7-.13,1.05-.13.73.77-.41,1.16-.71,2.36-1,3.56-.12.5-.34.66-.84.73-3.64.54-7.29.56-10.93.12-1.71-.21-2.66-1.4-3.18-2.95-.5-1.49-.44-3.01-.14-4.53.78-4.03,2.29-7.77,4.28-11.35.72-1.28,1.69-1.76,3.04-1.87,2.87-.24,5.74-.08,8.61-.12,1.31-.02,2.61.03,3.92-.02.63-.02.7.15.51.72-.4,1.2-.75,2.42-1.07,3.64-.14.56-.44.67-.97.67-2.35-.03-4.7.07-7.05-.04-1.39-.06-2.13.53-2.58,1.72-.16.42-.33.84-.55,1.42h0Z"/>
  <path class="cls-2" d="M84.27,159.62c1.7,0,3.4-.06,5.09.01,3.36.15,5.21,2.17,5.01,5.5-.19,3.1-1.52,5.69-3.84,7.75-1.08.95-2.34,1.48-3.84,1.44-1.96-.06-3.92.02-5.88-.03-.58-.01-.79.21-.93.71-.44,1.53-.94,3.04-1.35,4.57-.13.48-.34.61-.81.61-1.57-.02-3.13-.03-4.7,0-.62.01-.71-.18-.54-.73,1.91-6.41,3.82-12.82,5.7-19.23.15-.51.4-.63.89-.62,1.73.03,3.46.01,5.19.01v.02h0ZM83.45,170.06c3.31,0,5.41-1.96,5.28-4.82-.05-1.16-.77-1.88-1.9-1.9-.95-.02-1.89.02-2.84-.01-.47-.01-.68.14-.81.61-.36,1.35-.79,2.68-1.18,4.02-.19.65-.77,1.46-.46,1.91.38.53,1.33.1,1.9.19h0Z"/>
  <path class="cls-2" d="M98.63,155.7c.69-2.3,1.35-4.5,2.01-6.7,1.78-5.94,3.57-11.89,5.32-17.84.2-.68.49-.9,1.2-.88,1.86.05,3.72.05,5.59,0,.74-.02.97.08.72.89-2.4,8-4.76,16.01-7.12,24.02-.1.33-.18.51-.56.51-2.35,0-4.69,0-7.16,0h0Z"/>
  <path class="cls-2" d="M148.99,155.97c-.95,0-1.9-.05-2.84.02-.9.07-.92-.26-.7-.99,1.71-5.62,3.38-11.25,5.07-16.88.68-2.27,1.38-4.53,2.04-6.81.15-.5.32-.76.91-.75,2.02.04,4.05.04,6.07,0,.64-.01.68.17.52.73-2.38,7.99-4.74,15.99-7.1,23.99-.15.5-.36.73-.94.7-1.01-.06-2.02-.02-3.03-.02h0s0,0,0,0Z"/>
  <path class="cls-2" d="M64.22,180.16c1.42-4.73,2.8-9.33,4.18-13.93.59-1.96,1.19-3.91,1.75-5.88.15-.55.36-.79.99-.77,1.5.05,3,.04,4.51,0,.61-.01.8.09.6.76-1.91,6.38-3.8,12.76-5.69,19.15-.11.38-.17.7-.74.69-1.83-.04-3.65-.02-5.61-.02h0Z"/>
  <path class="cls-3" d="M80.81,25.43c-.08-.2-.14-.39.03-.58.06.14.13.28.19.42-.07.06-.14.12-.22.16Z"/>
  <path class="cls-3" d="M112.52,166.64s-.04-.03-.06-.04c.02-.03.04-.06.06-.09.02.02.05.05.05.07s-.03.04-.05.06h0Z"/>
  <path class="cls-1" d="M31.02,66.27c.5-6.88,3.63-12.19,8.7-16.49,3.55-3,7.51-5.44,11.13-8.35,1.19-.96,2.38-1.93,3.44-3.03.71-.74,1.41-.82,2.34-.73,7.97.76,13.85,4.95,18.41,11.22,2.89,3.98,5.66,8.02,9.28,11.41,1.79,1.68,1.63,3.95.97,5.99-2.39,7.44-6.7,13.5-13.64,17.37-2.62,1.46-5.19,2.88-7.13,5.21-2.52,3.02-5.64,3.47-9.16,2.2-6.84-2.47-12.39-6.62-16.32-12.79-1.19-1.87-2.27-3.82-3.43-5.72-1-1.63-2.22-3.1-3.69-4.32-.71-.59-1.14-1.18-.89-1.96h0Z"/>
</svg>