<?xml version="1.0" encoding="UTF-8"?>
<svg id="Layer_1" data-name="Layer 1" xmlns="http://www.w3.org/2000/svg" viewBox="0 0 250 200">
  <defs>
    <style>
      .cls-1 {
        fill: #387f63;
      }

      .cls-1, .cls-2, .cls-3 {
        stroke-width: 0px;
      }

      .cls-2 {
        fill: #c5b56a;
      }

      .cls-3 {
        fill: #fffffe;
      }
    </style>
  </defs>
  <path class="cls-1" d="M230.53,78.98c.15,10.69-3.49,20.14-9.97,28.35-13.02,16.47-30.67,25.83-50.4,31.77-.63.19-1.3.31-1.96.38-.76.09-1.68.23-1.82-.86-.11-.87.65-1,1.32-1.13,9.09-1.76,17.08-6.12,25.02-10.57,8.59-4.83,16.29-10.76,22.51-18.49,13.45-16.72,12.19-38.6-3.16-53.63-14.87-14.55-33.05-22.51-53.16-26.54-4.67-.93-9.42-1.49-14.11-2.32-1.58-.28-2.68.07-3.84,1.23-16.05,16.16-32.13,32.3-48.26,48.38-1.38,1.38-1.23,2.12.07,3.39,6.92,6.74,13.81,13.53,20.6,20.41,1.45,1.47,2.2,1.47,3.64,0,6.46-6.58,13.13-12.96,19.56-19.56,1.88-1.93,2.4-1.28,3.2.74,2.88,7.18,2.67,8.5-2.87,14.06-6.59,6.61-13.23,13.17-19.76,19.83-1.42,1.46-2.22,1.79-3.87.12-11.86-12.03-23.81-23.95-35.81-35.84-1.38-1.37-1.66-2.08-.11-3.63,20.49-20.37,40.9-40.81,61.31-61.25.98-.98,1.91-1.7,3.44-1.56,31.3,2.97,59.05,13.12,79.19,38.86,6.44,8.23,9.11,17.6,9.21,27.87h.02Z"/>
  <path class="cls-2" d="M24.49,76.11c-.16-17.56,5.11-28.91,14.25-38.27,12.83-13.13,28.52-21.65,46.19-26.56.32-.09.64-.23.97-.24.83-.02,2.04-.63,2.35.44.45,1.52-1.11,1.36-1.94,1.56-13.95,3.57-26.04,10.72-37.11,19.61-6.6,5.31-12.34,11.5-15.73,19.52-6.12,14.47-3.34,27.69,6.11,39.59,9.6,12.08,22.65,19.38,36.82,24.87,11.04,4.28,22.52,6.6,34.25,7.93,1.44.16,2.26-.26,3.18-1.18,15.99-16.06,31.97-32.13,48.03-48.13,1.54-1.54,1.55-2.46,0-3.97-6.83-6.68-13.61-13.42-20.25-20.28-1.69-1.74-2.55-1.22-3.93.19-6.31,6.42-12.8,12.65-19.01,19.17-2.23,2.34-2.93,1.46-3.92-.83-2.29-5.34-1.82-8.25,2.2-12.3,6.95-7.04,13.92-14.04,20.8-21.15,1.48-1.53,2.33-1.67,3.93-.05,11.79,11.94,23.65,23.8,35.58,35.59,1.67,1.65,1.62,2.5-.02,4.14-19.77,19.66-39.53,39.34-59.12,59.2-2.56,2.59-5.07,3.59-8.47,3.12-16.47-2.24-32.52-5.83-47.15-14.21-11.2-6.42-21.06-14.33-29.01-24.61-6.26-8.1-8.81-17.26-9-23.14Z"/>
  <path class="cls-1" d="M35.8,156.21c.25,2.37.52,4.58.69,6.81.06.86.36,1.2,1.21,1.18,1.43-.03,2.87-.04,4.3,0,.7.02,1.08-.33,1.32-.87.31-.68.77-1.18,1.41-1.56,1.59-.94,1.77-.9,2.4.75.42,1.1,1.01,1.93,2.41,1.69.56-.09,1.15-.04,1.71,0,1.17.07,2.3.18,2.2-1.59-.03-.52.56-.84.95-1.17.08.05.2.1.2.15.01,2.6.01,2.64,2.65,2.59,1.99-.04,4,.28,6.12-.35-1.09-1.12-2.27-1.21-3.61-.79.99-2.11,1.96-2.51,3.88-1.65,1.26.57,2.51,1.15,3.75,1.77.35.18,1.09.12.96.63-.13.55-.57,1.13-1.23,1.28-.36.08-.77.04-1.14-.03-1.38-.27-2.64-.06-3.82.74-.95.64-2.07.5-3.06.34-1.84-.3-3.83.54-5.53-.73-.07-.05-.24-.11-.26-.09-1.12,1.43-2.67.45-3.99.7-.85.16-1.83-.26-2.43.76-.2.34-.52.07-.75-.05-.59-.3-1.17-.65-1.76-.96-.71-.37-1.42-1.07-2.12.07-.1.16-.52.17-.8.18-1.71.06-3.43.06-5.14.17-.94.06-1.22-.3-1.27-1.2-.11-2-.27-4.01-.56-5.99-.18-1.19.09-2.04,1.3-2.77h0ZM44.42,163.35c.67.57,1.24,1.19,2.07.97.29-.07.01-.6-.17-.85-.53-.74-1.16-.54-1.91-.12h0Z"/>
  <path class="cls-1" d="M194.83,164.39c-.7.36-.84,1.47-1.9,1.07-.65-.24-1.82-.04-1.91-.6-.14-.86.13-2.07.94-2.56,1.38-.84,2.31-1.98,3.09-3.84.3,1.76.62,3.04.71,4.33.08,1.21.63,1.56,1.73,1.42.52-.07,1.05,0,1.57-.01,1.59-.04,3.48.6,4.02-1.82.07-.3.51-.51.96-.94-.07.48-.09.7-.13.9-.4,1.79-.13,2.07,1.7,1.87.45-.05.71-.15.7-.66,0-.84.66-1.18,1.4-1.78-.13.64-.2,1.04-.3,1.44-.11.43-.49.99.39.98.49,0,1.22.3.97-.8-.16-.69.51-1.17.88-1.71.08.08.18.13.21.2.23.73-.48,1.74.12,2.13.59.38,1.57.15,2.37.18.14,0,.29,0,.43,0,1.4-.05,3.09.53,3.53-1.65.07-.36.49-.65.82-1.07.21.61.02.92-.02,1.24-.05.47-.75,1.17.22,1.37.7.15,1.66.55,1.88-.75.1-.59.52-.99,1.2-1.42-.06.56-.11.99-.16,1.42-.04.36-.2.8.42.84.47.03.89.02.79-.64-.13-.86.67-1.19,1.09-2.1.3,1.55.24,2.76-.18,3.98-.21.61-.65.69-1.13.59-1.84-.4-3.72.43-5.59-.32-.46-.18-1.39.34-2.16.34-3.03-.02-6.05.08-9.08-.03-2.62-.1-5.22-.02-7.82.18-1.3.1-1.39-.9-1.8-1.78h0ZM192.84,163.18c.69.11,1.43.72,1.93.16.32-.36-.15-1.02-.29-1.65-.69.43-.99,1.13-1.64,1.49h0Z"/>
  <path class="cls-1" d="M124.11,156.19c.2,2.14.43,4.12.55,6.11.08,1.4.59,2.12,2.1,1.9.61-.09,1.24-.06,1.86,0,1.17.1,2.17.1,2.17-1.53,0-.54.57-.92,1.03-1.33.07.21.12.29.12.36-.18,2.25,1.16,3.25,3.29,2.49.5-.18.34-.5.3-.8-.13-1.09-.3-2.18-.45-3.27-.16-1.11.23-2.2,1.17-3.27.23,2.13.52,4.13.65,6.14.06.94.37,1.21,1.29,1.22,2.47.02,2.48.05,2-2.42-.2-1.05-.2-2.11-.81-3.12-.4-.67.58-1.29.78-1.98.38-.01.37.32.55.43,1.24.82,2.79,1.53.87,3.23-.17.15-.06.63-.03.96.07.67.21,1.32.26,1.99.19,2.34-.29,2.89-2.6,2.82-1.13-.03-2.39.41-3.33-.67-.17-.2-.29.03-.45.12-1.38.78-2.78.58-4.18.05-.2-.07-.31-.4-.6-.22-1.95,1.25-4.16.31-6.22.74-.66.14-.9-.24-.95-.9-.16-2.09-.34-4.19-.59-6.27-.13-1.09.06-1.97,1.22-2.78h0Z"/>
  <path class="cls-1" d="M99.69,156.12c.24,2.32.49,4.45.65,6.58.09,1.13.55,1.65,1.71,1.51.47-.06.96-.04,1.43,0,.81.06,1.38-.04,1.38-1.09,0-.76.59-1.22,1.15-1.69.13.2.19.26.21.34.27.74-.77,1.73.19,2.22,1.02.53,2.25.16,3.38.18.55.01.52-.47.54-.83.04-.86.38-1.52,1.14-1.96.08.1.18.17.18.23-.05,2.48.79,3.1,3.34,2.59.63-.13.66-.59.82-1.02.56-1.45,1.66-2.27,3.1-2.74.68-.22,1.12-.07,1.28.65.28,1.3,1.2,2.54.13,3.93-.45.58-.78.88-1.49.54-.43-.21-.9-.31-1.34-.5-.8-.35-1.53-.59-1.92.55-.16.47-.59.57-1.06.54-1.31-.07-2.69.25-3.82-.74-.08-.07-.25-.09-.35-.05-2.51.88-2.91.9-5.24.04-.15-.05-.24-.07-.35,0-1.54,1.14-3.34.53-5.02.73-.49.06-.64-.22-.68-.68-.22-2.47-.47-4.94-.69-7.41-.08-.91.66-1.27,1.33-1.93h0ZM117.2,162.8c.84.05,1.21.61,1.84.42-.2-1.19-.76-1.26-1.84-.42Z"/>
  <path class="cls-1" d="M165.29,156.15c.22,2.31.46,4.43.61,6.56.08,1.06.49,1.53,1.6,1.5,1.91-.06,3.82-.02,5.79-.02-.2-1.07-1.18-.8-1.78-1.1.78-1.83,2.16-2.56,3.62-1.96,1.22.51,1.47,1.3.92,2.9.07.05.14.14.21.13,1.12-.07,2.93.51,3.21-.26.49-1.34.04-3.12-.64-4.4-.7-1.31-.08-1.93.55-3,.27.35.41.69.66.84,1.24.72,2.28,1.42.72,2.86-.4.37-.1.91-.04,1.37.61,4.48.53,4.58-3.95,4.55-.84,0-1.86.41-2.42-.69-.04-.09-.25-.16-.34.03-.55,1.12-1.59.63-2.42.66-1.95.06-3.9-.19-5.85.02-.72.08-1-.19-1.06-.94-.18-2.33-.44-4.66-.68-6.99-.1-.97.57-1.41,1.29-2.08h0Z"/>
  <path class="cls-1" d="M31.73,162.83c-.97-.55-1.89-.89-2.88-.87-.6.02-1.47-.07-1.64.55-.15.57.63.97,1.09,1.37.44.38.98.29,1.5.29h2.77c-.28,1.32-.93,1.98-2.43,1.87-1.9-.13-3.82-.03-5.72-.03-.57,0-1.15.05-1.61-.41-.15-.15-.3-.37-.6-.19-2.18,1.36-4.62.26-6.92.69-.92.17-.97-.95-1.29-1.6-.67.19-.73,1.29-1.59,1.03-.81-.24-2.18,0-2.31-.7-.16-.84.26-2.12,1.11-2.65,1.3-.82,2.27-1.83,3.03-3.24.26,1.44.56,2.87.74,4.31.09.74.4.96,1.1.95,1.72-.03,3.44-.03,5.16,0,.65.01.99-.19.97-.88-.03-.9.43-1.5,1.31-2.03-.06.69-.12,1.24-.15,1.78-.04.84.55,1.01,1.21,1.1.61.09.95-.07,1.05-.79.13-.94.84-1.57,1.48-2.22,1.74-1.78,3.68-1.38,4.62,1.65h0ZM13.5,161.73c-.6.55-1.1,1.02-1.65,1.53.72.03,1.43.62,1.94.09.4-.41,0-1.05-.29-1.62h0Z"/>
  <path class="cls-1" d="M115.29,93.34c-2.71-5.01-2.16-9.72,2.82-14.59,6.58-6.43,13.28-12.72,19.84-18.99,2.72,3.91,2.68,9.89-1.48,14.05-6.83,6.82-14.17,13.12-21.18,19.52h0Z"/>
  <path class="cls-1" d="M223.12,168.05c2.33.84,4.11.04,5.6-1.63-.05-.4-.31-.4-.53-.44-2.39-.37-2.73-.95-1.69-3.08.49-.99.74-2.47,2.15-2.33,1.32.13,1.41,1.58,1.6,2.59.22,1.18.95,1.09,1.76,1.02,1.16-.11.56-.97.46-1.41-.31-1.27-.26-2.6-.95-3.83-.38-.69.41-1.4.87-2.02.16.09.25.12.31.18,1.08,1.14,2.04,2.11,1.02,4.01-.63,1.18-.13,2.72,1.47,3.39.74.31.88.85.57,1.63-.31.78-.53.88-1.27.36-1.63-1.15-3.92-.61-4.95,1.06-1.64,2.65-3.64,2.86-6.44.49h0ZM227.16,163.16c.07.49.38.74.85.74.28,0,.78.21.75-.31-.02-.46-.29-.94-.79-1.07-.43-.11-.66.25-.82.63Z"/>
  <path class="cls-1" d="M151.79,164.43c-.63.29-.74,1.44-1.81,1.02-.67-.26-1.89,0-1.96-.7-.08-.84.18-2.04,1.03-2.54,1.35-.8,2.24-1.89,3.03-3.31.22,1.26.48,2.51.63,3.78.12,1.04.43,1.57,1.65,1.56,1.41-.01,2.62,0,2.98-1.73.06-.29.37-.54.6-.78,1.02-1.08,2.74-1.66,3.22-1.1,1.02,1.2.98,3.93-.01,4.91-.33.32-.6.2-.9.1-.72-.24-1.43-.52-2.15-.78-.43-.16-.75-.15-1.11.29-1.45,1.8-4.24,1.41-5.2-.71h0ZM149.72,163.27c.77.03,1.44.58,1.91.12.45-.45-.06-1.07-.14-1.73-.61.56-1.12,1.02-1.77,1.62h0ZM160.22,163.34c-.22-1.37-.82-1.35-1.65-.74.46.37.97.56,1.65.74Z"/>
  <path class="cls-1" d="M77.43,156.36c.28.24.55.51.85.73,1.13.84,1.09,1.3.14,2.34-1.05,1.15-1.86,2.39-1.19,4.15.66,1.74.1,2.42-1.68,2.42-.76,0-1.53.01-2.29,0-1.2-.02-1.73-.97-1.17-2.01.13-.25.25-.39.53-.21,1.15.75,1.56-.44,2.25-.87.42-.26.15-.57-.05-.83-.41-.54-.75-1.36-1.53-1.21-1.13.2-1.75-.57-2.44-1.1-.53-.4-.32-1.53-.01-1.67.61-.26,1.31-.96,2.13-.29,1.19.96,2.09,2.18,3.17,3.36,1.04-1.53-.79-3.69,1.3-4.81h0Z"/>
  <path class="cls-2" d="M16.58,180.86c-.61-.03-1.03-.07-1.45-.07-.62.01-.68-.36-.68-.84s.06-.85.67-.84c.95.02,1.91-.01,2.86,0,.97.02.7.71.6,1.24-.45,2.44-2.42,3.91-4.72,3.56-2.34-.36-4.03-2.58-3.81-5.1.16-1.77.88-3.24,2.57-4.01,1.55-.7,3.08-.55,4.49.4.41.28,1.11.56.54,1.33-.48.65-.88.59-1.51.11-1.07-.84-2.25-.7-3.33.04-1.11.77-1.34,1.91-1.08,3.17.27,1.31,1.11,2.11,2.37,2.38,1.02.22,1.86-.14,2.45-1.38h0Z"/>
  <path class="cls-2" d="M66.77,179.15c.04,2.61-1.92,4.81-4.29,4.81-2.44,0-4.28-2.04-4.3-4.77-.02-2.73,1.81-4.8,4.25-4.82,2.37-.01,4.29,2.1,4.33,4.78h0ZM59.75,179.2c0,1.72,1.25,3.08,2.75,3.05,1.4-.04,2.58-1.44,2.61-3.08.02-1.67-1.26-3.15-2.7-3.13-1.44.02-2.67,1.48-2.66,3.17h0Z"/>
  <path class="cls-2" d="M75.73,183.29c-1.83.68-3,.43-3.83-.79-.92-1.37-.87-3.55.16-4.7.68-.77,1.56-1.18,2.57-.88.72.21,1.33.37,2.09.08.63-.24.9.21.88.88-.04,1.72,0,3.44-.02,5.16-.03,1.71-.86,2.92-2.11,3.21-1.86.42-3.12-.15-4.11-1.91.76-.38,1.4-.1,2.13.13.99.31,2.13.64,2.45-.94.1-.11.16-.23,0-.32-.04-.02-.15.06-.22.1h0ZM76.13,180.15c-.09-.87-.46-1.64-1.61-1.67-1.17-.03-1.57.71-1.61,1.74-.04,1.13.68,2.01,1.63,1.91,1.07-.11,1.55-.81,1.58-1.98Z"/>
  <path class="cls-2" d="M179.25,180.49c-.26.9.64,2.45-.44,3.07-.81.47-2.17.19-3.28.29-1.04.09-1.74-.63-2.24-1.51-.76-1.35-.63-3.28.32-4.44.95-1.15,2.09-1.39,3.42-.66.08.04.2.12.25.09.59-.33,1.3-.73,1.79-.13.45.54.11,1.38.16,2.08.02.33,0,.67,0,1.21h0ZM174.45,180.42c.07,1.06.45,1.89,1.68,1.85,1.15-.03,1.52-.89,1.53-1.86,0-1.03-.36-1.9-1.61-1.92-1.29-.01-1.51.91-1.6,1.93h0Z"/>
  <path class="cls-2" d="M51.1,180.35v1.28c0,1.82,0,1.81-1.82,1.78-.22,0-.43.16-.65.24-1.32.48-2.43.2-3.28-.95-1.02-1.38-.99-3.44.09-4.8.88-1.11,2.02-1.34,3.32-.8.18.07.43.27.5.22.54-.4,1.21-.65,1.66-.18.46.48.13,1.27.18,1.92.03.43,0,.86,0,1.28h0ZM47.99,182.32c1.01-.21,1.6-.84,1.53-1.98-.06-.98-.36-1.83-1.55-1.85-1.23-.02-1.65.76-1.68,1.85-.03,1.11.43,1.83,1.71,1.97h0Z"/>
  <path class="cls-2" d="M85.15,180.37c0,.43,0,.86,0,1.29-.01,1.2.35,2.77-1.82,1.76-.11-.05-.34.14-.51.2-1.92.62-3.34-.16-3.93-2.15-.57-1.94.44-4.12,2.13-4.56.47-.12.98-.16,1.4.05.57.28,1.01.33,1.63.05.68-.3,1.16.06,1.11.94-.05.81-.01,1.62-.01,2.43h0ZM83.63,180.34c-.05-.94-.28-1.83-1.56-1.86-1.24-.02-1.63.76-1.66,1.83-.03,1.09.37,1.9,1.56,1.95,1.21.05,1.62-.76,1.66-1.92Z"/>
  <path class="cls-2" d="M107.52,180.39c0,.52-.01,1.05,0,1.57.03,1.18.11,2.38-1.69,1.47-.18-.09-.52.16-.78.25-1.35.47-2.43.09-3.25-1.05-.96-1.34-.91-3.4.12-4.67.88-1.09,1.97-1.44,3.29-.83.17.08.42.27.49.22.53-.39,1.17-.69,1.63-.18.45.5.13,1.28.17,1.94.03.43,0,.86,0,1.28h0ZM102.79,180.1c-.02,1.24.31,2.09,1.51,2.17,1.2.07,1.68-.69,1.69-1.79.01-1.03-.24-1.91-1.5-1.98-1.24-.07-1.62.72-1.71,1.61Z"/>
  <path class="cls-2" d="M218.17,180.39c0,.86-.02,1.72,0,2.58.02.58-.29.86-.78.7-.81-.27-1.52,0-2.28.16-1.24.27-2.14-.36-2.73-1.39-.8-1.39-.81-2.84.03-4.22.83-1.35,1.97-1.68,3.46-1.12.18.07.33.24.5.24,1.8.03,1.8.03,1.8,1.9v1.15h0ZM215.15,178.46c-1.21.05-1.61.75-1.65,1.79-.04,1.08.26,1.94,1.49,2.01,1.23.07,1.66-.78,1.7-1.84.04-1.09-.41-1.84-1.54-1.96h0Z"/>
  <path class="cls-2" d="M33.7,180.33c.03-1.89,1.27-3.37,2.92-3.5,1.75-.13,3.13.99,3.46,2.75.17.88.01,1.37-1.04,1.29-.95-.07-1.91-.02-2.87,0-.26,0-.61-.1-.72.27-.09.3.1.56.3.76.64.63,1.44.63,2.11.19.71-.47,1.32-.22,1.59.28.32.59-.41.85-.83,1.09-2.34,1.32-4.96-.35-4.92-3.13h0ZM35.39,179.37h3.01c-.96-1.47-1.71-1.5-3.01,0Z"/>
  <path class="cls-2" d="M19.45,180.48c-.02-1.92,1.37-3.56,3.1-3.65,1.77-.09,3.2,1.2,3.36,3,.06.7-.07,1.08-.89,1.04-1.05-.05-2.09-.02-3.14,0-.22,0-.53.02-.63.16-.19.27.05.55.23.75.63.74,1.46.78,2.18.31.72-.47,1.33-.21,1.55.32.22.51-.49.84-.93,1.07-2.23,1.17-4.81-.43-4.83-2.98h0ZM24.21,179.23c-.4-.72-.95-1.06-1.73-.91-.47.09-1.07.32-1.05.8.03.59.68.31,1.05.31.54,0,1.11.17,1.73-.2h0Z"/>
  <path class="cls-2" d="M233.6,180.49c0-2.06,1.14-3.49,2.81-3.65,1.65-.16,3.08.9,3.46,2.57.21.92.12,1.59-1.13,1.47-.94-.09-1.91-.02-2.86-.01-.22,0-.51-.1-.64.16-.16.3.08.55.26.76.63.73,1.46.79,2.19.31.65-.43,1.2-.24,1.49.2.4.61-.36.88-.71,1.13-.98.72-2.11.65-3.13.13-1.26-.64-1.86-1.73-1.74-3.06h0ZM235.32,179.38c.58.03,1.04.08,1.49.05.44-.03.94.2,1.3-.22.05-.06-.08-.35-.2-.47-.44-.42-.97-.6-1.56-.4-.4.13-.77.35-1.03,1.03h0Z"/>
  <path class="cls-2" d="M152.08,183.97c-.99,0-1.75-.35-2.27-1.13-.24-.36-.69-.74-.04-1.19.45-.31.81-.66,1.28,0,.37.53.94.99,1.53.32.51-.58.13-1.15-.34-1.62-.71-.71-1.45-1.4-2.08-2.17-.86-1.07-.64-2.52.4-3.31.97-.74,2.38-.56,3.23.37.31.34.59.65.12,1.07-.34.31-.64.79-1.16.24-.36-.38-.85-.63-1.22-.14-.39.5.13.87.44,1.21.68.74,1.42,1.42,2.05,2.19.7.86.64,1.87.21,2.83-.42.92-1.24,1.27-2.14,1.32h0Z"/>
  <path class="cls-1" d="M88.07,160.85c.14,2.19,1.33,3.29,3.56,3.29,1.1,0,2.2,0,3.3,0,.64,0,.99-.24.57-.84-.7-1.02-.16-1.76.38-2.56,1.25,1.15,1.33,3.89.19,5.03-.33.33-.71.24-1.07.24-1.67.01-3.35.01-5.02,0-2.44-.01-3.18-.93-2.67-3.27.14-.63.23-1.28.76-1.89h0Z"/>
  <path class="cls-2" d="M189.8,180.34c0-.53,0-1.05,0-1.57-.03-1.23-.14-2.53,1.77-1.5.13.07.41-.16.62-.23,1.79-.58,3.02.26,3.11,2.17.06,1.19-.01,2.39.02,3.58.02.66-.18.93-.89.93-.75,0-.87-.38-.87-.98,0-.95-.03-1.91-.05-2.86-.01-.65-.09-1.33-.92-1.34-.85-.01-1.1.65-1.13,1.37-.04.95-.05,1.91-.02,2.86.01.64-.16.97-.88.95-.7-.01-.76-.4-.75-.93.01-.81,0-1.62,0-2.44h0Z"/>
  <path class="cls-2" d="M86.53,180.35c0-.86.01-1.72,0-2.58-.01-.51.18-1.01.69-.78,1.01.44,1.88-.08,2.81-.12,1.12-.06,1.75.65,1.94,1.72.26,1.47.07,2.95.12,4.43.02.59-.34.69-.84.69-.54,0-.78-.2-.78-.75-.02-1.1-.07-2.19-.11-3.29-.02-.56-.15-1.07-.82-1.15-.72-.09-1.12.36-1.19.97-.13,1.09-.16,2.19-.17,3.28,0,.64-.16.97-.88.95-.68-.01-.77-.38-.76-.92.01-.81,0-1.62,0-2.44h0Z"/>
  <path class="cls-2" d="M141.83,180.39c0,1.96-1.53,3.53-3.39,3.5-1.69-.03-3.07-1.58-3.08-3.48,0-1.98,1.51-3.63,3.3-3.59,1.79.05,3.17,1.6,3.16,3.56h0ZM138.51,178.51c-1.09.08-1.54.88-1.54,1.92,0,.97.37,1.79,1.53,1.86.96.05,1.86-.82,1.77-1.81-.08-.99-.43-1.87-1.76-1.96h0Z"/>
  <path class="cls-2" d="M161.91,180.34c.02,2.06-1.38,3.5-3.47,3.55-1.47.04-2.96-1.65-3.01-3.43-.06-1.95,1.46-3.64,3.26-3.63,1.77,0,3.2,1.57,3.22,3.51ZM158.47,178.52c-1,.13-1.46.87-1.44,1.96.01,1.03.47,1.75,1.59,1.8.95.05,1.86-.88,1.73-1.86-.13-.98-.45-1.89-1.88-1.9Z"/>
  <path class="cls-2" d="M122.41,180.23c0-.81.01-1.62,0-2.43,0-.5.22-1.02.69-.81,1.01.47,1.88-.13,2.81-.14,1.21-.02,1.86.77,1.96,1.88.12,1.42.07,2.85.1,4.28.01.6-.35.68-.84.69-.53,0-.78-.18-.78-.74,0-1.05,0-2.1-.07-3.15-.04-.63-.17-1.29-1.01-1.31-.81-.02-1.07.61-1.14,1.23-.1.94-.07,1.9-.08,2.86,0,.59.04,1.14-.85,1.12-.94-.02-.77-.64-.78-1.19-.01-.76,0-1.53,0-2.29h0Z"/>
  <path class="cls-2" d="M121.21,180.43c-.01,2.17-1.34,3.49-3.5,3.47-1.54-.02-2.84-1.63-2.84-3.52,0-2.05,1.3-3.53,3.12-3.54,1.89-.01,3.22,1.48,3.21,3.6h0ZM119.72,180.44c-.06-1.07-.42-1.88-1.64-1.91-1.23-.02-1.66.8-1.68,1.84-.02,1.05.42,1.88,1.62,1.9,1.23.03,1.58-.82,1.7-1.84h0Z"/>
  <path class="cls-2" d="M27.11,180.24c0-.81.04-1.63-.01-2.44-.04-.74.38-1.07.94-.82.74.34,1.31.07,1.97-.09,1.26-.3,2.38.41,2.49,1.69.13,1.47.04,2.96.06,4.44,0,.5-.24.65-.71.66-.51.01-.81-.13-.82-.71-.02-1.05-.08-2.1-.13-3.15-.03-.65-.15-1.32-.97-1.33-.83,0-1.14.58-1.15,1.34-.02,1-.04,2.01-.02,3.01,0,.61-.24.84-.85.84-.65,0-.82-.3-.8-.88.03-.86,0-1.72,0-2.58h0Z"/>
  <path class="cls-2" d="M219.67,180.25c0-.81,0-1.63,0-2.44,0-.49.2-1.05.67-.82,1.02.48,1.88-.16,2.81-.14,1.13.02,1.78.74,1.86,1.81.1,1.43.03,2.86.05,4.3,0,.56-.24.74-.78.75-.58,0-.73-.27-.74-.79-.01-1-.07-2-.12-3-.04-.68-.06-1.45-1.02-1.39-.85.05-1.04.75-1.07,1.45-.05.95-.06,1.91-.05,2.87,0,.58-.16.87-.81.88-.65,0-.83-.29-.82-.87.02-.86,0-1.72,0-2.58h0Z"/>
  <path class="cls-2" d="M206.92,179.62c0,.62.05,1.24-.01,1.86-.14,1.45-1.04,2.34-2.35,2.41-1.53.09-2.42-.58-2.78-2.08-.33-1.36-.14-2.75-.2-4.13-.02-.57.27-.73.79-.74.6-.01.86.21.84.84-.03,1.05-.04,2.1.04,3.14.05.66.23,1.4,1.15,1.33.8-.07.92-.7.93-1.36.01-1,.05-2,.03-3,0-.65.22-.96.92-.94.72.01.71.45.7.96-.01.57,0,1.14,0,1.71h-.04,0Z"/>
  <path class="cls-2" d="M162.77,180.21c.1-1.31.67-2.51,2.02-3.09,1.18-.51,2.44-.55,3.49.39.27.24.91.51.53.97-.32.39-.75.73-1.48.34-1.63-.85-2.87-.14-2.92,1.53-.04,1.45,1.14,2.3,2.5,1.8.26-.1.49-.34.76-.4.57-.14.89.32,1.14.68.25.36-.18.59-.44.78-1.2.85-2.49.94-3.8.31-1.3-.63-1.78-1.79-1.81-3.3h0Z"/>
  <path class="cls-2" d="M229.8,176.83c.68,0,1.37.07,1.84.6.27.3,1.02.51.59,1.08-.31.41-.76.67-1.47.29-1.45-.78-2.69-.16-2.88,1.3-.1.76.05,1.44.74,1.88.65.43,1.39.51,2,.04.7-.54,1.25-.24,1.55.29.43.74-.39.94-.82,1.19-1.2.69-3.03.48-4.04-.38-1-.86-1.4-2.62-.91-3.94.58-1.55,1.75-2.36,3.39-2.34h0Z"/>
  <path class="cls-2" d="M198.57,183.88c-.73.01-1.2-.07-1.6-.36-.37-.27-.89-.51-.48-1.12.31-.47.6-.86,1.24-.36.34.27.86.46,1.13-.01.3-.53-.28-.71-.61-.94-.38-.28-.82-.5-1.17-.82-.86-.79-.93-2.02-.22-2.82.7-.8,2.13-.84,2.98-.08.27.24.7.48.28.91-.28.29-.43.98-1.09.45-.3-.24-.74-.45-.95.03-.16.37.3.52.58.7.36.23.76.42,1.08.7.75.66,1.03,1.48.64,2.45-.36.92-1.1,1.26-1.8,1.29h0Z"/>
  <path class="cls-2" d="M95.57,183.69c.93-1.79,1.75-3.37,2.59-4.97-.55-.33-1.08-.17-1.57-.18-.63-.01-.66-.38-.67-.85,0-.45.13-.74.63-.73.14,0,.29,0,.43,0,2.53-.11,3.24.96,2.12,3.2-.13.26-.22.53-.37.77-.64.97-.63,1.54.78,1.38.46-.05.98-.11,1,.65.03.84-.54.74-1.06.74-1.22,0-2.44,0-3.88,0h0Z"/>
  <path class="cls-2" d="M132.34,181.08c-.12-.95-.09-1.92-.4-2.96-.32-1.07.28-2.44.88-3.5.37-.65,1.39-.61,1.91-.1.47.46.32,1.06-.48,1.41-.44.19-.39.78.16.97.74.26.67,1.11.44,1.25-1.5.94-.65,2.37-.85,3.56-.08.47,0,.95-.03,1.43-.02.54-.43.54-.82.54-.4,0-.79,0-.79-.56,0-.67,0-1.34,0-2.05h0Z"/>
  <path class="cls-2" d="M109.15,181.02c-.16-.92.43-2.08-.71-2.89-.14-.1-.09-.82.07-.92.8-.47.65-1.21.62-1.89-.02-.65.28-.81.86-.81s.75.29.73.8c-.03.76-.1,1.51.82,1.91.14.06.21.82.07.91-1.65,1.16-.59,2.85-.88,4.26-.05.23,0,.48-.02.72-.02.53-.37.59-.79.58-.41,0-.78-.03-.78-.58v-2.09h0Z"/>
  <path class="cls-2" d="M188.27,179.12c0,1.24-.02,2.48,0,3.72.01.6-.2.86-.82.86s-.86-.2-.85-.83c.02-2.48.02-4.96,0-7.44,0-.6.2-.87.82-.86.6,0,.87.2.85.83-.03,1.24,0,2.48,0,3.72h0Z"/>
  <path class="cls-2" d="M40.94,180.23v-.28c0-.86-.17-1.76.06-2.55.34-1.16,1.42.19,2.06-.41.28-.26.84-.27,1,.11.19.43.01,1.17-.36,1.24-1.32.26-1.03,1.3-1.13,2.1-.09.75-.05,1.52-.03,2.28.01.59-.07,1-.83.99-.81,0-.77-.51-.77-1.05,0-.81,0-1.61,0-2.42h0Z"/>
  <path class="cls-2" d="M208.14,180.24c0-.81.04-1.62-.01-2.42-.05-.86.45-1.02,1.07-.81.41.14.67.3,1.09-.02.34-.26.92-.31,1.08.19.13.43-.09,1.14-.5,1.2-1.32.2-1.02,1.17-1.07,1.96-.06.8-.04,1.61,0,2.42.02.64-.16.96-.87.95-.67-.01-.78-.36-.77-.9.02-.85,0-1.71,0-2.56h0Z"/>
  <path class="cls-2" d="M67.66,180.32v-1.14c0-2.22.43-2.6,2.64-2.33.25.03.54.12.5.38-.05.42-.12,1.06-.5,1.12-1.38.25-1.02,1.27-1.06,2.11-.03.81-.02,1.62,0,2.43.01.51-.15.79-.72.8-.6.01-.88-.18-.87-.81.03-.86,0-1.71,0-2.57h0Z"/>
  <path class="cls-2" d="M142.69,180.16c0-.38-.07-.78.01-1.14.19-.86-.78-2.87,1.6-1.73.06.03.23-.15.34-.23.39-.25.87-.41,1.12.06.24.45-.01,1.14-.41,1.22-1.2.22-1,1.11-1.05,1.86-.06.9-.04,1.81-.03,2.72,0,.53-.19.77-.75.78-.61,0-.87-.2-.85-.82.03-.9,0-1.81,0-2.72h0Z"/>
  <path class="cls-2" d="M52.33,179.11c0-1.24,0-2.47,0-3.71,0-.51,0-.94.71-.95.66,0,.79.32.79.88-.01,2.47,0,4.94,0,7.41,0,.51-.02.92-.72.94-.81.02-.78-.48-.78-1.03,0-1.19,0-2.38,0-3.56h0Z"/>
  <path class="cls-2" d="M182.03,179.17c0,1.24,0,2.48,0,3.71,0,.49-.1.8-.7.82-.64.02-.82-.26-.82-.85.02-2.52.01-5.05,0-7.57,0-.49.11-.8.7-.82.64-.02.82.27.81.86-.02,1.28,0,2.57,0,3.86h0Z"/>
  <path class="cls-1" d="M238.87,165.9c-.24-1.98-.36-3.79-.72-5.56-.27-1.34.19-2.29,1.01-3.24.95,2.9.86,7.06-.3,8.8h0Z"/>
  <path class="cls-1" d="M82.71,156.74c-.09,3.28,1.1,6.18-.57,9.01-.26-2.23-.58-4.45-.75-6.68-.06-.77.57-1.37,1.33-2.33h0Z"/>
  <path class="cls-1" d="M185.39,157.17c-.06,2.85,1.45,5.74-.32,8.49.15-2.84-1.86-5.74.32-8.49Z"/>
  <path class="cls-2" d="M94.94,180.28c0,.85,0,1.71,0,2.56,0,.56-.19.86-.83.86-.69,0-.76-.37-.75-.9.01-1.66.02-3.32,0-4.98,0-.6.21-.86.82-.87.66-.01.79.36.78.91-.01.81,0,1.61,0,2.42h0Z"/>
  <path class="cls-2" d="M113.75,180.4c0,.81-.01,1.62,0,2.42.01.57-.13.89-.79.87-.58-.01-.72-.29-.72-.8.01-1.71.02-3.42,0-5.13,0-.57.26-.73.78-.74.58,0,.73.29.72.8-.01.86,0,1.71,0,2.57h0Z"/>
  <path class="cls-2" d="M171.71,180.42c0,.81-.02,1.61,0,2.42.02.57-.15.88-.8.86-.59-.02-.7-.32-.7-.82.01-1.66.02-3.32,0-4.99,0-.57.14-.89.79-.86.58.02.71.32.71.82-.01.86,0,1.71,0,2.56h0Z"/>
  <path class="cls-1" d="M225.52,160.86c-.16-.46.77-.67.15-1.01-.68-.38-.6-.8-.25-1.27.43-.57.89-1.16,1.73-1.08.24.02.51.09.49.4-.02.3-.15.59-.51.56-.45-.04-1.15-.31-1.11.34.03.5.83.43,1.34.45.32.01.66-.09,1.04.26-.87.76-1.96.86-2.89,1.34h0Z"/>
  <path class="cls-1" d="M54.87,158.28c-.45.79-.86,1.52-1.86.78-.44-.32-.76-.09-1.13.18-.56.4-.99-.08-1.4-.35-.44-.28-.09-.56.11-.8.37-.45.75-.7,1.32-.25.23.18.55.51.87.17.86-.93,1.4-.06,2.09.27h0Z"/>
  <path class="cls-1" d="M127.51,158.56c.41-.39.64-1.19,1.3-.9.68.3,1.15.63,1.86,0,.38-.34.86.2,1.24.45.36.24.09.49-.08.7-.26.32-.51.8-1.02.53-.66-.35-1.19-.45-1.92-.02-.42.25-1.01-.29-1.38-.77h0Z"/>
  <path class="cls-1" d="M107.78,168.67c.22-.24.65-.79.69-.76.89.59,1.78-.07,2.64.05.26.04,1,.22.66.81-.21.37-.46,1.09-1.18.64-.49-.3-.87-.39-1.4.02-.41.32-1.45-.27-1.41-.76h0Z"/>
  <path class="cls-1" d="M12.28,157.89c-.36-.26-.78-.44-1.02-.76-.18-.24.19-.48.35-.7.26-.35.57-.55.94-.19.51.5.87.27,1.33-.09.51-.41.85.19,1.24.38.36.18.15.47-.06.69-.31.34-.57.88-1.13.38-.66-.59-1.11.03-1.65.29h0Z"/>
  <path class="cls-1" d="M192.49,155.99c.6.82,1.2.38,1.91.02.2-.1.77.32,1.05.61.26.27-.13.49-.29.7-.23.3-.47.64-.92.3-.47-.35-.87-.41-1.38.03-.47.4-.86-.13-1.24-.36-.25-.15-.24-.4-.03-.59.26-.25.38-.68.91-.7h0Z"/>
  <path class="cls-1" d="M151.97,156.96c-.37.41-.78,1.03-.9.98-.88-.38-1.71-.05-2.56-.05-.29,0-.99-.24-.69-.79.21-.39.51-1.19,1.26-.6.46.36.78.29,1.24-.05.71-.54,1.02.28,1.65.52h0Z"/>
  <path class="cls-1" d="M22.89,169.81c-.79-.96-1.49-.49-2.23-.29-.25.07-.71-.3-.92-.58-.27-.36.22-.55.38-.81.26-.44.6-.4.93-.09.46.43.8.25,1.21-.11.49-.43.85.12,1.25.3.21.09.46.24.24.52-.25.34-.53.65-.86,1.06Z"/>
  <path class="cls-1" d="M92.04,159.13c-.23.13-.45.34-.71.39-.43.07-.83-.16-1.16-.41-.29-.22,0-.4.15-.55.32-.31.59-.81,1.16-.35.32.26.66.36,1.01.03.61-.57,1.04.04,1.49.28.28.15.06.39-.08.58-.36.47-.75.71-1.31.3-.15-.11-.34-.16-.54-.25h0Z"/>
  <path class="cls-1" d="M72.2,168.42c.42.79,1.38.08,1.32.78-.06.67-1.01.54-1.55.75-.56.22-.86-.59-1.03-.86-.32-.5.3-.99.76-1.33.3-.23.74-.42,1.05-.11.58.58-.62.58-.54.78h0Z"/>
  <path class="cls-1" d="M122.91,155.9c-.76-1.59-.58-2.37.59-2.55.36-.05.88.07.67.4-.63.97.28.86.74,1.11-.55.71-1.4.63-2.02,1.01l.02.03h0ZM123.36,154.69c.28.04.43-.13.43-.3,0-.11-.23-.27-.38-.31-.22-.05-.48.03-.45.31,0,.11.26.2.4.3Z"/>
  <path class="cls-1" d="M63.84,169.39c-.54-.34-1.38-.4-1.41-.92-.03-.55.62-1.17,1.2-1.18.53-.01,1.42.28,1.45.85.02.52-.74.89-1.24,1.25h0Z"/>
  <path class="cls-1" d="M105.82,158.83c-.31.52-.74.95-1.31.93-.56-.02-1.19-.4-1.16-1,.03-.52.58-1.1,1.12-1.08.6.02.97.66,1.35,1.15h0Z"/>
  <path class="cls-2" d="M170.95,174.31c.57.02.92.32.94.86.02.55-.19,1.07-.82,1.16-.65.09-.98-.36-1.02-.93-.04-.58.28-.99.89-1.09h0Z"/>
  <path class="cls-2" d="M94.09,176.36c-.69-.05-.84-.62-.88-1.1-.06-.61.38-.95.98-.94.59.01.82.44.8.96-.02.55-.24,1.01-.89,1.08h0Z"/>
  <path class="cls-2" d="M113.95,175.23c-.03.74-.36,1.13-.97,1.11-.55-.01-.86-.4-.88-.94-.02-.61.29-1.02.9-1.07.72-.07.79.53.95.91h0Z"/>
  <path class="cls-1" d="M122.89,155.86c-.05.06-.1.12-.15.18l-.04-.18c.07,0,.14.02.21.03l-.02-.03h0Z"/>
  <path class="cls-3" d="M75.73,183.29c.08-.03.18-.12.22-.1.16.09.09.21,0,.32-.07-.07-.15-.15-.22-.22Z"/>
</svg>