<?xml version="1.0" encoding="UTF-8"?>
<svg id="Layer_1" data-name="Layer 1" xmlns="http://www.w3.org/2000/svg" viewBox="0 0 250 200">
  <defs>
    <style>
      .cls-1 {
        fill: #1d9146;
      }

      .cls-1, .cls-2 {
        stroke-width: 0px;
      }

      .cls-2 {
        fill: #bcbcbc;
      }
    </style>
  </defs>
  <g id="Layer_1-2" data-name="Layer 1-2">
    <g>
      <polygon class="cls-2" points="135.47 16.91 97.05 35.25 48.82 35.25 48.82 16.91 135.47 16.91"/>
      <rect class="cls-2" x="48.82" y="55.1" width="34.94" height="18.37"/>
      <path class="cls-2" d="M144,111.21H48.82v-18.37h34.94v1.54h39.57s12.37,6.32,20.67,16.83Z"/>
      <rect class="cls-2" x="48.82" y="130.58" width="34.94" height="18.34"/>
      <polygon class="cls-2" points="102.98 168.32 138.72 186.66 48.82 186.66 48.82 168.32 102.98 168.32"/>
      <path class="cls-1" d="M151.98,90.24v-30.74h-16.95v23.21c1.39,4.08,3.01,7.41,4.7,10.13,3.9,6.23,8.21,9.24,11.13,10.66,2.07,1,3.4,1.24,3.4,1.24h46.93v52.21l-50.32,27.91-3.28,1.8h-8.86l-35.73-18.34-19.22-9.86v-46.72h51.27v30.71h16.39v-12.26c0-7.24-3.19-13.64-7.41-18.99-8.3-10.51-20.67-16.83-20.67-16.83h-39.57v-52.77l13.29-6.35,38.42-18.34,7.47-3.57,7.62,3.57.3.15,50.32,23.6v49.58h-49.2Z"/>
    </g>
  </g>
</svg>