<?xml version="1.0" encoding="UTF-8"?>
<svg id="Layer_1" data-name="Layer 1" xmlns="http://www.w3.org/2000/svg" viewBox="0 0 250 200">
  <defs>
    <style>
      .cls-1 {
        fill: #188dca;
      }

      .cls-1, .cls-2, .cls-3 {
        stroke-width: 0px;
      }

      .cls-2 {
        fill: #1b8ec9;
      }

      .cls-3 {
        fill: #f9fcfd;
      }
    </style>
  </defs>
  <g id="HdE3ng.tif">
    <g>
      <path class="cls-3" d="M125,189.23c-29.74,0-59.49,0-89.23.02-.75,0-.92-.17-.92-.92.02-58.88.02-117.77,0-176.65,0-.75.17-.92.92-.92,59.49.02,118.97.02,178.46,0,.75,0,.92.17.92.92-.02,58.88-.02,117.77,0,176.65,0,.75-.17.92-.92.92-29.74-.02-59.49-.02-89.23-.02ZM125.02,10.97c-29.61,0-59.22,0-88.82-.02-.89,0-1.15.19-1.15,1.13.02,58.61.02,117.23,0,175.84,0,.94.27,1.12,1.15,1.12,59.18-.02,118.36-.02,177.55,0,.94,0,1.2-.19,1.2-1.18-.03-58.58-.03-117.16,0-175.74,0-.99-.27-1.18-1.21-1.18-29.57.03-59.15.02-88.72.02Z"/>
      <path class="cls-1" d="M125.02,10.97c29.57,0,59.15,0,88.72-.02.94,0,1.21.19,1.21,1.18-.03,58.58-.03,117.16,0,175.74,0,.99-.26,1.18-1.2,1.18-59.18-.02-118.36-.02-177.55,0-.88,0-1.15-.18-1.15-1.12.03-58.61.03-117.23,0-175.84,0-.94.26-1.13,1.15-1.13,29.61.02,59.22.02,88.82.02ZM43.3,56.55c.13.33.41.28.67.28,3.85,0,7.71,0,11.56,0,.29,0,.62.08.74-.33.43-.05.86-.09,1.29-.16,3.77-.58,6.69-2.36,8.3-5.95,1.54-3.42.61-7-2.25-8.74-.45-.27-.94-.48-1.5-.75,1.08-.42,2.02-.89,2.85-1.56,2.45-2.01,3.16-4.63,2.52-7.63-.58-2.72-2.44-4.17-5.07-4.77-.98-.22-1.97-.35-2.97-.35-3.34,0-6.67.02-10.01-.02-.75-.01-.95.26-1.07.93-1.19,6.79-2.42,13.58-3.61,20.37-.51,2.88-1.12,5.75-1.45,8.66ZM174.6,60.26c-.03-.13-.09-.25-.1-.38-.23-10.4-.61-20.8-1.08-31.19-.13-2.79-.02-5.62-.93-8.32-.41-1.22-.93-2.5-2.4-2.67-1.41-.17-2.22.9-2.93,1.93-1.15,1.64-1.74,3.52-2.21,5.44-4.65,19.01-9.27,38.02-13.3,57.17-.05.26-.02.63-.34.64-.42.01-.35-.42-.4-.69-.44-2.19-.85-4.39-1.3-6.57-.54-2.61-1.05-5.24-2.28-7.64-1.38-2.69-3.56-3.49-6.35-2.37-1.58.63-2.89,1.67-4.1,2.82-2.73,2.59-5.92,3.71-9.72,3.67-10.01-.11-20.02-.04-30.04-.04-2.69,0-2.72,0-3.13,2.62-.12.79-.52,1.58-.23,2.41.27.3.62.19.94.19,11.91,0,23.81,0,35.72,0,.35,0,.75.13,1.01-.24.09-.06.18-.09.26.02.27.02.54.09.73-.19.94-.33,1.9-.63,2.82-.99,2.06-.82,3.83-2.15,5.67-3.35,1.74-1.13,2.42-.85,3.01,1.14.1.35.19.71.27,1.07.62,2.73,1.2,5.47,1.85,8.19.53,2.24,1.1,4.48,2.05,6.58,1.19,2.64,3.36,2.92,5.23.7,1.05-1.25,1.68-2.72,2.09-4.28.66-2.52,1.28-5.04,1.9-7.57,3.72-15.15,7.16-30.37,10.72-45.56.08-.35.05-.88.51-.84.47.04.34.57.35.91.06,2.77.11,5.54.17,8.3.24,10.07.49,20.13,1.27,30.18.12,1.49.12,3.01.79,4.41.88,1.85,2.38,2.35,4.21,1.41,1.1-.57,1.9-1.46,2.57-2.47,1.41-2.11,2.8-4.23,4.2-6.34,1.33-2.01,2.31-2.21,4.3-.88.77.52,1.54,1.06,2.32,1.57,4.47,2.95,9.46,3.61,14.66,3.32.63-.03.92-.26.99-.94.11-1.02.35-2.04.58-3.05.13-.57.03-.78-.61-.74-1.03.06-2.07,0-3.1.03-3.63.08-6.9-.84-9.73-3.24-1.29-1.1-2.7-2.07-4.12-3.01-2.24-1.48-4.21-1.28-6.19.53-.86.79-1.65,1.65-2.38,2.57-1.17,1.46-2.19,3.03-3.22,4.58-.14.21-.25.56-.55.5-.4-.08-.27-.48-.28-.76-.03-1.33-.05-2.66-.08-4,.43-1.32.07-2.67.18-4.01.02-.23,0-.47-.27-.58ZM120.42,127.13c2.47,0,4.94.02,7.41,0,5.8-.07,10.12-3.02,11.53-8.13,1.19-4.31,1.69-8.77,2.33-13.19.25-1.75-.7-2.9-2.42-3.4-.62-.18-1.26-.08-1.89-.14-.61-.05-.85.15-.96.8-.75,4.61-1.53,9.21-2.33,13.8-.6,3.46-2.35,5-5.87,5.03-5.11.05-10.21,0-15.32.02-.68,0-.86-.2-.74-.87.39-2.06.79-4.13,1.09-6.21.52-3.65.03-7.07-2.65-9.86-3.32-3.45-9.36-4.37-14.04-2.06-5.57,2.75-8.13,7.51-8.57,13.5-.44,6,3.99,10.66,10.01,10.68,2.3.01,4.61.02,6.91,0,.65,0,.86.19.64.82-.28.82-.58,1.63-1.12,2.33-1.52,1.97-3.62,2.65-5.98,2.68-3.27.03-6.54,0-9.81,0q-1.71,0-1.9,1.71c-.22,2.03.09,2.5,2.07,3.03.35.09.71.16,1.08.22,2.72.43,5.46.22,8.19.22,6.61,0,11.36-3.69,13.01-10.12.19-.75.53-.92,1.24-.91,2.7.04,5.41.01,8.11.01ZM61.35,127.13s0-.02,0-.04c3.3,0,6.61.12,9.91-.03,5.25-.23,8.94-2.98,10.55-7.64.49-1.42.72-2.91.96-4.39.48-2.89.99-5.78,1.46-8.68.39-2.41-.98-4.03-3.43-4.08-.27,0-.54.03-.8,0-.68-.09-.9.21-1.01.87-.78,4.7-1.59,9.4-2.42,14.1-.48,2.76-1.81,4.06-4.59,4.54-.59.1-1.19.14-1.79.14-2.9.01-5.81,0-8.71,0-2.87,0-5.74.02-8.61,0-2.6-.02-4.11-1.61-3.74-3.94.65-4.05,1.34-8.09,2.03-12.13.87-5.09,1.76-10.19,2.62-15.28.31-1.86-.46-3.09-2.24-3.71-.7-.24-1.42-.29-2.16-.34-.82-.06-1.14.17-1.29,1.04-1.48,8.94-3.01,17.88-4.54,26.82-.35,2.08-.69,4.15-.22,6.25.84,3.76,4.39,6.45,8.69,6.5,3.1.04,6.21,0,9.31,0ZM100.87,38.14c-.11-.46-.14-.91-.32-1.3-.68-1.48-1.96-1.74-3.43-1.69-.59.02-.86.13-.98.79-1.46,8.34-2.97,16.67-4.44,25.01-.43,2.46.99,4.05,3.45,3.99.53-.01.76-.17.84-.72.27-1.65.6-3.28.91-4.92.35-1.88.7-3.77,1.09-5.88,1.14,1.45,2.33,2.51,3.89,3.01,3.48,1.13,6.76.6,9.72-1.47,4.6-3.23,6.48-10.4,4.13-15.56-1.22-2.69-3.3-4.37-6.28-4.67-3.36-.33-6.24.76-8.59,3.38ZM135.13,53.72c.53,2.14,1.49,2.87,3.64,2.86.64,0,.82-.22.93-.83.52-3.15,1.11-6.3,1.67-9.45.61-3.44,1.21-6.89,1.83-10.33.12-.66-.04-.9-.74-.87-1.06.05-2.13.04-3.2,0-.49-.01-.72.15-.8.64-.12.74-.29,1.46-.48,2.36-.71-.9-1.35-1.6-2.18-2.12-3.1-1.96-7.78-1.78-10.96.57-4.02,2.96-5.58,7.15-5.37,11.98.16,3.71,1.89,6.69,5.53,7.95,3.63,1.25,6.97.45,9.69-2.41.13-.14.2-.36.45-.35ZM78.36,56.97c.4,0,.8.02,1.2,0,4.99-.31,8.39-2.84,9.51-7.27.95-3.75,1.51-7.58,2.12-11.4.26-1.66-.83-2.93-2.5-3.11-.33-.03-.67.02-1-.02-.75-.11-1.04.21-1.16.95-.68,4.11-1.39,8.21-2.13,12.31-.57,3.17-2.45,4.66-5.67,4.6-2.83-.06-4.22-1.73-3.75-4.51.57-3.35,1.15-6.7,1.71-10.05.28-1.7-.53-2.87-2.22-3.2-.48-.1-1-.04-1.49-.09-.57-.06-.83.15-.91.75-.15,1.16-.41,2.3-.61,3.45-.53,3.02-1.12,6.03-1.56,9.06-.53,3.62,1.15,6.48,4.45,7.86,1.28.53,2.62.76,4.01.68ZM64.51,132.91c0-1.82-1.42-3.3-3.17-3.29-1.71.01-3.14,1.47-3.16,3.22-.02,1.82,1.4,3.26,3.18,3.26,1.75,0,3.14-1.41,3.15-3.19ZM123.76,136.1c1.76,0,3.14-1.39,3.14-3.18,0-1.87-1.36-3.3-3.14-3.3-1.72,0-3.13,1.43-3.14,3.2-.02,1.86,1.34,3.27,3.15,3.27Z"/>
      <path class="cls-3" d="M93.76,77.07c-.29-.84.11-1.62.23-2.41.41-2.63.43-2.62,3.13-2.62,10.01,0,20.03-.07,30.04.04,3.8.04,6.99-1.08,9.72-3.67,1.21-1.15,2.52-2.18,4.1-2.82,2.78-1.12,4.96-.32,6.35,2.37,1.24,2.4,1.74,5.03,2.28,7.64.46,2.19.86,4.38,1.3,6.57.05.27-.01.7.4.69.32,0,.29-.38.34-.64,4.04-19.15,8.66-38.16,13.3-57.17.47-1.91,1.06-3.8,2.21-5.44.72-1.03,1.53-2.1,2.93-1.93,1.47.18,1.99,1.45,2.4,2.67.91,2.7.8,5.53.93,8.32.47,10.39.85,20.79,1.08,31.19,0,.13.06.25.1.38.03,1.53.06,3.06.09,4.59.02,1.33.04,2.67.08,4,0,.28-.12.68.28.76.3.06.41-.29.55-.5,1.04-1.55,2.05-3.12,3.22-4.58.73-.91,1.52-1.78,2.38-2.57,1.97-1.81,3.95-2.01,6.19-.53,1.42.94,2.82,1.91,4.12,3.01,2.83,2.4,6.1,3.32,9.73,3.24,1.03-.02,2.07.04,3.1-.03.64-.04.74.17.61.74-.23,1.01-.46,2.02-.58,3.05-.07.68-.36.9-.99.94-5.2.28-10.19-.37-14.66-3.32-.78-.51-1.55-1.05-2.32-1.57-1.98-1.34-2.96-1.14-4.3.88-1.4,2.11-2.8,4.23-4.2,6.34-.67,1.01-1.47,1.9-2.57,2.47-1.83.94-3.32.44-4.21-1.41-.66-1.39-.67-2.92-.79-4.41-.78-10.04-1.03-20.11-1.27-30.18-.07-2.77-.11-5.54-.17-8.3,0-.34.12-.87-.35-.91-.46-.04-.43.49-.51.84-3.56,15.19-7,30.41-10.72,45.56-.62,2.52-1.24,5.05-1.9,7.57-.41,1.56-1.03,3.04-2.09,4.28-1.87,2.22-4.04,1.94-5.23-.7-.95-2.1-1.52-4.34-2.05-6.58-.64-2.72-1.23-5.46-1.85-8.19-.08-.36-.17-.71-.27-1.07-.59-2-1.27-2.28-3.01-1.14-1.84,1.2-3.61,2.53-5.67,3.35-.93.37-1.88.67-2.82.99-.26,0-.53-.05-.73.19-.08-.1-.17-.08-.26-.01-6.13.01-12.26.02-18.39.03-6.43,0-12.86.02-19.29.03Z"/>
      <path class="cls-3" d="M120.42,127.13c-2.7,0-5.41.02-8.11-.01-.7,0-1.04.16-1.24.91-1.65,6.43-6.4,10.13-13.01,10.12-2.73,0-5.47.21-8.19-.22-.36-.06-.72-.13-1.08-.22-1.98-.53-2.29-1-2.07-3.03q.19-1.71,1.9-1.71c3.27,0,6.54.02,9.81,0,2.37-.02,4.46-.71,5.98-2.68.54-.7.84-1.51,1.12-2.33.22-.63,0-.83-.64-.82-2.3.02-4.6.02-6.91,0-6.02-.03-10.45-4.69-10.01-10.68.44-5.99,3-10.76,8.57-13.5,4.68-2.31,10.72-1.39,14.04,2.06,2.68,2.79,3.17,6.21,2.65,9.86-.3,2.08-.69,4.14-1.09,6.21-.13.67.05.87.74.87,5.11-.02,10.21.02,15.32-.02,3.52-.03,5.27-1.57,5.87-5.03.8-4.6,1.59-9.2,2.33-13.8.11-.65.35-.85.96-.8.63.05,1.26-.04,1.89.14,1.72.49,2.68,1.64,2.42,3.4-.64,4.42-1.15,8.88-2.33,13.19-1.41,5.11-5.72,8.06-11.53,8.13-2.47.03-4.94,0-7.41,0ZM101.94,121.92h0c1.3,0,2.6-.02,3.91,0,.48,0,.69-.12.77-.65.35-2.24.81-4.46,1.13-6.7.25-1.74.03-3.47-.56-5.13-.62-1.76-1.79-2.99-3.68-3.3-1.58-.25-3.13-.03-4.58.7-3.82,1.93-6.14,7.06-5.06,11.21.69,2.64,2.24,3.85,4.97,3.85,1.03,0,2.07,0,3.1,0Z"/>
      <path class="cls-3" d="M61.35,127.13c-3.1,0-6.21.03-9.31,0-4.29-.05-7.85-2.73-8.69-6.5-.47-2.1-.13-4.18.22-6.25,1.52-8.94,3.06-17.87,4.54-26.82.14-.88.47-1.1,1.29-1.04.74.05,1.46.1,2.16.34,1.79.61,2.56,1.85,2.24,3.71-.86,5.1-1.75,10.19-2.62,15.28-.69,4.04-1.38,8.08-2.03,12.13-.38,2.34,1.14,3.92,3.74,3.94,2.87.02,5.74,0,8.61,0,2.9,0,5.81,0,8.71,0,.6,0,1.2-.04,1.79-.14,2.78-.47,4.1-1.78,4.59-4.54.82-4.7,1.64-9.39,2.42-14.1.11-.65.33-.96,1.01-.87.26.04.53,0,.8,0,2.45.05,3.82,1.67,3.43,4.08-.47,2.89-.99,5.78-1.46,8.68-.24,1.48-.47,2.97-.96,4.39-1.61,4.65-5.3,7.4-10.55,7.64-3.3.15-6.61.03-9.91.03,0,.01,0,.02,0,.04Z"/>
      <path class="cls-3" d="M43.3,56.55c.33-2.91.95-5.78,1.45-8.66,1.19-6.79,2.42-13.58,3.61-20.37.12-.68.32-.94,1.07-.93,3.33.05,6.67.02,10.01.02,1,0,1.99.13,2.97.35,2.63.6,4.49,2.04,5.07,4.77.64,3-.06,5.62-2.52,7.63-.83.68-1.77,1.15-2.85,1.56.56.28,1.05.48,1.5.75,2.87,1.74,3.79,5.32,2.25,8.74-1.61,3.58-4.53,5.37-8.3,5.95-.43.07-.86.1-1.29.16-4.33.02-8.65.03-12.98.05ZM52.46,53.03s0,.03,0,.04c1.03-.06,2.07-.07,3.09-.18,1.77-.19,3.26-.96,4.35-2.38,1.1-1.42,1.59-3.02.91-4.78-.64-1.68-2.02-2.39-3.73-2.58-1.83-.2-3.66-.04-5.49-.09-.57-.02-.61.39-.68.79-.46,2.56-.92,5.11-1.37,7.67-.26,1.49-.25,1.49,1.32,1.49.53,0,1.07,0,1.6,0ZM54.7,39.44c.6,0,1.2.01,1.8,0,2.96-.07,4.97-1.77,5.52-4.65.5-2.64-1.18-4.73-3.87-4.78-1.3-.02-2.6.03-3.9-.02-.67-.02-.93.2-1.04.87-.42,2.6-.89,5.19-1.37,7.78-.11.6-.02.87.66.82.73-.05,1.47-.01,2.2-.01Z"/>
      <path class="cls-3" d="M100.87,38.14c2.36-2.62,5.23-3.71,8.59-3.38,2.97.29,5.06,1.98,6.28,4.67,2.34,5.16.47,12.32-4.13,15.56-2.96,2.08-6.24,2.6-9.72,1.47-1.56-.51-2.75-1.57-3.89-3.01-.39,2.11-.74,3.99-1.09,5.88-.31,1.64-.64,3.27-.91,4.92-.09.55-.31.7-.84.72-2.46.06-3.88-1.53-3.45-3.99,1.47-8.34,2.98-16.67,4.44-25.01.12-.66.39-.77.98-.79,1.46-.05,2.75.21,3.43,1.69.18.38.21.83.32,1.3ZM99.77,47.36c0,.37-.04.74,0,1.1.26,2.1,1.04,3.91,3.19,4.68,2.07.74,4,.28,5.51-1.3,2.67-2.8,3.47-6.19,2.47-9.89-.76-2.81-3.18-3.95-5.96-3.05-1.24.4-2.26,1.14-3.05,2.16-1.43,1.85-2.15,3.96-2.16,6.3Z"/>
      <path class="cls-3" d="M135.13,53.72c-.25,0-.32.22-.45.35-2.72,2.86-6.06,3.67-9.69,2.41-3.64-1.26-5.36-4.24-5.53-7.95-.21-4.82,1.35-9.01,5.37-11.98,3.18-2.34,7.85-2.52,10.96-.57.82.52,1.47,1.22,2.18,2.12.19-.9.37-1.63.48-2.36.08-.5.31-.66.8-.64,1.07.03,2.14.04,3.2,0,.7-.03.86.21.74.87-.63,3.44-1.22,6.89-1.83,10.33-.56,3.15-1.14,6.29-1.67,9.45-.1.62-.28.83-.93.83-2.14,0-3.11-.72-3.64-2.86ZM124.72,47.28c.01.24.02.77.08,1.3.44,3.69,3.7,5.48,7.04,3.85.5-.25.99-.57,1.39-.95,2.55-2.45,3.43-5.5,2.91-8.93-.3-2.02-1.36-3.57-3.44-4.11-2.22-.58-4.1.14-5.57,1.83-1.65,1.91-2.42,4.19-2.41,7.02Z"/>
      <path class="cls-3" d="M78.36,56.97c-1.39.08-2.73-.15-4.01-.68-3.31-1.38-4.98-4.24-4.45-7.86.44-3.03,1.03-6.04,1.56-9.06.2-1.15.45-2.29.61-3.45.08-.6.33-.81.91-.75.5.05,1.01,0,1.49.09,1.69.34,2.5,1.5,2.22,3.2-.56,3.35-1.14,6.7-1.71,10.05-.47,2.78.93,4.45,3.75,4.51,3.22.07,5.09-1.43,5.67-4.6.74-4.1,1.45-8.2,2.13-12.31.12-.74.4-1.06,1.16-.95.33.05.67-.01,1,.02,1.67.18,2.76,1.45,2.5,3.11-.61,3.82-1.17,7.65-2.12,11.4-1.12,4.43-4.53,6.96-9.51,7.27-.4.02-.8,0-1.2,0Z"/>
      <path class="cls-3" d="M64.51,132.91c0,1.78-1.4,3.19-3.15,3.19-1.79,0-3.2-1.45-3.18-3.26.02-1.75,1.45-3.21,3.16-3.22,1.75-.01,3.18,1.47,3.17,3.29Z"/>
      <path class="cls-3" d="M123.76,136.1c-1.8,0-3.17-1.42-3.15-3.27.02-1.77,1.42-3.21,3.14-3.2,1.78,0,3.15,1.44,3.14,3.3,0,1.79-1.38,3.18-3.14,3.18Z"/>
      <path class="cls-2" d="M93.76,77.07c6.43,0,12.86-.02,19.29-.03,6.13,0,12.26-.02,18.39-.03-.26.38-.66.24-1.01.24-11.91,0-23.81,0-35.72,0-.32,0-.68.11-.94-.19Z"/>
      <path class="cls-2" d="M43.3,56.55c4.33-.01,8.65-.03,12.98-.05-.12.4-.45.33-.74.33-3.85,0-7.71,0-11.56,0-.26,0-.55.04-.67-.28Z"/>
      <path class="cls-2" d="M174.68,64.85c-.03-1.53-.06-3.06-.09-4.59.27.11.29.34.27.58-.11,1.33.24,2.69-.18,4.01Z"/>
      <path class="cls-2" d="M131.68,77.03c.2-.24.47-.2.73-.19-.19.28-.47.21-.73.19Z"/>
      <path class="cls-2" d="M101.94,121.92c-1.03,0-2.07,0-3.1,0-2.72,0-4.28-1.21-4.97-3.85-1.08-4.16,1.24-9.29,5.06-11.21,1.45-.73,3-.95,4.58-.7,1.9.3,3.06,1.54,3.68,3.3.59,1.66.81,3.39.56,5.13-.32,2.24-.78,4.46-1.13,6.7-.08.53-.29.65-.77.65-1.3-.02-2.6,0-3.91,0h0Z"/>
      <path class="cls-2" d="M52.46,53.03c-.53,0-1.07,0-1.6,0-1.57,0-1.58,0-1.32-1.49.45-2.56.91-5.11,1.37-7.67.07-.4.11-.81.68-.79,1.83.05,3.66-.11,5.49.09,1.71.19,3.09.9,3.73,2.58.67,1.75.19,3.35-.91,4.78-1.09,1.41-2.58,2.19-4.35,2.38-1.02.11-2.06.12-3.09.18,0-.01,0-.03,0-.04Z"/>
      <path class="cls-2" d="M54.7,39.44c-.73,0-1.47-.04-2.2.01-.68.05-.77-.23-.66-.82.48-2.59.95-5.18,1.37-7.78.11-.66.37-.89,1.04-.87,1.3.05,2.6,0,3.9.02,2.68.05,4.36,2.13,3.87,4.78-.54,2.89-2.56,4.59-5.52,4.65-.6.01-1.2,0-1.8,0Z"/>
      <path class="cls-2" d="M99.77,47.36c0-2.34.73-4.45,2.16-6.3.79-1.03,1.81-1.76,3.05-2.16,2.78-.9,5.2.25,5.96,3.05,1,3.7.2,7.09-2.47,9.89-1.51,1.58-3.44,2.04-5.51,1.3-2.15-.77-2.93-2.58-3.19-4.68-.05-.36,0-.73,0-1.1Z"/>
      <path class="cls-2" d="M124.72,47.28c0-2.83.76-5.1,2.41-7.02,1.47-1.7,3.35-2.42,5.57-1.83,2.09.55,3.14,2.1,3.44,4.11.52,3.43-.36,6.48-2.91,8.93-.4.39-.89.71-1.39.95-3.34,1.63-6.6-.16-7.04-3.85-.06-.53-.06-1.06-.08-1.3Z"/>
    </g>
  </g>
</svg>