<?xml version="1.0" encoding="UTF-8"?>
<svg id="Layer_1" data-name="Layer 1" xmlns="http://www.w3.org/2000/svg" viewBox="0 0 250 200">
  <defs>
    <style>
      .cls-1 {
        fill: #2b2764;
      }

      .cls-1, .cls-2, .cls-3 {
        stroke-width: 0px;
      }

      .cls-2 {
        fill: #08af9b;
      }

      .cls-3 {
        fill: #757d91;
      }
    </style>
  </defs>
  <g>
    <polygon class="cls-1" points="140.48 45.25 171.44 14.29 109.52 14.29 109.52 45.25 109.52 76.21 78.56 107.17 140.48 107.17 140.48 76.21 140.48 76.21 140.48 45.25"/>
    <g>
      <polygon class="cls-2" points="140.48 45.25 140.48 76.21 140.48 76.21 171.44 76.21 171.44 14.29 140.48 45.25"/>
      <polygon class="cls-2" points="78.56 107.17 109.52 76.21 109.52 45.25 78.56 45.25 78.56 107.17"/>
    </g>
  </g>
  <g>
    <rect class="cls-3" x="86.8" y="148.3" width="4.36" height="4.36"/>
    <rect class="cls-3" x="79.74" y="148.3" width="4.36" height="4.36"/>
    <path class="cls-3" d="M71.02,137.48c0-2.56-.5-4.87-1.81-6.27-1.56-1.65-3.77-2.34-6.58-2.34h-8.8v-2.16h-4.07v17.69h-6.51c-1.84,0-3.7-.28-4.76-1.18-.97-.81-1.31-2.16-1.31-3.99v-9.17h-4.76v9.7c0,2.53.57,5.02,2.09,6.46,1.9,1.81,4.32,2.56,8.04,2.56h11.28v-3.9h17.19v-7.4ZM66.65,140.51h-12.82v-7.3h9.24c1.12,0,2.21.53,2.74,1.21.57.72.84,1.62.84,2.86v3.21h-.01Z"/>
    <polygon class="cls-3" points="93.22 127.31 88.84 127.31 88.84 140.51 80.08 140.51 80.08 119.59 75.71 119.59 75.71 144.88 93.22 144.88 93.22 127.31"/>
    <rect class="cls-3" x="120.02" y="119.59" width="4.36" height="25.3"/>
    <rect class="cls-3" x="58.84" y="120.99" width="4.34" height="4.34"/>
    <rect class="cls-3" x="200.1" y="119.59" width="4.36" height="4.42"/>
    <rect class="cls-3" x="213.15" y="148.33" width="4.36" height="4.36"/>
    <path class="cls-3" d="M146.86,144.88h70.67v-17.54h-4.36v13.2h-8.7v-13.2h-4.36v13.2h-23.29l-.04-20.96h-4.36l.04,20.96h-24.8c-1.84,0-3.58-.28-4.65-1.18-.97-.81-1.31-2.16-1.31-3.99v-5.39h-4.83v5.92c0,2.53.56,5.02,2.09,6.46,1.9,1.81,4.21,2.53,7.93,2.53h-.02Z"/>
    <path class="cls-3" d="M161.66,131.83h-4.61v-1.75c0-.66.15-1.16.45-1.52.27-.33.61-.49,1.04-.49h2.41v-2.53h-2.14c-1.38,0-2.45.44-3.2,1.3-.73.83-1.09,2.04-1.09,3.6v3.93h7.15v-2.53h-.01Z"/>
    <path class="cls-3" d="M102.24,144.88h13.1v-25.3h-4.36v20.93h-8.7v-13.2h-4.37v17.01c0,2.16-.59,3.06-2.34,3.06-.55,0-1.05-.05-1.67-.19v4.29c.54.14,1.37.26,2.15.26,4.12,0,5.96-2.06,6.21-6.85h-.01Z"/>
    <path class="cls-3" d="M52.26,165.02c0-4.13-2.81-8.1-9.78-8.1h-10.04v26.81h4.76v-10.58h4.73l6.54,10.58h5.36l-7.01-11.24c4-1.33,5.46-4.39,5.46-7.47h-.01ZM41.42,169.02h-4.23v-7.66h4.23c3.93,0,5.82,1.09,5.82,3.77,0,3.11-2.32,3.9-5.82,3.9Z"/>
    <path class="cls-3" d="M95.91,165.53c-2.42,0-4.78.62-6.18,1.31l-.56,4.43c1.7-.84,4.34-1.55,6.14-1.55,2.39,0,4.03.56,4.03,2.54v.24c-1.31-.18-2.48-.24-3.41-.24-4.75,0-8.13,2.01-8.13,5.92,0,4.28,3.91,5.8,8.28,5.8,2.57,0,5.4-.5,7.6-1.37v-10.17c0-5.08-3.29-6.91-7.78-6.91h0ZM99.35,179.58c-.93.31-2.11.5-3.2.5-2.14,0-3.82-.56-3.82-2.17s1.86-2.24,4.06-2.24c.96,0,2.14.15,2.95.37v3.53h.01Z"/>
    <path class="cls-3" d="M120.05,165.78c-1.17-.15-2.24-.25-3.01-.25-5.95,0-9.86,4.06-9.86,9.27s3.76,9.18,10.2,9.18c2.51,0,4.87-.31,7.01-.9v-24.62h-4.34v7.32ZM120.05,179.39c-.96.21-1.86.34-2.7.34-3.41,0-5.61-1.55-5.61-4.93s2.2-5.02,5.61-5.02c.78,0,1.64.09,2.7.37v9.24h0Z"/>
    <path class="cls-3" d="M79.74,178.96c-1.28.37-2.33.47-3.26.47-2.42,0-3.44-.96-3.44-4.16v-9.15h-4.37v10.39c0,5.74,3.16,7.17,7.6,7.17,1.11,0,2.3-.12,3.47-.37v.37c0,2.04-1.89,2.92-4.56,2.92-1.28,0-3.11-.31-4.68-.78v4.15c1.39.35,3.29.63,4.48.63,6.91,0,9.09-2.14,9.09-8.31v-16.16h-4.34v12.84h0Z"/>
    <path class="cls-3" d="M169.02,165.53c-2.42,0-4.78.62-6.18,1.31l-.56,4.43c1.7-.84,4.34-1.55,6.14-1.55,2.39,0,4.03.56,4.03,2.54v.24c-1.31-.18-2.48-.24-3.41-.24-4.75,0-8.13,2.01-8.13,5.92,0,4.28,3.91,5.8,8.28,5.8,2.57,0,5.4-.5,7.6-1.37v-10.17c0-5.08-3.29-6.91-7.78-6.91h0ZM172.46,179.58c-.93.31-2.11.5-3.19.5-2.14,0-3.82-.56-3.82-2.17s1.86-2.24,4.06-2.24c.96,0,2.14.15,2.95.37,0,0,0,3.53,0,3.53Z"/>
    <path class="cls-3" d="M188.2,165.65c-1.89,0-5.15.4-7.85.9v17.18h4.34v-13.49c1.25-.21,2.39-.34,3.32-.34,2.57,0,3.91.96,3.91,4.15v9.68h4.34v-10.91c0-5.74-3.59-7.17-8.06-7.17h-.01Z"/>
    <polygon class="cls-3" points="209.23 174.92 217.17 166.26 212.03 166.26 204.15 174.86 204.15 158.58 199.81 158.58 199.81 183.73 204.15 183.73 204.15 175.11 212.37 183.73 217.57 183.73 209.23 174.92"/>
    <path class="cls-3" d="M152.26,169.32c2.54-1.12,3.74-3.4,3.74-5.65,0-3.77-3.01-6.74-9.69-6.74h-9.41v26.81h10.74c4.89,0,9.75-2.25,9.75-7.87,0-2.71-1.52-5.46-5.12-6.54h0ZM141.65,161.35h4.36c3.63,0,5.05,1.29,5.05,3.14,0,2.18-1.55,3.24-5.05,3.24h-4.36v-6.38ZM146.96,179.3h-5.31v-7.11h5.18c3.5,0,5.62.76,5.62,3.57,0,2.45-1.75,3.53-5.49,3.53Z"/>
    <rect class="cls-3" x="58.84" y="166.26" width="4.34" height="17.46"/>
    <rect class="cls-3" x="58.84" y="158.44" width="4.34" height="4.34"/>
  </g>
</svg>