<?xml version="1.0" encoding="UTF-8"?>
<svg id="Layer_1" data-name="Layer 1" xmlns="http://www.w3.org/2000/svg" viewBox="0 0 250 200">
  <defs>
    <style>
      .cls-1 {
        fill: #014232;
      }

      .cls-1, .cls-2 {
        stroke-width: 0px;
      }

      .cls-2 {
        fill: #389547;
      }
    </style>
  </defs>
  <path class="cls-1" d="M222.16,104.86c2.56.19,5.09.52,7.6,1.02,3.26.65,6.4,1.65,9.32,3.3,3.53,1.98,5.33,5.07,5.86,8.97.85,6.36-2.79,12.36-9,14.9-3.6,1.47-7.39,2.2-11.23,2.65-8.04.94-16.12.37-24.17.41-7.81.04-15.62-.04-23.43-.04-.72,0-1.04-.11-.95-.92.24-2.21.45-4.42.62-6.63.34-4.41.34-8.84.35-13.26.01-8.39-.35-16.76-.72-25.14-.2-4.44-.6-8.88-.7-13.33-.02-.71.21-.83.86-.83,14.03-.02,28.05-.04,42.08-.13,2.72-.02,5.34.41,7.96,1.01,2.33.53,4.71.93,6.91,1.88,5.33,2.31,7.66,6.61,7.98,12.22.19,3.32-.87,6.13-3.36,8.35-1.79,1.6-3.89,2.65-6.13,3.47-3.05,1.12-6.21,1.7-9.43,2.04-.14.01-.27.04-.41.05ZM204.23,110.36s0-.08,0-.12c-4.48,0-8.96.01-13.44-.01-.62,0-.88.08-.87.81.04,4.91.03,9.82,0,14.73,0,.6.14.76.75.76,3.5,0,6.99.09,10.49.07,6.06-.03,12.13.43,18.18-.26,2.56-.3,5.01-1,7.16-2.53,4.29-3.06,3.99-8.83-.61-11.4-2.61-1.46-5.48-1.96-8.41-2.02-4.42-.09-8.84-.02-13.26-.02ZM204.39,101.88v-.12c4.08,0,8.16-.04,12.23.02,2.43.03,4.6-.7,6.62-1.96,4.12-2.57,4.91-7.59,1.74-11.23-2-2.29-4.72-3.28-7.64-3.32-8.85-.13-17.7-.07-26.55-.12-.59,0-.7.19-.7.73.02,5.09.02,10.18,0,15.27,0,.63.19.75.77.74,4.51-.02,9.02-.01,13.53-.01Z"/>
  <path class="cls-1" d="M103.06,87.18c-.19.4-.1.74-.1,1.07.12,13.44.25,26.89.37,40.33.02,2.17.02,4.34.05,6.5,0,.45-.05.66-.6.64-4.28-.09-8.56-.15-12.84-.18-.67,0-.81-.21-.81-.84,0-2.2.32-4.38.42-6.57.36-8.03.34-16.07.24-24.11-.12-9.28-.32-18.56-.51-27.83-.01-.64.01-.87.8-.72,5.82,1.1,11.67.97,17.51.23.95-.12,1.62.07,2.28.91,8.92,11.34,17.88,22.64,26.84,33.95,3.56,4.5,7.12,9,10.69,13.5.19.24.39.47.74.89,0-.51,0-.81,0-1.11-.23-15.67-.45-31.33-.7-47-.01-.81.14-1.07,1.01-1.06,4.19.05,8.39.04,12.58,0,.64,0,.81.14.81.79-.03,7.69-.39,15.37-.5,23.06-.15,10.35-.34,20.7.21,31.04.08,1.5.23,2.99.39,4.49.05.52-.07.71-.63.71-6.13-.02-12.26-.02-18.39,0-.43,0-.67-.17-.92-.5-3.74-4.84-7.49-9.67-11.25-14.49-6.35-8.15-12.72-16.28-19.28-24.26-2.6-3.16-5.18-6.35-8.14-9.2-.07-.07-.14-.15-.24-.26Z"/>
  <path class="cls-1" d="M74.76,91.85c-4.47-1.79-8.87-3.32-13.36-4.59-3.71-1.05-7.46-1.93-11.27-2.58-5.06-.86-10.15-1.28-15.27-.84-3.99.34-7.83,1.28-11.36,3.28-3.43,1.94-3.93,6.56-.96,9.14,1.87,1.62,4.12,2.51,6.45,3.18,5.04,1.45,10.22,1.99,15.45,2.33,3.98.26,7.97.2,11.93.8,5.27.81,10.43,1.94,15.06,4.73,3.03,1.82,5.46,4.22,6.21,7.84,1.25,5.98-1.12,13.81-8.73,17.56-3.15,1.55-6.53,2.19-9.96,2.64-6.23.82-12.49,1.08-18.77.85-5.2-.19-10.36-.72-15.48-1.67-5.85-1.08-11.54-2.67-17.05-4.9-.48-.2-.76-.32-.67-1.01.39-3.07.6-6.15.39-9.25-.06-.86-.23-1.7-.37-2.66,1.85,1.16,3.66,2.2,5.55,3.1,6.02,2.87,12.33,4.79,18.9,5.88,4.98.83,9.98,1.15,15.01.97,3.75-.13,7.51-.41,11.17-1.25,2.57-.59,4.95-1.97,5.56-4.77.84-3.84.05-6.29-4.19-8.17-2.67-1.18-5.55-1.55-8.42-1.73-4.5-.29-8.98-.66-13.46-1.2-4.18-.5-8.34-1.1-12.46-1.98-4.23-.9-8.4-1.97-12.28-3.98-1.19-.62-2.08-1.52-2.83-2.6-2.1-3.05-3.39-6.34-3.05-10.12.29-3.21,1.79-5.85,3.9-8.2,3.55-3.97,8.12-6.1,13.24-7.12,6.61-1.31,13.3-1.41,20.01-1.14,4.51.18,8.98.64,13.44,1.29,5.62.82,11.17,1.98,16.67,3.38.46.12.85.18.73.87-.68,3.74-.52,7.47.17,11.19.04.19.05.39.1.72Z"/>
  <path class="cls-2" d="M57.38,65.63c-.54-2.59-1.38-4.91-2.4-7.17-1.99-4.38-4.51-8.45-7.33-12.33-.4-.56-.36-.88.04-1.39,2.99-3.79,6.26-7.31,9.87-10.52,3.33-2.97,6.89-5.65,10.71-7.96,3.8-2.31,7.75-4.35,11.99-5.74.55-.18,1.04-.18,1.59.01,2.78.96,5.52,2.05,8.07,3.51,2.65,1.52,5.38,2.92,7.74,4.88,2.42,2.01,4.91,3.92,7.17,6.13,3.28,3.22,6.44,6.53,9.06,10.32.21.3.38.51.06.88-2.67,3.11-4.49,6.72-6.13,10.44-1.28,2.9-2.41,5.86-3.52,9.02-.7-1.84-1.4-3.5-2.27-5.07-3.28-5.96-7.95-10.66-13.31-14.74-2.13-1.63-4.39-3.06-6.72-4.39-.67-.38-1.25-.37-1.95-.09-5.11,2.07-9.02,5.69-12.6,9.72-3.88,4.37-7.11,9.21-10.07,14.49Z"/>
  <path class="cls-1" d="M59.63,169.8c-1.29-1.17-2.34-2.52-3.04-4.13-.1-.24-.19-.48-.28-.72-.74-2.05-.68-2.34,1.13-3.55,2.98-1.99,6.14-2.09,9.39-.7.85.36,1.1.92.97,1.83-.38,2.7-1.44,5.02-3.49,6.85-.13.11-.25.24-.36.36-.02.02-.01.06-.02.12.61.24,1.25.37,1.91.37,1.99,0,3.99-.02,5.98.01.59.01.78-.11.77-.74-.04-2.05,0-4.11-.03-6.16-.01-.63.13-.85.81-.84,1.56.04,1.56,0,1.56,1.54,0,1.16,0,2.31,0,3.47,0,2.52,1.68,2.85,3.48,2.71.49-.04.28-.43.28-.67.02-2.08.03-4.16,0-6.24,0-.56.08-.82.74-.81,1.61.02,1.61-.01,1.61,1.59,0,1.13,0,2.26,0,3.38-.02,2.49,1.54,2.89,3.43,2.75.52-.04.28-.43.28-.65.02-2.63.05-5.26,0-7.89-.02-.83.2-1.19,1.04-1.04.06,0,.12,0,.17,0,1.37,0,1.22-.14,1.22,1.19,0,2.11,0,4.22,0,6.33,0,1.25.7,2,1.95,2.05,1.07.04,2.14-.03,3.2.02.6.03.69-.2.69-.73-.02-4.8-.01-9.6-.01-14.4q0-1.14,1.11-1.14c.17,0,.35.02.52,0,.68-.1.89.15.89.86-.03,5.61-.03,11.22,0,16.83,0,.66-.19.83-.83.82-1.79-.04-3.58,0-5.37-.02-.74,0-1.4-.27-2.09-.8,0,.71-.35.85-.92.82-.86-.05-1.73-.03-2.6,0-.93.03-1.77-.19-2.59-.79.03.82-.47.81-1.02.8-.84-.03-1.68-.03-2.52,0-.93.03-1.75-.22-2.6-.81.05.77-.35.82-.91.82-2.52-.03-5.03-.03-7.55,0-1.5.02-2.92-.28-4.26-.95-.38-.19-.68-.2-1.04,0-1.27.68-2.64.96-4.08.95-1.36-.01-2.72,0-4.08,0-.31,0-.61-.07-.62.44-.15,4.79-4.25,5.74-7.48,5.06-.82-.17-1.59-.49-2.33-.9-.35-.19-.38-.37-.17-.67.07-.09.12-.2.18-.3.68-1.13.67-1.11,1.9-.63,1.17.45,2.36.72,3.61.27,1.24-.44,1.99-1.56,1.93-2.87-.02-.47-.29-.4-.56-.41-1.04-.04-2.07.08-3.11-.14-1.94-.41-3.27-1.53-3.73-3.43-1.29-5.33,2.23-8.23,5.93-8.2,1.04,0,2.08.02,3.12-.03.59-.03.74.19.73.75-.02,2.69.02,5.38-.03,8.07-.01.67.19.82.82.79,1.9-.1,3.81.15,5.71-.17.22-.04.46-.03.68-.28ZM50.03,166.56c0-1.04,0-2.08,0-3.12,0-.27.1-.59-.37-.61-2.59-.11-4.71.84-4.77,4.03-.04,2.37,1,3.37,3.36,3.38.38,0,.75-.03,1.13,0,.51.05.71-.09.68-.65-.05-1.01-.01-2.02-.01-3.03ZM62.68,162.03c-1.33-.08-2.59.41-3.76,1.22-.44.3-.49.65-.33,1.11.54,1.56,1.48,2.84,2.72,3.92.31.27.52.31.88.04,1.18-.89,2.14-1.99,2.58-3.38.77-2.44,1.13-2.78-2.09-2.91Z"/>
  <path class="cls-1" d="M148.15,170.23c-2.39-2.83-1.26-6.77,2.16-7.95,1.93-.67,3.94-.46,5.93-.47.56,0,.41.46.41.77,0,2.28.04,4.57-.02,6.85-.02.72.22.88.85.81.79-.09,1.86.35,2.31-.18.39-.45.11-1.49.1-2.26-.01-1.47.03-2.94-.1-4.42-.24-2.67-2.03-4.46-4.72-4.62-1.71-.1-3.41-.01-5.05.53-.43.14-.59.03-.74-.4-.54-1.65-.55-1.61,1.19-2.04,1.74-.43,3.51-.44,5.25-.24,3.89.44,6.42,3.33,6.53,7.45.07,2.57,0,5.15.03,7.72,0,.52-.16.7-.69.7-5.9-.02-11.8,0-17.7-.02-.76,0-1.47-.26-2.2-.91.19.96-.33.93-.91.93-3.04-.02-6.07-.04-9.11.01-.84.02-1-.27-.99-1.03.04-2.6,0-5.2.03-7.81,0-.64-.15-.84-.82-.8-2.28.13-3.59,1.54-3.65,4.08-.03,1.04-.04,2.08,0,3.12.11,3.57-2.17,5.22-4.99,5.49-1.78.17-3.59.12-5.37.02-1.91-.1-3.29-1.54-3.52-3.45-.15-1.28-.02-2.54.4-3.76.35-1.01,1.24-.44,1.86-.47.61-.03.28.55.26.87-.08,1.06-.38,2.11-.09,3.18.24.9.88,1.46,1.79,1.48,1.39.02,2.78.04,4.16-.02,2.07-.1,2.99-1.11,3.02-3.2.02-1.27.02-2.54.06-3.81.12-3.43,2.27-5.58,5.69-5.67.98-.03,1.97.01,2.95-.04.57-.03.74.16.73.73-.03,2.72,0,5.44-.03,8.15,0,.56.14.73.71.72,1.56-.04,3.12-.04,4.68,0,.58.02.69-.17.69-.72-.02-4.89,0-9.77-.03-14.66,0-.73.2-.94.92-.91,1.57.05,1.57,0,1.57,1.56,0,4.08,0,8.15,0,12.23,0,1.83.66,2.48,2.51,2.49,1.27,0,2.53,0,3.93,0ZM154.24,167.12v-.95c0-2.48-.17-2.61-2.65-1.92-1.53.43-2.3,1.43-2.27,2.94.04,1.57.97,2.74,2.47,2.99.68.11,1.38.03,2.07.06.41.02.36-.26.36-.52,0-.87,0-1.73,0-2.6Z"/>
  <path class="cls-1" d="M228.59,171.5c.15.78-.09.98-.71.97-1.88-.04-3.76-.02-5.64-.01-.84,0-1.57-.3-2.33-.8.07.83-.44.82-.99.81-1.36-.02-2.72-.05-4.08,0-1.23.05-2.35-.11-3.22-1.3.27,1.31-.46,1.31-1.32,1.3-3.09-.03-6.19-.01-9.28-.01-2.92,0-4.68-1.76-4.71-4.69-.01-1.04.12-2.06.38-3.08.14-.55.35-.8.92-.72.23.03.47.03.69,0,.63-.09.71.2.63.75-.16,1.17-.43,2.33-.18,3.52.29,1.37,1.01,1.99,2.4,1.99,2.43,0,4.86-.03,7.29.02.67.01.79-.19.79-.82-.03-4.83,0-9.66-.03-14.48,0-.72.12-1.03.94-.99,1.71.08,1.45-.2,1.46,1.49.01,4.08,0,8.15,0,12.23,0,1.84.72,2.56,2.57,2.56.87,0,1.74-.03,2.6,0,.5.02.62-.14.62-.63-.02-2.69.02-5.38-.03-8.07-.01-.73.2-.93.92-.91,1.57.05,1.57,0,1.57,1.62,0,1.85,0,3.7,0,5.55,0,1.72.72,2.42,2.42,2.43,1.07,0,2.14-.03,3.21.01.55.02.72-.1.71-.69-.04-2.66,0-5.32-.03-7.98,0-.69.13-.96.88-.94,1.58.05,1.58,0,1.58,1.61,0,1.85,0,3.7,0,5.55,0,1.74.69,2.43,2.4,2.44,1.07,0,2.14-.03,3.21.01.58.03.71-.16.71-.72-.02-4.83.01-9.66-.03-14.48,0-.91.27-1.21,1.13-1.07.14.02.29.02.43,0,.75-.12.99.17.98.95-.03,5.52-.04,11.04,0,16.57,0,.84-.27,1.01-1.04.99-1.7-.05-3.41-.03-5.12-.01-.95,0-1.83-.17-2.72-.96Z"/>
  <path class="cls-1" d="M25.9,166.56c0,1.71-.02,3.41.01,5.12.01.6-.18.8-.79.8-1.75,0-1.75.02-1.75-1.72,0-2.37-.02-4.74.01-7.11,0-.61-.08-.85-.79-.8-2.1.14-3.35,1.25-3.61,3.35-.16,1.3-.08,2.6-.09,3.9-.01,3.24-1.85,5.26-5.1,5.48-1.67.11-3.36.09-5.03.02-2-.09-3.6-1.83-3.79-4.06-.11-1.24.08-2.47.39-3.68.13-.53.36-.81.95-.71.22.04.46.03.69,0,.63-.08.79.17.71.78-.15,1.19-.46,2.38-.18,3.61.32,1.38.92,1.9,2.34,1.89,1.16,0,2.32.03,3.47-.03,2.12-.1,3.05-1.13,3.09-3.23.04-1.81-.17-3.63.31-5.43.6-2.24,2.42-3.86,4.76-4,1.24-.08,2.49-.02,3.73-.07.55-.02.69.19.68.71-.02,1.73,0,3.47,0,5.2Z"/>
  <path class="cls-1" d="M178.79,161.43c0,2.11.02,4.22,0,6.33-.03,3.02-1.74,4.7-4.76,4.7-2.49,0-4.97-.02-7.46.02-.67.01-.98-.16-.87-.86.03-.2.03-.41,0-.61-.08-.61.18-.8.79-.78,1.27.04,2.54-.01,3.82.02.51.01.65-.12.53-.63-.92-3.83-1.8-7.67-2.74-11.5-.18-.75-.04-.94.73-.92,1.68.05,1.64.02,2.03,1.69.83,3.62,1.71,7.22,2.53,10.84.11.47.29.52.68.52,1.37,0,2.16-.63,2.19-2.01.07-3.06.06-6.12.07-9.19,0-1.45.02-2.89,0-4.33-.01-.56.17-.76.75-.74,2.07.06,1.71-.26,1.73,1.66.02,1.94,0,3.87,0,5.81Z"/>
  <path class="cls-1" d="M34.35,172.46c-1.45,0-2.89-.03-4.34.01-.62.02-.79-.18-.77-.78.06-1.73-.2-1.44,1.49-1.45,1.91-.02,3.82-.02,5.73,0,.57,0,.66-.13.54-.69-.38-1.79-.95-3.5-1.93-5.05-.63-.99-1.43-1.83-2.47-2.37-.44-.23-.57-.43-.25-.84.03-.04.02-.11.04-.17.61-1.56.68-1.59,2.11-.62,2.24,1.52,3.4,3.78,4.2,6.27.52,1.62.93,3.26.86,5-.02.51-.14.7-.69.69-1.5-.04-3.01-.01-4.51-.01Z"/>
  <path class="cls-1" d="M102.3,163.19c0,2.8-.02,5.6.01,8.41,0,.67-.14.9-.85.88-1.58-.05-1.58,0-1.58-1.61,0-5.31.02-10.63-.02-15.94,0-.74.15-1.01.94-.97,1.49.06,1.5.02,1.5,1.53,0,2.57,0,5.14,0,7.71Z"/>
  <path class="cls-1" d="M185.59,163.29c0,2.8-.02,5.6.01,8.4,0,.61-.17.79-.78.78-1.66-.02-1.66,0-1.66-1.61,0-5.31.02-10.63-.02-15.94,0-.75.16-1,.95-.96,1.49.06,1.49.02,1.49,1.54,0,2.6,0,5.2,0,7.8Z"/>
  <path class="cls-1" d="M241.83,163.2c0-2.8.02-5.6-.01-8.4,0-.63.12-.85.8-.84,1.63.04,1.63,0,1.63,1.66,0,5.31-.01,10.63.02,15.94,0,.71-.18.94-.91.92-1.52-.05-1.52-.01-1.52-1.57v-7.71Z"/>
  <path class="cls-1" d="M202.28,163.41c-.63-1.21-.54-2.26.23-2.97.73-.67,2.63-.85,3.44-.33.52.33.01.65-.02.96-.03.29-.15.59-.57.39-.32-.16-.68-.12-1.02-.13-.74-.03-.98.42-.93,1.05.05.63.4.92,1.06.76.33-.08.68-.16,1.02-.14.38.02.96-.36,1,.49.03.67-.12.98-.87,1.01-1.06.04-2.12.25-3.17.35-.31.03-.74.47-.9-.2-.16-.66,0-.97.72-1.24Z"/>
  <path class="cls-1" d="M167.22,154.76c-.66-.9-.68-1.78-.12-2.64.54-.82,1.81-1.18,2.97-.89,1.06.26,1.08.32.74,1.22-.15.38-.35.49-.72.32-.33-.15-.68-.11-1.03-.09-.63.04-.85.47-.8,1.01.05.54.3.92.97.78.45-.09.91-.12,1.37-.17.37-.04.8-.16.76.47-.03.46.18.99-.64,1.03-1.18.07-2.35.24-3.52.4-.3.04-.7.32-.73-.2-.02-.4-.38-1.03.41-1.19.08-.02.17-.03.34-.06Z"/>
  <path class="cls-1" d="M217.23,157.22c0-.95.5-1.51,1.38-1.53.86-.02,1.49.65,1.47,1.55-.02.88-.62,1.48-1.46,1.48-.89,0-1.4-.55-1.4-1.5Z"/>
  <path class="cls-1" d="M15.86,178.17c-.02.95-.52,1.46-1.43,1.44-.88-.02-1.39-.58-1.39-1.52,0-.99.52-1.48,1.5-1.46.92.02,1.33.5,1.32,1.53Z"/>
  <path class="cls-1" d="M118.17,176.64c.9,0,1.42.54,1.42,1.46,0,.95-.57,1.53-1.49,1.51-.88-.02-1.37-.58-1.36-1.53.01-.96.49-1.44,1.43-1.44Z"/>
  <path class="cls-1" d="M9.41,178.08c.02-1,.51-1.47,1.51-1.43.91.03,1.32.53,1.3,1.55-.02.95-.54,1.45-1.45,1.42-.88-.03-1.37-.58-1.35-1.54Z"/>
  <path class="cls-1" d="M227.46,176.81c-.91-.02-1.33-.52-1.32-1.53.02-.96.52-1.48,1.42-1.46.9.02,1.45.65,1.4,1.6-.05.92-.58,1.41-1.5,1.39Z"/>
  <path class="cls-1" d="M121.81,176.64c.94,0,1.37.46,1.38,1.47,0,1.01-.5,1.53-1.45,1.51-.85-.02-1.39-.62-1.36-1.54.02-.94.53-1.44,1.44-1.44Z"/>
</svg>