<?xml version="1.0" encoding="UTF-8"?>
<svg id="Layer_1" data-name="Layer 1" xmlns="http://www.w3.org/2000/svg" viewBox="0 0 250 200">
  <defs>
    <style>
      .cls-1 {
        fill: #50028d;
      }

      .cls-1, .cls-2 {
        stroke-width: 0px;
      }

      .cls-2 {
        fill: #52058e;
      }
    </style>
  </defs>
  <path class="cls-1" d="M190.28,157.74c-2.67-.62-20.61-5.05-30.65-22.58-4.72-8.25-6.97-18-5.99-28.22,2.14-22.31,15.5-37.93,36.59-42.78,21.42-4.93,42.66,5,50.95,23.81q2.4,5.45-3.22,7.34c-4.91,1.64-9.86,3.16-14.73,4.91-1.56.56-2.24.35-2.77-1.19-3.71-10.84-13.81-14.64-23.27-13.07-10.84,1.79-17.81,9.74-18.88,21.1-.42,4.44-.26,8.82.99,13.12,2.66,9.12,10.3,15.48,19.4,16.2,10.64.85,18.28-3.41,22.54-12.95.89-1.99,1.75-1.92,3.36-1.37,5.38,1.84,10.74,3.72,16.19,5.33,2.52.75,2.72,1.89,1.87,4.08-4.82,12.43-11.1,16.56-11.1,16.56-6.95,5.76-22.65,14.01-41.26,9.71Z"/>
  <path class="cls-1" d="M28.67,156.08s-11.07-3.58-17.44-13.04c-1.77-2.63-3.16-5.65-4.09-9.11-.62-2.3-.06-3.14,2.19-3.57,5.33-1.03,10.63-2.26,15.94-3.38.99-.21,1.97-1.04,2.69.76,4.25,10.56,13.38,14.87,24.27,11.57,3.3-1,6-2.8,6.79-6.43.91-4.19-1.06-7.64-5.91-9.21-5.03-1.63-10.24-2.72-15.4-3.96-5.3-1.27-10.52-2.72-15.3-5.41-15.21-8.55-18.09-28.11-5.75-40.52,9.14-9.19,20.72-11.7,33.19-10.44,11.82,1.2,21.96,5.72,28.52,16.27.2.32.39.65.58.98,3.88,7.07,3.35,8.35-4.24,10.09-1.85.43-3.71.78-5.56,1.18-2.35.5-4.79,1.68-7.01,1.34-2.4-.36-1.98-3.62-3.23-5.4-4.7-6.7-18.63-8.39-24.67-2.86-4.46,4.08-3.14,10.31,2.9,12.63,4.73,1.82,9.84,2.24,14.79,3.23,6.72,1.35,13.31,3.04,19.06,7,15.34,10.57,15.64,32.46.6,43.48-6.43,4.71-12.63,6.15-17.42,7-3.94.7-14.03,2.34-25.5-2.21Z"/>
  <path class="cls-1" d="M116.63,157.69c-3.16-.99-9.45-2.98-13.94-8.82-2.78-3.61-4.45-8.13-4.87-13.5-1.13-14.55-.18-29.16-.49-43.73-.05-2.31,1.2-2.3,2.85-2.29,7.07.04,14.14.03,21.2.04l-.07-.07c.92,4.73.29,9.5.37,14.25.13,6.91.06,13.83.03,20.74-.04,11.2,5.54,13.84,16.07,12.58,2.72-.33,5.31-1.4,8.29-3.1,0,6.57.05,12.67-.03,18.76-.02,1.65-1.67,2.05-2.81,2.76-1.55.96-2.98,1.49-4.25,1.77-14.15,3.19-22.35.61-22.35.61Z"/>
  <path class="cls-2" d="M121.39,89.38c.74-7.16.08-14.34.35-21.5.08-2.18-1.24-2.04-2.69-2.03-6.07.02-12.15-.16-18.22.08-2.96.12-3.62-.88-3.53-3.63.2-6.17.13-12.35.02-18.53-.04-2.05.44-2.89,2.71-2.84,6.2.15,12.4.16,18.6,0,2.45-.07,3.27.56,3.2,3.1-.18,6.3.04,12.6-.11,18.9-.05,2.34.68,3.03,3.01,2.97,6.2-.15,12.4.02,18.6-.09,2.07-.04,2.91.47,2.86,2.71-.14,6.05-.12,12.1,0,18.15.04,2.17-.71,2.78-2.84,2.74-7.34-.13-14.67-.07-22.01-.09,0,0,.07.07.07.07Z"/>
</svg>