<?xml version="1.0" encoding="UTF-8"?>
<svg id="Layer_1" data-name="Layer 1" xmlns="http://www.w3.org/2000/svg" viewBox="0 0 250 200">
  <defs>
    <style>
      .cls-1 {
        fill: #ebebec;
      }

      .cls-1, .cls-2, .cls-3, .cls-4, .cls-5, .cls-6, .cls-7, .cls-8, .cls-9, .cls-10, .cls-11, .cls-12, .cls-13, .cls-14, .cls-15, .cls-16, .cls-17, .cls-18, .cls-19, .cls-20, .cls-21, .cls-22, .cls-23, .cls-24, .cls-25, .cls-26, .cls-27, .cls-28, .cls-29, .cls-30, .cls-31, .cls-32, .cls-33, .cls-34, .cls-35, .cls-36, .cls-37, .cls-38, .cls-39, .cls-40, .cls-41, .cls-42, .cls-43, .cls-44, .cls-45, .cls-46, .cls-47, .cls-48, .cls-49, .cls-50, .cls-51, .cls-52, .cls-53, .cls-54, .cls-55, .cls-56, .cls-57, .cls-58, .cls-59, .cls-60, .cls-61, .cls-62, .cls-63, .cls-64, .cls-65, .cls-66, .cls-67, .cls-68, .cls-69, .cls-70, .cls-71, .cls-72, .cls-73, .cls-74, .cls-75, .cls-76, .cls-77, .cls-78, .cls-79, .cls-80, .cls-81, .cls-82, .cls-83, .cls-84, .cls-85, .cls-86, .cls-87, .cls-88, .cls-89, .cls-90, .cls-91, .cls-92, .cls-93, .cls-94, .cls-95, .cls-96, .cls-97, .cls-98, .cls-99, .cls-100, .cls-101, .cls-102, .cls-103, .cls-104, .cls-105 {
        stroke-width: 0px;
      }

      .cls-2 {
        fill: #0279b8;
      }

      .cls-3 {
        fill: #f6f3f0;
      }

      .cls-4 {
        fill: #f7f8f9;
      }

      .cls-5 {
        fill: #f7f7f8;
      }

      .cls-6 {
        fill: #e3e5e6;
      }

      .cls-7 {
        fill: #dadcdd;
      }

      .cls-8 {
        fill: #fcf8f5;
      }

      .cls-9 {
        fill: #fcfdfe;
      }

      .cls-10 {
        fill: #eff1f2;
      }

      .cls-11 {
        fill: #f6f7f7;
      }

      .cls-12 {
        fill: #1181bb;
      }

      .cls-13 {
        fill: #0178b8;
      }

      .cls-14 {
        fill: #1080ba;
      }

      .cls-15 {
        fill: #85b4d3;
      }

      .cls-16 {
        fill: #d4dde3;
      }

      .cls-17 {
        fill: #f4f5f6;
      }

      .cls-18 {
        fill: #f8f9f9;
      }

      .cls-19 {
        fill: #f2f3f3;
      }

      .cls-20 {
        fill: #fbf7f4;
      }

      .cls-21 {
        fill: #e8e9e9;
      }

      .cls-22 {
        fill: #fdf8f4;
      }

      .cls-23 {
        fill: #047ab8;
      }

      .cls-24 {
        fill: #f1f2f2;
      }

      .cls-25 {
        fill: #e1e2e3;
      }

      .cls-26 {
        fill: #dee1e1;
      }

      .cls-27 {
        fill: #e9e7e6;
      }

      .cls-28 {
        fill: #006cb0;
      }

      .cls-29 {
        fill: #f9fafa;
      }

      .cls-30 {
        fill: #fef8f4;
      }

      .cls-31 {
        fill: #fcf8f4;
      }

      .cls-32 {
        fill: #2688bf;
      }

      .cls-33 {
        fill: #0279b7;
      }

      .cls-34 {
        fill: #0179b7;
      }

      .cls-35 {
        fill: #fcf6f1;
      }

      .cls-36 {
        fill: #e9eaeb;
      }

      .cls-37 {
        fill: #f8f8f9;
      }

      .cls-38 {
        fill: #e6e7e8;
      }

      .cls-39 {
        fill: #eceded;
      }

      .cls-40 {
        fill: #fef9f5;
      }

      .cls-41 {
        fill: #eaebec;
      }

      .cls-42 {
        fill: #0073b4;
      }

      .cls-43 {
        fill: #e2e7ea;
      }

      .cls-44 {
        fill: #0b7eb9;
      }

      .cls-45 {
        fill: #288bc1;
      }

      .cls-46 {
        fill: #3e95c5;
      }

      .cls-47 {
        fill: #eef3f6;
      }

      .cls-48 {
        fill: #e4e6e7;
      }

      .cls-49 {
        fill: #eeeeef;
      }

      .cls-50 {
        fill: #f5f6f7;
      }

      .cls-51 {
        fill: #027ab7;
      }

      .cls-52 {
        fill: #f9fafb;
      }

      .cls-53 {
        fill: #f2f4f5;
      }

      .cls-54 {
        fill: #077bb9;
      }

      .cls-55 {
        fill: #0278b8;
      }

      .cls-56 {
        fill: #0068af;
      }

      .cls-57 {
        fill: #ebecec;
      }

      .cls-58 {
        fill: #fbfcfd;
      }

      .cls-59 {
        fill: #549fcb;
      }

      .cls-60 {
        fill: #0379b8;
      }

      .cls-61 {
        fill: #097db9;
      }

      .cls-62 {
        fill: #fcfdfd;
      }

      .cls-63 {
        fill: #0071b3;
      }

      .cls-64 {
        fill: #ebf4f8;
      }

      .cls-65 {
        fill: #f3f4f5;
      }

      .cls-66 {
        fill: #9fc7e0;
      }

      .cls-67 {
        fill: #f7f4f1;
      }

      .cls-68 {
        fill: #f1f2f3;
      }

      .cls-69 {
        fill: #e2e4e4;
      }

      .cls-70 {
        fill: #0072b4;
      }

      .cls-71 {
        fill: #e9eaea;
      }

      .cls-72 {
        fill: #efebe8;
      }

      .cls-73 {
        fill: #087bb9;
      }

      .cls-74 {
        fill: #006eb2;
      }

      .cls-75 {
        fill: #e2e4e5;
      }

      .cls-76 {
        fill: #fefaf6;
      }

      .cls-77 {
        fill: #bfd8e5;
      }

      .cls-78 {
        fill: #ededee;
      }

      .cls-79 {
        fill: #fdf9f6;
      }

      .cls-80 {
        fill: #0f80ba;
      }

      .cls-81 {
        fill: #f8fafc;
      }

      .cls-82 {
        fill: #f3efed;
      }

      .cls-83 {
        fill: #69a8d0;
      }

      .cls-84 {
        fill: #067bb8;
      }

      .cls-85 {
        fill: #dfe1e2;
      }

      .cls-86 {
        fill: #3c94c5;
      }

      .cls-87 {
        fill: #aacee4;
      }

      .cls-88 {
        fill: #6eacd2;
      }

      .cls-89 {
        fill: #f5f7f9;
      }

      .cls-90 {
        fill: #f8f9fa;
      }

      .cls-91 {
        fill: #f9f5f3;
      }

      .cls-92 {
        fill: #4798c7;
      }

      .cls-93 {
        fill: #d7dadc;
      }

      .cls-94 {
        fill: #0d7fba;
      }

      .cls-95 {
        fill: #e5e6e7;
      }

      .cls-96 {
        fill: #e7e9e9;
      }

      .cls-97 {
        fill: #006fb2;
      }

      .cls-98 {
        fill: #e3edf5;
      }

      .cls-99 {
        fill: #0079b6;
      }

      .cls-100 {
        fill: #efeff0;
      }

      .cls-101 {
        fill: #037ab7;
      }

      .cls-102 {
        fill: #eff0f1;
      }

      .cls-103 {
        fill: #fefefc;
      }

      .cls-104 {
        fill: #f0f1f2;
      }

      .cls-105 {
        fill: #f2f2f3;
      }
    </style>
  </defs>
  <path class="cls-85" d="M76.17,14.97c.59-.91,1.35-1.58,2.47-1.74,4.54-.92,4.71-.75,4.78,3.86.03,2.01-.35,4.05.33,6.03-.76,26.81-.13,53.62-.34,80.43,0,1.23.48,2.41.26,3.65-.43.52-.85.38-.94-.19-.09-.56-.43-1.06-.4-1.64,0-26.75,0-53.5,0-80.25,0,26.79,0,53.57,0,80.36,1.14,3.52.68,7.14.66,10.73,0,.35-.14.68-.37.96-1.44.29-2.87.27-4.31.01-.92-.59-2.13-.82-2.46-2.1.25-.62.14-1.27.14-1.9,0-31.87,0-63.74,0-95.61,0-.88.04-1.75.2-2.61Z"/>
  <path class="cls-99" d="M218.24,147.11c-.65-4.57-.5-9.15-.08-13.73.06-.64-.17-.7-.62-.71-.64-.02-1.28-.02-1.92,0-.44.01-.63.06-.6.7.15,2.5.15,5.01.16,7.51.01,4.59,0,4.56-4.67,4.36-.99-.04-1.27-.37-1.3-1.34-.24-6.15-7.23-7.72-11.86-6.15-.79.27-.56.98-.44,1.49.15.65.63.18.98.1,1.02-.22,2.01-.55,3.08-.54,2.79.02,4.68,1.89,4.84,4.68.07,1.26-.24,1.73-1.62,1.7-4.37-.1-8.74-.07-13.12-.02-1.23.02-1.77-.09-1.81-1.65-.13-4.62-3.58-7.18-7.73-5.99-2.58.74-3.94,2.69-3.97,6.06-.01,1.23-.34,1.64-1.57,1.59-1.98-.09-3.97-.1-5.95,0-1.33.07-1.9-.28-1.8-1.73.13-1.74.1-3.5.01-5.24-.08-1.74-1.47-.78-2.28-.94-.92-.19-.71.42-.67,1.06.12,1.69-.01,3.39.1,5.07.09,1.34-.29,1.82-1.73,1.79-4.84-.1-9.68-.02-14.53-.04-4.14-.01-3.82.55-3.82-3.85,0-1.04-.21-2.16,1.32-2.4.58-.1.59-.67.52-1.14-.07-.52-.49-.59-.92-.59-3.73,0-7.46-.03-11.2.01-1.25.02-1.06,1.06-1,1.83.1,1.22.81.31,1.25.29.56-.03,1.3-.31,1.6.26.34.66-.54.76-.88,1.07-3.02,2.69-3.25,7.28-.46,9.9,2.62,2.46,7.31,3.16,10.61,1.59.15-.59.73-1.26-.27-1.66-1.92,1.41-3.8.61-5.6-.2-2.1-.94-3.19-2.9-3.03-5.05.17-2.44,1.67-4.29,3.93-5.05,1.06-.35,1.53-.23,1.46.99-.05,1.16-.02,2.33,0,3.5.03,1.88.78,2.73,2.62,3.1,1.86.37,3.71.04,5.57.03,9.04-.04,18.08,0,27.12-.02.72,0,1.33.13,1.96.55,2.2,1.45,4.52,1.46,6.75.12.86-.52,1.68-.68,2.63-.68,5.07.03,10.15.05,15.22-.01,1.35-.02,2.49.16,3.49,1.15.61.6,1.38,1.11,2.36.74q-.74-1.86,1.23-1.87c1.93,0,3.85.02,5.78-.01.36-.01.99.25.87-.63ZM183.46,146.69c-1.65,0-3-1.54-3.01-3.44-.01-1.89,1.3-3.49,2.91-3.55,1.63-.06,3.17,1.66,3.15,3.54-.01,1.78-1.49,3.45-3.05,3.45Z"/>
  <path class="cls-99" d="M95.66,137.4c-.79,2.26-.47,4.59-.34,6.88.08,1.4,1.2,2.08,2.63,1.98,1.41-.1,2.04-.99,2.04-2.35,0-1.92.06-3.85-.05-5.77-.09-1.64,1.08-.74,1.67-.87.54-.12,1.16-.29,1,.91-.26,1.95-.1,3.95-.09,5.94,0,1.32.67,2.07,2.03,2.1,1.43.03,2.4-.6,2.45-2.11.07-1.86.15-3.74-.02-5.59-.18-1.88,1.1-1.16,1.91-1.27,1.22-.17.8.53.75,1.26-.13,1.68-.07,3.38-.06,5.07,0,.68.25,1.45.94,1.52,1.56.15,3.14.14,4.71.06.77-.04.5-.8.5-1.27.02-3.21.11-6.42-.03-9.62-.07-1.62.72-1.59,1.89-1.62,1.61-.03.79.91.78,1.6-.03,3.26-.03,6.53-.03,9.8,0,.78.39,1.19,1.19,1.18.12,0,.23,0,.35,0,3.91-.02,3.32.35,3.36-3.16.02-2.74.06-5.48-.03-8.22-.03-.96.27-1.28,1.16-1.18.74.08,1.71-.33,1.7,1.07-.04,4.31-.04,8.63,0,12.94.01,1.22-.75,1.08-1.5,1.08-4.96,0-9.92,0-14.87,0-.76,0-1.48.03-2.21.35-1.84.8-3.65.66-5.33-.44-.53-.35-.92-.53-1.51-.01-1.88,1.66-3.79,1.07-5.59-.16-.74-.5-1.28-.9-2.04-.03-.4.46-1.1.28-1.68.28-7.17,0-14.35-.03-21.52.03-1.3.01-1.71-.33-1.68-1.66.09-4.02.12-8.05,0-12.07-.05-1.69.95-1.31,1.89-1.41,1.15-.12,1.28.36,1.25,1.39-.09,3.2,0,6.41-.05,9.62-.02,1.15.39,1.57,1.53,1.51,1.34-.07,2.69-.09,4.02,0,1.2.08,1.5-.43,1.46-1.53-.07-1.75.02-3.5-.03-5.25-.05-1.83,1.3-1.04,2.11-1.13,1.34-.16.5.74.5,1.22,0,1.92.02,3.85-.02,5.77-.02.81.38.98,1.07.98,3.03-.01,6.07-.02,9.1,0,1.33,0,1.9-.72,1.94-1.95.03-1.22.01-2.45.01-3.67q0-2.62,2.78-2.19Z"/>
  <path class="cls-26" d="M177.05,115.09c-.35,1.48-1.65,1.7-2.81,2.1-.45.21-.89.27-1.26-.16-.45-.81-.36-1.7-.36-2.57,0-32.84,0-65.68,0-98.52,0-.87-.09-1.76.36-2.57.5-.48,1.05-.38,1.61-.14.85.67,2.29.64,2.47,2.09-.48.72-.51,1.52-.51,2.35,0,31.62,0,63.25,0,94.87,0,.88.09,1.74.51,2.54Z"/>
  <path class="cls-7" d="M177.05,115.09c-.41.11-.93.55-1.04-.29-.06-.46-.03-.93-.03-1.4,0-32.31,0-64.63.04-96.94,0-.38-.93-2.27,1.02-1.13.96.71,1.03,1.77,1.03,2.82,0,31.38,0,62.75,0,94.13,0,1.05-.08,2.1-1.03,2.82Z"/>
  <path class="cls-93" d="M76.17,14.97c.59.51.36,1.19.36,1.81.01,32.3.01,64.61-.03,96.91,0,.44.67,1.5-.68,1.4-.81-.93-1.03-2.05-1.03-3.24,0-31.09,0-62.18,0-93.27,0-1.37.25-2.66,1.37-3.61Z"/>
  <path class="cls-55" d="M164.8,174.92c-.02-4.24-.04-8.47-.05-12.71,0-.67-.16-1.57.96-1.38,1.04.18,2.56-.8,2.95,1.17.41,2.1.91,4.19,1.37,6.28.46.19-.29,1.14.65,1.02.54-2.55.99-5.12,1.65-7.63.42-1.59,1.87-.63,2.84-.84.76-.16,1.02.32,1.02,1.02-.01,4.31-.02,8.62-.04,12.93,0,.16-.13.32-.2.48-1.88.32-1.87.32-1.9-1.42-.04-2.41.11-4.82-.12-7.34-.4.3-.54.55-.72.78-.46,2.33-.94,4.65-1.36,6.98-.15.83-.51,1.15-1.39,1.16-.88,0-1.22-.31-1.37-1.14-.36-1.99-.79-3.97-1.2-5.95-.26-.45,0-1.06-.65-1.62-.36,1.32-.16,2.55-.2,3.75-.03,1.04,0,2.08,0,3.13-.02,1.79-.39,2.01-2.24,1.34Z"/>
  <path class="cls-13" d="M72.72,160.95c.11-.03.22-.1.33-.1,3.57-.01,3.07-.62,3.79,2.87.4,1.91.85,3.81,1.27,5.71.15,0,.3,0,.44,0,.51-2.57,1.01-5.14,1.52-7.71.66-1.8,2.16-.8,3.26-.89,1.11-.09.7,1,.7,1.59.04,3.77.03,7.54.02,11.31,0,.82.29,1.74-1.18,1.76-1.41.02-1.26-.8-1.26-1.69,0-1.74.04-3.48-.04-5.22,0-.13.19-1.14-.54-.33-.43,1.92-.92,3.84-1.26,5.77-.18,1-.59,1.39-1.6,1.37-1.04-.02-1.21-.66-1.36-1.46-.31-1.65-.68-3.3-1.03-4.94-.01-.87-.43-1.64-.64-2.45-.01-.14,0-.28-.02-.41,0,.17,0,.34,0,.53-.32,2.39-.13,4.79-.17,7.17-.01.92-.16,1.65-1.31,1.61-1.05-.04-1.14-.76-1.14-1.59.01-4.02,0-8.05,0-12.07,0-.29-.01-.58.2-.83Z"/>
  <path class="cls-34" d="M41.87,147.76c-2.8,0-5.6.03-8.4,0-4.9-.07-7.65-4.05-6.04-8.69.34-.98,2.15-1.95,3.08-1.69.72.21.29.67.18.95-.39.99-.66,1.99-.69,3.05-.07,2.41,1.29,3.83,3.7,3.83,4.78,0,9.57-.03,14.35.03,1.14.01,1.58-.3,1.47-1.48-.19-1.96.26-3.96-.27-5.9-.07-.25-.09-.52.19-.54.87-.05,1.78-.2,2.59.02.74.2.01.88.03,1.34.08,2.62-.06,5.25.1,7.87.07,1.12-.26,1.24-1.18,1.22-3.03-.04-6.07-.02-9.1-.01Z"/>
  <path class="cls-13" d="M70.29,164.34c-.84-2.35-2.75-3.73-5.13-3.74-2.43-.02-4.26,1.18-5.1,3.49-.97,2.66-1.01,5.39.01,8.04.81,2.1,2.36,3.4,4.74,3.51,2.43.11,4.11-.98,5.18-3.12.69-1.39.89-2.88.85-4.65.09-1.05-.11-2.31-.55-3.53ZM67.9,170.79c-.45,1.33-1.38,2.24-2.79,2.23-1.32,0-2.2-.89-2.7-2.12-.39-.92-.55-1.89-.52-2.66,0-1.16.1-2.09.47-2.95.54-1.26,1.43-2.18,2.88-2.12,1.34.06,2.2.92,2.66,2.17.67,1.82.61,3.64,0,5.45Z"/>
  <path class="cls-13" d="M188.94,164.47c-.77-2.33-2.72-3.81-5.06-3.87-2.53-.07-4.3,1.08-5.21,3.54-.98,2.66-.98,5.39.02,8.03.81,2.11,2.38,3.38,4.76,3.47,2.44.1,4.11-1,5.15-3.15.68-1.4.88-2.88.82-4.55.08-1.1-.09-2.3-.48-3.47ZM186.28,171.34c-.43,1.01-1.36,1.64-2.46,1.7-1.23.07-2.06-.72-2.63-1.72-.56-.97-.72-2.07-.62-3.18-.08-1.07.01-2.11.47-3.07.54-1.12,1.4-1.89,2.69-1.91,1.23-.02,2.13.71,2.59,1.76.93,2.11.87,4.31-.04,6.42Z"/>
  <path class="cls-13" d="M162.72,165.34c-.49-2.61-2.51-4.53-4.91-4.72-2.79-.22-4.78,1.04-5.73,3.81-.86,2.55-.85,5.16.15,7.69.86,2.19,2.46,3.46,4.91,3.52,2.44.06,4.06-1.14,5.08-3.28.64-1.34.73-2.79.8-4.57-.07-.61-.13-1.54-.3-2.45ZM160.06,170.75c-.49,1.3-1.36,2.28-2.77,2.28-1.42.01-2.33-1.01-2.8-2.27-.69-1.85-.62-3.77.06-5.61.46-1.22,1.44-2.02,2.8-1.99,1.27.03,2.11.81,2.62,1.96.41.93.45,1.91.48,2.89-.02.93-.06,1.85-.39,2.74Z"/>
  <path class="cls-60" d="M112.24,168.13c0,1.98-.04,3.96.02,5.94.03,1-.35,1.33-1.32,1.33-.99,0-1.16-.49-1.14-1.31.04-1.28-.03-2.56.02-3.84.04-.89-.27-1.2-1.19-1.25-3.34-.17-3.34-.2-3.34,3.12,0,.64-.04,1.28,0,1.92.08.95-.26,1.37-1.27,1.37-.96,0-1.17-.44-1.17-1.28.02-4.02.02-8.04,0-12.05,0-.83.17-1.29,1.15-1.28.99,0,1.39.35,1.29,1.34-.05.52-.01,1.05-.01,1.57,0,2.96.7,3.48,3.72,2.89.72-.14.8-.54.8-1.1,0-1.22.03-2.45,0-3.67-.03-.91.48-1.03,1.22-1.02.74,0,1.23.15,1.22,1.05-.03,2.1,0,4.19,0,6.29Z"/>
  <path class="cls-55" d="M216.8,168.17c0-1.98.04-3.96-.01-5.94-.03-1.02.26-1.48,1.37-1.44,2.09.07,4.19.05,6.29,0,.91-.02,1.23.31,1.23,1.21,0,.92-.2,1.44-1.26,1.38-1.22-.06-2.45.05-3.67-.03-1.26-.09-1.4.56-1.42,1.59-.02,1.12.32,1.62,1.49,1.53.93-.07,1.86.02,2.79-.02.91-.04,1.55.03,1.54,1.25,0,1.13-.44,1.42-1.46,1.33-.75-.07-1.52.05-2.27-.03-1.47-.15-2.11.18-2.15,1.93-.05,1.95.92,1.9,2.24,1.85,1.05-.04,2.1.04,3.14-.02.94-.05,1.38.21,1.36,1.25-.02.93-.22,1.4-1.26,1.38-2.27-.05-4.54-.04-6.81,0-.95.01-1.18-.41-1.16-1.28.05-1.98.02-3.96.02-5.94Z"/>
  <path class="cls-13" d="M96.64,174.1c-1.32-3.92-2.57-7.85-3.79-11.8-.31-1-.73-1.52-1.92-1.54-1.24-.03-1.46.72-1.72,1.55-1.22,3.89-2.43,7.78-3.64,11.67-.14.45-.69,1.1.07,1.31.72.2,1.66.42,2.22-.46.18-.28.23-.65.3-.99.26-1.09.61-2.03,2.06-1.71,1.34.29,3.32-.89,3.66,1.66.14.99.51,1.84,1.77,1.57,1.1.14,1.35-.18.99-1.26ZM92.08,169.56c-.74.04-1.51.07-2.24-.07-.41-.08-.25-.59-.15-.92.35-1.16.72-2.32,1.16-3.74.98,1.36,1.03,2.81,1.55,4.07.13.32.02.65-.32.66Z"/>
  <path class="cls-13" d="M39.08,173.87c-1.23-3.94-2.56-7.86-3.79-11.8-.3-.96-.77-1.25-1.74-1.29-1.04-.04-1.46.41-1.73,1.3-1.24,4-2.49,8-3.8,11.98-.35,1.07-.05,1.42,1.04,1.31,1.18.24,1.43-.6,1.67-1.5.17-.64.11-1.59.97-1.67,1.27-.13,2.6-.21,3.83.05.98.2.63,1.51,1.1,2.21.03.05.02.12.04.17.45,1.19,1.49.82,2.25.66.97-.19.29-.99.16-1.42ZM34.61,169.48c-.66.33-1.55.35-2.19-.01-.64-.36-.12-1.04.03-1.56.28-.98.59-1.96.89-2.94h.34c.32.98.67,1.96.95,2.96.15.51.68,1.19-.02,1.55Z"/>
  <path class="cls-13" d="M128.96,174.28c-1.37-4.14-2.75-8.27-4.08-12.42-.26-.81-.67-1.18-1.45-1.04-.83-.02-1.49-.08-1.8.96-1.22,4.06-2.57,8.09-3.81,12.14-.13.43-.78,1.22.23,1.39.78.13,1.81.47,2.19-.77.15-.5.33-.99.43-1.5.12-.61.43-.92,1.06-.91,1.23.04,2.52-.19,3.64.16.75.24.72,1.48.95,2.31.03.11.09.22.16.31.64.78,1.51.51,2.27.39.53-.08.33-.63.21-1.02ZM123.17,169.59c-1.18.2-1.64-.14-1.1-1.38.42-.97.38-2.13,1.14-2.98.85.79.76,1.97,1.2,2.93.65,1.4-.07,1.61-1.24,1.43Z"/>
  <path class="cls-2" d="M132.98,166.09c0,1.63-.05,3.26.01,4.88.05,1.34.99,2.02,2.18,2.06,1.27.04,2.02-.81,2.16-2.08.1-.92.14-1.86.14-2.79q.01-7.34,1.17-7.36c1.26-.01,1.28-.01,1.25,7.44,0,1.27-.12,2.56-.27,3.82-.28,2.25-1.7,3.47-4.01,3.56-2.72.11-4.53-.97-4.9-3.18-.6-3.58-.2-7.21-.27-10.82-.02-.85.62-.82,1.23-.83.65,0,1.17.1,1.17.91,0,1.46,0,2.91,0,4.37.05,0,.09,0,.14,0Z"/>
  <path class="cls-55" d="M210.46,170.47c.76-2.8,1.57-5.46,2.16-8.16.28-1.28.89-1.58,2.05-1.52.83.05.99.33.77,1.08-1.23,4.18-2.46,8.36-3.62,12.57-.26.94-.85.95-1.58.95-.72,0-1.38.03-1.64-.89-1.22-4.25-2.48-8.48-3.72-12.72-.15-.52-.13-.95.57-.97.92-.03,1.86-.2,2.19,1.1.63,2.48,1.35,4.94,2.03,7.41.1.38.08.82.8,1.14Z"/>
  <path class="cls-17" d="M117.86,110.54c.98.7,2.1.19,3.15.35.99,1.82.52,3.74.38,5.63-.05.72-.65.82-1.3.85-1.09.05-2.21-.22-3.28.17-5.95,0-11.9,0-17.86,0-.11-.21-.07-.39.12-.53.36-.23.78-.28,1.19-.31,1.76-.07,3.53-.06,5.29-.02,1.81-.04,3.61-.01,5.42-.02,1.24,0,1.84-.56,1.81-1.8,0-.23,0-.47,0-.7.02-2.62-.09-2.73-2.74-2.76-.76,0-1.52.07-2.26-.14-.4-.11-.98-.18-.69-.87,2.37-.75,4.81-.17,7.2-.36,1.19.14,2.47-.35,3.56.5Z"/>
  <path class="cls-65" d="M173.18,117.54c-.58.6-1.32.32-1.99.33-8.91.13-17.81-.6-26.72-.34-.36-.27-.78-.17-1.18-.18-1.95-.04-2.07-.16-2.15-2.05q-.19-4.39,4.2-5.11c.31-.09.62-.12.94-.14,1.68-.02,3.36-.07,5.04.03.43.02,1.08.03,1.09.6.02.58-.63.55-1.06.64-.45.1-.92.06-1.39.11-.58.06-.99.33-1.05.95-.11,1.1-.11,2.2,0,3.3.07.75.62.9,1.24.94.93.05,1.86,0,2.78.04,1.52-.06,3.03-.05,4.55,0,4.81-.01,9.6.61,14.42.4.48-.02.92.14,1.28.47Z"/>
  <path class="cls-11" d="M123.11,19.88c3.15,0,6.3,0,9.45,0,.1.24.04.43-.19.57-.65.34-1.35.27-2.04.27-4.22-.04-8.44.12-12.66-.08-1.12-.39-2.29-.23-3.45-.27-.63-.02-1.28.06-1.85-.32-.38-.68.21-.82.6-.89,1.34-.24,1.57-1.12,1.59-2.29.06-3.13.08-3.13-2.96-3.13-.99,0-1.98.04-2.96-.04-.3-.03-.58-.11-.83-.28-.18-.15-.21-.32-.1-.52,3.38,0,6.77,0,10.15,0,.89.38,1.83.19,2.73.15,1.28-.05,1.78.61,1.93,1.72.09.69.08,1.38.07,2.08-.01,2.83-.04,2.85-2.75,2.87.99.26,2.16-.42,3.28.17Z"/>
  <path class="cls-60" d="M144.89,169.38c0-1.4-.1-2.8.03-4.19.13-1.48-.43-2.03-1.86-1.82-1.12.17-1.76-.16-1.65-1.48.07-.82.34-1.11,1.16-1.1,2.44.04,4.89.05,7.33,0,.97-.02.99.53.98,1.22-.01.72.07,1.33-1.02,1.39-2.45.13-2.44.2-2.44,2.74,0,2.56,0,5.12,0,7.68,0,.84.1,1.59-1.19,1.59-1.33,0-1.36-.72-1.34-1.68.03-1.45,0-2.91,0-4.36Z"/>
  <path class="cls-2" d="M195.16,160.81c1.05,0,2.1.05,3.14-.01,1.02-.06,1.6.08,1.58,1.36-.02,1.24-.66,1.35-1.54,1.21-1.62-.26-2.09.39-2.01,2,.13,2.78.03,5.58.04,8.37,0,.89.15,1.71-1.26,1.69-1.46-.02-1.18-.95-1.18-1.78-.01-2.79-.1-5.58.03-8.37.07-1.53-.36-2.15-1.92-1.91-.92.14-1.74.09-1.68-1.27.04-.97.32-1.36,1.32-1.3,1.16.07,2.32.02,3.49.02Z"/>
  <path class="cls-23" d="M40.79,168.13c0-1.92.02-3.84,0-5.75-.01-.85.04-1.43,1.17-1.46,1.2-.02,1.3.59,1.29,1.52-.03,2.9.06,5.81-.04,8.71-.05,1.35.43,1.75,1.69,1.63.86-.08,1.75.03,2.61-.03,1.01-.07,1.57.07,1.59,1.35.02,1.36-.66,1.32-1.62,1.29-1.74-.05-3.49-.07-5.23,0-1.17.05-1.51-.41-1.47-1.53.08-1.91.02-3.83.02-5.75Z"/>
  <path class="cls-13" d="M57.43,166.99c-.1,1.66.23,3.65-.23,5.6-.51,2.19-2.01,3.25-4.18,3.04-1.71-.17-2.96-1.64-3.1-3.65-.04-.6-.12-1.21.73-1.29.68-.06,1.41-.28,1.63.75.17.81.45,1.73,1.51,1.53,1.06-.19,1.2-1.2,1.21-2.08.05-2.85.04-5.7.05-8.54,0-.82-.14-1.58,1.17-1.58,1.28,0,1.23.69,1.22,1.54-.02,1.45,0,2.91,0,4.67Z"/>
  <path class="cls-36" d="M173.18,117.54c-5.26.14-10.51-.16-15.76-.35-.99-1.85-.55-3.81-.34-5.73.09-.83.86-.98,1.58-1.04,1.26-.11,2.53.13,3.78-.2.32-.09.64-.13.97-.15,1.03.06,2.11-.25,3.08.35.08.98-.74.87-1.27.93-1.04.11-1.29.69-1.34,1.63-.19,3.69-.21,3.69,3.55,3.69.29,0,.58,0,.87.01.82-.03,1.63-.03,2.45,0,.85-.01,1.72-.11,2.44.5.35,0,.7,0,1.06.01-.26.4-.67.33-1.05.35Z"/>
  <path class="cls-101" d="M222.05,140.16c0-2.1.05-4.2-.01-6.3-.06-2,1.4-1.02,2.22-1.18,1.25-.25.75.55.74,1.23-.06,4.2-.09,8.4,0,12.6.02,1.03-.19,1.35-1.19,1.27-.89-.08-1.89.28-1.79-1.31.13-2.09.03-4.2.03-6.3Z"/>
  <path class="cls-84" d="M55.8,140.29c0-2.09.08-4.18-.02-6.27-.1-2.01,1.34-1.28,2.27-1.35,1.64-.14.56.88.55,1.43-.01,2.9-.03,5.8-.04,8.71,0,1.1.03,2.21,0,3.31-.02.66.92,1.74-.85,1.68-1.3-.04-2.06-.16-1.93-1.76.15-1.9.03-3.83.03-5.75Z"/>
  <path class="cls-69" d="M83.52,23.03c-.95-.19-.65-.96-.66-1.54-.03-2.25-.06-4.51,0-6.76.03-1.09-.27-1.62-1.45-1.52-.92.08-1.85.01-2.77.01.26-.4.67-.33,1.05-.35,2.76-.42,5.51-.07,8.27.14,1.29,2.16.84,5.53-.91,6.86-.85.94-2.33,1.15-2.86,2.47-.18.27-.36.55-.67.68Z"/>
  <path class="cls-65" d="M132.56,20.16c0-.09,0-.19,0-.28,2.22,0,4.43,0,6.65,0,.94-.93,2.31-.07,3.3-.8.73-1.3.28-2.71.38-4.06.14-1.79.26-1.92,2.02-1.97.9-.03,1.83.21,2.71-.17,3.85,0,7.7,0,11.55,0,.12.19.09.36-.08.51-.16.11-.34.19-.54.23-.88.14-1.76.08-2.64.1-.98.04-1.97.03-2.95,0-.58.01-1.16-.06-1.73.02-.91.12-2.27-.53-2.58.7-.37,1.46-.55,3.09.64,4.43.3.34,1.28.44.55,1.25-3.51.78-7.07.58-10.61.59-1.57,0-3.15.02-4.72,0-.68-.01-1.43.11-1.93-.55Z"/>
  <path class="cls-51" d="M59.74,152.31c3.12-.96,3.18-3.41,3.11-5.92-.08-3,.17-6.01-.18-9.08h3.18c-.79,1.56-.41,3.13-.45,4.66-.06,1.98,0,3.96-.01,5.94-.01,3.55-1.95,5.15-5.64,4.4Z"/>
  <path class="cls-54" d="M201.24,168.11c0-2.03.02-4.07-.01-6.1-.02-.88.27-1.26,1.2-1.23.85.02,1.27.24,1.26,1.19-.03,4.07-.03,8.13,0,12.2,0,.91-.33,1.23-1.22,1.24-.88.01-1.27-.28-1.25-1.2.04-2.03.01-4.07.01-6.1Z"/>
  <path class="cls-73" d="M98.14,168.12c0-2.04.03-4.08-.02-6.12-.02-.93.37-1.19,1.25-1.21.95-.03,1.21.38,1.21,1.24-.02,4.02-.02,8.05,0,12.07,0,.82-.18,1.31-1.16,1.32-1,0-1.33-.38-1.3-1.35.05-1.98.02-3.96.01-5.95Z"/>
  <path class="cls-29" d="M116.81,117.53c.57-.6,1.32-.32,1.98-.34,2.22-.04,2.22-.02,2.22-2.31,0-1.33,0-2.67,0-4,4.63,0,4.58,0,4.58,4.66,0,1.32-.45,1.54-1.68,1.7-2.37.31-4.73.24-7.1.28Z"/>
  <path class="cls-52" d="M145.52,110.53c-.63.63-1.44.39-2.14.32-1.43-.14-1.9.47-1.71,1.79.02.17,0,.35,0,.52,0,1.1-.16,2.23.06,3.29.32,1.54,2.04.13,2.74,1.08-2.01,0-4.02.07-6.03-.32-.73-.14-1-.41-.98-1.11.02-.52,0-1.04,0-1.56.03-1.09-.27-2.36.19-3.23.52-.98,1.92-.19,2.89-.48.15-.05.28-.19.42-.29,1.52-.74,3.03-.74,4.55,0Z"/>
  <path class="cls-4" d="M147.62,12.88c-.87.7-1.89.32-2.83.32-1.07,0-1.35.4-1.4,1.42-.08,1.75.46,3.55-.32,5.25-.77-.36-1.58-.14-2.37-.17-.7-.03-1.35-.23-1.45-.94-.24-1.86-.63-3.74.32-5.54,1.54-.74,3.17-.21,4.75-.33,1.09-.08,2.2-.02,3.3-.02Z"/>
  <path class="cls-52" d="M123.11,19.88h-4.58c.14-.19.18-.3.24-.32,1.05-.23,2.69.54,3.06-.43.58-1.56.38-3.41.05-5.12-.13-.68-.73-.75-1.36-.8-.89-.07-1.85.35-2.67-.33,2.21-.04,4.4.03,6.6.32.81.11,1.15.37,1.11,1.17-.03.58-.07,1.17,0,1.74.25,1.97-.06,3.53-2.46,3.75Z"/>
  <path class="cls-52" d="M139.57,13.23c0,1.46.07,2.92-.02,4.37-.09,1.41.39,2.09,1.88,1.95.55-.05,1.18-.21,1.64.33-1.28,0-2.57,0-3.85,0-1.52-.47-2-1.51-1.76-3.02.08-.51.08-1.05,0-1.56-.26-1.7.46-2.34,2.11-2.06Z"/>
  <path class="cls-19" d="M88.1,13.23c-2.81.03-5.59-.58-8.4-.35.14-.1.28-.28.42-.28,4.49-.02,8.99-.27,13.45.06,3.56.26,7.09.07,10.63.22,1.16.05,2.33,0,3.5.01,0,.12,0,.23,0,.35-.95.79-2.08.46-3.14.51-1.39.04-2.79.04-4.18,0-1.18.04-2.36.04-3.54,0-1.41.05-2.81.04-4.22,0-1.52-.09-3.1.43-4.52-.51Z"/>
  <path class="cls-98" d="M81.05,168.26c.03-.74-.01-1.5.41-2.5.49,1.21.27,2.22.29,3.2.03,1.57-.02,3.14.01,4.71.02.73-.35,1.69,1.04,1.7,1.46.01,1.17-.97,1.17-1.79.01-3.6.03-7.2-.02-10.81,0-.65.48-1.78-.66-1.83-1.08-.05-2.47-.73-3.22.79-.11-.68.05-1.16.86-1.15.7,0,1.4.03,2.09-.01.89-.05,1.25.32,1.24,1.22-.03,4.19-.04,8.38,0,12.56.01,1.14-.52,1.32-1.49,1.35-1.1.03-1.42-.42-1.38-1.45.06-1.45.03-2.91,0-4.36,0-.56.19-1.18-.38-1.62Z"/>
  <path class="cls-47" d="M145.52,110.53c-1.52,0-3.03,0-4.55,0-7.7,0-15.4,0-23.11,0-1.17,0-2.34,0-3.5,0-.1-.25-.03-.44.2-.58.65-.33,1.36-.26,2.05-.26,9.12,0,18.24,0,27.36,0,.69,0,1.4-.07,2.05.26.23.14.3.33.2.58-.23,0-.47,0-.7,0Z"/>
  <path class="cls-66" d="M75.44,166.24c.1.92.62,1.79.36,2.76-.16-.34-.33-.68-.67-1.4,0,2.5-.01,4.61,0,6.72,0,.95-.41,1.35-1.37,1.34-.91,0-1.44-.29-1.44-1.29.01-4.24,0-8.48,0-12.72,0-.3.08-.57.39-.71,0,4.23,0,8.46.02,12.69,0,.73-.2,1.59,1.01,1.59,1.23,0,.99-.88.99-1.59.02-2.61.03-5.21.04-7.82.42-.18.53.14.65.42Z"/>
  <path class="cls-61" d="M204.31,150.77c-.15.9-.57,1.52-1.57,1.49-.89-.03-1.37-.52-1.41-1.41-.04-.97.46-1.56,1.42-1.59.97-.03,1.41.61,1.56,1.51Z"/>
  <path class="cls-14" d="M38,135.27c1.15-.03,1.65.57,1.66,1.49,0,.94-.56,1.51-1.53,1.51-.91,0-1.38-.55-1.42-1.42-.05-.96.45-1.5,1.29-1.57Z"/>
  <path class="cls-12" d="M169.01,149.2c.95.13,1.42.73,1.37,1.64-.05.93-.57,1.47-1.57,1.42-.95-.06-1.31-.69-1.3-1.5.01-.91.49-1.5,1.49-1.55Z"/>
  <path class="cls-78" d="M98.95,117.18c0,.12,0,.23,0,.35-6.22,0-12.45.01-18.67,0-.67,0-1.41.25-1.99-.34,1.4,0,2.8,0,4.2,0,1.31-.9,2.8-.43,4.21-.51,1.99-.05,3.98-.05,5.96,0,1.5-.08,3.01-.04,4.51-.02.63.01,1.28.02,1.77.53Z"/>
  <path class="cls-94" d="M43.52,136.72c-.19.84-.52,1.55-1.54,1.55-.9,0-1.42-.54-1.46-1.39-.05-.89.32-1.56,1.37-1.62,1.05-.06,1.39.62,1.63,1.46Z"/>
  <path class="cls-14" d="M79.43,150.83c-.18.9-.65,1.48-1.63,1.42-.93-.06-1.32-.69-1.3-1.51.01-.92.52-1.55,1.5-1.52.98.03,1.36.71,1.44,1.6Z"/>
  <path class="cls-44" d="M83.44,150.86c-.11.97-.63,1.44-1.61,1.39-.95-.05-1.33-.7-1.33-1.49,0-.9.54-1.53,1.51-1.5.99.03,1.37.7,1.42,1.6Z"/>
  <path class="cls-80" d="M166.46,150.7c-.15.93-.56,1.56-1.56,1.55-.92,0-1.4-.6-1.45-1.4-.05-.91.47-1.54,1.43-1.6,1.01-.06,1.38.63,1.57,1.45Z"/>
  <path class="cls-59" d="M164.8,174.92c1.74.39,2.17-.38,2.09-2.03-.13-2.46-.03-4.94-.03-7.53,1.28.78,1.13,1.88,1.04,2.96-.15-.28-.3-.55-.68-1.24,0,2.67,0,4.89,0,7.12,0,.52.07,1.21-.59,1.26-.61.05-1.54.68-1.82-.54Z"/>
  <path class="cls-88" d="M173.21,167.28c-.14-.85.32-1.54.51-2.33.72.27.48.82.49,1.23.02,2.39.08,4.78-.04,7.16-.08,1.42.33,2.08,1.79,1.93-1.84.65-2.15.45-2.16-1.37-.01-1.74.03-3.48,0-5.22-.01-.5.33-1.23-.58-1.4Z"/>
  <path class="cls-100" d="M159.17,13.23c0-.12,0-.23,0-.35,4.53,0,9.07-.01,13.6,0,.61,0,1.29-.23,1.8.35-.47,0-.93,0-1.4,0-.73.62-1.62.51-2.48.5-1.49.04-2.99.04-4.48,0-.97.04-1.93.03-2.9,0-1.39-.09-2.86.41-4.15-.51Z"/>
  <path class="cls-83" d="M146.16,152.11c-.11-.55.29-1.18-.27-1.65.06-.4.31-.79.55-.23.24.58.33,1.33-.27,1.88Z"/>
  <path class="cls-87" d="M170.68,169.3c.02.22.06.48-.21.55-.09.02-.33-.14-.34-.24-.06-.44-.07-.88-.09-1.33.22.34.43.68.65,1.02Z"/>
  <path class="cls-99" d="M83.52,23.03l.38-.73c.83-.87,1.41-2.19,3.01-1.61.93.16,1.86.1,2.8.1,24.66,0,49.32,0,73.98,0,.86,0,1.75.16,2.58-.26,2-.33,2.57,1.39,3.57,2.5.55,1.06.69,2.2.69,3.38,0,25.85,0,51.7,0,77.55,0,1.06-.12,2.09-.51,3.07-.08.18-.18.37-.27.55-.56.78-1.24,1.46-2.02,2.03-.09.04-.18.07-.28.11-.2.05-.4.06-.61.05-.21-.03-.42-.07-.63-.11-14.29-.08-28.57-.03-42.86-.03-12.24,0-24.49-.07-36.73.04-.2.05-.4.08-.61.11-1.34-.26-2.26-.97-2.48-2.4-.42-1.16-.59-2.35-.59-3.59.01-25.72.01-51.45,0-77.17,0-1.24.15-2.43.59-3.59Z"/>
  <path class="cls-69" d="M83.52,107.38c.64.77,1.16,1.67,2.14,2.09,23.41.02,46.83,0,70.24,0,3.78,0,7.56,0,11.33,0,.11-.03.23-.03.34,0,.35,1.04-.36,1.04-1.05,1.05-1.05,0-2.1,0-3.15,0-2.65-.06-5.29.03-7.93.13-.86.03-1.74.1-2.59-.12-2.19-.51-4.43.09-6.63-.32-10.62,0-21.24,0-31.86,0-1.77.3-3.55.08-5.33.13-2.06.06-4.1.33-6.15.54-1.08.21-2.18.1-3.26.14-1.93,0-3.87-.02-5.8.02-2.23-.03-4.46-.02-6.7-.03-.23,0,.06-.02-.17,0-.4.05.04.15,0,.23.35,2,.66,3.99-.25,5.94-1.4,0-2.8,0-4.2,0,0-2.89-.02-5.77.01-8.66.01-.99-.07-1.95-.36-2.89.11-.16.23-.16.34,0,.53.48-.01,1.58,1.03,1.76Z"/>
  <path class="cls-27" d="M82.49,105.63c-.11,0-.23,0-.34,0V24.87c.11,0,.23,0,.34,0v80.76Z"/>
  <path class="cls-25" d="M169.27,107.7c.62-1.47.8-2.99.8-4.59-.03-25.32-.03-50.63,0-75.95,0-1.55-.21-3.01-.81-4.42.07-.06.14-.11.2-.17.88.18.71-.49.72-.96.08-2.08.01-4.16.04-6.24.01-.74-.07-1.52.49-2.14.82,0,1.63,0,2.45,0,0,34.65,0,69.3,0,103.95-.82,0-1.63,0-2.45,0-.37-.4-.53-.9-.52-1.43.02-3.27-.33-6.55.35-9.8.02-26.86,0-53.71,0-80.57,0,26.72,0,53.44,0,80.16-.26.81.29,2.11-1.27,2.15Z"/>
  <path class="cls-86" d="M75.44,166.24c-.22-.14-.44-.28-.65-.42.06-.28-.17-.85.31-.74.53.12.4.72.34,1.16Z"/>
  <path class="cls-105" d="M99.65,110.53c1.05,0,2.1,0,3.15,0,1.4-.27,2.8-.28,4.2,0,1.43.74,2.96.31,4.43.31,1.47,0,1.91.54,1.89,1.96-.05,5.27.19,4.3-4.41,4.38-1.11.02-2.21,0-3.32,0-.77-.97-.48-2.12-.5-3.21-.05-2.54-.04-2.56-2.51-2.58-.76,0-1.52.04-2.27-.09-.2-.04-.39-.12-.56-.24-.18-.15-.22-.33-.11-.53Z"/>
  <path class="cls-36" d="M99.65,110.88c.12,0,.23,0,.35,0,.86,2.1.86,4.2,0,6.3-.35,0-.7,0-1.05,0-2.1,0-4.2,0-6.3,0-.89-1.25-.49-2.69-.51-4.04-.02-1.25-.49-1.75-1.75-1.75-1.24,0-2.56.34-3.69-.51.67-.74,1.53-.28,2.29-.32,1.57-.09,3.14-.03,4.72-.03,1.96.49,3.99-.12,5.95.35Z"/>
  <path class="cls-78" d="M100,117.18c0-2.1,0-4.2,0-6.3,1.44,0,2.88.04,4.31-.01.97-.04,1.33.34,1.3,1.31-.05,1.67-.01,3.34-.01,5h-5.6Z"/>
  <path class="cls-78" d="M107.01,110.53c-1.4,0-2.8,0-4.2,0,.46-.52,1.08-.33,1.64-.33,3.31,0,6.62,0,9.92.01,0,.11,0,.21,0,.32-2.45,0-4.9,0-7.35,0Z"/>
  <path class="cls-24" d="M146.22,110.22c2.21,0,4.42,0,6.63,0,.14.15.26.32.35.51.07.2.12.4.14.61-.13,1.95.54,3.97-.47,5.85-4.56,0-4.45,0-4.6-4.16-.07-1.85.55-2.41,2.26-2.15.5.07,1.03.01,1.55-.34-1.95,0-3.91,0-5.86,0,0-.1,0-.21,0-.31Z"/>
  <path class="cls-49" d="M152.87,117.18c0-2.1,0-4.2,0-6.3,1.15-.73,2.5-.07,3.69-.51,2.04.08,4.08-.21,6.11.16-.64.63-1.44.32-2.16.33-3.09.04-3.09.02-3.09,3.18v3.13c-1.52,0-3.03,0-4.55,0Z"/>
  <path class="cls-19" d="M108.4,13.23c1.8,0,3.6,0,5.4,0,.51,0,1.19-.09,1.21.65.04,1.56.03,3.13-.07,4.69-.04.62-.52.99-1.23.97-.5-.01-1.06-.16-1.45.34-1.66.87-3.37.54-5.08.2.87-2.2.38-4.65,1.23-6.85Z"/>
  <path class="cls-25" d="M86.35,20.61c-1.08.19-1.62,1.15-2.45,1.68.32-1.51,1.66-1.85,2.8-2.42.57-.35,1.2-.46,1.85-.5,1.83.04,3.66,0,5.49-.03,1.31.14,2.64-.12,3.95.16.67.23,1.36.23,2.06.23,5.6-.06,11.2.56,16.8.33.23,0,.46.03.68.12,5.01,0,10.02-.02,15.03-.02,5.84.1,11.68.15,17.51-.28,1.16-.93,2.53-.35,3.79-.52.96-.08,1.92.06,2.88,0,1.49-.06,2.97.1,4.45.01,1.54-.03,3.09.02,4.63.07.58.07,1.13.28,1.67.5.8.77,2.17,1.17,1.86,2.71,0,0-.09.08-.09.08-.9-.73-1.43-1.94-2.74-2.15-.18.15-.39.25-.62.3-1.11.09-2.22.04-3.32.04-24.38,0-48.77,0-73.15,0-.82,0-1.63.03-2.45-.04-.23-.05-.44-.14-.63-.27Z"/>
  <path class="cls-102" d="M108.4,13.23c0,1.21-.09,2.42.02,3.62.12,1.34-.27,2.34-1.42,3.03-1.68.35-3.39.1-5.08.15-.56-.85.34-.85.67-.96,1.17-.37,1.43-1.19,1.47-2.29.04-1.2-.33-2.47.49-3.56,1.05,0,2.1,0,3.15,0,.23,0,.47,0,.7,0Z"/>
  <path class="cls-69" d="M101.75,19.88c1.75,0,3.5,0,5.25,0,1.75,0,3.5,0,5.25,0,1.75.17,3.55-.35,5.27.31-6.11.01-12.23.03-18.34.04-.46,0-.95.09-1.29-.34.21-.26.5-.37.82-.43,1.03.03,2.11-.35,3.03.43Z"/>
  <path class="cls-48" d="M166.52,110.53c.24-.46,1.12-.29,1.05-1.05,0,0,0,0,0,0,.33-.2.63-.21.89.12.47,2.54.78,5.08-.19,7.58-.06,0-.12,0-.17,0-4.81,0-4.76,0-4.76-4.69,0-1.36.47-1.77,1.72-1.63.49.05,1.06.16,1.46-.33Z"/>
  <path class="cls-75" d="M168.28,117.18c0-2.57,0-5.13,0-7.7-.12-.86.88-1.09,1.02-1.8,0,0-.02,0-.02,0,.91-.23.68-1.19,1.11-1.72.12-.15.23-.14.34.01,0,3.73,0,7.47,0,11.2-.82,0-1.63,0-2.45,0Z"/>
  <path class="cls-48" d="M162.67,110.54c-2.1,0-4.2,0-6.3,0-1.17.27-2.33.28-3.5,0,0-.11,0-.21-.02-.32,3.02,0,6.04-.02,9.07-.02.51,0,1.06-.15,1.46.34-.23,0-.47,0-.7,0Z"/>
  <path class="cls-38" d="M88.45,19.88c-.58,0-1.17,0-1.75,0,2.37-1.82,1.07-4.4,1.4-6.65,1.52,0,3.03,0,4.55,0,.99,1.82.52,3.74.38,5.63-.05.72-.65.82-1.3.85-1.09.04-2.21-.21-3.28.16Z"/>
  <path class="cls-24" d="M153.92,19.88c-1.28,0-2.57,0-3.85,0-1.78-.77-2.92-4.28-2.04-6.17.27-.57.74-.47,1.18-.48,1.22-.02,2.44,0,3.65,0,.46.51.52,1.14.49,1.77-.07,1.66.07,3.29.56,4.88Z"/>
  <path class="cls-71" d="M166.17,19.88c-1.63,0-3.27,0-4.9,0-.42-.3-.9-.18-1.35-.17-.77.02-1.29-.36-1.39-1.05-.28-1.82-.62-3.67.3-5.43.12,0,.23,0,.35,0,1.4,0,2.8,0,4.2,0,.76.96.51,2.09.49,3.15-.02,1.42.05,2.67,1.88,2.86.28.03.49.28.43.63Z"/>
  <path class="cls-100" d="M153.92,19.88c-.88-.54-1.13-1.32-1.07-2.33.08-1.43.02-2.88.02-4.32,1.05,0,2.1,0,3.15,0,.51.57.54,1.28.5,1.97-.1,1.57.21,3.11.2,4.67-.93,0-1.87,0-2.8,0Z"/>
  <path class="cls-39" d="M156.72,19.88c-1.11-1.21-.6-2.7-.69-4.08-.05-.85,0-1.71,0-2.57.93,0,1.87,0,2.8,0,0,.98.07,1.97-.02,2.94-.17,1.93-.01,3.57,2.46,3.71-1.52,0-3.03,0-4.55,0Z"/>
  <path class="cls-21" d="M88.45,19.88c.51-.57,1.2-.33,1.81-.34,2.39-.04,2.39-.02,2.39-2.48,0-1.28,0-2.55,0-3.83,1.4,0,2.8,0,4.2,0,.9,1.83.6,3.66,0,5.49-.49,1.48-1.9.68-2.8,1.15h-5.6Z"/>
  <path class="cls-78" d="M101.75,19.88c-1.05,0-2.1,0-3.15,0,1.25-1.41,1.39-3.1,1.26-4.88-.04-.63.02-1.26.49-1.77,1.4,0,2.8,0,4.2,0,0,1.21-.08,2.44.02,3.64.15,1.7-.4,2.69-2.24,2.69-.19,0-.39.21-.58.32Z"/>
  <path class="cls-41" d="M100.35,13.23c0,1.21-.11,2.44.03,3.64.17,1.52-.28,2.54-1.78,3.01-.23,0-.47,0-.7,0-1.28,0-2.57,0-3.85,0,2.72-.99,2.8-1.12,2.8-4.38,0-.76,0-1.51,0-2.27,1.17,0,2.33,0,3.5,0Z"/>
  <path class="cls-95" d="M86.7,110.88c1.55,0,3.11.04,4.66-.01.97-.03,1.33.34,1.3,1.31-.05,1.67-.01,3.34-.01,5.01-1.98,0-3.97,0-5.95,0,0-2.1,0-4.2,0-6.3Z"/>
  <path class="cls-6" d="M169.36,22.65c-.17-1.12-1.36-1.48-1.78-2.42-1.33-.45-1.94-1.42-1.89-2.78.06-1.42-.41-2.9.49-4.22,1.52,0,3.03,0,4.55,0-.14,3.38.31,6.8-.33,10.34-.47-.43-.54-.94-1.04-.92Z"/>
  <path class="cls-38" d="M166.18,13.23c0,1.34.06,2.69-.02,4.02-.08,1.29.38,2.26,1.42,2.98-.51.05-.97-.11-1.4-.35-.7-.79-2.02.17-2.53-.77-.61-1.1-.19-2.4-.26-3.61-.04-.76,0-1.52,0-2.27.93,0,1.87,0,2.8,0Z"/>
  <path class="cls-16" d="M91.96,100.71l-.39-.32c-.45-.62-.32-1.34-.32-2.03,0-22.21,0-44.42,0-66.63,0-.68-.18-1.42.4-1.99l.02.02c.57-.56,1.31-.42,1.99-.42,21.97,0,43.93,0,65.9,0,.69,0,1.41-.13,2,.41h0c.59.57.4,1.31.4,1.99.01,22.25.01,44.5,0,66.76,0,2.04-.27,2.33-2.3,2.37-2.97.05-5.94,0-8.92.02-.81,0-1.63-.05-2.44.16-14.14.1-28.29.11-42.43-.02-4.13-.04-8.26-.07-12.39-.14-.52,0-1.05.09-1.54-.17Z"/>
  <path class="cls-92" d="M148.2,100.67c3.71-.45,7.43-.11,11.15-.2,2.28-.06,2.28-.02,2.28-2.26,0-22.18,0-44.36,0-66.54,0-.64-.05-1.28-.07-1.92.13-.02.27-.05.4-.07.34.54.18,1.14.18,1.71,0,22.42,0,44.84,0,67.26,0,.57.13,1.17-.15,1.72l-.64.41c-.57.37-1.22.29-1.85.3-3.17,0-6.35.01-9.52,0-.61,0-1.29.17-1.78-.4Z"/>
  <path class="cls-46" d="M148.2,100.67c4.38.04,8.77.08,13.15.11-.06.09-.09.18-.1.28-.54.34-1.14.18-1.7.18-21.96,0-43.92,0-65.88,0-.57,0-1.17.16-1.7-.18,0-.12,0-.24-.01-.36.45-.08.91-.23,1.36-.23,18.29.06,36.59.12,54.88.19Z"/>
  <path class="cls-45" d="M167.23,109.49c-.49.59-1.18.4-1.79.4-26,0-52,0-78,0-.61,0-1.3.22-1.78-.41.12-.01.24-.02.36-.03.5-.23,1.04-.13,1.55-.13,25.91,0,51.81,0,77.72,0,.52,0,1.05-.1,1.56.12.13.01.26.03.38.04Z"/>
  <path class="cls-42" d="M166.18,20.56c.12,0,.23.02.35.03.04.26.28.61-.2.67-.46.06-.93.02-1.4.02-25.5,0-51,0-76.5-.02-.7,0-1.69.53-2.08-.64.11-.02.23-.03.34-.05.47.34,1.02.19,1.53.19,25.48,0,50.96,0,76.44,0,.51,0,1.05.16,1.53-.19Z"/>
  <path class="cls-74" d="M166.85,109.44c-9.1.01-18.19.04-27.29.04-17.85,0-35.69-.02-53.54-.03.54-.53,1.22-.3,1.83-.3,25.72-.01,51.44-.01,77.16,0,.61,0,1.29-.23,1.83.3Z"/>
  <path class="cls-74" d="M91.25,100.38c-.79-.22-.32-.86-.32-1.24-.03-22.61-.03-45.22-.02-67.83,0-.56-.2-1.18.36-1.63.28.55.15,1.15.15,1.72,0,22.42,0,44.84,0,67.26,0,.57.15,1.17-.16,1.71Z"/>
  <path class="cls-97" d="M161.99,100.37c0-23.56-.02-47.13-.03-70.69.59.51.35,1.19.35,1.8.01,22.36.01,44.71,0,67.07,0,.61.23,1.29-.32,1.82Z"/>
  <path class="cls-32" d="M91.25,100.38c0-23.56.01-47.13.02-70.69.13.02.26.03.39.04-.02.76-.06,1.51-.06,2.27-.01,22.79-.02,45.59-.03,68.38-.11,0-.22,0-.32,0Z"/>
  <path class="cls-63" d="M91.97,101.07c23.09,0,46.19,0,69.28,0,.08.68-.45.35-.68.35-22.64.02-45.29.02-67.93.01-.22,0-.45-.04-.67-.08-.03,0-.07-.08-.07-.13,0-.05.04-.11.06-.16Z"/>
  <path class="cls-92" d="M161.56,29.75c-23.29,0-46.59,0-69.88,0,.09-.15.19-.29.28-.44.55-.29,1.14-.15,1.72-.15,21.96,0,43.92,0,65.88,0,.57,0,1.17-.14,1.72.15.1.14.2.29.29.43Z"/>
  <path class="cls-70" d="M161.27,29.32c-23.1,0-46.21,0-69.31,0,.52-.56,1.2-.33,1.82-.33,21.89-.01,43.79-.01,65.68,0,.61,0,1.29-.23,1.82.33Z"/>
  <path class="cls-25" d="M169.29,107.69c.12.86-.78,1.14-1.02,1.8h-.7c.57-.6,1.15-1.2,1.72-1.8Z"/>
  <path class="cls-78" d="M99.65,110.88c-1.98-.19-4.01.41-5.95-.35,1.98,0,3.97,0,5.95,0,0,.12,0,.23,0,.35Z"/>
  <path class="cls-72" d="M170.73,105.98c-.11,0-.23,0-.34-.01,0-27.04,0-54.07,0-81.11.11,0,.23,0,.34,0v81.12Z"/>
  <path class="cls-65" d="M152.87,110.53c1.17,0,2.33,0,3.5,0-1.11.71-2.34.19-3.5.35,0-.12,0-.23,0-.35Z"/>
  <path class="cls-99" d="M166.18,20.56c-.5.6-1.19.36-1.8.36-25.29.01-50.59.01-75.88,0-.61,0-1.3.24-1.81-.36,4.54-.03,9.08-.08,13.62-.08,21.38-.01,42.75,0,64.13,0,.58,0,1.16.05,1.74.08Z"/>
  <path class="cls-41" d="M160.57,30.07c.34.11.57.33.7.67-.34.66-.17,1.37-.17,2.06-.03,22.25.03,44.5-.04,66.75-1.25.67-2.58.16-3.87.28-1.01-1.13-.65-2.68-1.23-3.94-.15-1.22-.09-2.44-.09-3.67,0-14.27-.02-28.55.01-42.82.06-1.26.61-2.51.12-3.79-.12-.28-.2-.56-.22-.86.1-2.26.01-4.52.07-6.78.04-1.36-.54-1.87-1.87-1.82-1.68.06-3.37.06-5.05,0-1.32-.04-1.88.47-1.87,1.82,0,2.32.12,4.64-.03,6.95-.1.21-.27.31-.5.31-.36-.07-.55-.32-.67-.64-.22-2.96-.24-5.91,0-8.87.12-.32.33-.56.64-.71,2.35-.44,4.73-.1,7.09-.21.67-.03,1.41.19,1.95-.43.15-.26.24-.53.27-.82q.36-3.13,3.41-3.16c.17,0,.35-.01.52-.02.29-.05.56-.15.81-.29Z"/>
  <path class="cls-17" d="M146.58,35.27c-.13.13-.25.25-.38.38-.28,3.02-.27,6.04,0,9.06.14.14.27.27.41.41,1.34-.05,2.7-.45,4.02.12-.19.84-.19.92-1.21.97-.98.05-1.67.33-1.82,1.4-.09.26-.23.5-.4.71-.17.22-.36.43-.55.65-.11.17-.2.35-.24.55-.12,10.99-.01,21.98-.06,32.97,0,.92.16,1.87-.28,2.75-.83.83-1.82.59-2.8.42-1.15-.64-1.46-1.64-1.19-2.87.18-.47.65-.61,1.02-.88.19-.18.34-.39.45-.63.12-2.47.18-4.93-.04-7.39-.15-.31-.33-.6-.52-.89-.49-.49-.58-1.16-.79-1.78-2.09-.24-4.18-.04-6.26-.05-3.13-.01-3.55-.41-3.57-3.47-.01-1.74-.05-3.48.03-5.22.03-.71-.09-1.58.95-1.79.22.03.36.16.42.38.02,2.09-.05,4.19,0,6.29.04,1.82.24,2.03,2.01,2.06,1.81.04,3.62-.06,5.42.04,1.34.07,1.74-.54,1.71-1.77-.05-1.98.01-3.96-.04-5.94-.04-.17-.07-.35-.09-.52,0-.17.02-.33.08-.49-.33-.51-1.15-.08-1.41-.73-.6-1.61,1.08-1.5,1.67-2.22.17-.23.32-.46.42-.72.14-6.84.14-13.68-.01-20.51-.11-.28-.26-.55-.4-.82-.09-.18-.17-.36-.24-.55-.41-1.45-.5-2.91-.02-4.36.27-.25.56-.4.77-.23-1.11-.02-2.39.62-3.61-.05-.17-.13-.2-.29-.11-.47,2.8,0,5.61,0,8.41-.01,1.61.38,3.26-.06,4.88.24.11.76-.49.73-.94.87-.87.1-1.74.09-2.61.04-1.28-.07-2.01.34-1.89,1.77.05.57.02,1.16-.22,1.71-.17.44-.67.33-.96.56Z"/>
  <path class="cls-62" d="M139.92,30.38h4.21c-.26.58-.72.25-1.06.35-.4.39-.92.48-1.44.48-.92,0-1.56.24-1.57,1.35,0,1.03.15,1.77,1.42,1.92,1.06.13,1.05.23.98,1.06-.61.27-1.25.22-1.89.22-6.38,0-12.75,0-19.13,0-.69,0-1.4.08-2.03-.32-.44-.79.27-.81.68-.92.77-.21,1.56-.15,2.35-.11,2.16,0,2.31-.16,2.3-1.78,0-1.69-1.18-1.37-2.19-1.41-1.75,0-3.49.15-5.23-.11-.21-.06-.39-.17-.55-.32-.09-.23-.04-.41.16-.55,1.71-.08,3.42-.01,5.14-.03,2.79-.09,5.58.18,8.37-.14h3.18c2.08.43,4.21-.16,6.29.31Z"/>
  <path class="cls-58" d="M150.77,100.03c-14,0-28.01,0-42.01,0,.12-.91.89-.79,1.46-.84,1.14-.11,2.3-.07,3.45-.02,2.68-.06,5.37-.05,8.05,0,.64.02,1.28.04,1.92,0,.58-.04,1.04-.25,1.01-.94-.03-.59-.44-.78-.95-.82-.64-.06-1.28-.02-1.93-.01-2.67.05-5.33.07-8,0-.89-.02-1.81.16-2.59-.47-.08-.25-.01-.44.2-.59.65-.37,1.36-.29,2.05-.29,11.14,0,22.29,0,33.43,0,.64,0,1.29-.05,1.9.21.22.11.34.29.34.54-.38.53-.94.56-1.51.58-1.9.07-3.8.06-5.7.01-.97.03-1.95-.06-2.93.04-.5.05-.89.26-.9.85,0,.58.37.82.87.87.97.11,1.95.02,2.94.04,1.9-.06,3.8-.06,5.7,0,1.09.21,2.45-.63,3.19.86Z"/>
  <path class="cls-82" d="M96.85,100.03c-1.55-.1-3.54.67-4.55-.32-1.02-1-.33-2.99-.33-4.54-.02-21.03-.02-42.06,0-63.1,0-.66-.28-1.41.31-1.99.16.16.29.35.38.57.3.97.2,1.96.2,2.95,0,20.55,0,41.1,0,61.65,0,.47,0,.93,0,1.4.03,2.33.07,2.37,2.48,2.51.23.01.46.03.7.07.22.05.44.13.64.24.22.14.28.33.18.58Z"/>
  <path class="cls-24" d="M96.85,100.03c0-.11,0-.23,0-.34,1.38-.93,2.92-.42,4.39-.51.11,0,.23-.01.34,0,2.07.21,3.98.14,4.45-2.5,1.74-.35,3.48-.64,5.17.2.82,0,1.63,0,2.45,0,.67.93.67,1.87,0,2.8-1.63.18-3.31-.38-4.9.35-3.97,0-7.94,0-11.9,0Z"/>
  <path class="cls-43" d="M160.92,99.68c0-22.32,0-44.64.01-66.96,0-.67-.26-1.41.33-1.99,0,22.5,0,44.99,0,67.49,0,.61.24,1.3-.34,1.81-.12-.08-.16-.16-.12-.24.04-.08.08-.12.12-.12Z"/>
  <path class="cls-104" d="M160.92,99.68c0,.12,0,.24,0,.35-3.39,0-6.77,0-10.16,0-.98-.7-2.1-.19-3.15-.35-.67-.93-.67-1.87,0-2.8.47,0,.93,0,1.4,0,1.33-.79,2.71-.56,4.1-.21.31,2.33,2.24,2.52,3.95,3.01,1.28,0,2.57,0,3.85,0Z"/>
  <path class="cls-82" d="M104.21,30.07c2.68,0,5.37.01,8.05.02.09.22.03.39-.17.52-.18.1-.38.17-.58.21-2.34.31-4.73-.24-7.06.31-1.09.19-2.18.17-3.27.11-.61-.03-1.31,0-1.59-.76,1.49-.68,3.11.08,4.63-.41Z"/>
  <path class="cls-43" d="M104.21,30.07c-1.48.69-3.04.14-4.56.32-.3.36-.72.44-1.15.47-1.89-.04-3.78.16-5.66-.12-.19-.09-.37-.21-.53-.35,0-.1-.01-.21-.03-.31,3.98,0,7.96,0,11.93,0Z"/>
  <path class="cls-41" d="M153.22,30.38c-1.63-.15-3.3.34-4.9-.32,3.38,0,6.76,0,10.14,0,.11.24.04.4-.22.47-1.05-.08-2.05.23-3.08.33-.68.07-1.4.08-1.95-.49Z"/>
  <path class="cls-53" d="M112.26,30.38c0-.1,0-.2,0-.3,3.27,0,6.54,0,9.8,0,.11.07.15.14.11.2-.04.07-.08.1-.11.1-1.75,0-3.5,0-5.25,0-1.52.73-3.03.74-4.55,0Z"/>
  <path class="cls-89" d="M122.06,30.38c0-.1,0-.2,0-.3,2.8,0,5.59,0,8.39,0-2.02.7-4.1.14-6.14.3-.75.06-1.5,0-2.25,0Z"/>
  <path class="cls-89" d="M139.92,30.38c-2.09-.18-4.22.39-6.29-.31,2.1,0,4.19,0,6.29,0,0,.1,0,.2,0,.3Z"/>
  <path class="cls-43" d="M158.47,30.38c0-.1,0-.21-.01-.31.7,0,1.41,0,2.11,0-.12.11-.23.21-.35.32-.58.26-1.17.26-1.75,0Z"/>
  <path class="cls-101" d="M147.02,45.02c-.8-.64-.39-1.52-.42-2.28-.06-1.92.01-3.84-.03-5.76-.02-.92.18-1.41,1.24-1.38,2.5.05,5.01.01,7.51.01.4,0,.97-.06.95.49-.09,2.98.52,5.99-.31,8.95-.87.84-1.98.57-2.97.5-1.99-.14-3.99-.17-5.96-.52Z"/>
  <path class="cls-100" d="M158.47,30.38c.58,0,1.17,0,1.75,0-.45.53-1.07.33-1.63.34-2.22.04-2.22.03-2.22,2.3,0,.64,0,1.28,0,1.91-1.42.29-2.85.24-4.27.02-.69-1.42-.73-2.83.07-4.23.38-.01.8.06,1.05-.35,1.75,0,3.5,0,5.25,0Z"/>
  <path class="cls-30" d="M156.37,48.93c0,15.75,0,31.5,0,47.25-.11.02-.23.04-.34.06-.18-.16-.3-.35-.38-.57-.18-.74-.12-1.5-.12-2.26,0-13.9,0-27.8,0-41.7,0-.86-.13-1.75.26-2.58.14-.23.33-.3.58-.2Z"/>
  <path class="cls-49" d="M156.05,96.18c.11,0,.21,0,.32,0,.86,1.04.68,2.29.7,3.5-.34,0-.68,0-1.02,0-3.22-.04-2.79.4-2.83-2.8.58-.63,1.42-.32,2.11-.58.23-.1.47-.14.72-.13Z"/>
  <path class="cls-49" d="M156.37,48.93c-.11,0-.22,0-.34,0-.14-.06-.26-.14-.37-.23-.18-.13-.37-.25-.6-.32-.82-.18-1.79.18-2.43-.65-.31-1.97-.09-2.26,1.79-2.3.46-.01.91.02,1.37-.05.2-.08.39-.06.57.05.77,1.17.24,2.33,0,3.5Z"/>
  <path class="cls-8" d="M156.37,45.43s-.17,0-.17,0h-.17c-1.75,0-3.5.83-5.25,0-1.38-.16-2.82.35-4.17-.31.14-.03.28-.06.42-.1,2.98,0,5.96.02,8.94.02.14.13.27.26.41.39Z"/>
  <path class="cls-79" d="M152.17,34.93c1.4,0,2.8,0,4.2,0-1.19.7-2.48.26-3.72.31-2.02.08-4.05.02-6.07.02.15-.28.41-.33.69-.34,1.63-.82,3.27-.82,4.9,0Z"/>
  <path class="cls-91" d="M156.82,44.7v-8.61s.09,0,.13,0v8.61s-.09,0-.13,0Z"/>
  <path class="cls-103" d="M146.2,44.71c-.54-3.02-.56-6.04,0-9.06,0,3.02,0,6.04,0,9.06Z"/>
  <path class="cls-9" d="M133.71,60.88c-.76-.03-.8.49-.8,1.05,0,2.43.02,4.86,0,7.3-.02,1.21.66,1.43,1.67,1.42,2.78-.03,5.56,0,8.34,0,.04,0,.11.05.12.09.03.25-.17.21-.31.25-1.22.94-2.71.19-4.23.71.99.32,1.85.08,2.64.3.47.13,1.31.15.6,1.02-.55.24-1.14.21-1.72.21-6.14,0-12.28,0-18.42,0-.63,0-1.28.06-1.85-.33-.38-.67.19-.77.58-.89.73-.22,1.49-.18,2.24-.13q2.48-.06,2.49-2.53c0-2.61.01-5.22,0-7.83-.01-2.14-.08-2.2-2.18-2.52-.21-.03-.4-.1-.58-.21-.34-.38-.46-.74.08-1.05.79-.3,1.61-.19,2.41-.2,5.04-.01,10.09,0,15.13,0,.69,0,1.39-.06,2.07.16.4.24.71.48.06.82-1.05.56-2.19.72-3.69.76,1.25.66,2.48.03,3.32.85.45.2,1.1-.41,1.4.35-1.08.87-2.47.21-3.63.74-1.92,0-3.87.5-5.73-.34Z"/>
  <path class="cls-10" d="M142.34,58.06c-6.76,0-13.51,0-20.27,0-1.66.9-3.45.26-5.17.46-.96,0-1.91-.01-2.87,0-1.45.03-2.91.13-4.63-.23,1.12.43,1.23,1.2,1.25,1.96.1,3.72-.01,7.45.08,11.17.05,1.83-1.49.82-2.21,1.11,1.59.23,3.2-.59,4.89-.34,1.43.04,2.85.03,4.28.02.69,0,1.38-.06,1.92.5,7.47,0,14.93,0,22.4,0,.47-.37.94-.23,1.4,0,.12.24.24.48.36.71.26,2.79.26,5.58,0,8.37-.12.12-.24.24-.36.37-.08-.09-.15-.17-.23-.26-.11-.2-.17-.42-.21-.65-.11-1.75-.03-3.5-.05-5.24-.03-1.96-.14-2.1-2.08-2.1-4.2-.02-8.4,0-12.59,0-6.65,0-13.29,0-19.94,0-2.86,0-3.19-.35-3.2-3.25-.01-3.26,0-6.53,0-9.79,0-3.71.04-3.75,3.85-3.75,9.5,0,19.01,0,28.51,0,1.05,0,2.1.02,3.15,0,1.98-.06,2.21-.26,2.22-2.24.03-5.19,0-10.38.01-15.56,0-.93-.05-1.87.09-2.79.05-.23.13-.44.24-.64.08-.08.16-.16.24-.25.12.12.23.25.35.37.32.66.15,1.37.15,2.06.02,5.97.01,11.94,0,17.92,0,.57.14,1.16-.16,1.71-.12.12-.24.24-.36.37-.35.28-.71.3-1.07.02Z"/>
  <path class="cls-33" d="M143.09,61.14c.65,2.73.14,5.49.27,8.23.03.51-.36.71-.81.71-2.79,0-5.57-.02-8.36-.04-.48,0-.8-.29-.78-.75.07-2.7-.32-5.41.21-8.09,3.16.11,6.31-.26,9.47-.06Z"/>
  <path class="cls-52" d="M143.41,82.19c-.25.41-.66.34-1.05.35-.3.32-.7.39-1.1.45-.52.07-1.13.09-1.1.82.03.65.59.8,1.11.92.62.15,1.26.21,1.8.61.93,0,1.87,0,2.8,0,.28-.1.4,0,.36.29-.13.19-.31.32-.52.41-.68.2-1.39.14-2.08.14-10.88,0-21.76,0-32.64,0-.81,0-1.64.12-2.4-.27-.21-.13-.29-.33-.24-.57,1.52-.97,3.21-.37,4.81-.53,1.86.06,3.73.01,5.59.02.47,0,.93,0,1.39-.14.48-.14.87-.4.81-.97-.06-.54-.53-.58-.93-.61-1.51-.1-3.03-.03-4.54-.04-.52,0-1.05,0-1.58-.01-1.83-.11-3.71.44-5.48-.44-.12-.24-.07-.43.14-.6.58-.37,1.23-.31,1.86-.31,10.28-.01,20.57,0,30.85,0,.75,0,1.53-.08,2.15.49h0Z"/>
  <path class="cls-24" d="M152.17,34.93c-1.63,0-3.27,0-4.9,0q0-4.2,4.21-4.2c.23,0,.46,0,.69,0,0,1.4,0,2.8,0,4.2Z"/>
  <path class="cls-89" d="M142.71,35.28c-.25-.11-.5-.27-.76-.34-.76-.18-1.9.43-2.22-.44-.34-.92-.15-2.06-.13-3.1.01-.63.54-.66,1.02-.67.81,0,1.63,0,2.44,0,.14,1.51-.34,3.08.35,4.55-.23.21-.47.19-.7,0Z"/>
  <path class="cls-19" d="M150.77,45.43c1.75,0,3.5,0,5.25,0-.28.38-.71.4-1.1.34-1.71-.27-2.33.47-2.05,2.11-1.87.78-3.73.78-5.6,0-.28-1.64.34-2.36,2.05-2.12.49.07,1.06.16,1.45-.33Z"/>
  <path class="cls-41" d="M146.16,85.64c.03-.1.05-.2.05-.31-.26-.43-.16-.91-.16-1.36,0-11.34,0-22.68,0-34.02,0-.46-.11-.93.16-1.36.11,0,.23-.01.34-.02.08.08.16.17.24.25.32.59.26,1.24.27,1.88,0,11,0,21.99,0,32.99,0,.52.02,1.05-.14,1.56-.09.22-.23.39-.43.52-.11-.04-.21-.08-.32-.12Z"/>
  <path class="cls-76" d="M146.21,48.58c0,12.25,0,24.5,0,36.75,0,0-.17,0-.17,0,0,0-.17,0-.17,0,0-11.59,0-23.17.01-34.76,0-.67-.26-1.41.33-1.99Z"/>
  <path class="cls-53" d="M142.71,35.28c.23,0,.47,0,.7,0,0,.11,0,.23,0,.34,0,0,0,.01,0,.01-.46.43-1.04.48-1.63.48-9.23,0-18.45.04-27.68-.02-.23,0-.46-.05-.69-.11-.22-.08-.4-.21-.54-.4-.03-.25.07-.43.29-.55,2.04-.26,4.09-.66,6.09.24,7.82,0,15.64,0,23.45,0Z"/>
  <path class="cls-37" d="M143.42,72.73c-.47,0-.94,0-1.4,0-.94-.71-2.02-.19-3.03-.35-.56-.09-1.48.3-1.44-.73.04-.99.95-.63,1.51-.65,1.22-.05,2.44-.02,3.66-.01-.12.73.13,1.3.7,1.75Z"/>
  <path class="cls-37" d="M143.07,85.33c-.8-.02-1.59-.08-2.4-.23-1.02-.2-1.13-.72-1.12-1.57.01-1.08.72-1,1.43-1,.46,0,.93,0,1.39,0-.13,1.02.18,1.94.7,2.8Z"/>
  <path class="cls-103" d="M143.77,57.67c0-7.23,0-14.45,0-21.68.49.4.34.95.34,1.46,0,6.26,0,12.51,0,18.77,0,.5.15,1.06-.34,1.46Z"/>
  <path class="cls-18" d="M142.34,58.06c.36,0,.71-.02,1.07-.02-.04.38-.21.69-.62.67-1.09-.06-1.19.6-1.12,1.43-.99,0-1.98.01-2.97,0-.5,0-1.15.12-1.17-.67-.02-.79.61-.72,1.12-.72,1.27,0,2.54.01,3.69-.68Z"/>
  <path class="cls-56" d="M143.09,61.14c-.61.68-1.42.41-2.12.37-2.45-.13-4.93.42-7.35-.31,0-.11.03-.22.08-.32,1.95-.01,3.91-.03,5.86-.04,1.17-.27,2.33-.33,3.49.03.03.09.04.18.04.27Z"/>
  <path class="cls-103" d="M143.82,69.81v-8.52c.06,0,.11,0,.17,0v8.6c-.06-.03-.11-.05-.17-.08Z"/>
  <path class="cls-41" d="M155.65,48.22c.11.15.22.3.32.45-1.95.8-3.99.3-5.98.37-1.12.04-2.32.33-3.37-.4,0,0-.07-.08-.07-.08.12-.11.25-.23.37-.34,2.91-.27,5.82-.26,8.73,0Z"/>
  <path class="cls-20" d="M155.65,48.22c-2.91,0-5.82,0-8.73,0,.12-.11.23-.23.35-.34,1.87,0,3.73,0,5.6,0,.92.16,1.92-.34,2.78.34Z"/>
  <path class="cls-103" d="M143.77,81.82c0-2.79,0-5.58,0-8.37.56,2.79.57,5.58,0,8.37Z"/>
  <path class="cls-18" d="M143.05,60.87c-1.16-.01-2.33-.02-3.49-.03,1.11-.73,2.34-.19,3.5-.36,0,.13,0,.26-.01.39Z"/>
  <path class="cls-53" d="M104.55,30.73c1.71-.77,3.52-.17,5.27-.34.69-.07,1.39-.01,2.08-.01,1.61.5,3.29-.13,4.9.35.12,0,.23,0,.35,0,.76.98.54,2.1.46,3.19-.06.82-.49,1.2-1.38,1.2-1.09,0-2.2-.22-3.28.16h0c-.27.24-.57.43-.93.43-3.68.01-7.37.29-11.04-.15-.81-.74.03-.85.44-.98.78-.25,1.62-.11,2.43-.16.67-.04,1.53.18,1.78-.71.25-.89.4-1.86-.57-2.52-.19-.13-.38-.27-.52-.46Z"/>
  <path class="cls-89" d="M112.96,35.28c.69-.65,1.57-.39,2.32-.31,1.6.17,2.08-.49,1.89-1.98-.09-.74-.02-1.5-.02-2.26,1.87,0,3.73,0,5.6,0,.79,1.4.79,2.8,0,4.2-1.16.16-2.39-.36-3.5.35-2.1,0-4.2,0-6.3,0Z"/>
  <path class="cls-52" d="M122.76,34.93c0-1.4,0-2.8,0-4.2.77.12,1.86-.41,2.25.35.51,1,.44,2.32.07,3.36-.35.98-1.52.33-2.31.49Z"/>
  <path class="cls-89" d="M116.81,30.73c-1.63-.17-3.31.39-4.9-.35.12,0,.23,0,.35,0,1.52,0,3.03,0,4.55,0,0,.12,0,.23,0,.35Z"/>
  <path class="cls-96" d="M100.71,35.28c4.08,0,8.17,0,12.25,0,0,.1,0,.2.02.3-.63.72-1.5.51-2.29.53-4.41.1-8.83-.15-13.24.14-.27.14-.49.34-.65.61-.35,3.06-.14,6.13-.14,9.2,0,1.03-.26,2.08,0,3.11.01,10.66,0,21.33.01,31.99,0-10.71.01-21.41,0-32.12-.14-.85.4-1.12,1.08-1.25.63-.12,1.26-.13,1.89-.08,2.57.09,5.15.02,7.72,0,6.83.41,13.66.46,20.5.36,1.4-.08,2.8.04,4.19-.05.61-.04,1.45.07,1.47-.83.02-.93-.84-.83-1.44-.84-3.55-.06-7.11,0-10.66-.06-2.04-.03-4.08,0-6.12,0-3.78-.01-7.56,0-11.34,0-2.19-.09-4.39.16-6.57-.15-.3-.16-.65-.29-.46-.75.17-.16.37-.28.59-.35.74-.2,1.5-.16,2.26-.16,10.62,0,21.23,0,31.85,0,.47,0,.93-.01,1.4.03,1.62.14,2.12.65,2.13,2.15,0,1.53-.63,2.23-2.18,2.35-.64.05-1.28.03-1.92.03-10.33,0-20.65,0-30.98,0-2.2,0-2.3.08-2.31,2.24-.02,9.21-.02,18.43,0,27.64,0,1.97.08,2.02,2.11,2.02,13.59,0,27.18,0,40.78.01.91,0,1.88-.21,2.71.4.01.15.03.29.04.44-11.67,0-23.34.02-35.01.02-.64.56-1.42.44-2.17.46-2.69.07-5.38-.12-8.06.09.25.98.08,1.85-.56,2.63-.11.15-.23.29-.36.43-.14.13-.28.26-.42.39-.42,2.91.01,5.84-.21,8.59,0,.39.39.05.18.16-.04.02-.07-.02-.08-.12-.1-2.6-.02-5.2-.04-7.8,0-.29,0-.59.35-.7.78.49.69,1.3.71,2.03.05,1.75,0,3.5.03,5.24.04,1.78.23,1.95,2.05,2.01.58.02,1.17,0,1.75,0,16.96,0,33.92,0,50.88,0,.99,0,1.98-.09,2.96.19.22.09.41.21.58.36,0,0,.05,0,.05,0-.14.13-.28.26-.42.39-2.2.24-4.41.21-6.61.02-12.6,0-25.21,0-37.81,0-4.43.19-8.85.56-13.28.49-1.36.39-.64,1.91-1.43,2.62q-4.2,0-4.2-4.17c0-21.71,0-43.42,0-65.13.12,0,.23,0,.35,0,1.85.46,3.74-.03,5.6.26.84,1.58.76,3.11-.11,4.47.76-.39,1.67-.55,2.57.16Z"/>
  <path class="cls-50" d="M113.66,99.68c0-.93,0-1.87,0-2.8,2.8,0,5.6,0,8.4,0,.67.93.67,1.87,0,2.8-2.8,0-5.6,0-8.4,0Z"/>
  <path class="cls-17" d="M147.62,96.89c0,.93,0,1.87,0,2.8-1.98,0-3.97,0-5.95,0-.67-.93-.67-1.86,0-2.8,1.98,0,3.97,0,5.95,0Z"/>
  <path class="cls-90" d="M141.67,96.88c0,.93,0,1.87,0,2.8-.86,0-1.73-.05-2.59.01-1.13.09-1.66-.21-1.65-1.5.01-1.3.7-1.36,1.65-1.32.86.03,1.73,0,2.59,0Z"/>
  <path class="cls-52" d="M122.06,99.68c0-.93,0-1.87,0-2.8.52,0,1.04.04,1.55,0,1.13-.12,1.65.21,1.64,1.5-.01,1.3-.69,1.37-1.64,1.32-.51-.03-1.03,0-1.55,0Z"/>
  <path class="cls-31" d="M97.25,96.56c4.65,0,9.31.01,13.96.02,0,.1,0,.2,0,.3-1.75,0-3.5,0-5.25,0-1.42.93-3,.41-4.52.51-.97.04-1.95.08-2.92-.03-.52-.06-1.21.02-1.27-.81Z"/>
  <path class="cls-40" d="M149.02,96.58c2.2,0,4.41-.01,6.61-.02-.73.64-1.61.18-2.41.32-1.4,0-2.8,0-4.2,0,0-.1,0-.2,0-.3Z"/>
  <path class="cls-57" d="M97.25,96.56c1.34.68,2.78.15,4.16.33.67.93.67,1.86,0,2.8-1.52,0-3.03,0-4.55,0-.12,0-.23,0-.35,0,.12-1.07-.38-2.29.75-3.12Z"/>
  <path class="cls-49" d="M101.4,99.68c0-.93,0-1.86,0-2.8,1.52,0,3.03,0,4.55,0-.04,3.21.38,2.76-2.84,2.8-.57,0-1.14,0-1.71,0Z"/>
  <path class="cls-78" d="M100.71,35.28h-3.15c1.23-1.43.47-3.06.69-4.55.02-.21.25-.22.35-.35.35,0,.7,0,1.05,0,1.59.74,3.27.17,4.9.35,2.36-.34,1.59,1.41,1.76,2.59.22,1.58-.7,1.61-1.88,1.65-1.24.04-2.55-.42-3.73.32Z"/>
  <path class="cls-82" d="M98.6,30.38c-.12.12-.23.23-.35.35-1.86-.19-3.77.39-5.6-.35,1.98,0,3.97,0,5.95,0Z"/>
  <path class="cls-15" d="M156,96.17c-.12,0-.24,0-.35-.01-.15-.18-.27-.37-.35-.59-.19-.86-.12-1.74-.12-2.61,0-13.55,0-27.1,0-40.65,0-.81.12-1.63-.21-2.41-2.18-.95-4.45-.36-6.68-.35-.55,0-.66.58-.73,1.06-.11.69-.07,1.4-.07,2.1,0,10.09.02,20.17-.03,30.26,0,.95.45,2.15-.85,2.76,0-12.36.02-24.71.03-37.07,3.12-.13,6.23-.22,9.35.03,0,.09.02.18.06.26-.01,15.75-.02,31.49-.04,47.24Z"/>
  <path class="cls-5" d="M114.02,58.06c.94,0,1.88,0,2.81,0,1.83.44,3.78-.02,5.58.67.12,0,.23,0,.35,0,.33.4.27.87.26,1.33-.08,3.66-.16,7.33.05,10.99.03.47.01.93-.31,1.32-1.04.16-2.16-.35-3.15.35-2.1,0-4.2,0-6.3,0,.24-1.04,1.14-.86,1.81-.84,1.47.05,1.9-.64,1.87-2.01-.06-2.78-.06-5.55,0-8.33.03-1.42-.27-2.36-1.94-2.39-.56,0-1.36-.12-1.04-1.11Z"/>
  <path class="cls-52" d="M122.76,72.38c-.53-4.55-.6-9.1,0-13.65,2.09-.51,2.8-.05,2.8,1.88,0,3.01.02,6.02,0,9.03-.02,3.11.39,2.71-2.8,2.74Z"/>
  <path class="cls-52" d="M122.41,58.73c-1.89.03-3.77-.04-5.58-.67,1.75,0,3.5,0,5.25,0,.11.22.22.45.34.67Z"/>
  <path class="cls-99" d="M143.38,81.75c-.58.03-1.16.09-1.74.09-14.17,0-28.35-.02-42.52.05-1.65,0-2-.48-1.99-2.05.07-9.74.06-19.48,0-29.21,0-1.38.35-1.78,1.74-1.77,11.26.06,22.51.05,33.77.06,1.73,0,2.65-1.55,1.88-3.13-.3-.63-.88-.47-1.38-.47-11.96.02-23.91.04-35.87.07-.52-.41-.55-1-.56-1.59-.02-2.1-.02-4.2,0-6.29.01-1.19.46-1.73,1.79-1.72,14.57.04,29.15.03,43.72.03.39,0,.83-.15,1.13.27,0,6.64-.02,13.29.05,19.93.01,1.37-.48,1.64-1.73,1.64-11.37-.04-22.74,0-34.1-.05-1.5,0-2.03.35-1.98,1.94.11,4.02.1,8.04,0,12.06-.03,1.43.46,1.75,1.81,1.75,11.31-.04,22.62.02,33.93-.06,1.73-.01,2.19.51,2.08,2.16-.14,2.09-.03,4.19-.03,6.29Z"/>
  <path class="cls-65" d="M114.02,58.06c.3,1.14,1.24.64,1.88.64,1.21,0,1.64.48,1.63,1.66-.04,3.47-.08,6.95.01,10.42.04,1.38-.5,1.68-1.73,1.62-.82-.03-1.74-.35-2.5.32-1.85,0-3.7,0-5.66,0,.16-.19.23-.32.28-.31,1.84.26,2.54-.21,2.3-2.34-.32-2.81-.08-5.68-.08-8.52q0-2.45-2.36-3.21c1.13-.51,2.13-.25,3.09-.29,1.04-.04,2.09,0,3.13.01Z"/>
  <path class="cls-77" d="M143.35,36.08c-.64-.04-1.28-.1-1.92-.1-14.1-.01-28.2.02-42.3-.07-1.76-.01-2.18.52-2.05,2.15.19,2.43-.15,4.89.18,7.32-.14.02-.29.03-.43.05-.07-.09-.14-.17-.21-.26-.14-3.06-.41-6.12.17-9.17.49-.6,1.17-.39,1.78-.39,4.79-.03,9.59-.03,14.38-.04,10.15.02,20.29.03,30.44.05-.02.15-.04.3-.06.45Z"/>
  <path class="cls-68" d="M113.31,85.33c-1.63,0-3.27,0-4.9,0-1.23.75-2.5.61-3.79.16-.6-1.08-.34-2.08.29-3.04,1.17-.09,2.34-.23,3.5.08,1.87,0,3.73,0,5.6,0,.73,1.17.39,2.08-.7,2.8Z"/>
  <path class="cls-50" d="M113.31,85.33c.52-.86.83-1.77.7-2.8,2.03,0,4.06-.02,6.09,0,.7,0,1.61-.27,1.61.97,0,1.11-.45,1.79-1.62,1.81-2.26.02-4.53,0-6.79,0Z"/>
  <path class="cls-64" d="M96.84,85.71c.12-.13.24-.25.36-.38,3.75-.48,7.47.17,11.2.28,12.58,0,25.17.02,37.75.03,0,0,.11.12.11.12-.61,1.13-1.71.82-2.64.83-6.71.04-13.42.02-20.13.02-7.88,0-15.75,0-23.63,0-.93,0-1.88.09-2.74-.38-.27-.07-.37-.23-.29-.5Z"/>
  <path class="cls-22" d="M108.41,82.53c-1.17,0-2.34,0-3.5,0-2.33.87-4.67.87-7,0-.22-.02-.44-.05-.66-.07,0-.09,0-.17,0-.26,3.72,0,7.44,0,11.16,0,0,.11,0,.22,0,.33Z"/>
  <path class="cls-22" d="M108.4,85.61c-3.36.02-6.72.04-10.08.05-.4,0-.82.04-1.12-.33,0,0,0,0,0,0,2.45-.83,4.9-.92,7.35,0,1.28,0,2.57,0,3.85,0,0,.09,0,.19,0,.28Z"/>
  <path class="cls-99" d="M96.92,86.15c.71-.41,1.48-.24,2.22-.24,14.73,0,29.46,0,44.19,0,.98,0,1.97.16,2.94-.15.12.04.23.03.33-.05.62-.58.31-1.32.31-1.98.02-10.89.07-21.79-.04-32.68-.02-1.87.56-2.29,2.26-2.15,1.74.14,3.49.01,5.24.04.42,0,.96-.22,1.23.35-1.76.39-3.55.04-5.32.17-.23-.02.08.32,0,.11-.03-.07.01-.12.13-.11,1.22.03,2.45.08,3.66,0,1.22-.09,1.45.44,1.43,1.53-.06,3.26-.02,6.51-.02,9.77,0,11.05,0,22.1,0,33.16,0,.64-.1,1.28.1,1.91.02.12.03.24.05.36-19.07.02-38.14.02-57.21.07-1.1,0-1.37-.36-1.38-1.4-.03-2.85.23-5.7-.14-8.54v-.14Z"/>
  <path class="cls-81" d="M115.41,45.79c5.76,0,11.51,0,17.27-.02.96,0,1.7,0,1.65,1.33-.04,1.16-.53,1.52-1.61,1.49-1.57-.05-3.14-.03-4.71-.04-3.23-.33-6.46-.05-9.69-.15-.21.02-.39-.05-.53-.21-.04-.2.03-.36.19-.49,1.22-.64,2.64.03,4.26-.72-1.66-.62-3.07-.26-4.43-.37-.78,0-1.56.09-2.28-.31-.19-.14-.22-.31-.12-.52Z"/>
  <path class="cls-39" d="M104.55,85.33c-2.45,0-4.9,0-7.35,0,.76-.8.75-1.79.7-2.8,2.33,0,4.67,0,7,0,.09.96-.07,1.88-.35,2.8Z"/>
  <path class="cls-53" d="M115.41,46.13c.82,0,1.63,0,2.45,0,.46.58.46,1.17,0,1.75h0c-1.46.4-2.96.03-4.21.18,1.25.14,2.75-.22,4.21.17,2.83,0,5.67,0,8.5.01.56,0,1.17-.18,1.64.31-4.81,0-9.63.15-14.43-.04-2.07-.08-4.14-.26-6.22-.28.43-1.25,1.53-.83,2.35-.82,1.26.02,2.29-.22,2.94-1.39.93-.05,1.85-.21,2.76.11Z"/>
  <path class="cls-68" d="M112.61,46.13c.2,1.33-.29,1.85-1.71,1.79-1.17-.05-2.42-.41-3.54.31-2.57,0-5.13,0-7.7,0,.1-.89.83-.71,1.39-.83.57-.05,1.15-.07,1.72-.01,1.39.13,2.6-.1,3.37-1.42,2.16.07,4.33-.22,6.48.16Z"/>
  <path class="cls-1" d="M101.05,47.88c-.48.05-1.03-.16-1.4.35-.93.3-2.19-.7-2.83.72-.12.15-.23.15-.33-.02-.38-.29-.35-.7-.35-1.1,0-3.46,0-6.93,0-10.39,0-.4-.03-.82.35-1.11.38,2.28.06,4.58.18,6.87.04.74-.16,1.5.15,2.22,0,0,.02.01.02.01.12.12.24.23.36.35,1.28.47,2.64-.1,3.93.33.42.61.35,1.2-.09,1.77Z"/>
  <path class="cls-3" d="M96.5,48.93c.11,0,.22,0,.33.02,0,10.82,0,21.64,0,32.46-.11,0-.22,0-.33,0v-32.48Z"/>
  <path class="cls-79" d="M112.61,46.13c-2.22,0-4.43,0-6.65,0-.62.5-1.28.53-1.98.18-.19-.14-.23-.31-.12-.51,3.85,0,7.7,0,11.55,0,0,.11,0,.23,0,.34-.93,0-1.87,0-2.8,0Z"/>
  <path class="cls-35" d="M96.92,86.15s0,.14,0,.14c0,3.18,0,6.36,0,9.53-.15,0-.3,0-.44,0,.28-3.36-.42-6.74.38-10.1.02.14.05.29.07.43Z"/>
  <path class="cls-35" d="M96.83,45.42c-.71-1.54-.21-3.17-.31-4.76-.09-1.44-.02-2.89-.02-4.33.1-.11.21-.21.31-.32,0,3.14.01,6.27.02,9.41Z"/>
  <path class="cls-67" d="M103.86,45.8c0,.11,0,.22,0,.33-.93.71-1.87.65-2.8,0-1.27-.19-2.62.39-3.84-.35,2.22,0,4.43,0,6.65.01Z"/>
  <path class="cls-28" d="M155.6,95.8c-.5-.62-.26-1.35-.26-2.02-.01-14.03-.03-28.07.02-42.1,0-1.54-.31-2.24-2-2.07-1.54.15-3.11.03-4.67-.32,2.31,0,4.62,0,6.93,0,0,15.51-.01,31.01-.02,46.52Z"/>
  <path class="cls-74" d="M142.72,81.13c-.4.49-.96.34-1.46.34-14.15,0-28.31,0-42.46,0-.28,0-.56-.03-.83-.35h44.41c.12-.16.23-.17.35,0Z"/>
  <path class="cls-70" d="M142.72,81.13c-.12,0-.23,0-.35,0,0-1.75-.08-3.5.03-5.24.08-1.37-.36-1.8-1.76-1.79-8.45.06-16.91.03-25.36.03-3.08,0-6.16,0-9.41,0,.5-.53.97-.34,1.36-.34,11.19-.01,22.39.02,33.58-.05,1.56,0,2.05.43,1.94,1.97-.13,1.8-.03,3.61-.03,5.42Z"/>
  <path class="cls-97" d="M97.94,49.36h36.32c0,.06,0,.11,0,.17h-36.32c0-.06,0-.11,0-.17Z"/>
  <path class="cls-42" d="M105.2,58.15v14.82c-.06,0-.12,0-.17,0v-14.88c.06.02.12.04.17.07Z"/>
  <path class="cls-37" d="M117.86,47.88c0-.58,0-1.17,0-1.75,1.27,0,2.54.01,3.8,0,.67,0,1.12.16,1.08.96-.04.74-.53.79-1.08.79-1.27,0-2.54,0-3.8,0Z"/>
  <path class="cls-37" d="M117.86,48.23h-4.13c0-.12,0-.23,0-.35,1.38,0,2.75,0,4.13,0,0,.12,0,.23,0,.35Z"/>
  <path class="cls-49" d="M101.05,46.13c.93,0,1.87,0,2.8,0,.7,0,1.4,0,2.1,0,.17,1.27-.22,1.93-1.66,1.77-1.07-.12-2.16-.02-3.25-.02,0-.58,0-1.17,0-1.75Z"/>
</svg>