<?xml version="1.0" encoding="UTF-8"?>
<svg id="Layer_1" data-name="Layer 1" xmlns="http://www.w3.org/2000/svg" viewBox="0 0 250 200">
  <defs>
    <style>
      .cls-1 {
        fill: #fdfdfc;
      }

      .cls-1, .cls-2, .cls-3 {
        stroke-width: 0px;
      }

      .cls-2 {
        fill: #8fc23f;
      }

      .cls-3 {
        fill: #fdfefc;
      }
    </style>
  </defs>
  <path class="cls-2" d="M23.8,8.49c63.93,0,127.85,0,191.78-.01.58,0,.71.13.71.71-.02,60.46-.01,120.91-.01,181.37-63.77,0-127.53,0-191.3,0q-1.19,0-1.19-1.18c0-60.29,0-120.59,0-180.88ZM91.42,66.18c2.29-3.05,3.57-7.54,3.24-11.17-.42-4.56-2.55-8.15-6.19-10.88-3.67-2.77-7.93-3.78-12.4-4.1-2.75-.2-5.46.19-8.15.77-5.17,1.12-9.64,3.56-13.36,7.31-5.35,5.39-7.87,12.05-8.44,19.5-.31,4.08.03,8.13,1.12,12.11,1.41,5.15,3.85,9.7,7.5,13.58,3.63,3.86,8.02,6.55,13.05,8.19,3.38,1.1,6.87,1.62,10.42,1.73,2.33.07,4.63-.2,6.94-.52,3.03-.41,5.95-1.22,8.71-2.47,7.17-3.24,12.42-8.43,15.56-15.69.6-1.39.6-1.39,2.16-1.39,7.05,0,14.11,0,21.16,0,2.63,0,5.21-.43,7.67-1.29,4.26-1.48,7.96-3.86,10.98-7.25,4.06-4.57,6.3-9.91,6.57-15.99.26-5.88.08-11.77.11-17.65,0-.55-.2-.71-.73-.72-1.51-.02-3,.2-4.44.61-3.87,1.08-6.6,3.88-7.35,7.96-.39,2.12-.23,4.23-.27,6.35-.04,1.91,0,3.8-.53,5.67-.85,2.95-2.49,5.3-4.94,7.09-2.34,1.72-4.98,2.47-7.89,2.44-4.51-.04-9.02-.01-13.54-.01-1.69,0-3.37-.02-5.06,0-.57,0-.8-.17-.75-.76.05-.72.05-1.45.05-2.18,0-8.69,0-17.37,0-26.06,0-.18-.01-.36,0-.54.03-.43-.16-.58-.6-.58-.99-.02-1.96.11-2.93.25-2.32.34-4.39,1.22-6.11,2.83-2.36,2.21-3.1,5.08-3.21,8.16-.07,2.02.02,4.05-.02,6.07-.08,4.32.24,8.66-.27,12.97-.34,2.87-.91,5.68-2.03,8.36-2.98,7.11-8.38,11.09-15.93,12.01-3.83.47-7.64.01-11.21-1.66-3.01-1.4-5.47-3.43-7.33-6.2-1.89-2.81-2.94-5.91-3.32-9.24-.52-4.54-.08-8.96,1.99-13.1,2.43-4.86,6.4-7.79,11.72-8.75,2.09-.38,4.24-.28,6.37.17,3.56.75,6.31,2.63,8.36,5.59,1.74,2.52,2.65,5.38,3.33,8.45ZM182.65,55.37s.02,0,.02,0c0-4.75-.01-9.49.01-14.24,0-.65-.14-.91-.86-.89-1.46.03-2.9.23-4.29.63-2.46.71-4.49,2.07-5.89,4.27-1.28,2-1.63,4.22-1.66,6.55-.06,5.39.14,10.78-.13,16.17-.15,3.01-.73,5.89-1.89,8.63-2.05,4.83-5.29,8.72-9.71,11.61-2.37,1.55-3.97,3.75-4.79,6.45-.87,2.84-.62,5.64.54,8.39.28.65.66.72,1.19.56.92-.28,1.85-.57,2.75-.93,4.18-1.65,8-3.88,11.41-6.83,3.23-2.79,5.91-6.01,8.07-9.68,2.05-3.5,3.52-7.22,4.37-11.2.43-2.02.8-4.05.83-6.11.06-4.46.02-8.92.02-13.38ZM182.65,149.36s.01,0,.02,0c0-3.99-.01-7.99.01-11.98,0-.92-.08-1.84-.4-2.66-1.06-2.71-3.33-3.88-5.97-4.07-.76-.06-1,.14-1,.96.03,8.22.02,16.44.02,24.66,0,.23,0,.47,0,.7,0,.21.01.43-.26.49-.24.05-.3-.15-.4-.29-.69-.92-1.38-1.85-2.08-2.76-5.14-6.7-10.27-13.4-15.43-20.08-1.7-2.2-3.7-3.95-6.76-3.66-1.82.18-3.33.91-4.29,2.58-.73,1.25-.97,2.62-.98,4.02-.03,7.83-.02,15.66,0,23.49,0,.79.08,1.62.3,2.38.95,3.29,3.71,4.51,6.49,4.57.44.01.61-.2.61-.61,0-.26,0-.52,0-.78,0-8.19,0-16.39,0-24.58,0-.28-.16-.7.23-.82.33-.1.44.31.6.52,2.57,3.35,5.12,6.71,7.68,10.06,2.48,3.25,4.94,6.52,7.46,9.74,1.4,1.78,2.63,3.72,4.47,5.12,1.96,1.49,4.11,1.77,6.35.83,2.24-.94,3.21-2.87,3.27-5.14.11-4.22.03-8.45.03-12.68ZM123.7,157.36c-.16-3.53.31-7.72-.58-11.88-.78-3.63-2.32-6.83-4.89-9.5-3.19-3.32-7.21-5.06-11.71-5.54-3.55-.39-7.11-.16-10.49,1.21-7.91,3.21-11.54,9.97-11.91,17.35-.11,2.2.18,4.38.78,6.51,2.2,7.86,8.53,12.24,16.27,12.35,1.63.02,3.28-.23,4.89-.73,6.26-1.96,8.83-8.36,5.59-14.06-.1-.17-.16-.51-.44-.47-.33.04-.28.39-.34.63-.3,1.22-.73,2.38-1.38,3.47-1.92,3.2-4.77,4.38-8.41,4.08-4.33-.36-7.16-3.2-8.28-6.76-1.06-3.36-.96-6.75.51-10.05,1.61-3.62,4.48-5.61,8.25-6.24,2.16-.36,4.36-.26,6.48.55,2.43.92,4.34,2.45,5.71,4.65,1.7,2.74,2.2,5.81,2.3,8.94.1,3.26.03,6.53.05,9.8,0,.96.31,1.87.75,2.71,1.27,2.42,3.48,3.18,6.02,3.35.64.04.85-.16.84-.82-.03-2.96-.01-5.91-.01-9.52ZM66.41,167.13c4.51,0,9.02,0,13.54,0q1.37,0,1.18-1.33c-.03-.2-.02-.42-.05-.62-.32-1.77-1.19-3.13-2.88-3.92-1.49-.7-3.08-.83-4.68-.84-5.6-.02-11.2,0-16.8-.02-.25,0-.63.18-.75-.19-.09-.31.2-.49.43-.67,3.01-2.43,6.01-4.86,9.02-7.29,3.03-2.45,6.08-4.86,9.07-7.34,1.86-1.54,3.83-2.97,5.32-4.93,1.93-2.55,1.42-6.16-1.21-7.79-1.61-.99-3.47-1.18-5.3-1.2-5.78-.05-11.57-.02-17.35-.02-2.75,0-5.5.01-8.25-.01-.53,0-.72.13-.73.69,0,.92.15,1.81.48,2.65.87,2.26,2.76,3.25,4.97,3.3,5.83.13,11.67.06,17.5.08.4,0,1.02-.28,1.19.21.18.51-.46.73-.79,1.01-2.9,2.35-5.82,4.69-8.73,7.03-3.26,2.62-6.53,5.21-9.76,7.86-1.79,1.47-3.68,2.84-4.94,4.85-1.52,2.43-1.07,5.99,1.81,7.51,1.49.78,3.15.96,4.81.97,4.3.02,8.61,0,12.91,0ZM138.02,151.56h0c0-5.03,0-10.05,0-15.08,0-1.02-.31-1.97-.82-2.83-1.3-2.21-3.34-3.04-5.81-3.09-.74-.01-.97.2-.97.96.02,9.87.02,19.75.01,29.62,0,.76.15,1.52.39,2.19.99,2.76,3.34,4.3,6.28,4.35.76.01.95-.22.94-.96-.03-5.05-.02-10.11-.02-15.16ZM182.67,28.17c.12-4.09-3.34-7.59-7.53-7.6-4.37,0-7.7,3.5-7.66,7.58.04,4.36,3.3,7.63,7.68,7.64,4.09,0,7.61-3.38,7.52-7.62ZM71.73,69.65c-.22,4.2,3.56,7.66,7.49,7.66,4.4,0,7.71-3.55,7.71-7.56,0-4.16-3.29-7.57-7.53-7.66-4.13-.08-7.81,3.44-7.67,7.55ZM139.53,103.57c3.89.24,7.65-3.19,7.62-7.56-.03-4.36-3.52-7.66-7.63-7.6-4.2.06-7.51,3.17-7.56,7.61-.05,4.19,3.41,7.7,7.57,7.55ZM121.75,103.57c4.27.25,7.68-3.64,7.64-7.53-.05-4.24-3.38-7.62-7.62-7.63-3.91,0-7.54,3.18-7.55,7.7-.01,4.14,3.75,7.73,7.53,7.47ZM134.27,127.73c2.53,0,4.6-2,4.52-4.47-.09-2.71-1.98-4.47-4.5-4.5-2.51-.03-4.54,1.98-4.5,4.56.03,2.5,1.95,4.4,4.49,4.4Z"/>
  <path class="cls-3" d="M23.8,8.49c0,60.29,0,120.59,0,180.88q0,1.18,1.19,1.18c63.77,0,127.53,0,191.3,0-.06.1.15.33-.16.31-.18-.01-.36,0-.54,0-63.73,0-127.46,0-191.2.02-.63,0-.76-.12-.76-.75.02-60.31.02-120.63.03-180.94,0-.23-.18-.53.15-.7Z"/>
  <path class="cls-3" d="M91.42,66.18c-.68-3.07-1.58-5.93-3.33-8.45-2.05-2.96-4.79-4.84-8.36-5.59-2.13-.45-4.28-.54-6.37-.17-5.32.96-9.29,3.88-11.72,8.75-2.07,4.14-2.51,8.56-1.99,13.1.38,3.34,1.43,6.43,3.32,9.24,1.86,2.77,4.32,4.79,7.33,6.2,3.57,1.67,7.39,2.12,11.21,1.66,7.56-.92,12.96-4.9,15.93-12.01,1.12-2.68,1.69-5.49,2.03-8.36.51-4.32.19-8.65.27-12.97.04-2.02-.05-4.05.02-6.07.11-3.08.85-5.96,3.21-8.16,1.72-1.61,3.79-2.49,6.11-2.83.98-.14,1.94-.27,2.93-.25.44,0,.62.15.6.58-.01.18,0,.36,0,.54,0,8.69,0,17.37,0,26.06,0,.73,0,1.45-.05,2.18-.04.59.19.77.75.76,1.69-.03,3.37,0,5.06,0,4.51,0,9.02-.03,13.54.01,2.91.03,5.55-.72,7.89-2.44,2.45-1.79,4.09-4.14,4.94-7.09.54-1.88.5-3.77.53-5.67.04-2.12-.12-4.24.27-6.35.75-4.08,3.48-6.88,7.35-7.96,1.44-.4,2.93-.63,4.44-.61.53,0,.73.17.73.72-.03,5.89.15,11.78-.11,17.65-.26,6.08-2.5,11.42-6.57,15.99-3.02,3.39-6.72,5.77-10.98,7.25-2.46.86-5.04,1.29-7.67,1.29-7.05,0-14.11,0-21.16,0-1.57,0-1.56,0-2.16,1.39-3.14,7.26-8.39,12.45-15.56,15.69-2.77,1.25-5.68,2.06-8.71,2.47-2.31.32-4.61.59-6.94.52-3.55-.11-7.03-.62-10.42-1.73-5.03-1.64-9.42-4.33-13.05-8.19-3.65-3.88-6.09-8.43-7.5-13.58-1.09-3.99-1.43-8.04-1.12-12.11.57-7.44,3.09-14.11,8.44-19.5,3.72-3.75,8.19-6.19,13.36-7.31,2.68-.58,5.39-.97,8.15-.77,4.47.32,8.73,1.33,12.4,4.1,3.63,2.74,5.77,6.32,6.19,10.88.33,3.63-.95,8.12-3.24,11.17Z"/>
  <path class="cls-3" d="M182.65,55.37c0,4.46.04,8.92-.02,13.38-.03,2.06-.4,4.09-.83,6.11-.85,3.98-2.32,7.7-4.37,11.2-2.16,3.68-4.84,6.9-8.07,9.68-3.41,2.95-7.23,5.18-11.41,6.83-.9.35-1.82.64-2.75.93-.54.16-.92.09-1.19-.56-1.17-2.74-1.41-5.54-.54-8.39.82-2.7,2.42-4.9,4.79-6.45,4.42-2.89,7.66-6.78,9.71-11.61,1.16-2.73,1.74-5.62,1.89-8.63.26-5.39.06-10.78.13-16.17.03-2.33.38-4.55,1.66-6.55,1.4-2.2,3.43-3.56,5.89-4.27,1.39-.4,2.82-.6,4.29-.63.72-.01.86.24.86.89-.02,4.75-.01,9.49-.01,14.24,0,0-.02,0-.02,0Z"/>
  <path class="cls-1" d="M182.65,149.36c0,4.23.08,8.45-.03,12.68-.06,2.27-1.03,4.2-3.27,5.14-2.24.94-4.39.66-6.35-.83-1.85-1.4-3.07-3.34-4.47-5.12-2.52-3.22-4.98-6.49-7.46-9.74-2.56-3.35-5.12-6.71-7.68-10.06-.16-.21-.27-.62-.6-.52-.38.12-.23.53-.23.82,0,8.19,0,16.39,0,24.58,0,.26,0,.52,0,.78,0,.4-.17.62-.61.61-2.78-.07-5.54-1.29-6.49-4.57-.22-.76-.3-1.58-.3-2.38-.02-7.83-.03-15.66,0-23.49,0-1.39.25-2.77.98-4.02.96-1.66,2.47-2.4,4.29-2.58,3.06-.3,5.06,1.45,6.76,3.66,5.16,6.68,10.29,13.38,15.43,20.08.7.91,1.39,1.84,2.08,2.76.11.14.16.34.4.29.28-.06.26-.29.26-.49,0-.23,0-.47,0-.7,0-8.22.01-16.44-.02-24.66,0-.82.24-1.01,1-.96,2.64.2,4.91,1.36,5.97,4.07.33.83.41,1.74.4,2.66-.03,3.99-.01,7.99-.01,11.98,0,0-.01,0-.02,0Z"/>
  <path class="cls-1" d="M123.7,157.36c0,3.61-.02,6.57.01,9.52,0,.66-.2.86-.84.82-2.54-.16-4.75-.92-6.02-3.35-.44-.84-.74-1.75-.75-2.71-.02-3.27.05-6.54-.05-9.8-.1-3.13-.6-6.2-2.3-8.94-1.37-2.21-3.28-3.73-5.71-4.65-2.12-.8-4.33-.91-6.48-.55-3.78.63-6.64,2.62-8.25,6.24-1.47,3.3-1.56,6.69-.51,10.05,1.12,3.56,3.95,6.4,8.28,6.76,3.64.3,6.49-.88,8.41-4.08.65-1.08,1.07-2.25,1.38-3.47.06-.24,0-.58.34-.63.28-.04.34.3.44.47,3.24,5.69.67,12.09-5.59,14.06-1.6.5-3.26.75-4.89.73-7.74-.11-14.06-4.5-16.27-12.35-.6-2.13-.88-4.31-.78-6.51.36-7.39,4-14.14,11.91-17.35,3.38-1.37,6.94-1.59,10.49-1.21,4.5.49,8.52,2.22,11.71,5.54,2.57,2.67,4.11,5.87,4.89,9.5.89,4.16.42,8.36.58,11.88Z"/>
  <path class="cls-1" d="M66.41,167.13c-4.3,0-8.61.01-12.91,0-1.66,0-3.31-.18-4.81-.97-2.89-1.52-3.34-5.08-1.81-7.51,1.26-2.01,3.15-3.39,4.94-4.85,3.23-2.65,6.51-5.24,9.76-7.86,2.91-2.34,5.83-4.67,8.73-7.03.34-.27.97-.5.79-1.01-.17-.49-.78-.21-1.19-.21-5.83-.03-11.67.05-17.5-.08-2.2-.05-4.1-1.04-4.97-3.3-.32-.84-.48-1.73-.48-2.65,0-.56.2-.69.73-.69,2.75.02,5.5.01,8.25.01,5.78,0,11.57-.03,17.35.02,1.83.02,3.69.2,5.3,1.2,2.64,1.63,3.15,5.24,1.21,7.79-1.49,1.96-3.46,3.39-5.32,4.93-3,2.48-6.05,4.9-9.07,7.34-3.01,2.43-6.01,4.86-9.02,7.29-.23.18-.52.37-.43.67.11.37.49.19.75.19,5.6.01,11.2,0,16.8.02,1.6,0,3.18.14,4.68.84,1.69.79,2.56,2.14,2.88,3.92.04.2.02.41.05.62q.19,1.33-1.18,1.33c-4.51,0-9.02,0-13.54,0Z"/>
  <path class="cls-1" d="M138.02,151.56c0,5.05-.01,10.11.02,15.16,0,.74-.18.97-.94.96-2.94-.05-5.29-1.59-6.28-4.35-.24-.67-.39-1.43-.39-2.19,0-9.87.01-19.75-.01-29.62,0-.76.23-.97.97-.96,2.47.05,4.51.88,5.81,3.09.51.86.82,1.81.82,2.83,0,5.03,0,10.05,0,15.08h0Z"/>
  <path class="cls-1" d="M182.67,28.17c.09,4.24-3.42,7.63-7.52,7.62-4.38,0-7.64-3.28-7.68-7.64-.04-4.08,3.3-7.59,7.66-7.58,4.19,0,7.65,3.52,7.53,7.6Z"/>
  <path class="cls-1" d="M71.73,69.65c-.14-4.12,3.54-7.64,7.67-7.55,4.24.08,7.53,3.49,7.53,7.66,0,4-3.3,7.56-7.71,7.56-3.92,0-7.71-3.46-7.49-7.66Z"/>
  <path class="cls-1" d="M139.53,103.57c-4.15.14-7.61-3.36-7.57-7.55.05-4.44,3.36-7.55,7.56-7.61,4.11-.06,7.6,3.25,7.63,7.6.03,4.37-3.73,7.8-7.62,7.56Z"/>
  <path class="cls-1" d="M121.75,103.57c-3.78.26-7.54-3.33-7.53-7.47.01-4.52,3.63-7.71,7.55-7.7,4.24.01,7.57,3.4,7.62,7.63.04,3.89-3.37,7.78-7.64,7.53Z"/>
  <path class="cls-1" d="M134.27,127.73c-2.54,0-4.45-1.9-4.49-4.4-.03-2.58,1.99-4.59,4.5-4.56,2.53.03,4.41,1.79,4.5,4.5.08,2.47-1.99,4.47-4.52,4.47Z"/>
</svg>