<svg width="1440" height="499" viewBox="0 0 1440 499" fill="none" xmlns="http://www.w3.org/2000/svg">
<g opacity="0.43">
<path d="M-82.1501 -97.4078C-80.7241 -95.1944 63.7112 125.86 403.829 296.524C603.58 396.763 830.745 460.28 1079.01 485.318C1389.28 516.606 1733.55 487.531 2102.26 398.911L2101.21 396.552C1267.49 596.948 719.108 451.686 405.874 294.546C66.4636 124.271 -77.6731 -96.2565 -79.0879 -98.47L-82.1501 -97.4078Z" fill="url(#paint0_linear_811_796)"/>
<path d="M-87.2021 -71.8759C-85.6987 -69.703 66.4854 147.168 411.335 309.878C613.871 405.438 842.264 463.913 1090.17 483.672C1399.97 508.36 1741.27 472.313 2104.6 376.525L2103.46 374.19C1281.94 590.786 730.903 457.67 413.313 307.867C69.1716 145.538 -82.6809 -70.8219 -84.1733 -72.9867L-87.2021 -71.8759Z" fill="url(#paint1_linear_811_796)"/>
<path d="M-92.2429 -46.344C-90.6733 -44.2117 69.26 168.484 418.863 323.224C624.196 414.106 853.815 467.529 1101.34 482.01C1410.69 500.106 1749.02 457.078 2106.94 354.123L2105.71 351.812C1296.4 584.599 742.709 463.629 420.753 321.164C71.8799 166.781 -87.6997 -45.4035 -89.2693 -47.5278L-92.2429 -46.344Z" fill="url(#paint2_linear_811_796)"/>
<path d="M-97.2952 -20.8203C-95.637 -18.7284 72.0232 189.783 426.368 336.561C634.487 422.765 865.333 471.145 1112.5 480.339C1421.37 491.836 1756.74 441.835 2109.27 331.721L2107.94 329.443C1310.83 578.421 754.503 469.596 428.181 334.461C74.5657 188.024 -92.7188 -19.9771 -94.3657 -22.0689L-97.2952 -20.8203Z" fill="url(#paint3_linear_811_796)"/>
<path d="M-102.334 4.71161C-100.61 6.76292 74.7994 211.091 433.887 349.907C644.791 431.432 876.865 474.761 1123.65 478.685C1432.07 483.591 1764.47 426.608 2111.61 309.327L2110.19 307.073C1325.27 572.251 766.311 475.572 435.611 347.766C77.2644 209.283 -97.7358 5.44133 -99.4602 3.39813L-102.334 4.71161Z" fill="url(#paint4_linear_811_796)"/>
<path d="M-107.375 30.2354C-105.562 32.2381 77.574 232.399 441.415 363.245C655.105 440.1 888.405 478.377 1134.83 477.015C1442.79 475.32 1772.21 411.365 2113.95 286.916L2112.45 284.695C1339.73 566.073 778.117 481.531 443.051 361.063C79.9728 230.526 -102.754 30.8597 -104.556 28.8571L-107.375 30.2354Z" fill="url(#paint5_linear_811_796)"/>
<path d="M-112.417 55.7673C-110.538 57.7294 80.3472 253.706 448.93 376.59C665.406 448.767 899.933 481.993 1145.99 475.361C1453.49 467.067 1779.94 396.138 2116.29 264.53L2114.7 262.341C1354.18 559.911 789.921 487.515 450.489 374.385C82.6797 251.793 -107.763 56.3024 -109.643 54.3403L-112.417 55.7673Z" fill="url(#paint6_linear_811_796)"/>
<path d="M-117.457 81.2992C-115.5 83.2208 83.1233 275.014 456.448 389.936C675.71 457.434 911.465 485.618 1157.15 473.699C1464.19 458.813 1787.67 380.895 2118.62 242.128L2116.94 239.971C1368.63 553.74 801.718 493.49 457.919 387.69C85.3784 273.044 -112.792 81.7289 -114.748 79.8073L-117.457 81.2992Z" fill="url(#paint7_linear_811_796)"/>
<path d="M-119.845 105.274L-122.498 106.823C-120.453 108.704 85.8976 296.314 463.976 403.273C686.023 466.094 923.005 489.226 1168.32 472.029C1474.89 450.551 1795.4 365.661 2120.96 219.726L2119.19 217.61C1383.06 547.578 813.512 499.466 465.347 401.003C88.0752 294.303 -117.811 107.155 -119.845 105.274Z" fill="url(#paint8_linear_811_796)"/>
<path d="M-124.941 130.741L-127.528 132.347C-125.405 134.187 88.683 317.613 471.504 416.611C696.337 474.753 934.545 492.842 1179.49 470.367C1485.58 442.281 1803.14 350.418 2123.29 197.324L2121.44 195.248C1397.52 541.416 825.318 505.441 472.775 414.316C90.7721 315.562 -122.83 132.582 -124.941 130.741Z" fill="url(#paint9_linear_811_796)"/>
<path d="M-130.049 156.216L-132.569 157.871C-130.369 159.671 91.4457 338.921 479.02 429.948C706.638 483.412 946.063 496.45 1190.64 468.696C1496.28 434.019 1810.86 335.183 2125.62 174.922L2123.69 172.886C1411.96 535.246 837.112 511.425 480.203 427.63C93.4686 336.821 -127.849 158.016 -130.049 156.216Z" fill="url(#paint10_linear_811_796)"/>
<path d="M-135.143 181.692L-137.597 183.394C-135.32 185.154 94.2329 360.22 486.549 443.286C716.965 492.071 957.605 500.058 1201.81 467.034C1506.98 425.757 1818.59 319.94 2127.96 152.519L2125.94 150.517C1426.42 529.076 848.92 517.393 487.633 440.935C96.1564 358.08 -132.877 183.443 -135.143 181.692Z" fill="url(#paint11_linear_811_796)"/>
<path d="M-140.25 207.159L-142.638 208.918C-140.283 210.637 97.0074 381.52 494.066 456.615C727.267 500.723 969.135 503.666 1212.97 465.356C1517.68 417.495 1826.38 304.713 2130.29 130.117L2128.2 128.163C2123.04 131.131 2117.86 134.074 2112.72 137.001C1432.15 522.922 857.973 522.857 495.072 454.248C98.8536 379.339 -137.907 208.878 -140.25 207.159Z" fill="url(#paint12_linear_811_796)"/>
<path d="M-145.347 232.634L-147.668 234.442C-145.236 236.12 99.7928 402.819 501.594 469.953C737.569 509.382 980.675 507.274 1224.13 463.694C1528.38 409.225 1834.03 289.446 2132.62 107.707L2130.45 105.793C1455.33 516.76 872.52 529.352 502.5 467.553C101.55 400.606 -142.926 234.304 -145.347 232.634Z" fill="url(#paint13_linear_811_796)"/>
</g>
<defs>
<linearGradient id="paint0_linear_811_796" x1="-36.5079" y1="253.592" x2="1605.66" y2="160.798" gradientUnits="userSpaceOnUse">
<stop stop-color="#D4D3F2"/>
<stop offset="1" stop-color="#2F2B73"/>
</linearGradient>
<linearGradient id="paint1_linear_811_796" x1="-41.4056" y1="260.307" x2="1605.66" y2="161.662" gradientUnits="userSpaceOnUse">
<stop stop-color="#D4D3F2"/>
<stop offset="1" stop-color="#2F2B73"/>
</linearGradient>
<linearGradient id="paint2_linear_811_796" x1="-46.2921" y1="267.669" x2="1605.58" y2="162.704" gradientUnits="userSpaceOnUse">
<stop stop-color="#D4D3F2"/>
<stop offset="1" stop-color="#2F2B73"/>
</linearGradient>
<linearGradient id="paint3_linear_811_796" x1="-51.1901" y1="275.678" x2="1605.38" y2="163.872" gradientUnits="userSpaceOnUse">
<stop stop-color="#D4D3F2"/>
<stop offset="1" stop-color="#2F2B73"/>
</linearGradient>
<linearGradient id="paint4_linear_811_796" x1="-56.0753" y1="284.343" x2="1605.05" y2="165.127" gradientUnits="userSpaceOnUse">
<stop stop-color="#D4D3F2"/>
<stop offset="1" stop-color="#2F2B73"/>
</linearGradient>
<linearGradient id="paint5_linear_811_796" x1="-60.9616" y1="293.624" x2="1604.56" y2="166.366" gradientUnits="userSpaceOnUse">
<stop stop-color="#D4D3F2"/>
<stop offset="1" stop-color="#2F2B73"/>
</linearGradient>
<linearGradient id="paint6_linear_811_796" x1="-65.8497" y1="303.544" x2="1603.89" y2="167.546" gradientUnits="userSpaceOnUse">
<stop stop-color="#D4D3F2"/>
<stop offset="1" stop-color="#2F2B73"/>
</linearGradient>
<linearGradient id="paint7_linear_811_796" x1="-70.7347" y1="314.067" x2="1602.99" y2="168.567" gradientUnits="userSpaceOnUse">
<stop stop-color="#D4D3F2"/>
<stop offset="1" stop-color="#2F2B73"/>
</linearGradient>
<linearGradient id="paint8_linear_811_796" x1="-75.6219" y1="325.184" x2="1601.83" y2="169.333" gradientUnits="userSpaceOnUse">
<stop stop-color="#D4D3F2"/>
<stop offset="1" stop-color="#2F2B73"/>
</linearGradient>
<linearGradient id="paint9_linear_811_796" x1="-80.4979" y1="336.896" x2="1600.37" y2="169.761" gradientUnits="userSpaceOnUse">
<stop stop-color="#D4D3F2"/>
<stop offset="1" stop-color="#2F2B73"/>
</linearGradient>
<linearGradient id="paint10_linear_811_796" x1="-85.3856" y1="349.186" x2="1598.54" y2="169.721" gradientUnits="userSpaceOnUse">
<stop stop-color="#D4D3F2"/>
<stop offset="1" stop-color="#2F2B73"/>
</linearGradient>
<linearGradient id="paint11_linear_811_796" x1="-90.2598" y1="349.287" x2="1600.13" y2="173.82" gradientUnits="userSpaceOnUse">
<stop stop-color="#D4D3F2"/>
<stop offset="1" stop-color="#2F2B73"/>
</linearGradient>
<linearGradient id="paint12_linear_811_796" x1="-95.1463" y1="343.125" x2="1603.27" y2="179.574" gradientUnits="userSpaceOnUse">
<stop stop-color="#D4D3F2"/>
<stop offset="1" stop-color="#2F2B73"/>
</linearGradient>
<linearGradient id="paint13_linear_811_796" x1="-100.023" y1="337.505" x2="1605.99" y2="184.604" gradientUnits="userSpaceOnUse">
<stop stop-color="#D4D3F2"/>
<stop offset="1" stop-color="#2F2B73"/>
</linearGradient>
</defs>
</svg>
