<svg width="834" height="287" viewBox="0 0 834 287" fill="none" xmlns="http://www.w3.org/2000/svg">
<g opacity="0.43">
<path d="M-44.9855 -56.0695C-44.1647 -54.7954 38.9746 72.4473 234.752 170.684C349.732 228.383 480.492 264.945 623.399 279.357C801.996 297.367 1000.16 280.631 1212.4 229.62L1211.79 228.262C731.889 343.613 416.232 259.998 235.929 169.545C40.559 71.5325 -42.4084 -55.4068 -43.2229 -56.6809L-44.9855 -56.0695Z" fill="url(#paint0_linear_1267_4591)"/>
<path d="M-47.8921 -41.373C-47.0267 -40.1222 40.573 84.7123 239.074 178.371C355.657 233.377 487.123 267.036 629.82 278.409C808.151 292.62 1004.61 271.871 1213.74 216.734L1213.09 215.39C740.206 340.066 423.022 263.442 240.213 177.213C42.1193 83.7742 -45.2896 -40.7662 -46.1486 -42.0124L-47.8921 -41.373Z" fill="url(#paint1_linear_1267_4591)"/>
<path d="M-50.7911 -26.6764C-49.8876 -25.4489 42.1726 96.982 243.409 186.053C361.603 238.366 493.775 269.117 636.256 277.452C814.319 287.869 1009.07 263.101 1215.09 203.839L1214.39 202.509C748.532 336.505 429.821 266.872 244.498 184.867C43.6807 96.0019 -48.1759 -26.135 -49.0795 -27.3578L-50.7911 -26.6764Z" fill="url(#paint2_linear_1267_4591)"/>
<path d="M-53.6998 -11.9845C-52.7454 -10.7804 43.7626 109.242 247.729 193.73C367.526 243.35 500.405 271.199 642.676 276.491C820.471 283.109 1013.51 254.327 1216.44 190.944L1215.67 189.632C756.841 332.948 436.609 270.307 248.773 192.521C45.2261 108.23 -51.0656 -11.4991 -52.0135 -12.7032L-53.6998 -11.9845Z" fill="url(#paint3_linear_1267_4591)"/>
<path d="M-56.6042 2.71209C-55.6116 3.89285 45.3568 121.507 252.053 201.412C373.453 248.339 507.039 273.28 649.093 275.539C826.621 278.363 1017.96 245.562 1217.78 178.053L1216.96 176.756C765.148 329.397 443.402 273.747 253.046 200.18C46.7758 120.467 -53.9572 3.13212 -54.9498 1.95602L-56.6042 2.71209Z" fill="url(#paint4_linear_1267_4591)"/>
<path d="M-59.5032 17.404C-58.4596 18.5568 46.9565 133.772 256.389 209.089C379.393 253.328 513.684 275.362 655.529 274.578C832.796 273.602 1022.41 236.788 1219.13 165.154L1218.26 163.875C773.474 325.841 450.2 277.177 257.331 207.834C48.3373 132.694 -56.8435 17.7634 -57.8806 16.6106L-59.5032 17.404Z" fill="url(#paint5_linear_1267_4591)"/>
<path d="M-62.406 32.1006C-61.3243 33.23 48.5524 146.037 260.715 216.771C385.322 258.318 520.32 277.443 661.954 273.625C838.954 268.851 1026.87 228.024 1220.47 152.268L1219.56 151.008C781.789 322.294 456.995 280.621 261.612 215.502C49.895 144.936 -59.7272 32.4086 -60.809 31.2792L-62.406 32.1006Z" fill="url(#paint6_linear_1267_4591)"/>
<path d="M-65.3063 46.7971C-64.1801 47.9032 50.1508 158.302 265.043 224.453C391.253 263.307 526.957 279.529 668.375 272.669C845.115 264.1 1031.32 219.25 1221.82 139.373L1220.85 138.131C790.106 318.742 463.785 284.061 265.889 223.161C51.4489 157.168 -62.6211 47.0445 -63.7473 45.9384L-65.3063 46.7971Z" fill="url(#paint7_linear_1267_4591)"/>
<path d="M-66.6835 60.5976L-68.2106 61.489C-67.0334 62.5718 51.7451 170.563 269.373 232.131C397.187 268.291 533.598 281.606 674.806 271.707C851.271 259.344 1035.76 210.48 1223.16 126.478L1222.14 125.26C798.414 315.195 470.572 287.501 270.162 230.824C52.9987 169.405 -65.5126 61.6804 -66.6835 60.5976Z" fill="url(#paint8_linear_1267_4591)"/>
<path d="M-69.6156 75.2568L-71.1045 76.1809C-69.8828 77.2403 53.3499 182.823 273.708 239.808C403.125 273.275 540.242 283.688 681.234 270.751C857.426 254.584 1040.22 201.706 1224.5 113.583L1223.44 112.388C806.738 311.648 477.369 290.94 274.439 238.487C54.5524 181.642 -68.4003 76.3163 -69.6156 75.2568Z" fill="url(#paint9_linear_1267_4591)"/>
<path d="M-72.5543 89.9207L-74.0051 90.8728C-72.7388 91.9089 54.9415 195.088 278.035 247.485C409.056 278.26 546.873 285.765 687.655 269.789C863.586 249.828 1044.67 192.937 1225.85 100.688L1224.73 99.5162C815.049 308.096 484.159 294.385 278.716 246.151C56.106 193.879 -71.2881 90.9568 -72.5543 89.9207Z" fill="url(#paint10_linear_1267_4591)"/>
<path d="M-75.4885 104.585L-76.9011 105.565C-75.5903 106.577 56.5442 207.349 282.368 255.163C414.999 283.244 553.515 287.841 694.081 268.832C869.745 245.072 1049.11 184.163 1227.19 87.7926L1226.03 86.6398C823.371 304.545 490.954 297.82 282.991 253.809C57.6514 206.116 -74.1841 105.593 -75.4885 104.585Z" fill="url(#paint11_linear_1267_4591)"/>
<path d="M-78.4268 119.244L-79.8011 120.257C-78.4458 121.246 58.1427 219.609 286.696 262.835C420.93 288.224 560.153 289.918 700.509 267.866C875.905 240.317 1053.6 175.398 1228.53 74.8975L1227.33 73.7727C1224.36 75.4808 1221.38 77.175 1218.42 78.8598C826.675 301.002 496.167 300.965 287.275 261.472C59.2053 218.354 -77.0779 120.233 -78.4268 119.244Z" fill="url(#paint12_linear_1267_4591)"/>
<path d="M-81.3589 133.908L-82.6952 134.949C-81.2953 135.915 59.7474 231.869 291.031 270.513C426.862 293.208 566.797 291.995 706.937 266.91C882.066 235.556 1058 166.61 1229.88 61.9977L1228.63 60.8963C840.019 297.455 504.542 304.703 291.552 269.131C60.7592 230.595 -79.9653 134.869 -81.3589 133.908Z" fill="url(#paint13_linear_1267_4591)"/>
</g>
<defs>
<linearGradient id="paint0_linear_1267_4591" x1="-18.7131" y1="145.972" x2="926.544" y2="92.5581" gradientUnits="userSpaceOnUse">
<stop stop-color="#D4D3F2"/>
<stop offset="1" stop-color="#2F2B73"/>
</linearGradient>
<linearGradient id="paint1_linear_1267_4591" x1="-21.5309" y1="149.837" x2="926.549" y2="93.0553" gradientUnits="userSpaceOnUse">
<stop stop-color="#D4D3F2"/>
<stop offset="1" stop-color="#2F2B73"/>
</linearGradient>
<linearGradient id="paint2_linear_1267_4591" x1="-24.3411" y1="154.074" x2="926.506" y2="93.6549" gradientUnits="userSpaceOnUse">
<stop stop-color="#D4D3F2"/>
<stop offset="1" stop-color="#2F2B73"/>
</linearGradient>
<linearGradient id="paint3_linear_1267_4591" x1="-27.161" y1="158.685" x2="926.387" y2="94.3273" gradientUnits="userSpaceOnUse">
<stop stop-color="#D4D3F2"/>
<stop offset="1" stop-color="#2F2B73"/>
</linearGradient>
<linearGradient id="paint4_linear_1267_4591" x1="-29.9767" y1="163.672" x2="926.191" y2="95.05" gradientUnits="userSpaceOnUse">
<stop stop-color="#D4D3F2"/>
<stop offset="1" stop-color="#2F2B73"/>
</linearGradient>
<linearGradient id="paint5_linear_1267_4591" x1="-32.7868" y1="169.015" x2="925.914" y2="95.7628" gradientUnits="userSpaceOnUse">
<stop stop-color="#D4D3F2"/>
<stop offset="1" stop-color="#2F2B73"/>
</linearGradient>
<linearGradient id="paint6_linear_1267_4591" x1="-35.6009" y1="174.725" x2="925.527" y2="96.4423" gradientUnits="userSpaceOnUse">
<stop stop-color="#D4D3F2"/>
<stop offset="1" stop-color="#2F2B73"/>
</linearGradient>
<linearGradient id="paint7_linear_1267_4591" x1="-38.4125" y1="180.782" x2="925.011" y2="97.0301" gradientUnits="userSpaceOnUse">
<stop stop-color="#D4D3F2"/>
<stop offset="1" stop-color="#2F2B73"/>
</linearGradient>
<linearGradient id="paint8_linear_1267_4591" x1="-41.2281" y1="187.181" x2="924.342" y2="97.471" gradientUnits="userSpaceOnUse">
<stop stop-color="#D4D3F2"/>
<stop offset="1" stop-color="#2F2B73"/>
</linearGradient>
<linearGradient id="paint9_linear_1267_4591" x1="-44.0334" y1="193.923" x2="923.502" y2="97.7173" gradientUnits="userSpaceOnUse">
<stop stop-color="#D4D3F2"/>
<stop offset="1" stop-color="#2F2B73"/>
</linearGradient>
<linearGradient id="paint10_linear_1267_4591" x1="-46.8454" y1="200.997" x2="922.447" y2="97.6943" gradientUnits="userSpaceOnUse">
<stop stop-color="#D4D3F2"/>
<stop offset="1" stop-color="#2F2B73"/>
</linearGradient>
<linearGradient id="paint11_linear_1267_4591" x1="-49.6528" y1="201.055" x2="923.361" y2="100.054" gradientUnits="userSpaceOnUse">
<stop stop-color="#D4D3F2"/>
<stop offset="1" stop-color="#2F2B73"/>
</linearGradient>
<linearGradient id="paint12_linear_1267_4591" x1="-52.4642" y1="197.508" x2="925.169" y2="103.366" gradientUnits="userSpaceOnUse">
<stop stop-color="#D4D3F2"/>
<stop offset="1" stop-color="#2F2B73"/>
</linearGradient>
<linearGradient id="paint13_linear_1267_4591" x1="-55.2697" y1="194.273" x2="926.737" y2="106.261" gradientUnits="userSpaceOnUse">
<stop stop-color="#D4D3F2"/>
<stop offset="1" stop-color="#2F2B73"/>
</linearGradient>
</defs>
</svg>
