<svg width="426" height="147" viewBox="0 0 426 147" fill="none" xmlns="http://www.w3.org/2000/svg">
<g opacity="0.43">
<path d="M-22.9935 -28.6602C-22.5739 -28.0089 19.9231 37.0318 119.996 87.2461C178.768 116.739 245.607 135.428 318.655 142.795C409.946 152.001 511.238 143.446 619.725 117.371L619.416 116.677C374.11 175.639 212.76 132.899 120.597 86.664C20.733 36.5642 -21.6762 -28.3215 -22.0925 -28.9727L-22.9935 -28.6602Z" fill="url(#paint0_linear_1270_5105)"/>
<path d="M-24.4805 -21.148C-24.0382 -20.5086 20.7388 43.3011 122.204 91.1752C181.796 119.292 248.995 136.497 321.936 142.31C413.09 149.574 513.511 138.968 620.41 110.785L620.075 110.098C378.36 173.826 216.23 134.66 122.786 90.5835C21.5292 42.8216 -23.1503 -20.8379 -23.5894 -21.4748L-24.4805 -21.148Z" fill="url(#paint1_linear_1270_5105)"/>
<path d="M-25.9619 -13.6358C-25.5 -13.0084 21.557 49.5728 124.42 95.1018C184.835 121.842 252.396 137.561 325.226 141.821C416.243 147.146 515.792 134.486 621.102 104.193L620.741 103.513C382.616 172.006 219.705 136.413 124.976 94.4959C22.3279 49.0719 -24.6251 -13.359 -25.0869 -13.9841L-25.9619 -13.6358Z" fill="url(#paint2_linear_1270_5105)"/>
<path d="M-27.4509 -6.12593C-26.963 -5.51044 22.3676 55.8398 126.626 99.0261C187.861 124.39 255.782 138.625 328.505 141.33C419.386 144.713 518.06 130.001 621.785 97.6019L621.395 96.9316C386.861 170.188 223.173 138.169 127.16 98.4083C23.1156 55.3221 -26.1043 -5.87783 -26.5889 -6.49331L-27.4509 -6.12593Z" fill="url(#paint3_linear_1270_5105)"/>
<path d="M-28.9368 1.3863C-28.4294 1.98985 23.1812 62.1091 128.835 102.953C190.889 126.94 259.172 139.689 331.784 140.843C422.528 142.286 520.331 125.521 622.469 91.0129L622.052 90.3497C391.106 168.373 226.644 139.927 129.342 102.323C23.9064 61.5771 -27.5837 1.601 -28.0911 0.999832L-28.9368 1.3863Z" fill="url(#paint4_linear_1270_5105)"/>
<path d="M-30.418 8.89614C-29.8846 9.48538 23.9994 68.3784 131.052 106.877C193.926 129.49 262.57 140.752 335.074 140.352C425.685 139.853 522.609 121.036 623.16 84.4191L622.718 83.7655C395.362 166.555 230.119 141.68 131.533 106.235C24.7051 67.8274 -29.0585 9.07983 -29.5887 8.49059L-30.418 8.89614Z" fill="url(#paint5_linear_1270_5105)"/>
<path d="M-31.8993 16.4084C-31.3464 16.9857 24.8176 74.6478 133.265 110.804C196.959 132.04 265.964 141.816 338.361 139.865C428.835 137.425 524.888 116.555 623.852 77.8325L623.383 77.1884C399.615 164.742 233.595 143.441 133.724 110.155C25.5039 74.0848 -30.53 16.5658 -31.0829 15.9885L-31.8993 16.4084Z" fill="url(#paint6_linear_1270_5105)"/>
<path d="M-33.3831 23.9206C-32.8074 24.486 25.6333 80.9171 135.476 114.73C199.99 134.59 269.355 142.883 341.642 139.376C431.983 134.996 527.161 112.071 624.537 71.2411L624.043 70.6066C403.865 162.927 237.065 145.199 135.909 114.07C26.2969 80.3374 -32.0106 24.047 -32.5862 23.4816L-33.3831 23.9206Z" fill="url(#paint7_linear_1270_5105)"/>
<path d="M-34.0883 30.9748L-34.8689 31.4304C-34.2672 31.9839 26.447 87.1841 137.689 118.655C203.021 137.138 272.748 143.944 344.928 138.885C435.129 132.565 529.432 107.588 625.221 64.6498L624.7 64.0271C408.11 161.114 240.532 146.957 138.092 117.987C27.0878 86.5924 -33.4899 31.5282 -34.0883 30.9748Z" fill="url(#paint8_linear_1270_5105)"/>
<path d="M-35.5845 38.4679L-36.3456 38.9402C-35.7211 39.4818 27.2699 93.451 139.907 122.579C206.059 139.686 276.147 145.008 348.216 138.396C438.277 130.132 531.712 103.103 625.91 58.0584L625.367 57.4477C412.368 159.3 244.009 148.716 140.281 121.904C27.8846 92.8474 -34.9633 39.0094 -35.5845 38.4679Z" fill="url(#paint9_linear_1270_5105)"/>
<path d="M-37.088 45.9634L-37.8295 46.4501C-37.1823 46.9797 28.0822 99.7203 142.118 126.503C209.09 142.234 279.535 146.07 351.497 137.904C441.425 127.701 533.984 98.6206 626.596 51.467L626.027 50.8682C416.615 157.485 247.479 150.476 142.466 125.821C28.6774 99.1025 -36.4407 46.493 -37.088 45.9634Z" fill="url(#paint10_linear_1270_5105)"/>
<path d="M-38.5901 53.459L-39.3121 53.9599C-38.6421 54.4776 28.8991 105.987 144.33 130.428C212.125 144.782 282.928 147.132 354.779 137.415C444.571 125.27 536.255 94.1357 627.279 44.8756L626.687 44.2864C420.867 155.67 250.95 152.232 144.649 129.736C29.465 105.357 -37.9233 53.9742 -38.5901 53.459Z" fill="url(#paint11_linear_1270_5105)"/>
<path d="M-40.0894 60.9521L-40.7919 61.4698C-40.0991 61.9755 29.7188 112.254 146.545 134.35C215.16 147.327 286.324 148.193 358.067 136.921C447.722 122.839 538.551 89.6555 627.969 38.2842L627.354 37.7093C625.835 38.5824 624.313 39.4484 622.801 40.3096C422.558 153.859 253.617 153.84 146.841 133.653C30.262 111.612 -39.3998 61.4578 -40.0894 60.9521Z" fill="url(#paint12_linear_1270_5105)"/>
<path d="M-41.5895 68.4476L-42.2725 68.9796C-41.5569 69.4734 30.5377 118.521 148.759 138.274C218.19 149.875 289.719 149.255 361.352 136.432C450.87 120.406 540.801 85.1634 628.654 31.6904L628.017 31.1274C429.378 152.046 257.897 155.751 149.026 137.568C31.0549 117.87 -40.8772 68.9391 -41.5895 68.4476Z" fill="url(#paint13_linear_1270_5105)"/>
</g>
<defs>
<linearGradient id="paint0_linear_1270_5105" x1="-9.5642" y1="74.6142" x2="473.609" y2="47.3115" gradientUnits="userSpaceOnUse">
<stop stop-color="#D4D3F2"/>
<stop offset="1" stop-color="#2F2B73"/>
</linearGradient>
<linearGradient id="paint1_linear_1270_5105" x1="-11.0059" y1="76.5898" x2="473.61" y2="47.5657" gradientUnits="userSpaceOnUse">
<stop stop-color="#D4D3F2"/>
<stop offset="1" stop-color="#2F2B73"/>
</linearGradient>
<linearGradient id="paint2_linear_1270_5105" x1="-12.4418" y1="78.7559" x2="473.588" y2="47.8722" gradientUnits="userSpaceOnUse">
<stop stop-color="#D4D3F2"/>
<stop offset="1" stop-color="#2F2B73"/>
</linearGradient>
<linearGradient id="paint3_linear_1270_5105" x1="-13.8854" y1="81.1125" x2="473.526" y2="48.2159" gradientUnits="userSpaceOnUse">
<stop stop-color="#D4D3F2"/>
<stop offset="1" stop-color="#2F2B73"/>
</linearGradient>
<linearGradient id="paint4_linear_1270_5105" x1="-15.326" y1="83.662" x2="473.424" y2="48.5853" gradientUnits="userSpaceOnUse">
<stop stop-color="#D4D3F2"/>
<stop offset="1" stop-color="#2F2B73"/>
</linearGradient>
<linearGradient id="paint5_linear_1270_5105" x1="-16.7618" y1="86.3927" x2="473.283" y2="48.9496" gradientUnits="userSpaceOnUse">
<stop stop-color="#D4D3F2"/>
<stop offset="1" stop-color="#2F2B73"/>
</linearGradient>
<linearGradient id="paint6_linear_1270_5105" x1="-18.1977" y1="89.3116" x2="473.088" y2="49.297" gradientUnits="userSpaceOnUse">
<stop stop-color="#D4D3F2"/>
<stop offset="1" stop-color="#2F2B73"/>
</linearGradient>
<linearGradient id="paint7_linear_1270_5105" x1="-19.6362" y1="92.4076" x2="472.823" y2="49.5974" gradientUnits="userSpaceOnUse">
<stop stop-color="#D4D3F2"/>
<stop offset="1" stop-color="#2F2B73"/>
</linearGradient>
<linearGradient id="paint8_linear_1270_5105" x1="-21.0767" y1="95.6787" x2="472.479" y2="49.8228" gradientUnits="userSpaceOnUse">
<stop stop-color="#D4D3F2"/>
<stop offset="1" stop-color="#2F2B73"/>
</linearGradient>
<linearGradient id="paint9_linear_1270_5105" x1="-22.5081" y1="99.1247" x2="472.052" y2="49.9487" gradientUnits="userSpaceOnUse">
<stop stop-color="#D4D3F2"/>
<stop offset="1" stop-color="#2F2B73"/>
</linearGradient>
<linearGradient id="paint10_linear_1270_5105" x1="-23.9467" y1="102.741" x2="471.512" y2="49.937" gradientUnits="userSpaceOnUse">
<stop stop-color="#D4D3F2"/>
<stop offset="1" stop-color="#2F2B73"/>
</linearGradient>
<linearGradient id="paint11_linear_1270_5105" x1="-25.384" y1="102.77" x2="471.977" y2="51.143" gradientUnits="userSpaceOnUse">
<stop stop-color="#D4D3F2"/>
<stop offset="1" stop-color="#2F2B73"/>
</linearGradient>
<linearGradient id="paint12_linear_1270_5105" x1="-26.8185" y1="100.957" x2="472.904" y2="52.8359" gradientUnits="userSpaceOnUse">
<stop stop-color="#D4D3F2"/>
<stop offset="1" stop-color="#2F2B73"/>
</linearGradient>
<linearGradient id="paint13_linear_1270_5105" x1="-28.2538" y1="99.3037" x2="473.704" y2="54.3158" gradientUnits="userSpaceOnUse">
<stop stop-color="#D4D3F2"/>
<stop offset="1" stop-color="#2F2B73"/>
</linearGradient>
</defs>
</svg>
