<svg width="33" height="32" viewBox="0 0 33 32" fill="none" xmlns="http://www.w3.org/2000/svg">
<path d="M23.1477 23.3934C22.8878 23.3934 22.6771 23.6038 22.6771 23.8639V29.1466C22.6771 29.5721 22.3306 29.9186 21.9049 29.9186H3.15463C2.72884 29.9186 2.38234 29.5721 2.38234 29.1466V2.85337C2.38234 2.42782 2.72885 2.08131 3.15463 2.08131H17.3617V5.95632C17.3617 6.49676 17.8012 6.93609 18.3414 6.93609H22.6771V10.1319C22.6771 10.392 22.8878 10.6025 23.1477 10.6025C23.4076 10.6025 23.6183 10.392 23.6183 10.1319V6.46597C23.6183 6.36817 23.5648 6.2151 23.4695 6.12474C23.4219 6.0796 18.1976 1.30365 18.1503 1.2633C18.1501 1.26319 18.1499 1.26307 18.1497 1.26296C18.0658 1.18647 17.9275 1.14014 17.8329 1.14014H3.15463C2.20977 1.14014 1.44116 1.90852 1.44116 2.85337V29.1466C1.44116 30.0914 2.20977 30.8598 3.15463 30.8598H21.9049C22.8497 30.8598 23.6183 30.0914 23.6183 29.1466V23.8639C23.6183 23.6038 23.4076 23.3934 23.1477 23.3934ZM18.3414 5.99492C18.3201 5.99492 18.3028 5.97745 18.3028 5.95632V2.67748C18.7452 3.08158 21.6524 5.73761 21.934 5.99492H18.3414Z" fill="#5958B5"/>
<path d="M4.24891 5.5464H12.4984C12.7583 5.5464 12.969 5.33592 12.969 5.07581C12.969 4.8157 12.7583 4.60522 12.4984 4.60522H4.24891C3.98903 4.60522 3.77832 4.8157 3.77832 5.07581C3.77832 5.33592 3.98903 5.5464 4.24891 5.5464Z" fill="#5958B5"/>
<path d="M20.9598 9.44526C20.9598 9.18515 20.7491 8.97467 20.4893 8.97467H4.24891C3.98903 8.97467 3.77832 9.18515 3.77832 9.44526C3.77832 9.70537 3.98903 9.91585 4.24891 9.91585H20.4893C20.7491 9.91585 20.9598 9.70537 20.9598 9.44526Z" fill="#5958B5"/>
<path d="M12.4984 13.3441H4.24891C3.98903 13.3441 3.77832 13.5546 3.77832 13.8147C3.77832 14.0748 3.98903 14.2853 4.24891 14.2853H12.4984C12.7583 14.2853 12.969 14.0748 12.969 13.8147C12.969 13.5546 12.7583 13.3441 12.4984 13.3441Z" fill="#5958B5"/>
<path d="M4.24891 18.6549H12.4984C12.7583 18.6549 12.969 18.4444 12.969 18.1843C12.969 17.9242 12.7583 17.7137 12.4984 17.7137H4.24891C3.98903 17.7137 3.77832 17.9242 3.77832 18.1843C3.77832 18.4444 3.98903 18.6549 4.24891 18.6549Z" fill="#5958B5"/>
<path d="M14.3401 22.0831H4.24891C3.98903 22.0831 3.77832 22.2936 3.77832 22.5537C3.77832 22.8138 3.98903 23.0243 4.24891 23.0243H14.3401C14.6 23.0243 14.8107 22.8138 14.8107 22.5537C14.8107 22.2936 14.6 22.0831 14.3401 22.0831Z" fill="#5958B5"/>
<path d="M3.77832 26.9232C3.77832 27.1833 3.98903 27.3938 4.24891 27.3938H20.4893C20.7491 27.3938 20.9598 27.1833 20.9598 26.9232C20.9598 26.6631 20.7491 26.4526 20.4893 26.4526H4.24891C3.98903 26.4526 3.77832 26.6631 3.77832 26.9232Z" fill="#5958B5"/>
<path d="M18.6967 12.4958C16.5949 12.9434 15.1797 14.7576 15.0758 16.7352C15.0623 16.9949 15.2615 17.2164 15.5212 17.2302C15.5294 17.2306 15.5379 17.2306 15.5462 17.2306C15.7948 17.2306 16.0025 17.0358 16.0156 16.7849C16.099 15.1954 17.2431 13.7675 18.8925 13.4167C19.1466 13.3625 19.3091 13.1125 19.2548 12.8584C19.2006 12.6042 18.9515 12.4411 18.6967 12.4958Z" fill="#5958B5"/>
<path d="M30.7663 22.9434L29.8502 22.2141C29.6466 22.0528 29.3507 22.0859 29.1889 22.289C29.0269 22.4926 29.0607 22.7886 29.2638 22.9503L30.1799 23.6796C30.681 24.0782 30.7648 24.8084 30.3649 25.3101C29.962 25.816 29.2334 25.8917 28.7344 25.4953L25.534 22.9471L26.9796 21.1314L27.6873 21.6948C27.8904 21.857 28.1868 21.8235 28.3486 21.6199C28.5106 21.4163 28.477 21.1204 28.2737 20.9586L27.1978 20.102C26.9918 19.9376 26.6962 19.9766 26.5365 20.1769L26.4802 20.2477L25.6147 19.5584C26.7783 16.8717 26.0175 13.7692 23.7029 11.9315C22.1696 10.7193 20.1927 10.2711 18.3104 10.6796C13.0229 11.8045 11.3676 18.651 15.6507 22.0542C18.026 23.9445 21.4346 23.9071 23.7574 22.0182L24.5609 22.6581L24.5046 22.7288C24.3426 22.9324 24.3762 23.2284 24.5795 23.3901L28.148 26.2316C29.0524 26.9513 30.375 26.8093 31.1011 25.8966C31.8248 24.9884 31.675 23.6671 30.7663 22.9434ZM16.2364 21.3175C12.566 18.4009 14.0097 12.5572 18.5085 11.5997C20.1655 11.2393 21.8524 11.6652 23.1241 12.6737C25.4273 14.5021 25.8965 17.7818 24.1949 20.1814L24.0245 20.413C21.5515 23.0896 18.3634 23.0102 16.2364 21.3175ZM24.9616 20.7274C24.9619 20.7271 24.9621 20.7266 24.9624 20.7263L24.9632 20.7251C24.9642 20.7238 24.9651 20.7223 24.966 20.7209C25.0379 20.6191 25.1071 20.5156 25.173 20.4099L25.8927 20.9829L25.1461 21.9209L24.4481 21.3648C24.6999 21.0898 24.8495 20.8861 24.9616 20.7274Z" fill="#5958B5"/>
</svg>
