<svg width="89" height="662" viewBox="0 0 89 662" fill="none" xmlns="http://www.w3.org/2000/svg">
<g opacity="0.7" clip-path="url(#clip0_1234_6561)">
<g opacity="0.6">
<path d="M5.56532 348.202C12.9472 348.202 20.1985 348.202 27.3844 348.202C37.7714 348.267 48.093 348.071 58.5452 348.463C61.9422 348.594 65.4698 349.051 69.1281 350.684C73.4397 352.578 77.098 355.845 79.9724 360.418C80.9523 361.92 81.1482 361.528 81.6055 360.81C85.3292 355.388 83.9573 342.779 72.0678 334.091C66.9724 330.367 62.0729 329.126 57.1734 328.669C49.9874 328.016 43.0628 328.473 36.0729 328.408C26.2085 328.342 16.4095 328.408 6.61055 328.473C6.08794 328.473 5.5 328.277 5.5 329.192C5.63065 335.528 5.56532 341.734 5.56532 348.202Z" stroke="#736FC4" stroke-width="1.3134" stroke-miterlimit="10"/>
<path d="M83.4347 365.905C76.0528 365.905 68.8015 365.905 61.6156 365.905C51.2287 365.84 40.9071 366.036 30.4548 365.644C27.0578 365.513 23.5302 365.056 19.8719 363.423C15.5603 361.528 11.902 358.262 9.02767 353.689C8.04777 352.187 7.85179 352.578 7.39451 353.297C3.67089 358.719 5.04275 371.327 16.9322 380.016C22.0277 383.739 26.9272 384.981 31.8267 385.438C39.0126 386.091 45.9372 385.634 52.9272 385.699C62.7915 385.764 72.5905 385.699 82.3895 385.634C82.9121 385.634 83.5 385.83 83.5 384.915C83.4347 378.579 83.4347 372.307 83.4347 365.905Z" stroke="#736FC4" stroke-width="1.3134" stroke-miterlimit="10"/>
<path d="M5.56532 413.659C12.9472 413.659 20.1985 413.659 27.3844 413.659C37.7714 413.724 48.093 413.528 58.5452 413.92C61.9422 414.051 65.4698 414.508 69.1281 416.141C73.4397 418.036 77.098 421.302 79.9724 425.875C80.9523 427.377 81.1482 426.985 81.6055 426.267C85.3292 420.845 83.9573 408.237 72.0678 399.548C66.9724 395.825 62.0729 394.583 57.1734 394.126C49.9874 393.473 43.0628 393.93 36.0729 393.865C26.2085 393.8 16.4095 393.865 6.61055 393.93C6.08794 393.93 5.5 393.734 5.5 394.649C5.63065 400.985 5.56532 407.257 5.56532 413.659Z" stroke="#736FC4" stroke-width="1.3134" stroke-miterlimit="10"/>
<path d="M83.4347 431.362C76.0528 431.362 68.8015 431.362 61.6156 431.362C51.2287 431.297 40.9071 431.493 30.4548 431.101C27.0578 430.97 23.5302 430.513 19.8719 428.88C15.5603 426.985 11.902 423.719 9.02767 419.146C8.04777 417.644 7.85179 418.036 7.39451 418.754C3.67089 424.176 5.04275 436.784 16.9322 445.473C22.0277 449.196 26.9272 450.438 31.8267 450.895C39.0126 451.548 45.9372 451.091 52.9272 451.156C62.7915 451.222 72.5905 451.156 82.3895 451.091C82.9121 451.091 83.5 451.287 83.5 450.372C83.4347 444.036 83.4347 437.83 83.4347 431.362Z" stroke="#736FC4" stroke-width="1.3134" stroke-miterlimit="10"/>
<path d="M5.56532 476.503C12.9472 476.503 20.1985 476.503 27.3844 476.503C37.7714 476.568 48.093 476.372 58.5452 476.764C61.9422 476.895 65.4698 477.352 69.1281 478.985C73.4397 480.88 77.098 484.146 79.9724 488.719C80.9523 490.222 81.1482 489.83 81.6055 489.111C85.3292 483.689 83.9573 471.081 72.0678 462.392C66.9724 458.669 62.0729 457.428 57.1734 456.97C49.9874 456.317 43.0628 456.774 36.0729 456.709C26.2085 456.644 16.4095 456.709 6.61055 456.774C6.08794 456.774 5.5 456.578 5.5 457.493C5.63065 463.83 5.56532 470.036 5.56532 476.503Z" stroke="#736FC4" stroke-width="1.3134" stroke-miterlimit="10"/>
<path d="M83.4347 494.207C76.0528 494.207 68.8015 494.207 61.6156 494.207C51.2287 494.141 40.9071 494.337 30.4548 493.945C27.0578 493.815 23.5302 493.357 19.8719 491.724C15.5603 489.83 11.902 486.563 9.02767 481.99C8.04777 480.488 7.85179 480.88 7.39451 481.598C3.67089 487.021 5.04275 499.629 16.9322 508.317C22.0277 512.041 26.9272 513.282 31.8267 513.739C39.0126 514.392 45.9372 513.935 52.9272 514C62.7915 514.066 72.5905 514 82.3895 513.935C82.9121 513.935 83.5 514.131 83.5 513.217C83.4347 506.88 83.4347 500.674 83.4347 494.207Z" stroke="#736FC4" stroke-width="1.3134" stroke-miterlimit="10"/>
<path d="M5.56532 541.96C12.9472 541.96 20.1985 541.96 27.3844 541.96C37.7714 542.026 48.093 541.83 58.5452 542.222C61.9422 542.352 65.4698 542.81 69.1281 544.443C73.4397 546.337 77.098 549.604 79.9724 554.177C80.9523 555.679 81.1482 555.287 81.6055 554.569C85.3292 549.146 83.9573 536.538 72.0678 527.85C66.9724 524.126 62.0729 522.885 57.1734 522.428C49.9874 521.775 43.0628 522.232 36.0729 522.167C26.2085 522.101 16.4095 522.167 6.61055 522.232C6.08794 522.232 5.5 522.036 5.5 522.95C5.63065 529.287 5.56532 535.558 5.56532 541.96Z" stroke="#736FC4" stroke-width="1.3134" stroke-miterlimit="10"/>
<path d="M83.4347 559.664C76.0528 559.664 68.8015 559.664 61.6156 559.664C51.2287 559.599 40.9071 559.795 30.4548 559.403C27.0578 559.272 23.5302 558.815 19.8719 557.182C15.5603 555.287 11.902 552.021 9.02767 547.448C8.04777 545.945 7.85179 546.337 7.39451 547.056C3.67089 552.478 5.04275 565.086 16.9322 573.774C22.0277 577.498 26.9272 578.739 31.8267 579.197C39.0126 579.85 45.9372 579.393 52.9272 579.458C62.7915 579.523 72.5905 579.458 82.3895 579.393C82.9121 579.393 83.5 579.589 83.5 578.674C83.4347 572.337 83.4347 566.131 83.4347 559.664Z" stroke="#736FC4" stroke-width="1.3134" stroke-miterlimit="10"/>
<path d="M5.56532 604.805C12.9472 604.805 20.1985 604.805 27.3844 604.805C37.7714 604.87 48.093 604.674 58.5452 605.066C61.9422 605.197 65.4698 605.654 69.1281 607.287C73.4397 609.181 77.098 612.448 79.9724 617.021C80.9523 618.523 81.1482 618.131 81.6055 617.413C85.3292 611.991 83.9573 599.382 72.0678 590.694C66.9724 586.97 62.0729 585.729 57.1734 585.272C49.9874 584.619 43.0628 585.076 36.0729 585.011C26.2085 584.945 16.4095 585.011 6.61055 585.076C6.08794 585.076 5.5 584.88 5.5 585.795C5.63065 592.131 5.56532 598.403 5.56532 604.805Z" stroke="#736FC4" stroke-width="1.3134" stroke-miterlimit="10"/>
<path d="M83.4347 622.508C76.0528 622.508 68.8015 622.508 61.6156 622.508C51.2287 622.443 40.9071 622.639 30.4548 622.247C27.0578 622.116 23.5302 621.659 19.8719 620.026C15.5603 618.131 11.902 614.865 9.02767 610.292C8.04777 608.79 7.85179 609.182 7.39451 609.9C3.67089 615.322 5.04275 627.93 16.9322 636.619C22.0277 640.342 26.9272 641.584 31.8267 642.041C39.0126 642.694 45.9372 642.237 52.9272 642.302C62.7915 642.367 72.5905 642.302 82.3895 642.237C82.9121 642.237 83.5 642.433 83.5 641.518C83.4347 635.182 83.4347 628.976 83.4347 622.508Z" stroke="#736FC4" stroke-width="1.3134" stroke-miterlimit="10"/>
<path d="M5.56532 670.262C12.9472 670.262 20.1985 670.262 27.3844 670.262C37.7714 670.327 48.093 670.131 58.5452 670.523C61.9422 670.654 65.4698 671.111 69.1281 672.744C73.4397 674.639 77.098 677.905 79.9724 682.478C80.9523 683.98 81.1482 683.589 81.6055 682.87C85.3292 677.448 83.9573 664.84 72.0678 656.151C66.9724 652.428 62.0729 651.186 57.1734 650.729C49.9874 650.076 43.0628 650.533 36.0729 650.468C26.2085 650.403 16.4095 650.468 6.61055 650.533C6.08794 650.533 5.5 650.337 5.5 651.252C5.63065 657.588 5.56532 663.86 5.56532 670.262Z" stroke="#736FC4" stroke-width="1.3134" stroke-miterlimit="10"/>
</g>
<g opacity="0.6">
<path d="M5.56532 26.1166C12.9472 26.1166 20.1985 26.1166 27.3844 26.1166C37.7714 26.1819 48.093 25.986 58.5452 26.3779C61.9422 26.5086 65.4698 26.9659 69.1281 28.599C73.4397 30.4935 77.098 33.7598 79.9724 38.3327C80.9523 39.8352 81.1482 39.4433 81.6055 38.7247C85.3292 33.3026 83.9573 20.6945 72.0678 12.0061C66.9724 8.28246 62.0729 7.04124 57.1734 6.58395C49.9874 5.93069 43.0628 6.38798 36.0729 6.32265C26.2085 6.25732 16.4095 6.32265 6.61055 6.38798C6.08794 6.38798 5.5 6.19201 5.5 7.10658C5.63065 13.4433 5.56532 19.7146 5.56532 26.1166Z" stroke="#736FC4" stroke-width="1.3134" stroke-miterlimit="10"/>
<path d="M83.4347 43.82C76.0528 43.82 68.8015 43.82 61.6156 43.82C51.2287 43.7547 40.9071 43.9507 30.4548 43.5587C27.0578 43.4281 23.5302 42.9708 19.8719 41.3376C15.5603 39.4432 11.902 36.1768 9.02767 31.604C8.04777 30.1015 7.85179 30.4934 7.39451 31.212C3.67089 36.6341 5.04275 49.2422 16.9322 57.9306C22.0277 61.6542 26.9272 62.8954 31.8267 63.3527C39.0126 64.006 45.9372 63.5487 52.9272 63.614C62.7915 63.6793 72.5905 63.614 82.3895 63.5487C82.9121 63.5487 83.5 63.7447 83.5 62.8301C83.4347 56.4934 83.4347 50.2874 83.4347 43.82Z" stroke="#736FC4" stroke-width="1.3134" stroke-miterlimit="10"/>
<path d="M5.56532 88.9607C12.9472 88.9607 20.1985 88.9607 27.3844 88.9607C37.7714 89.0261 48.093 88.8301 58.5452 89.222C61.9422 89.3527 65.4698 89.81 69.1281 91.4431C73.4397 93.3376 77.098 96.604 79.9724 101.177C80.9523 102.679 81.1482 102.287 81.6055 101.569C85.3292 96.1467 83.9573 83.5386 72.0678 74.8502C66.9724 71.1266 62.0729 69.8854 57.1734 69.4281C49.9874 68.7748 43.0628 69.2321 36.0729 69.1668C26.2085 69.1014 16.4095 69.1668 6.61055 69.2321C6.08794 69.2321 5.5 69.0361 5.5 69.9507C5.63065 76.2874 5.56532 82.5587 5.56532 88.9607Z" stroke="#736FC4" stroke-width="1.3134" stroke-miterlimit="10"/>
<path d="M83.4347 106.664C76.0528 106.664 68.8015 106.664 61.6156 106.664C51.2287 106.599 40.9071 106.795 30.4548 106.403C27.0578 106.272 23.5302 105.815 19.8719 104.182C15.5603 102.287 11.902 99.0211 9.02767 94.4482C8.04777 92.9457 7.85179 93.3377 7.39451 94.0562C3.67089 99.4784 5.04275 112.086 16.9322 120.775C22.0277 124.498 26.9272 125.74 31.8267 126.197C39.0126 126.85 45.9372 126.393 52.9272 126.458C62.7915 126.524 72.5905 126.458 82.3895 126.393C82.9121 126.393 83.5 126.589 83.5 125.674C83.4347 119.338 83.4347 113.132 83.4347 106.664Z" stroke="#736FC4" stroke-width="1.3134" stroke-miterlimit="10"/>
<path d="M5.56532 154.418C12.9472 154.418 20.1985 154.418 27.3844 154.418C37.7714 154.483 48.093 154.287 58.5452 154.679C61.9422 154.81 65.4698 155.267 69.1281 156.9C73.4397 158.795 77.098 162.061 79.9724 166.634C80.9523 168.137 81.1482 167.745 81.6055 167.026C85.3292 161.604 83.9573 148.996 72.0678 140.307C66.9724 136.584 62.0729 135.343 57.1734 134.885C49.9874 134.232 43.0628 134.689 36.0729 134.624C26.2085 134.559 16.4095 134.624 6.61055 134.689C6.08794 134.689 5.5 134.493 5.5 135.408C5.63065 141.745 5.56532 148.016 5.56532 154.418Z" stroke="#736FC4" stroke-width="1.3134" stroke-miterlimit="10"/>
<path d="M83.4347 172.122C76.0528 172.122 68.8015 172.122 61.6156 172.122C51.2287 172.056 40.9071 172.252 30.4548 171.86C27.0578 171.73 23.5302 171.272 19.8719 169.639C15.5603 167.745 11.902 164.478 9.02767 159.905C8.04777 158.403 7.85179 158.795 7.39451 159.514C3.67089 164.936 5.04275 177.544 16.9322 186.232C22.0277 189.956 26.9272 191.197 31.8267 191.654C39.0126 192.308 45.9372 191.85 52.9272 191.916C62.7915 191.981 72.5905 191.916 82.3895 191.85C82.9121 191.85 83.5 192.046 83.5 191.132C83.4347 184.795 83.4347 178.589 83.4347 172.122Z" stroke="#736FC4" stroke-width="1.3134" stroke-miterlimit="10"/>
<path d="M5.56532 217.262C12.9472 217.262 20.1985 217.262 27.3844 217.262C37.7714 217.328 48.093 217.132 58.5452 217.524C61.9422 217.654 65.4698 218.112 69.1281 219.745C73.4397 221.639 77.098 224.905 79.9724 229.478C80.9523 230.981 81.1482 230.589 81.6055 229.87C85.3292 224.448 83.9573 211.84 72.0678 203.152C66.9724 199.428 62.0729 198.187 57.1734 197.73C49.9874 197.076 43.0628 197.534 36.0729 197.468C26.2085 197.403 16.4095 197.468 6.61055 197.534C6.08794 197.534 5.5 197.338 5.5 198.252C5.63065 204.589 5.56532 210.86 5.56532 217.262Z" stroke="#736FC4" stroke-width="1.3134" stroke-miterlimit="10"/>
<path d="M83.4347 234.966C76.0528 234.966 68.8015 234.966 61.6156 234.966C51.2287 234.9 40.9071 235.096 30.4548 234.704C27.0578 234.574 23.5302 234.116 19.8719 232.483C15.5603 230.589 11.902 227.322 9.02767 222.75C8.04777 221.247 7.85179 221.639 7.39451 222.358C3.67089 227.78 5.04275 240.388 16.9322 249.076C22.0277 252.8 26.9272 254.041 31.8267 254.498C39.0126 255.152 45.9372 254.694 52.9272 254.76C62.7915 254.825 72.5905 254.76 82.3895 254.694C82.9121 254.694 83.5 254.89 83.5 253.976C83.4347 247.639 83.4347 241.433 83.4347 234.966Z" stroke="#736FC4" stroke-width="1.3134" stroke-miterlimit="10"/>
<path d="M5.56532 282.785C12.9472 282.785 20.1985 282.785 27.3844 282.785C37.7714 282.85 48.093 282.654 58.5452 283.046C61.9422 283.177 65.4698 283.634 69.1281 285.267C73.4397 287.162 77.098 290.428 79.9724 295.001C80.9523 296.503 81.1482 296.111 81.6055 295.393C85.3292 289.971 83.9573 277.363 72.0678 268.674C66.9724 264.951 62.0729 263.709 57.1734 263.252C49.9874 262.599 43.0628 263.056 36.0729 262.991C26.2085 262.926 16.4095 262.991 6.61055 263.056C6.08794 263.056 5.5 262.86 5.5 263.775C5.63065 270.046 5.56532 276.318 5.56532 282.785Z" stroke="#736FC4" stroke-width="1.3134" stroke-miterlimit="10"/>
<path d="M83.4347 300.423C76.0528 300.423 68.8015 300.423 61.6156 300.423C51.2287 300.358 40.9071 300.554 30.4548 300.162C27.0578 300.031 23.5302 299.574 19.8719 297.941C15.5603 296.046 11.902 292.78 9.02767 288.207C8.04777 286.705 7.85179 287.097 7.39451 287.815C3.67089 293.237 5.04275 305.845 16.9322 314.534C22.0277 318.257 26.9272 319.499 31.8267 319.956C39.0126 320.609 45.9372 320.152 52.9272 320.217C62.7915 320.282 72.5905 320.217 82.3895 320.152C82.9121 320.152 83.5 320.348 83.5 319.433C83.4347 313.162 83.4347 306.891 83.4347 300.423Z" stroke="#736FC4" stroke-width="1.3134" stroke-miterlimit="10"/>
</g>
</g>
<defs>
<clipPath id="clip0_1234_6561">
<rect width="1461" height="89" fill="white" transform="matrix(0 -1 1 0 0 1352)"/>
</clipPath>
</defs>
</svg>
