<svg width="48" height="48" viewBox="0 0 48 48" fill="none" xmlns="http://www.w3.org/2000/svg">
<rect width="48" height="48" rx="24" fill="white"/>
<path d="M31.6095 26.2761L35.1403 29.807C35.6151 30.2818 35.6151 31.0516 35.1403 31.5264C32.5734 34.0933 28.5095 34.3821 25.6053 32.204L23.5048 30.6286C21.1801 28.885 19.115 26.8199 17.3714 24.4952L15.796 22.3947C13.6179 19.4905 13.9067 15.4266 16.4736 12.8597C16.9484 12.3849 17.7182 12.3849 18.193 12.8597L21.7239 16.3905C22.2446 16.9112 22.2446 17.7554 21.7239 18.2761L20.3623 19.6377C20.1459 19.8541 20.0923 20.1846 20.2292 20.4583C21.8114 23.6227 24.3773 26.1886 27.5417 27.7708C27.8154 27.9077 28.146 27.8541 28.3623 27.6377L29.7239 26.2761C30.2446 25.7554 31.0888 25.7554 31.6095 26.2761Z" stroke="#5958B5" stroke-width="2"/>
</svg>
