<svg width="48" height="48" viewBox="0 0 48 48" fill="none" xmlns="http://www.w3.org/2000/svg">
<rect width="48" height="48" rx="24" fill="white"/>
<path d="M24.5301 34.4053L24.0696 33.5176L24.5301 34.4053ZM23.4686 34.4053L23.9291 33.5176L23.4686 34.4053ZM32.3327 22.6667C32.3327 25.6485 30.814 28.0882 28.9627 29.9555C27.1123 31.8219 25.0134 33.0281 24.0696 33.5176L24.9905 35.293C26.024 34.757 28.3264 33.4381 30.383 31.3637C32.4387 29.2902 34.3327 26.3733 34.3327 22.6667H32.3327ZM23.9993 14.3334C28.6017 14.3334 32.3327 18.0643 32.3327 22.6667H34.3327C34.3327 16.9598 29.7063 12.3334 23.9993 12.3334V14.3334ZM15.666 22.6667C15.666 18.0643 19.397 14.3334 23.9993 14.3334V12.3334C18.2924 12.3334 13.666 16.9598 13.666 22.6667H15.666ZM23.9291 33.5176C22.9853 33.0281 20.8864 31.8219 19.036 29.9555C17.1847 28.0882 15.666 25.6485 15.666 22.6667H13.666C13.666 26.3733 15.56 29.2902 17.6157 31.3637C19.6723 33.4381 21.9747 34.757 23.0082 35.293L23.9291 33.5176ZM24.0696 33.5176C24.0212 33.5428 23.9775 33.5428 23.9291 33.5176L23.0082 35.293C23.634 35.6176 24.3647 35.6176 24.9905 35.293L24.0696 33.5176ZM26.9993 22.6667C26.9993 24.3236 25.6562 25.6667 23.9993 25.6667V27.6667C26.7608 27.6667 28.9993 25.4281 28.9993 22.6667H26.9993ZM23.9993 19.6667C25.6562 19.6667 26.9993 21.0099 26.9993 22.6667H28.9993C28.9993 19.9053 26.7608 17.6667 23.9993 17.6667V19.6667ZM20.9993 22.6667C20.9993 21.0099 22.3425 19.6667 23.9993 19.6667V17.6667C21.2379 17.6667 18.9993 19.9053 18.9993 22.6667H20.9993ZM23.9993 25.6667C22.3425 25.6667 20.9993 24.3236 20.9993 22.6667H18.9993C18.9993 25.4281 21.2379 27.6667 23.9993 27.6667V25.6667Z" fill="#5958B5"/>
</svg>
