<svg width="33" height="32" viewBox="0 0 33 32" fill="none" xmlns="http://www.w3.org/2000/svg">
<path d="M27.4766 20.1939L22.0366 22.4921C22.0463 22.4242 22.056 22.3564 22.056 22.2836C22.056 21.2267 21.1978 20.3685 20.1408 20.3685H16.2233C16.0633 20.3685 15.9081 20.3345 15.7627 20.2667L12.4414 18.7636C11.9227 18.5309 11.3457 18.4048 10.7784 18.4048H8.07296V19.3745H10.7784C11.2099 19.3745 11.6463 19.4667 12.0439 19.6461L15.3651 21.1491C15.6366 21.2703 15.9275 21.3333 16.2281 21.3333H20.1457C20.6693 21.3333 21.0911 21.76 21.0911 22.2788C21.0911 22.7976 20.6645 23.2242 20.1457 23.2242H15.0693V24.1939H20.1408C20.4754 24.1939 20.7857 24.1018 21.0572 23.9515V23.9564L27.8499 21.0812C28.4124 20.8436 29.0281 20.8485 29.5857 21.0909C30.0124 21.28 30.3614 21.5855 30.5942 21.983L18.6039 28.3442C17.6875 28.8291 16.5966 28.9261 15.6075 28.6109L9.74084 26.7248L8.06812 26.7006V27.6703H9.51781L15.3118 29.5321C15.7918 29.6873 16.2863 29.76 16.7857 29.76C17.5711 29.76 18.3566 29.5709 19.0548 29.1976L31.8305 22.4291L31.6899 22.0315C31.3942 21.2073 30.7833 20.5576 29.9784 20.2036C29.1736 19.8594 28.2863 19.8497 27.4766 20.1939Z" fill="#5958B5"/>
<path d="M7.02082 28.4315V18.1382C7.02082 17.6049 6.58446 17.1685 6.05113 17.1685H1.1687V18.1382H6.05113V28.4364H1.1687V29.4061H6.05113C6.58446 29.4012 7.02082 28.9649 7.02082 28.4315Z" fill="#5958B5"/>
<path d="M4.776 26.9236C4.776 27.297 4.47054 27.6024 4.09721 27.6024C3.71903 27.6024 3.41357 27.297 3.41357 26.9236C3.41357 26.5454 3.71903 26.24 4.09721 26.24C4.47054 26.24 4.776 26.5454 4.776 26.9236Z" fill="#5958B5"/>
<path d="M12.6406 13.7843L13.1642 14.1722L16.7715 12.1746L20.0345 14.1383L20.3157 14.3031L20.8394 13.9249L20.0539 9.8813L22.9388 7.37948L23.1715 7.15645L22.9679 6.55524L18.8854 6.05099L17.4018 2.54069L17.266 2.24978L16.9557 2.24493H16.626L14.8854 5.98312L11.0842 6.30312L10.7594 6.3419L10.5654 6.94796L13.5763 9.75524L12.6406 13.7843ZM12.2285 7.18069L15.2442 6.91887L15.5303 6.88493L16.9218 3.89827L18.1 6.67645L18.2212 6.94312L21.4988 7.34554L19.2297 9.31402L19.0018 9.50796L19.6321 12.7564L17.0333 11.1904L16.786 11.0595L13.9109 12.6546L14.5848 9.74554L14.6672 9.44493L12.2285 7.18069Z" fill="#5958B5"/>
<path d="M6.26452 11.9951L5.56149 15.0157L5.46452 15.3648L6.0124 15.7672L9.033 14.0945L11.6997 15.6945L12.0003 15.8836L12.5385 15.4909L11.8791 12.1018L12.5821 11.4957L11.9469 10.7636L11.0112 11.5733L10.8706 11.7381V11.9321L11.3263 14.3418L9.35785 13.1539L9.25603 13.0569L8.84391 13.0472L8.74694 13.1442L6.73482 14.2593L7.27785 11.903V11.6169L5.39179 9.86176L7.69967 9.65813L7.9227 9.65328L8.12634 9.44964L9.15906 7.22904L10.09 9.4254L10.2403 9.71146H10.5118L11.6803 9.85691L11.8015 8.89207L10.8657 8.78055L9.63421 5.87146L9.46937 5.56116L8.80028 5.61449L8.70815 5.90055L7.39906 8.71752L4.31543 8.98419L3.9324 9.00358L3.72876 9.71146L3.99543 9.88601L6.26452 11.9951Z" fill="#5958B5"/>
<path d="M22.2017 8.78063L22.2889 9.74548L23.2247 9.6582L23.4429 9.64851L23.6465 9.44487L24.6792 7.22426L25.5665 9.31396L25.5762 9.70669H26.032L28.3447 9.99275L26.5459 11.554L26.3859 11.7237V11.9321L26.8465 14.337L24.8732 13.154L24.7714 13.0521L24.3447 13.057L24.2574 13.1491L22.255 14.2594L22.8029 11.9031L22.798 11.617L21.5568 10.4582L20.8926 11.1661L21.7799 11.9952L21.0817 15.0158L20.9847 15.3406L21.5132 15.777L24.5532 14.0946L27.2247 15.6994L27.5253 15.8837L28.0538 15.4861L27.3944 12.1018L29.7265 10.08C29.8865 9.95396 29.9544 9.74063 29.9011 9.54669L29.7895 9.20245L26.3859 8.78548L25.1447 5.86669L24.9992 5.60002L24.4223 5.58063L24.272 5.8182L22.9144 8.7176L22.2017 8.78063Z" fill="#5958B5"/>
</svg>
