<svg width="24" height="24" viewBox="0 0 24 24" fill="none" xmlns="http://www.w3.org/2000/svg">
<g clip-path="url(#clip0_730_3849)">
<path d="M20.8667 3H3.1667C2.9667 3 2.8667 3.23197 3.03337 3.36452L11.8667 10.7544C11.9334 10.8207 12.0667 10.8207 12.1334 10.7544L21 3.36452C21.1334 3.23197 21.0334 3 20.8667 3Z" fill="white"/>
<path d="M12.3333 11.8811C12.2333 11.9474 12.1333 12.0137 12 12.0137C11.8667 12.0137 11.7667 11.9806 11.6667 11.8811L2.33333 4.09362C2.2 3.9942 2 4.09362 2 4.25931V19.039C2 19.5693 2.43333 20.0001 2.96667 20.0001H21.0333C21.5667 20.0001 22 19.5693 22 19.039V4.25931C22 4.09362 21.8 3.9942 21.6667 4.09362L12.3333 11.8811Z" fill="white"/>
</g>
<defs>
<clipPath id="clip0_730_3849">
<rect width="20" height="17" fill="white" transform="translate(2 3)"/>
</clipPath>
</defs>
</svg>
