<svg width="32" height="32" viewBox="0 0 32 32" fill="none" xmlns="http://www.w3.org/2000/svg">
<path d="M26.316 25.9277C26.0571 25.9277 25.8473 26.1376 25.8473 26.3964V30.8036C25.8473 30.9462 25.7311 31.0624 25.5885 31.0624H23.0686V21.8313C23.0686 21.5724 22.8588 21.3626 22.5999 21.3626C22.341 21.3626 22.1311 21.5724 22.1311 21.8313V31.0624H17.0571L18.5285 29.4437C18.6893 29.2668 18.7651 29.0149 18.7313 28.7695C18.7306 28.7648 18.7299 28.76 18.7291 28.7553L17.3276 20.4761L17.7052 19.9077C17.914 20.0559 18.0748 20.1987 18.3763 20.1987C18.6831 20.1987 18.9699 20.027 19.111 19.7444V19.7443L20.5891 16.7818L23.9564 18.0859C24.0782 18.1381 25.8471 18.9347 25.8471 21.0382V24.2089C25.8471 24.4677 26.057 24.6776 26.3159 24.6776C26.5748 24.6776 26.7846 24.4678 26.7846 24.2089V21.0382C26.7846 18.2668 24.4116 17.2593 24.3106 17.2178C24.3076 17.2165 24.3046 17.2153 24.3016 17.2142L18.6974 15.0438V13.7294C19.5875 13.0372 20.2047 12.011 20.3596 10.8403C20.8035 10.809 21.2153 10.6432 21.5516 10.3541C21.9908 9.97637 22.2428 9.42669 22.2428 8.84619C22.2428 8.36444 22.069 7.90444 21.7592 7.546V5.80956C21.7591 2.60619 19.153 0 15.9496 0C12.7463 0 10.1401 2.60619 10.1401 5.80956V7.5915C9.82708 7.94631 9.65683 8.38306 9.65683 8.84612C9.65683 9.42681 9.9087 9.97644 10.348 10.3542C10.6841 10.6433 11.0956 10.8088 11.5393 10.8401C11.6955 12.0328 12.3307 13.0972 13.2966 13.7988V15.0438L7.69845 17.2141C7.69551 17.2153 7.69258 17.2164 7.68964 17.2176C7.58858 17.2592 5.21558 18.2666 5.21558 21.0381V30.8034C5.21558 31.4631 5.75226 31.9998 6.41195 31.9998H10.878C11.1369 31.9998 11.3468 31.7899 11.3468 31.5311C11.3468 31.2722 11.1369 31.0623 10.878 31.0623H9.86945V21.8313C9.86945 21.5724 9.65958 21.3626 9.4007 21.3626C9.14183 21.3626 8.93195 21.5724 8.93195 21.8313V31.0624H6.41201C6.26933 31.0624 6.1532 30.9463 6.1532 30.8036V21.0382C6.1532 18.9276 7.93401 18.1328 8.04339 18.0861L11.408 16.7817L12.8863 19.7443C13.0277 20.0276 13.3149 20.1987 13.621 20.1987C13.9211 20.1987 14.0803 20.0581 14.2921 19.9077L14.6697 20.4761L13.2684 28.7553C13.2676 28.76 13.2669 28.7647 13.2662 28.7694C13.2323 29.0147 13.3081 29.2668 13.469 29.4438L14.9404 31.0625H13.0657C12.8068 31.0625 12.597 31.2724 12.597 31.5312C12.597 31.7901 12.8068 32 13.0657 32H25.5885C26.2482 32 26.7849 31.4632 26.7849 30.8036V26.3965C26.7848 26.1376 26.5749 25.9277 26.316 25.9277ZM19.7111 16.4418L18.333 19.2037C18.2988 19.1794 17.5685 18.6605 16.6757 18.0266C17.0631 17.5484 16.6099 18.1077 18.3779 15.9255L19.7111 16.4418ZM16.9403 19.3646L16.583 19.9025H15.414L15.0566 19.3646L15.9985 18.6956L16.9403 19.3646ZM14.2341 15.1951V14.3178C14.8036 14.5474 15.4122 14.6538 16.0066 14.6538C16.6211 14.6538 17.2238 14.5228 17.7598 14.2884V15.1989L15.9985 17.3729L14.2341 15.1951ZM21.3052 8.84619C21.3051 9.15325 21.1721 9.44381 20.9403 9.64325C20.787 9.77513 20.6018 9.85944 20.399 9.89244V7.80013C20.9377 7.88763 21.3052 8.3345 21.3052 8.84619ZM11.5006 9.89244C10.9557 9.804 10.5943 9.3535 10.5943 8.84612C10.5943 8.345 11.0098 7.93713 11.5006 7.82369V9.89244ZM11.5258 6.8685C11.3765 6.88563 11.2053 6.92606 11.0778 6.96944V5.80956C11.0778 3.12313 13.2633 0.937563 15.9497 0.937563C18.6361 0.937563 20.8216 3.12313 20.8216 5.80956V6.93725C20.6854 6.89581 20.5441 6.86844 20.399 6.85556C20.399 6.40325 20.403 6.4905 18.9233 4.89969C18.6511 4.60731 18.201 4.54606 17.8585 4.76988C16.2253 5.83669 14.2331 6.37262 12.395 6.24062C11.9918 6.21044 11.6246 6.476 11.5258 6.8685ZM12.4381 10.2615V7.337V7.18294C14.4616 7.30144 16.583 6.70031 18.2968 5.60275C18.9755 6.33137 19.343 6.71356 19.4615 6.85894C19.4615 7.22669 19.4615 9.8405 19.4615 10.2614C19.4615 12.1644 17.9098 13.7162 16.0066 13.7162C13.8695 13.7163 12.4381 12.0584 12.4381 10.2615ZM13.6641 19.2037L12.286 16.4418L13.6168 15.9264L15.3194 18.0279C14.4536 18.6427 13.7426 19.1479 13.6641 19.2037ZM14.2019 28.8564L15.5587 20.8399H16.4381L17.795 28.8564L15.9985 30.8328L14.2019 28.8564Z" fill="#5958B5"/>
</svg>
