<svg width="24" height="24" viewBox="0 0 24 24" fill="none" xmlns="http://www.w3.org/2000/svg">
<g clip-path="url(#clip0_730_3852)">
<path d="M18.1356 11.4481H22.8525C22.9262 11.4481 22.9999 11.3745 22.9999 11.3009C22.6683 6.37118 19.0937 2.28757 14.3768 1.25747C14.2663 1.22068 14.1557 1.36784 14.2663 1.47821C16.4773 3.94309 17.8776 7.47486 18.025 11.3377C17.9882 11.4113 18.0619 11.4481 18.1356 11.4481Z" fill="white"/>
<path d="M12.092 1C12.0552 1 12.0183 1 11.9815 1C11.9446 1 11.9078 1 11.8709 1C9.03342 3.17057 7.26458 7.03345 7.08032 11.301C7.08032 11.3746 7.15402 11.4482 7.22773 11.4482H16.7353C16.809 11.4482 16.8827 11.3746 16.8827 11.301C16.7353 7.03345 14.9296 3.17057 12.092 1Z" fill="white"/>
<path d="M7.22773 12.5518C7.15402 12.5518 7.08032 12.6253 7.08032 12.6989C7.26458 17.0033 9.03342 20.8294 11.8709 22.9999C11.9078 22.9999 11.9446 22.9999 11.9815 22.9999C12.0183 22.9999 12.0552 22.9999 12.092 22.9999C14.9296 20.8294 16.6984 16.9665 16.8827 12.6989C16.8827 12.6253 16.809 12.5518 16.7353 12.5518H7.22773Z" fill="white"/>
<path d="M17.9884 12.6621C17.841 16.525 16.4775 20.0568 14.2665 22.5217C14.1928 22.632 14.2665 22.7792 14.377 22.7424C19.094 21.7123 22.7053 17.6287 23.0002 12.6989C23.0002 12.6253 22.9264 12.5518 22.8527 12.5518H18.1358C18.0621 12.5518 17.9884 12.6253 17.9884 12.6621Z" fill="white"/>
<path d="M5.86432 12.5518H1.1474C1.0737 12.5518 1 12.6253 1 12.6989C1.29481 17.6287 4.9062 21.7123 9.62312 22.7424C9.73367 22.7792 9.84422 22.632 9.73367 22.5217C7.48576 20.0568 6.12228 16.525 5.97487 12.6621C6.01172 12.6253 5.93802 12.5518 5.86432 12.5518Z" fill="white"/>
<path d="M6.01173 11.3377C6.15913 7.47486 7.52261 3.94309 9.73367 1.47821C9.80737 1.36784 9.73367 1.22068 9.62312 1.25747C4.9062 2.28757 1.29481 6.37118 1 11.3009C1 11.3745 1.0737 11.4481 1.1474 11.4481H5.86432C5.93802 11.4481 6.01173 11.4113 6.01173 11.3377Z" fill="white"/>
</g>
<defs>
<clipPath id="clip0_730_3852">
<rect width="22" height="22" fill="white" transform="translate(1 1)"/>
</clipPath>
</defs>
</svg>
