<svg width="24" height="24" viewBox="0 0 24 24" fill="none" xmlns="http://www.w3.org/2000/svg">
<g clip-path="url(#clip0_379_3159)">
<path d="M12 23C5.92977 23 1 18.0702 1 12C1 5.92977 5.92977 1 12 1C18.0702 1 23 5.92977 23 12C23 18.0702 18.0702 23 12 23ZM12 3.20736C7.14381 3.20736 3.20736 7.14381 3.20736 12C3.20736 16.8562 7.14381 20.7926 12 20.7926C16.8562 20.7926 20.7926 16.8562 20.7926 12C20.7926 7.14381 16.8562 3.20736 12 3.20736Z" fill="#5958B5"/>
<path d="M12.3678 21.8596C12.1839 21.8596 12.0367 21.8228 11.8528 21.7492C8.21062 19.8361 5.92969 16.1204 5.92969 12C5.92969 7.87962 8.21062 4.1639 11.8528 2.25086C12.4046 1.95654 13.0668 2.17728 13.3243 2.72912C13.6187 3.28096 13.3979 3.94316 12.8461 4.20069C9.97651 5.74584 8.17384 8.72577 8.17384 12C8.17384 15.2743 9.97651 18.2542 12.8829 19.7994C13.4347 20.0937 13.6187 20.7559 13.3611 21.2709C13.1404 21.6756 12.7725 21.8596 12.3678 21.8596Z" fill="#5958B5"/>
<path d="M11.6322 21.8595C11.2275 21.8595 10.8596 21.6388 10.6388 21.2709C10.3445 20.7191 10.5653 20.0569 11.1171 19.7993C14.0235 18.291 15.8261 15.2742 15.8261 12C15.8261 8.72575 14.0235 5.74582 11.1171 4.20066C10.5653 3.90635 10.3813 3.24414 10.6388 2.72909C10.9332 2.17725 11.5954 1.99331 12.1104 2.25083C15.7526 4.16388 18.0335 7.87959 18.0335 12C18.0335 16.1204 15.7526 19.8361 12.1104 21.7492C12.0001 21.8227 11.8161 21.8595 11.6322 21.8595Z" fill="#5958B5"/>
<path d="M21.8963 13.1036H2.10368C1.47826 13.1036 1 12.6254 1 12C1 11.3745 1.47826 10.8963 2.10368 10.8963H21.8963C22.5217 10.8963 23 11.3745 23 12C23 12.6254 22.5217 13.1036 21.8963 13.1036Z" fill="#5958B5"/>
</g>
<defs>
<clipPath id="clip0_379_3159">
<rect width="22" height="22" fill="white" transform="translate(1 1)"/>
</clipPath>
</defs>
</svg>
