<svg width="80" height="80" viewBox="0 0 80 80" fill="none" xmlns="http://www.w3.org/2000/svg">
<rect width="80" height="80" rx="8" fill="white"/>
<g clip-path="url(#clip0_1257_1064)">
<mask id="mask0_1257_1064" style="mask-type:luminance" maskUnits="userSpaceOnUse" x="16" y="16" width="48" height="48">
<path d="M16 16H64V64H16V16Z" fill="white"/>
</mask>
<g mask="url(#mask0_1257_1064)">
<path d="M32.0164 49.9366H38.4742C40.213 49.9366 41.6225 48.5259 41.6225 46.7858C41.6225 45.0457 40.213 43.6352 38.4742 43.6352H27.3621L17.4062 53.5988V62.5938H22.508L28.3217 58.6504H49.3213L61.6635 46.2987C62.9227 45.0385 62.9007 42.9887 61.6147 41.7557C60.3673 40.5596 58.3932 40.5808 57.1715 41.8035L50.2938 48.6867H40.9847" stroke="#5958B5" stroke-width="2.06609" stroke-miterlimit="10"/>
<path d="M57.586 18.9451C55.5341 16.8932 52.2073 16.8932 50.1554 18.9451L48.9169 20.1835L47.6785 18.9451C45.6267 16.8932 42.2998 16.8932 40.2479 18.9451C38.1959 20.997 38.196 24.3238 40.2479 26.3757L48.9169 35.0447L57.586 26.3757C59.6379 24.3238 59.6379 20.997 57.586 18.9451Z" stroke="#5958B5" stroke-width="2.06609" stroke-miterlimit="10"/>
<path d="M33.1082 24.9748C31.8903 23.7569 29.9157 23.7569 28.6979 24.9748L27.4483 26.2244L26.1987 24.9748C24.9808 23.7569 23.0062 23.7569 21.7884 24.9748C20.5705 26.1927 20.5705 28.1671 21.7884 29.385L27.4483 35.0449L33.1082 29.385C34.3261 28.1671 34.3261 26.1927 33.1082 24.9748Z" stroke="#5958B5" stroke-width="2.06609" stroke-miterlimit="10"/>
</g>
</g>
<defs>
<clipPath id="clip0_1257_1064">
<rect width="48" height="48" fill="white" transform="translate(16 16)"/>
</clipPath>
</defs>
</svg>
