<svg width="40" height="40" viewBox="0 0 40 40" fill="none" xmlns="http://www.w3.org/2000/svg">
<circle cx="20" cy="20" r="19.5" stroke="#FDFDFF"/>
<g clip-path="url(#clip0_890_4660)">
<path d="M19.9132 10.1453C23.0963 10.1453 23.4732 10.1593 24.725 10.2151C25.8884 10.2663 26.5167 10.4618 26.9355 10.6246C27.4893 10.8387 27.8895 11.0993 28.3037 11.5135C28.7225 11.9323 28.9784 12.3278 29.1925 12.8816C29.3554 13.3005 29.5508 13.9333 29.602 15.0921C29.6579 16.3486 29.6718 16.7255 29.6718 19.9039C29.6718 23.087 29.6579 23.4639 29.602 24.7157C29.5508 25.8791 29.3554 26.5074 29.1925 26.9262C28.9784 27.48 28.7178 27.8802 28.3037 28.2944C27.8848 28.7132 27.4893 28.9691 26.9355 29.1832C26.5167 29.3461 25.8838 29.5415 24.725 29.5927C23.4686 29.6486 23.0916 29.6625 19.9132 29.6625C16.7302 29.6625 16.3532 29.6486 15.1014 29.5927C13.938 29.5415 13.3098 29.3461 12.8909 29.1832C12.3372 28.9691 11.9369 28.7085 11.5228 28.2944C11.104 27.8755 10.848 27.48 10.6339 26.9262C10.4711 26.5074 10.2756 25.8745 10.2244 24.7157C10.1686 23.4593 10.1546 23.0823 10.1546 19.9039C10.1546 16.7208 10.1686 16.3439 10.2244 15.0921C10.2756 13.9287 10.4711 13.3005 10.6339 12.8816C10.848 12.3278 11.1086 11.9276 11.5228 11.5135C11.9416 11.0946 12.3372 10.8387 12.8909 10.6246C13.3098 10.4618 13.9426 10.2663 15.1014 10.2151C16.3532 10.1593 16.7302 10.1453 19.9132 10.1453ZM19.9132 8C16.679 8 16.2741 8.01396 15.0037 8.0698C13.7379 8.12565 12.8677 8.33041 12.1138 8.62358C11.3273 8.93072 10.6619 9.33558 10.001 10.001C9.33558 10.6619 8.93072 11.3273 8.62358 12.1091C8.33041 12.8677 8.12565 13.7332 8.0698 14.999C8.01396 16.2741 8 16.679 8 19.9132C8 23.1475 8.01396 23.5523 8.0698 24.8228C8.12565 26.0885 8.33041 26.9588 8.62358 27.7127C8.93072 28.4991 9.33558 29.1646 10.001 29.8254C10.6619 30.4862 11.3273 30.8957 12.1091 31.1982C12.8677 31.4914 13.7332 31.6961 14.999 31.752C16.2694 31.8078 16.6743 31.8218 19.9086 31.8218C23.1428 31.8218 23.5477 31.8078 24.8181 31.752C26.0839 31.6961 26.9541 31.4914 27.708 31.1982C28.4898 30.8957 29.1553 30.4862 29.8161 29.8254C30.4769 29.1646 30.8864 28.4991 31.1889 27.7173C31.4821 26.9588 31.6868 26.0932 31.7427 24.8274C31.7985 23.557 31.8125 23.1521 31.8125 19.9179C31.8125 16.6836 31.7985 16.2788 31.7427 15.0083C31.6868 13.7425 31.4821 12.8723 31.1889 12.1184C30.8957 11.3273 30.4909 10.6619 29.8254 10.001C29.1646 9.34024 28.4991 8.93072 27.7173 8.62824C26.9588 8.33506 26.0932 8.1303 24.8274 8.07446C23.5523 8.01396 23.1475 8 19.9132 8Z" fill="#F0F0F9"/>
<path d="M19.9132 13.7937C16.5347 13.7937 13.7937 16.5347 13.7937 19.9132C13.7937 23.2917 16.5347 26.0327 19.9132 26.0327C23.2917 26.0327 26.0327 23.2917 26.0327 19.9132C26.0327 16.5347 23.2917 13.7937 19.9132 13.7937ZM19.9132 23.8827C17.7213 23.8827 15.9437 22.105 15.9437 19.9132C15.9437 17.7213 17.7213 15.9437 19.9132 15.9437C22.105 15.9437 23.8827 17.7213 23.8827 19.9132C23.8827 22.105 22.105 23.8827 19.9132 23.8827Z" fill="#F0F0F9"/>
<path d="M27.7033 13.5517C27.7033 14.3428 27.0611 14.9804 26.2746 14.9804C25.4835 14.9804 24.8459 14.3382 24.8459 13.5517C24.8459 12.7606 25.4881 12.123 26.2746 12.123C27.0611 12.123 27.7033 12.7652 27.7033 13.5517Z" fill="#F0F0F9"/>
</g>
<defs>
<clipPath id="clip0_890_4660">
<rect width="23.8264" height="23.8264" fill="white" transform="translate(8 8)"/>
</clipPath>
</defs>
</svg>
