<svg width="40" height="40" viewBox="0 0 40 40" fill="none" xmlns="http://www.w3.org/2000/svg">
<circle cx="20" cy="20" r="19.5" stroke="#FDFDFF"/>
<g clip-path="url(#clip0_890_4648)">
<path d="M30.0627 8H9.75906C8.78646 8 8 8.76784 8 9.71718V30.1046C8 31.0539 8.78646 31.8264 9.75906 31.8264H30.0627C31.0353 31.8264 31.8264 31.0539 31.8264 30.1093V9.71718C31.8264 8.76784 31.0353 8 30.0627 8ZM15.0688 28.3037H11.5321V16.9303H15.0688V28.3037ZM13.3005 15.3806C12.165 15.3806 11.2482 14.4639 11.2482 13.333C11.2482 12.2022 12.165 11.2854 13.3005 11.2854C14.4313 11.2854 15.348 12.2022 15.348 13.333C15.348 14.4592 14.4313 15.3806 13.3005 15.3806ZM28.3037 28.3037H24.7716V22.7752C24.7716 21.4582 24.7483 19.7596 22.9334 19.7596C21.0952 19.7596 20.816 21.1976 20.816 22.6821V28.3037H17.2886V16.9303H20.6764V18.4846H20.7229C21.193 17.5911 22.3471 16.6464 24.0642 16.6464C27.6428 16.6464 28.3037 19.0011 28.3037 22.0632V28.3037Z" fill="#F0F0F9"/>
</g>
<defs>
<clipPath id="clip0_890_4648">
<rect width="23.8264" height="23.8264" fill="white" transform="translate(8 8)"/>
</clipPath>
</defs>
</svg>
