<svg width="24" height="24" viewBox="0 0 24 24" fill="none" xmlns="http://www.w3.org/2000/svg">
<g clip-path="url(#clip0_730_3843)">
<path d="M22 11.0803C22 5.52508 17.7529 1 12.5 1C7.24704 1 2.99998 5.52508 2.99998 11.0803C2.96273 11.8896 3.07449 18.4013 11.9039 22.8161C11.9039 22.8161 11.9039 22.8161 11.9412 22.8161C11.9784 22.8161 11.9784 22.8528 12.0157 22.8528C12.0529 22.8528 12.0902 22.8896 12.1274 22.8896C12.1647 22.8896 12.2019 22.9264 12.2765 22.9264C12.351 22.9632 12.4255 22.9632 12.5372 22.9632C12.5372 22.9632 12.5372 22.9632 12.5745 22.9632C12.5745 22.9632 12.5745 22.9632 12.6117 22.9632C12.6863 22.9632 12.7608 22.9632 12.8725 22.9264C12.9098 22.9264 12.947 22.8896 12.9843 22.8896C13.0216 22.8896 13.0588 22.8528 13.0961 22.8528C13.1333 22.8528 13.1333 22.8161 13.1706 22.8161C21.9255 18.4013 22.0372 11.8896 22 11.0803ZM12.5 13.0301C10.5627 13.0301 8.99802 11.485 8.99802 9.57191C8.99802 7.65886 10.5627 6.11371 12.5 6.11371C14.4372 6.11371 16.0019 7.65886 16.0019 9.57191C16.0019 11.485 14.4372 13.0301 12.5 13.0301Z" fill="white"/>
</g>
<defs>
<clipPath id="clip0_730_3843">
<rect width="19" height="22" fill="white" transform="translate(3 1)"/>
</clipPath>
</defs>
</svg>
