<svg width="396" height="357" viewBox="0 0 396 357" fill="none" xmlns="http://www.w3.org/2000/svg">
<g opacity="0.1">
<path d="M152.218 2.51002C145.954 5.47064 140.303 8.00759 134.82 10.7589C107.686 24.3829 93.433 47.5319 89.594 78.4143C85.9286 107.888 85.9337 138.739 85.8571 169.54C85.709 230.11 85.9439 290.813 86.2604 351.547C86.2808 355.804 84.7289 357.019 80.2415 356.978C53.7462 356.749 27.3938 356.866 0.873003 356.866C0.530963 356.238 -0.00506887 355.631 3.61983e-05 355.212C0.791322 274.489 -1.09755 192.827 1.56729 112.757C2.33305 89.731 4.82943 67.5876 15.6011 49.4971C32.7593 20.6719 61.9041 5.51658 100.493 1.12159C116.554 -0.70583 133.477 -0.338301 152.218 2.50492V2.51002Z" fill="#736FC4" fill-opacity="0.45"/>
<path d="M257.045 2.4793C251.476 5.02136 246.723 7.13462 242.041 9.33467C211.38 23.7549 196.519 49.6655 193.426 84.2639C189.597 127.122 190.368 171.633 190.312 215.848C190.25 260.942 190.552 306.157 190.883 351.384C190.914 355.426 189.755 357.055 185.033 356.999C159.656 356.697 134.432 356.794 109.228 356.922C105.506 356.942 104.45 356.417 104.475 352.639C105.077 272.728 104.087 192.26 105.894 112.773C106.415 89.8534 109.422 68.0265 119.892 49.9922C137.01 20.5187 166.461 5.05198 205.969 1.06535C221.83 -0.53747 238.483 -0.0219161 257.045 2.4742V2.4793Z" fill="#736FC4" fill-opacity="0.45"/>
<path d="M311.256 356.845C311.225 323.732 311.302 291.553 311.139 259.293C310.899 212.872 311.833 166.845 310.128 119.929C309.576 104.713 307.489 89.1184 300.632 72.6257C292.566 53.2183 278.415 37.0319 258.888 24.1736C252.42 19.9164 254.115 18.9567 257.122 16.8282C280.442 0.325243 334.224 6.34857 371.363 59.3437C387.25 82.0129 392.626 104.156 394.464 125.963C397.18 158.218 395.434 188.999 395.597 220.407C395.827 264.382 395.51 308.174 395.403 352.037C395.398 354.344 396.261 356.958 392.37 356.932C365.559 356.764 338.849 356.845 311.251 356.845H311.256Z" fill="#736FC4" fill-opacity="0.45"/>
<path d="M209.129 356.856C209.027 334.738 208.807 313.442 208.848 292.233C208.976 230.968 207.077 168.994 209.201 108.429C210.084 83.3147 214.117 59.7216 227.273 40.9625C230.831 35.8886 235.129 31.4476 239.571 27.1088C241.511 25.215 243.18 25.409 246.478 27.8285C274.632 48.4814 288.906 72.6922 291.04 99.006C293.577 130.297 292.459 160.434 292.602 190.964C292.852 244.694 292.699 298.286 292.908 352.006C292.924 355.728 291.678 357.004 287.589 356.973C261.691 356.769 235.915 356.871 209.129 356.871V356.856Z" fill="#736FC4" fill-opacity="0.45"/>
</g>
</svg>
