<svg width="440" height="397" viewBox="0 0 440 397" fill="none" xmlns="http://www.w3.org/2000/svg">
<g opacity="0.1">
<path d="M169.131 2.79125C162.171 6.0836 155.892 8.9048 149.8 11.9644C119.652 27.1149 103.814 52.8576 99.5489 87.2002C95.4762 119.976 95.4818 154.285 95.3968 188.536C95.2323 255.893 95.4932 323.398 95.8449 390.936C95.8676 395.67 94.1432 397.021 89.1572 396.976C59.718 396.72 30.4376 396.851 0.970003 396.851C0.589959 396.153 -0.00563208 395.477 4.02204e-05 395.012C0.879247 305.244 -1.2195 214.432 1.74144 125.391C2.59228 99.7849 5.36604 75.1604 17.3346 55.043C36.3992 22.9881 68.7823 6.13469 111.659 1.24726C129.504 -0.784914 148.308 -0.376206 169.131 2.78558V2.79125Z" fill="#736FC4" fill-opacity="0.45"/>
<path d="M285.606 2.75709C279.417 5.58397 274.136 7.93402 268.935 10.3806C234.867 26.4166 218.355 55.2303 214.918 93.7053C210.663 141.365 211.52 190.864 211.458 240.033C211.39 290.179 211.724 340.461 212.093 390.754C212.127 395.25 210.839 397.061 205.592 396.998C177.395 396.663 149.369 396.771 121.364 396.913C117.229 396.936 116.055 396.351 116.084 392.151C116.753 303.286 115.652 213.802 117.66 125.408C118.239 99.921 121.58 75.6485 133.214 55.5936C152.233 22.8177 184.957 5.61803 228.854 1.18471C246.478 -0.597694 264.981 -0.0243744 285.606 2.75141V2.75709Z" fill="#736FC4" fill-opacity="0.45"/>
<path d="M345.84 396.828C345.806 360.005 345.891 324.221 345.709 288.345C345.443 236.724 346.481 185.539 344.586 133.367C343.974 116.445 341.654 99.1037 334.036 80.7631C325.074 59.1812 309.35 41.1812 287.653 26.8822C280.467 22.148 282.35 21.0808 285.691 18.7137C311.602 0.361752 371.36 7.05997 412.626 65.9929C430.278 91.2021 436.251 115.827 438.293 140.076C441.31 175.946 439.37 210.175 439.552 245.102C439.807 294.005 439.455 342.703 439.336 391.481C439.331 394.047 440.289 396.953 435.967 396.925C406.176 396.737 376.499 396.828 345.834 396.828H345.84Z" fill="#736FC4" fill-opacity="0.45"/>
<path d="M232.366 396.839C232.252 372.243 232.008 348.561 232.054 324.975C232.195 256.847 230.085 187.929 232.445 120.578C233.426 92.6495 237.908 66.4129 252.525 45.5519C256.479 39.9095 261.255 34.971 266.19 30.146C268.345 28.0401 270.2 28.2558 273.864 30.9464C305.147 53.9134 321.007 80.8368 323.378 110.099C326.197 144.896 324.955 178.409 325.113 212.36C325.391 272.111 325.221 331.708 325.454 391.447C325.471 395.585 324.087 397.004 319.543 396.97C290.768 396.743 262.128 396.856 232.366 396.856V396.839Z" fill="#736FC4" fill-opacity="0.45"/>
</g>
</svg>
