<svg width="278" height="250" viewBox="0 0 278 250" fill="none" xmlns="http://www.w3.org/2000/svg">
<g opacity="0.06">
<path d="M106.814 1.75772C102.419 3.83098 98.4532 5.60756 94.6057 7.53426C75.5657 17.0749 65.5638 33.2856 62.8699 54.9119C60.2978 75.5517 60.3014 97.1565 60.2476 118.726C60.1437 161.142 60.3085 203.651 60.5306 246.181C60.545 249.163 59.4559 250.013 56.3071 249.985C37.7148 249.824 19.2228 249.906 0.612603 249.906C0.372587 249.466 -0.00355693 249.041 2.54011e-05 248.748C0.555286 192.219 -0.770175 135.033 1.0998 78.9618C1.63715 62.8368 3.38891 47.3302 10.9476 34.6619C22.9878 14.4761 43.4393 3.86315 70.5182 0.785426C81.7882 -0.494278 93.6636 -0.236905 106.814 1.75414V1.75772Z" fill="#2F2B73"/>
<path d="M180.373 1.73643C176.465 3.51658 173.13 4.99646 169.845 6.53711C148.329 16.6353 137.901 34.78 135.73 59.0086C133.044 89.0209 133.585 120.191 133.545 151.154C133.502 182.732 133.713 214.396 133.946 246.067C133.968 248.898 133.155 250.038 129.841 249.999C112.033 249.788 94.3329 249.856 76.647 249.946C74.0355 249.96 73.2939 249.592 73.3118 246.946C73.7346 190.986 73.0396 134.636 74.3077 78.9727C74.6731 62.9228 76.7831 47.6378 84.1305 35.0088C96.142 14.3691 116.808 3.53803 144.532 0.74627C155.662 -0.376152 167.348 -0.0151203 180.373 1.73286V1.73643Z" fill="#2F2B73"/>
<path d="M218.414 249.892C218.393 226.703 218.447 204.169 218.332 181.578C218.164 149.07 218.819 116.838 217.623 83.9842C217.236 73.3283 215.771 62.4079 210.959 50.8584C205.299 37.2678 195.369 25.9327 181.667 16.9283C177.128 13.9471 178.317 13.2751 180.427 11.7845C196.791 0.227813 234.531 4.44583 260.593 41.5573C271.741 57.4321 275.513 72.9387 276.803 88.2093C278.708 110.797 277.483 132.352 277.598 154.347C277.759 185.142 277.537 215.808 277.462 246.525C277.458 248.14 278.064 249.97 275.334 249.953C256.52 249.835 237.777 249.892 218.411 249.892H218.414Z" fill="#2F2B73"/>
<path d="M146.751 249.899C146.679 234.41 146.525 219.497 146.554 204.645C146.643 161.742 145.311 118.343 146.801 75.9306C147.421 58.3436 150.251 41.8218 159.482 28.6852C161.979 25.132 164.995 22.0221 168.112 18.9837C169.473 17.6576 170.645 17.7934 172.959 19.4878C192.716 33.9506 202.732 50.9049 204.229 69.3319C206.01 91.2442 205.225 112.349 205.325 133.728C205.501 171.354 205.393 208.884 205.54 246.503C205.551 249.109 204.677 250.003 201.807 249.981C183.634 249.838 165.547 249.91 146.751 249.91V249.899Z" fill="#2F2B73"/>
</g>
</svg>
