<svg width="80" height="51" viewBox="0 0 80 51" fill="none" xmlns="http://www.w3.org/2000/svg">
<path d="M37.068 0.210447C36.5509 0.457448 36.0854 0.663283 35.6304 0.8897C33.386 2.0115 32.207 3.91546 31.8863 6.45751C31.5864 8.88635 31.5864 11.4284 31.5761 13.9602C31.5657 18.9516 31.5864 23.9431 31.6071 28.9449C31.6071 29.2948 31.483 29.3977 31.1107 29.3874C28.918 29.3668 26.7357 29.3771 24.5431 29.3771C24.5121 29.3257 24.4707 29.2742 24.4707 29.2433C24.5328 22.5949 24.3776 15.8744 24.6052 9.27744C24.6672 7.38376 24.8741 5.56213 25.7635 4.06984C27.1805 1.69245 29.5903 0.447157 32.7862 0.0869471C34.1203 -0.0571367 35.5166 -0.0262619 37.068 0.210447Z" fill="#2F2B73"/>
<path d="M45.7452 0.210188C45.2798 0.416022 44.8867 0.590981 44.5041 0.776232C41.9701 1.95978 40.7393 4.10045 40.4808 6.94096C40.1602 10.471 40.2326 14.1349 40.2222 17.7781C40.2222 21.4934 40.2429 25.2087 40.2739 28.9343C40.2739 29.2637 40.1808 29.3975 39.7878 29.3975C37.6883 29.3769 35.5991 29.3769 33.5202 29.3872C33.2099 29.3872 33.1272 29.346 33.1272 29.0372C33.1789 22.4608 33.0962 15.833 33.241 9.28747C33.2823 7.40409 33.5306 5.60304 34.3993 4.12104C35.8163 1.69219 38.2468 0.416023 41.5254 0.0969802C42.8286 -0.0368119 44.2041 0.00435392 45.7452 0.210188Z" fill="#2F2B73"/>
<path d="M50.2237 29.388C50.2237 26.6607 50.2237 24.0157 50.2133 21.3604C50.1926 17.5422 50.2754 13.7446 50.1306 9.88517C50.0892 8.62959 49.9134 7.35342 49.3445 5.99491C48.6723 4.3997 47.5036 3.06178 45.8901 2.00173C45.3523 1.65181 45.4971 1.56948 45.7453 1.39452C47.6794 0.0360164 52.1267 0.530018 55.1984 4.8937C56.512 6.7565 56.9567 8.58842 57.1118 10.3792C57.3394 13.0344 57.1946 15.5662 57.2049 18.1597C57.2256 21.7824 57.1946 25.3845 57.1842 28.9969C57.1842 29.1821 57.2566 29.3982 56.936 29.3982C54.7227 29.3777 52.5094 29.388 50.2237 29.388Z" fill="#2F2B73"/>
<path d="M41.7842 29.387C41.7739 27.5653 41.7532 25.8157 41.7636 24.0661C41.7739 19.0232 41.6188 13.9185 41.7946 8.93734C41.867 6.86871 42.198 4.92357 43.2943 3.37982C43.5839 2.95786 43.9459 2.59765 44.3078 2.23744C44.463 2.08306 44.6078 2.09336 44.8767 2.29919C47.2038 3.99732 48.3828 5.99391 48.5587 8.15517C48.7655 10.7281 48.6724 13.2084 48.6931 15.7299C48.7138 20.1553 48.7034 24.5704 48.7138 28.9856C48.7138 29.2943 48.6104 29.3972 48.2691 29.3972C46.1281 29.3767 43.9976 29.387 41.7842 29.387Z" fill="#2F2B73"/>
<path d="M0.87868 42.8282C0.909708 42.8385 0.940736 42.8694 0.961421 42.9208L1.7578 44.3411L2.54384 42.9208C2.57487 42.8694 2.60589 42.8385 2.62658 42.8282C2.64726 42.8179 2.69898 42.8076 2.75069 42.8076H3.092V45.4011H2.59555V43.8265L1.98534 44.9174C1.95431 44.9586 1.92328 44.9998 1.88191 45.0203C1.84054 45.0409 1.79917 45.0512 1.74746 45.0512C1.70609 45.0512 1.65437 45.0409 1.613 45.0203C1.57163 44.9998 1.54061 44.9689 1.50958 44.9174L0.889022 43.8162V45.4011H0.392578V42.8076H0.733883C0.806282 42.8179 0.847652 42.8179 0.87868 42.8282Z" fill="#2F2B73"/>
<path d="M4.91261 42.8179L5.94687 45.4114H5.54351C5.44008 45.4114 5.36768 45.36 5.32631 45.2673L5.1298 44.763H4.20931L4.0128 45.257C4.00246 45.2982 3.97143 45.3291 3.9404 45.36C3.89903 45.3908 3.85766 45.4011 3.80595 45.4011H3.40259L4.44719 42.8076H4.91261V42.8179ZM4.95398 44.3102L4.67473 43.5795L4.39548 44.3102H4.95398Z" fill="#2F2B73"/>
<path d="M6.61901 42.8385C6.65003 42.8488 6.67072 42.8797 6.70175 42.9208L7.8808 44.444C7.8808 44.4234 7.8808 44.4028 7.8808 44.372V44.2999V42.8179H8.37725V45.4011H8.10834C8.05663 45.4011 8.0256 45.3908 7.99457 45.3806C7.96354 45.3703 7.93252 45.3394 7.91183 45.2982L6.73277 43.775V45.4011H6.23633V42.8076H6.51558C6.55695 42.8179 6.59832 42.8179 6.61901 42.8385Z" fill="#2F2B73"/>
<path d="M8.85278 45.4011V42.8076H9.3906V45.4011H8.85278Z" fill="#2F2B73"/>
<path d="M11.6042 45.4011V42.8076H12.1421V44.9071H13.1763V45.3908H11.6042V45.4011Z" fill="#2F2B73"/>
<path d="M14.8308 42.8179L15.8651 45.4114H15.4617C15.3583 45.4114 15.2859 45.36 15.2445 45.2673L15.048 44.763H14.1275L13.931 45.257C13.9207 45.2982 13.8896 45.3291 13.8586 45.36C13.8172 45.3908 13.7759 45.4011 13.7242 45.4011H13.3208L14.3654 42.8076H14.8308V42.8179ZM14.8825 44.3102L14.6033 43.5795L14.324 44.3102H14.8825Z" fill="#2F2B73"/>
<path d="M16.103 42.8186C16.2168 42.8186 16.2892 42.87 16.3202 42.9729L16.7546 44.4344L17.251 42.9626C17.2614 42.9215 17.2924 42.8906 17.3234 42.8597C17.3648 42.8288 17.4062 42.8186 17.4579 42.8186H17.551C17.6647 42.8186 17.7268 42.87 17.7682 42.9729L18.2646 44.4446L18.699 42.9729C18.7093 42.9318 18.7404 42.9009 18.7714 42.87C18.8128 42.8391 18.8541 42.8289 18.9162 42.8289H19.3092L18.5025 45.4224H18.0578L17.4993 43.7448L16.9408 45.4224H16.4857L15.679 42.8289H16.103V42.8186Z" fill="#2F2B73"/>
<path d="M20.447 45.4011V42.8076H22.1329V43.2913H20.9848V43.8985H21.9674V44.3823H20.9848V45.4011H20.447Z" fill="#2F2B73"/>
<path d="M22.5156 45.4011V42.8076H23.0534V45.4011H22.5156Z" fill="#2F2B73"/>
<path d="M23.5293 42.8186H24.305C24.6463 42.8186 24.8945 42.8906 25.0497 43.0244C25.2048 43.1582 25.2875 43.3434 25.2875 43.5801C25.2875 43.7448 25.2462 43.8992 25.1634 44.0124C25.0807 44.1256 24.9566 44.2285 24.8014 44.3006C24.8118 44.3211 24.8325 44.3417 24.8428 44.3623C24.8531 44.3829 24.8738 44.4035 24.8945 44.4241L25.6185 45.4018H25.1117C25.029 45.4018 24.9566 45.3606 24.8945 45.2886L24.274 44.4446C24.2636 44.4344 24.2636 44.4241 24.2533 44.4241C24.2429 44.4241 24.2326 44.4138 24.2119 44.4138H24.0775V45.4018H23.5396V42.8186H23.5293ZM24.0568 43.9609H24.2843C24.4394 43.9609 24.5532 43.9301 24.6256 43.858C24.698 43.7963 24.7394 43.7036 24.7394 43.6007C24.7394 43.3949 24.5842 43.292 24.2843 43.2817H24.0361V43.9609H24.0568Z" fill="#2F2B73"/>
<path d="M26.3113 42.8282C26.3423 42.8385 26.3734 42.8694 26.394 42.9208L27.1904 44.3411L27.9765 42.9208C28.0075 42.8694 28.0385 42.8385 28.0592 42.8282C28.0799 42.8179 28.1316 42.8076 28.1833 42.8076H28.5246V45.4011H28.0282V43.8265L27.418 44.9174C27.3869 44.9586 27.3559 44.9998 27.3145 45.0203C27.2732 45.0409 27.2318 45.0512 27.1801 45.0512C27.1387 45.0512 27.087 45.0409 27.0456 45.0203C27.0043 44.9998 26.9732 44.9689 26.9422 44.9174L26.3216 43.8162V45.4011H25.8252V42.8076H26.1665C26.2389 42.8179 26.2803 42.8179 26.3113 42.8282Z" fill="#2F2B73"/>
<path d="M31.1724 42.8179L32.2066 45.4114H31.8033C31.6998 45.4114 31.6274 45.36 31.5861 45.2673L31.3896 44.763H30.4691L30.2726 45.257C30.2622 45.2982 30.2312 45.3291 30.2002 45.36C30.1588 45.3908 30.1174 45.4011 30.0657 45.4011H29.6624L30.707 42.8076H31.1724V42.8179ZM31.2137 44.3102L30.9345 43.5795L30.6552 44.3102H31.2137Z" fill="#2F2B73"/>
<path d="M32.889 42.8385C32.9201 42.8488 32.9407 42.8797 32.9718 42.9208L34.1508 44.444C34.1508 44.4234 34.1508 44.4028 34.1508 44.372V44.2999V42.8179H34.6473V45.4011H34.3784C34.3266 45.4011 34.2956 45.3908 34.2646 45.3806C34.2336 45.3703 34.2025 45.3394 34.1818 45.2982L33.0028 43.775V45.4011H32.5063V42.8076H32.7856C32.827 42.8179 32.858 42.8179 32.889 42.8385Z" fill="#2F2B73"/>
<path d="M35.113 42.8186H36.1163C36.3128 42.8186 36.4886 42.8494 36.6437 42.9112C36.7989 42.9729 36.9333 43.0656 37.0471 43.1788C37.1609 43.292 37.2436 43.4258 37.3057 43.5904C37.3677 43.7551 37.3988 43.9301 37.3988 44.1153C37.3988 44.3006 37.3677 44.4755 37.3057 44.6402C37.2436 44.7946 37.1609 44.9386 37.0471 45.0519C36.9333 45.1651 36.7989 45.2577 36.6437 45.3194C36.4886 45.3812 36.3128 45.4121 36.1163 45.4121H35.113V42.8186ZM36.6541 44.7122C36.7885 44.5681 36.8506 44.3726 36.8506 44.1153C36.8506 43.858 36.7885 43.6522 36.6541 43.5184C36.5196 43.3743 36.3438 43.3023 36.1163 43.3023H35.6612V44.9284H36.1163C36.3438 44.9284 36.5196 44.8563 36.6541 44.7122Z" fill="#2F2B73"/>
<path d="M38.6707 45.4011V42.8076H39.2085V44.9071H40.2427V45.3908H38.6707V45.4011Z" fill="#2F2B73"/>
<path d="M40.6357 45.4011V42.8076H42.3216V43.2913H41.1736V43.8574H42.1044V44.3308H41.1736V44.9277H42.3216V45.4114H40.6357V45.4011Z" fill="#2F2B73"/>
<path d="M43.4697 45.3399C43.3042 45.2782 43.1594 45.1856 43.0353 45.0723C42.9112 44.9591 42.8181 44.815 42.756 44.6607C42.6836 44.496 42.6526 44.3108 42.6526 44.1152C42.6526 43.9197 42.6836 43.7344 42.7457 43.5698C42.8077 43.4051 42.9008 43.2713 43.0146 43.1478C43.1283 43.0243 43.2731 42.942 43.4386 42.8802C43.6041 42.8185 43.7799 42.7876 43.9764 42.7876C44.3488 42.7876 44.6797 42.9214 44.959 43.1787C44.9383 43.2198 44.9073 43.2507 44.8866 43.2919C44.8659 43.333 44.8452 43.3639 44.8142 43.4051C44.7832 43.4463 44.7625 43.4668 44.7418 43.4771C44.7211 43.4874 44.6901 43.4977 44.6694 43.4977C44.6487 43.4977 44.628 43.4977 44.6073 43.4874C44.566 43.4668 44.5246 43.4463 44.4832 43.4257C44.4522 43.4051 44.4108 43.3845 44.3695 43.3639C44.3281 43.3433 44.2764 43.3228 44.2143 43.3125C44.1523 43.2919 44.0695 43.2919 43.9764 43.2919C43.8627 43.2919 43.7489 43.3125 43.6558 43.3536C43.5627 43.3948 43.48 43.4463 43.4076 43.5183C43.3455 43.5903 43.2938 43.6727 43.2525 43.7756C43.2111 43.8785 43.2007 43.9917 43.2007 44.1152C43.2007 44.3828 43.2731 44.5886 43.4179 44.7327C43.5627 44.8768 43.7592 44.9591 44.0075 44.9591C44.0902 44.9591 44.173 44.9488 44.2454 44.9386C44.3177 44.918 44.3798 44.8974 44.4419 44.8665V44.5166H44.1833C44.1316 44.5166 44.0799 44.5063 44.0488 44.4754C44.0178 44.4445 43.9971 44.4034 43.9971 44.3519V44.0535H44.9486V45.1238C44.8038 45.2267 44.6591 45.309 44.5039 45.3605C44.3488 45.412 44.1833 45.4428 44.0075 45.4428C43.8213 45.4326 43.6351 45.4017 43.4697 45.3399Z" fill="#2F2B73"/>
<path d="M46.6138 42.8179L47.648 45.4114H47.2447C47.1413 45.4114 47.0689 45.36 47.0275 45.2673L46.831 44.763H45.9105L45.714 45.257C45.7036 45.2982 45.6726 45.3291 45.6416 45.36C45.6002 45.3908 45.5588 45.4011 45.5071 45.4011H45.1038L46.1484 42.8076H46.6138V42.8179ZM46.6551 44.3102L46.3759 43.5795L46.0966 44.3102H46.6551Z" fill="#2F2B73"/>
<path d="M47.9375 45.4011V42.8076H48.4753V44.9071H49.5096V45.3908H47.9375V45.4011Z" fill="#2F2B73"/>
<path d="M51.8574 45.4119C51.6609 45.4119 51.4851 45.381 51.3299 45.3089C51.1748 45.2369 51.0507 45.1443 50.9369 45.0208C50.8335 44.8973 50.7508 44.7635 50.6887 44.5988C50.637 44.4342 50.606 44.2695 50.606 44.0842C50.606 43.899 50.637 43.724 50.699 43.5594C50.7611 43.3947 50.8438 43.2609 50.9576 43.1374C51.0714 43.0139 51.2058 42.9316 51.361 42.8595C51.5161 42.7875 51.6919 42.7566 51.8884 42.7566C52.0746 42.7566 52.2401 42.7875 52.3952 42.8595C52.5504 42.9316 52.6952 43.0242 52.8193 43.1477L52.6952 43.3329C52.6434 43.405 52.5814 43.4462 52.509 43.4462C52.4469 43.4462 52.3952 43.4256 52.3332 43.3844C52.2711 43.3432 52.2091 43.3124 52.1367 43.2918C52.0643 43.2712 51.9815 43.2609 51.8781 43.2609C51.7643 43.2609 51.6712 43.2815 51.5782 43.3124C51.4851 43.3535 51.4127 43.405 51.3506 43.477C51.2886 43.5491 51.2369 43.6314 51.2058 43.7343C51.1748 43.8372 51.1541 43.9504 51.1541 44.0842C51.1541 44.218 51.1748 44.3312 51.2058 44.4342C51.2472 44.5371 51.2886 44.6194 51.361 44.6914C51.423 44.7635 51.5058 44.8149 51.5885 44.8561C51.6712 44.8973 51.7747 44.9076 51.8677 44.9076C51.9608 44.9076 52.0436 44.887 52.1367 44.8561C52.2297 44.8252 52.3021 44.7841 52.3642 44.7429C52.4263 44.712 52.4883 44.6914 52.5504 44.6914C52.6331 44.6914 52.6952 44.7223 52.7469 44.7944L52.8503 44.9282C52.5917 45.2472 52.2608 45.4119 51.8574 45.4119Z" fill="#2F2B73"/>
<path d="M53.9054 45.3292C53.7503 45.2675 53.6158 45.1748 53.502 45.0513C53.3883 44.9278 53.3055 44.7941 53.2435 44.6294C53.1814 44.4647 53.1504 44.2898 53.1504 44.1045C53.1504 43.9193 53.1814 43.734 53.2435 43.5796C53.3055 43.4253 53.3883 43.2812 53.502 43.1577C53.6158 43.0445 53.7503 42.9518 53.9054 42.8798C54.0605 42.818 54.2364 42.7769 54.4329 42.7769C54.6294 42.7769 54.8052 42.8078 54.9603 42.8798C55.1155 42.9415 55.2499 43.0342 55.3637 43.1577C55.4775 43.2709 55.5602 43.415 55.6223 43.5796C55.6843 43.7443 55.7154 43.9193 55.7154 44.1045C55.7154 44.2898 55.6843 44.475 55.6223 44.6294C55.5602 44.7941 55.4775 44.9278 55.3637 45.0513C55.2499 45.1646 55.1155 45.2572 54.9603 45.3292C54.8052 45.391 54.6294 45.4321 54.4329 45.4321C54.2364 45.4321 54.0605 45.4013 53.9054 45.3292ZM54.9707 44.7117C55.1051 44.5676 55.1672 44.3618 55.1672 44.1045C55.1672 43.8472 55.1051 43.6414 54.9707 43.4973C54.8362 43.3532 54.6604 43.2812 54.4329 43.2812C54.2053 43.2812 54.0295 43.3532 53.8951 43.4973C53.7606 43.6414 53.6985 43.8472 53.6985 44.1045C53.6985 44.3618 53.7606 44.5676 53.8951 44.7117C54.0295 44.8558 54.2053 44.9279 54.4329 44.9279C54.6604 44.9279 54.8362 44.8558 54.9707 44.7117Z" fill="#2F2B73"/>
<path d="M56.5426 42.8385C56.5736 42.8488 56.5943 42.8797 56.6253 42.9208L57.8044 44.444C57.8044 44.4234 57.8044 44.4028 57.8044 44.372V44.2999V42.8179H58.3008V45.4011H58.0319C57.9802 45.4011 57.9492 45.3908 57.9182 45.3806C57.8871 45.3703 57.8561 45.3394 57.8354 45.2982L56.6564 43.775V45.4011H56.1599V42.8076H56.4392C56.4805 42.8179 56.5219 42.8179 56.5426 42.8385Z" fill="#2F2B73"/>
<path d="M59.0559 45.3189C58.9111 45.2469 58.7767 45.144 58.6526 45.0205L58.787 44.7941C58.8077 44.7632 58.8284 44.7323 58.8594 44.722C58.8801 44.7117 58.9112 44.7014 58.9318 44.7014C58.9629 44.7014 58.9939 44.7117 59.0353 44.722C59.0663 44.7426 59.0973 44.7632 59.1387 44.7838C59.2111 44.8352 59.2731 44.8661 59.3352 44.897C59.3973 44.9278 59.4697 44.9381 59.5524 44.9381C59.6662 44.9381 59.7592 44.9073 59.8316 44.8455C59.904 44.7838 59.9351 44.7117 59.9351 44.6088C59.9351 44.5676 59.9247 44.5265 59.904 44.4956C59.8834 44.4647 59.8523 44.4338 59.811 44.4133C59.7696 44.3927 59.7282 44.3721 59.6765 44.3515C59.6248 44.3309 59.5731 44.3206 59.5214 44.3001C59.4386 44.2795 59.3455 44.2486 59.2628 44.2177C59.1801 44.1868 59.0973 44.1354 59.0249 44.0839C58.9525 44.0325 58.9008 43.9501 58.8594 43.8678C58.8181 43.7752 58.7974 43.6723 58.7974 43.5385C58.7974 43.4253 58.8181 43.312 58.8698 43.2194C58.9112 43.1268 58.9732 43.0445 59.0559 42.9827C59.1283 42.921 59.2214 42.8695 59.3249 42.8283C59.4283 42.7975 59.5317 42.7769 59.6455 42.7769C59.9454 42.7769 60.204 42.8901 60.4315 43.1062L60.3177 43.3223C60.2764 43.3944 60.2247 43.4356 60.1626 43.4356C60.1316 43.4356 60.1005 43.4253 60.0592 43.4047C60.0178 43.3841 59.9868 43.3635 59.9661 43.3532C59.9351 43.3326 59.9144 43.3223 59.8834 43.3018C59.8523 43.2915 59.8213 43.2709 59.7903 43.2709C59.7592 43.2606 59.7075 43.2606 59.6662 43.2606C59.5524 43.2606 59.4696 43.2812 59.4179 43.3326C59.3662 43.3841 59.3352 43.4458 59.3352 43.5179C59.3352 43.5591 59.3455 43.5899 59.3662 43.6208C59.3869 43.6517 59.4179 43.6723 59.4593 43.7031C59.5007 43.7237 59.542 43.7443 59.5938 43.7649C59.6455 43.7855 59.6972 43.7958 59.7489 43.8163C59.8316 43.8472 59.9247 43.8781 60.0075 43.909C60.1005 43.9398 60.1729 43.9913 60.2453 44.0428C60.3177 44.0942 60.3695 44.1663 60.4108 44.2486C60.4522 44.3309 60.4729 44.4338 60.4729 44.5676C60.4729 44.7014 60.4522 44.8146 60.4005 44.9279C60.3591 45.0308 60.2867 45.1234 60.204 45.1954C60.1212 45.2675 60.0282 45.3292 59.9144 45.3704C59.8006 45.4116 59.6868 45.4321 59.5524 45.4321C59.3559 45.4321 59.2007 45.4013 59.0559 45.3189Z" fill="#2F2B73"/>
<path d="M61.4037 45.3497C61.2692 45.2982 61.1658 45.2159 61.0727 45.1233C60.9796 45.0306 60.9072 44.9174 60.8659 44.7836C60.8141 44.6498 60.7935 44.5161 60.7935 44.3617V42.8076H61.3313V44.3617C61.3313 44.444 61.3416 44.516 61.3726 44.5881C61.3933 44.6601 61.4347 44.7219 61.4761 44.7733C61.5174 44.8248 61.5795 44.866 61.6415 44.8865C61.7036 44.9174 61.776 44.9277 61.8587 44.9277C62.0242 44.9277 62.1483 44.8763 62.2414 44.7733C62.3345 44.6704 62.3759 44.5366 62.3759 44.372V42.8179H62.9137V44.372C62.9137 44.5263 62.893 44.6601 62.8413 44.7939C62.7896 44.9277 62.7275 45.0306 62.6344 45.1336C62.5414 45.2262 62.4276 45.3085 62.3035 45.36C62.169 45.4114 62.0242 45.4423 61.8587 45.4423C61.6829 45.432 61.5381 45.4011 61.4037 45.3497Z" fill="#2F2B73"/>
<path d="M63.3792 45.4011V42.8076H63.917V44.9071H64.9512V45.3908H63.3792V45.4011Z" fill="#2F2B73"/>
<path d="M65.6546 45.4018V43.3023H64.8789V42.8186H66.9578V43.3023H66.1821V45.4018H65.6546Z" fill="#2F2B73"/>
<path d="M68.333 42.8179L69.3673 45.4114H68.9639C68.8605 45.4114 68.7881 45.36 68.7467 45.2673L68.5502 44.763H67.6297L67.4332 45.257C67.4229 45.2982 67.3918 45.3291 67.3608 45.36C67.3194 45.3908 67.2781 45.4011 67.2264 45.4011H66.823L67.8676 42.8076H68.333V42.8179ZM68.3744 44.3102L68.0951 43.5795L67.8159 44.3102H68.3744Z" fill="#2F2B73"/>
<path d="M69.9879 45.4018V43.3023H69.2122V42.8186H71.3014V43.3023H70.5257V45.4018H69.9879Z" fill="#2F2B73"/>
<path d="M71.7051 45.4011V42.8076H72.2429V45.4011H71.7051Z" fill="#2F2B73"/>
<path d="M73.37 45.3292C73.2149 45.2675 73.0804 45.1748 72.9666 45.0513C72.8529 44.9278 72.7701 44.7941 72.7081 44.6294C72.646 44.4647 72.615 44.2898 72.615 44.1045C72.615 43.9193 72.646 43.734 72.7081 43.5796C72.7701 43.4253 72.8529 43.2812 72.9666 43.1577C73.0804 43.0445 73.2149 42.9518 73.37 42.8798C73.5251 42.818 73.701 42.7769 73.8975 42.7769C74.094 42.7769 74.2698 42.8078 74.4249 42.8798C74.5801 42.9415 74.7145 43.0342 74.8283 43.1577C74.9421 43.2709 75.0248 43.415 75.0869 43.5796C75.1489 43.7443 75.18 43.9193 75.18 44.1045C75.18 44.2898 75.1489 44.475 75.0869 44.6294C75.0248 44.7941 74.9421 44.9278 74.8283 45.0513C74.7145 45.1646 74.5801 45.2572 74.4249 45.3292C74.2698 45.391 74.094 45.4321 73.8975 45.4321C73.701 45.4321 73.5251 45.4013 73.37 45.3292ZM74.4353 44.7117C74.5697 44.5676 74.6318 44.3618 74.6318 44.1045C74.6318 43.8472 74.5697 43.6414 74.4353 43.4973C74.3008 43.3532 74.125 43.2812 73.8975 43.2812C73.6699 43.2812 73.4941 43.3532 73.3597 43.4973C73.2252 43.6414 73.1631 43.8472 73.1631 44.1045C73.1631 44.3618 73.2252 44.5676 73.3597 44.7117C73.4941 44.8558 73.6699 44.9279 73.8975 44.9279C74.125 44.9279 74.3008 44.8558 74.4353 44.7117Z" fill="#2F2B73"/>
<path d="M76.0074 42.8385C76.0385 42.8488 76.0591 42.8797 76.0902 42.9208L77.2692 44.444C77.2692 44.4234 77.2692 44.4028 77.2692 44.372V44.2999V42.8179H77.7657V45.4011H77.4968C77.4451 45.4011 77.414 45.3908 77.383 45.3806C77.352 45.3703 77.3209 45.3394 77.3003 45.2982L76.1212 43.775V45.4011H75.6248V42.8076H75.904C75.9454 42.8179 75.9867 42.8179 76.0074 42.8385Z" fill="#2F2B73"/>
<path d="M78.5103 45.3189C78.3655 45.2469 78.231 45.144 78.1069 45.0205L78.2414 44.7941C78.2621 44.7632 78.2828 44.7323 78.3138 44.722C78.3345 44.7117 78.3655 44.7014 78.3862 44.7014C78.4172 44.7014 78.4482 44.7117 78.4896 44.722C78.5206 44.7426 78.5517 44.7632 78.593 44.7838C78.6654 44.8352 78.7275 44.8661 78.7895 44.897C78.8516 44.9278 78.924 44.9381 79.0067 44.9381C79.1205 44.9381 79.2136 44.9073 79.286 44.8455C79.3584 44.7838 79.3894 44.7117 79.3894 44.6088C79.3894 44.5676 79.3791 44.5265 79.3584 44.4956C79.3377 44.4647 79.3067 44.4338 79.2653 44.4133C79.2239 44.3927 79.1826 44.3721 79.1309 44.3515C79.0791 44.3309 79.0274 44.3206 78.9757 44.3001C78.893 44.2795 78.7999 44.2486 78.7171 44.2177C78.6344 44.1868 78.5517 44.1354 78.4793 44.0839C78.4069 44.0325 78.3552 43.9501 78.3138 43.8678C78.2724 43.7752 78.2517 43.6723 78.2517 43.5385C78.2517 43.4253 78.2724 43.312 78.3241 43.2194C78.3655 43.1268 78.4276 43.0445 78.5103 42.9827C78.5827 42.921 78.6758 42.8695 78.7792 42.8283C78.8826 42.7975 78.9861 42.7769 79.0998 42.7769C79.3998 42.7769 79.6583 42.8901 79.8859 43.1062L79.7721 43.3223C79.7307 43.3944 79.679 43.4356 79.617 43.4356C79.5859 43.4356 79.5549 43.4253 79.5135 43.4047C79.4722 43.3841 79.4411 43.3635 79.4204 43.3532C79.3894 43.3326 79.3687 43.3223 79.3377 43.3018C79.3067 43.2915 79.2756 43.2709 79.2446 43.2709C79.2136 43.2606 79.1619 43.2606 79.1205 43.2606C79.0067 43.2606 78.924 43.2812 78.8723 43.3326C78.8206 43.3841 78.7895 43.4458 78.7895 43.5179C78.7895 43.5591 78.7999 43.5899 78.8206 43.6208C78.8413 43.6517 78.8723 43.6723 78.9137 43.7031C78.955 43.7237 78.9964 43.7443 79.0481 43.7649C79.0998 43.7855 79.1515 43.7958 79.2033 43.8163C79.286 43.8472 79.3791 43.8781 79.4618 43.909C79.5549 43.9398 79.6273 43.9913 79.6997 44.0428C79.7721 44.0942 79.8238 44.1663 79.8652 44.2486C79.9065 44.3309 79.9272 44.4338 79.9272 44.5676C79.9272 44.7014 79.9065 44.8146 79.8548 44.9279C79.8135 45.0308 79.7411 45.1234 79.6583 45.1954C79.5756 45.2675 79.4825 45.3292 79.3687 45.3704C79.255 45.4116 79.1412 45.4321 79.0067 45.4321C78.8206 45.4321 78.6654 45.4013 78.5103 45.3189Z" fill="#2F2B73"/>
<path d="M1.7479 39.8232H1.0446C0.848093 39.8232 0.682612 39.782 0.548158 39.6997C0.413704 39.6173 0.310278 39.5144 0.227538 39.3909C0.144797 39.2674 0.0930834 39.1233 0.051713 38.9689C0.0206852 38.8146 0 38.6602 0 38.5058C0 38.3206 0.0206857 38.1559 0.0723987 37.9912C0.124112 37.8266 0.186167 37.6825 0.289593 37.559C0.382676 37.4355 0.506788 37.3326 0.651584 37.2605C0.79638 37.1885 0.972205 37.1473 1.16871 37.1473C1.25145 37.1473 1.3342 37.1576 1.40659 37.1782C1.47899 37.1988 1.55139 37.2194 1.6031 37.2502C1.6755 37.2811 1.73756 37.312 1.78927 37.3531C1.8203 37.2914 1.85132 37.2502 1.8927 37.2296C1.93407 37.2091 1.97544 37.1885 2.00646 37.1885H2.3788V39.1851C2.3788 39.1954 2.38914 39.2057 2.39948 39.2057H2.7925V39.8335H2.50291C2.35811 39.8335 2.22366 39.7923 2.12023 39.7099C2.01681 39.7717 1.8927 39.8232 1.7479 39.8232ZM0.579185 36.7562C0.506787 36.6842 0.465417 36.5916 0.465417 36.4886C0.465417 36.3857 0.506787 36.2931 0.579185 36.2211C0.651584 36.149 0.744668 36.1079 0.848094 36.1079C0.95152 36.1079 1.0446 36.149 1.117 36.2211C1.1894 36.2931 1.23077 36.3857 1.23077 36.4886C1.23077 36.5916 1.1894 36.6842 1.117 36.7562C1.0446 36.8283 0.95152 36.8694 0.848094 36.8694C0.744668 36.8591 0.651584 36.8283 0.579185 36.7562ZM1.01357 37.8163C0.951519 37.8574 0.899806 37.9089 0.858436 37.9706C0.817066 38.0427 0.786038 38.1147 0.775695 38.2074C0.765352 38.3 0.75501 38.3823 0.75501 38.4852C0.75501 38.5573 0.765352 38.6396 0.775695 38.7219C0.786038 38.8043 0.806723 38.8866 0.83775 38.9587C0.868778 39.0307 0.910149 39.0822 0.972204 39.1336C1.03426 39.1748 1.10666 39.2057 1.19974 39.2057H1.6755C1.68584 39.2057 1.68584 39.2057 1.68584 39.2057V37.9501C1.58242 37.8369 1.44796 37.7751 1.28248 37.7751C1.15837 37.7545 1.07563 37.7751 1.01357 37.8163ZM1.49968 36.7562C1.42728 36.6842 1.38591 36.5916 1.38591 36.4886C1.38591 36.3857 1.42728 36.2931 1.49968 36.2211C1.57208 36.149 1.66516 36.1079 1.76858 36.1079C1.87201 36.1079 1.96509 36.149 2.03749 36.2211C2.10989 36.2931 2.15126 36.3857 2.15126 36.4886C2.15126 36.5916 2.10989 36.6842 2.03749 36.7562C1.96509 36.8283 1.87201 36.8694 1.76858 36.8694C1.65482 36.8591 1.57208 36.8283 1.49968 36.7562Z" fill="#2F2B73"/>
<path d="M2.67867 39.8127C2.64764 39.8127 2.62695 39.8127 2.59592 39.8024C2.57524 39.8024 2.55456 39.7921 2.53387 39.7716C2.51318 39.7613 2.51318 39.7407 2.51318 39.7098V39.2878C2.51318 39.2673 2.52353 39.2467 2.54421 39.2364C2.5649 39.2261 2.58558 39.2158 2.60627 39.2055C2.62695 39.1952 2.65798 39.1952 2.68901 39.1952C2.72004 39.1952 2.74072 39.1952 2.76141 39.1952H3.57847V37.178H4.30245V39.1746C4.30245 39.1849 4.3128 39.1952 4.32314 39.1952H4.71616V39.823H4.42656C4.28177 39.823 4.14731 39.7818 4.04389 39.6995C3.94046 39.7818 3.81635 39.823 3.66121 39.823H2.75106C2.73038 39.823 2.70969 39.8127 2.67867 39.8127ZM3.01997 40.6978C2.94757 40.6258 2.9062 40.5331 2.9062 40.4302C2.9062 40.3273 2.94757 40.2347 3.01997 40.1626C3.09237 40.0906 3.18545 40.0494 3.28888 40.0494C3.3923 40.0494 3.48539 40.0906 3.55779 40.1626C3.63018 40.2347 3.67156 40.3273 3.67156 40.4302C3.67156 40.5331 3.63018 40.6258 3.55779 40.6978C3.48539 40.7699 3.3923 40.811 3.28888 40.811C3.18545 40.8007 3.09237 40.7699 3.01997 40.6978ZM3.93012 40.6978C3.85772 40.6258 3.81635 40.5331 3.81635 40.4302C3.81635 40.3273 3.85772 40.2347 3.93012 40.1626C4.00252 40.0906 4.0956 40.0494 4.19903 40.0494C4.30245 40.0494 4.39554 40.0906 4.46794 40.1626C4.54033 40.2347 4.5817 40.3273 4.5817 40.4302C4.5817 40.5331 4.54033 40.6258 4.46794 40.6978C4.39554 40.7699 4.30245 40.811 4.19903 40.811C4.0956 40.8007 4.01286 40.7699 3.93012 40.6978Z" fill="#2F2B73"/>
<path d="M4.57149 39.8133C4.54046 39.8133 4.51977 39.8133 4.48875 39.803C4.46806 39.803 4.44738 39.7928 4.42669 39.7722C4.40601 39.7619 4.40601 39.7413 4.40601 39.7104V39.2885C4.40601 39.2679 4.41635 39.2473 4.43703 39.237C4.45772 39.2267 4.4784 39.2164 4.49909 39.2061C4.51978 39.1958 4.5508 39.1958 4.58183 39.1958C4.61286 39.1958 4.63354 39.1958 4.65423 39.1958H5.47129C5.48164 39.1958 5.48164 39.1958 5.48164 39.1958V37.1787H6.19528V39.1958C6.19528 39.2782 6.17459 39.3605 6.14356 39.4325C6.11254 39.5149 6.07116 39.5766 6.00911 39.6384C5.94705 39.7001 5.885 39.7413 5.80226 39.7722C5.71952 39.803 5.64712 39.8236 5.55404 39.8236H4.64389C4.63354 39.8236 4.60252 39.8133 4.57149 39.8133ZM5.56438 36.7155C5.49198 36.6435 5.45061 36.5509 5.45061 36.448C5.45061 36.345 5.49198 36.2524 5.56438 36.1804C5.63677 36.1083 5.72986 36.0672 5.83328 36.0672C5.93671 36.0672 6.02979 36.1083 6.10219 36.1804C6.17459 36.2524 6.21596 36.345 6.21596 36.448C6.21596 36.5509 6.17459 36.6435 6.10219 36.7155C6.02979 36.7876 5.93671 36.8287 5.83328 36.8287C5.72986 36.8185 5.63677 36.7876 5.56438 36.7155Z" fill="#2F2B73"/>
<path d="M8.05705 39.8229C7.8502 39.8229 7.67438 39.7921 7.51924 39.7303C7.3641 39.6686 7.22964 39.5759 7.11587 39.4627C7.00211 39.3495 6.91937 39.2054 6.86765 39.0408C6.8056 38.8761 6.78491 38.6909 6.78491 38.4953C6.78491 38.2998 6.81594 38.1248 6.86765 37.9601C6.91937 37.7955 7.00211 37.6514 7.10553 37.5382C7.20896 37.4147 7.34341 37.3221 7.50889 37.2603C7.66403 37.1883 7.8502 37.1574 8.05705 37.1574C8.2639 37.1574 8.43973 37.1883 8.59487 37.25C8.75001 37.3118 8.88446 37.4044 8.99823 37.5279C9.10165 37.6514 9.1844 37.7852 9.24645 37.9499C9.30851 38.1145 9.32919 38.2998 9.32919 38.4953V39.2054H9.69118V39.8332H9.32919C9.32919 39.967 9.29816 40.0905 9.24645 40.2037C9.19474 40.3169 9.112 40.4199 9.00857 40.5022C8.90514 40.5845 8.78103 40.6463 8.62589 40.6977C8.47076 40.7492 8.29493 40.7698 8.09842 40.7698C7.94328 40.7698 7.82951 40.7595 7.73643 40.7389C7.64335 40.7183 7.56061 40.6977 7.49855 40.6669L7.52958 40.3375C7.53992 40.2758 7.56061 40.2346 7.59163 40.2037C7.63301 40.1729 7.67438 40.1523 7.72609 40.1523C8.03637 40.1523 8.2639 40.1317 8.39836 40.0802C8.53281 40.0391 8.60521 39.9567 8.60521 39.8332H8.05705V39.8229ZM8.60521 39.1952V38.485C8.60521 38.3924 8.59487 38.2998 8.57418 38.2071C8.5535 38.1248 8.52247 38.0425 8.4811 37.9807C8.43973 37.919 8.37767 37.8675 8.30527 37.8264C8.23288 37.7852 8.15013 37.7646 8.04671 37.7646C7.94328 37.7646 7.8502 37.7852 7.78814 37.8264C7.72609 37.8675 7.66403 37.919 7.62266 37.9807C7.58129 38.0425 7.55026 38.1248 7.52958 38.2174C7.50889 38.3101 7.50889 38.4027 7.50889 38.4953C7.50889 38.5879 7.51924 38.6703 7.53992 38.7526C7.56061 38.8349 7.59163 38.907 7.633 38.979C7.67438 39.0511 7.73643 39.0922 7.79849 39.1334C7.87089 39.1746 7.95363 39.1952 8.05705 39.1952H8.60521Z" fill="#2F2B73"/>
<path d="M9.56685 39.8133C9.53582 39.8133 9.51514 39.8133 9.48411 39.803C9.46342 39.803 9.44274 39.7928 9.42205 39.7722C9.40137 39.7619 9.40137 39.7413 9.40137 39.7104V39.2885C9.40137 39.2679 9.41171 39.2473 9.4324 39.237C9.45308 39.2267 9.47376 39.2164 9.49445 39.2061C9.51514 39.1958 9.54616 39.1958 9.57719 39.1958C9.60822 39.1958 9.6289 39.1958 9.64959 39.1958H10.4667C10.477 39.1958 10.477 39.1958 10.477 39.1958V37.1787H11.1906V39.1958C11.1906 39.2782 11.17 39.3605 11.1389 39.4325C11.1079 39.5149 11.0665 39.5766 11.0045 39.6384C10.9424 39.7001 10.8804 39.7413 10.7976 39.7722C10.7149 39.803 10.6425 39.8236 10.5494 39.8236H9.63925C9.61856 39.8236 9.58753 39.8133 9.56685 39.8133ZM10.5494 36.7155C10.477 36.6435 10.4356 36.5509 10.4356 36.448C10.4356 36.345 10.477 36.2524 10.5494 36.1804C10.6218 36.1083 10.7149 36.0672 10.8183 36.0672C10.9217 36.0672 11.0148 36.1083 11.0872 36.1804C11.1596 36.2524 11.201 36.345 11.201 36.448C11.201 36.5509 11.1596 36.6435 11.0872 36.7155C11.0148 36.7876 10.9217 36.8287 10.8183 36.8287C10.7149 36.8185 10.6218 36.7876 10.5494 36.7155Z" fill="#2F2B73"/>
<path d="M12.5248 39.8232C12.442 39.8232 12.3593 39.8026 12.2766 39.7717C12.1938 39.7409 12.1318 39.6894 12.0697 39.6379C12.0077 39.5762 11.9663 39.5144 11.9353 39.4321C11.9042 39.3498 11.8835 39.2777 11.8835 39.1954V36.1182H12.5972V39.1954C12.5972 39.1954 12.5972 39.1954 12.6075 39.1954H13.0109V39.8232H12.5248Z" fill="#2F2B73"/>
<path d="M12.8869 39.8236C12.8662 39.8236 12.8352 39.8236 12.8042 39.8236C12.7731 39.8236 12.7524 39.8236 12.7214 39.8133C12.7007 39.8133 12.68 39.803 12.6594 39.7825C12.6387 39.7722 12.6387 39.7516 12.6387 39.7207V39.2988C12.6387 39.2782 12.649 39.2576 12.6697 39.2473C12.6904 39.237 12.7111 39.2267 12.7318 39.2164C12.7524 39.2061 12.7835 39.2061 12.8145 39.2061C12.8455 39.2061 12.8662 39.2061 12.8869 39.2061H13.5902C13.4868 39.0003 13.4247 38.7636 13.4247 38.496C13.4247 38.3005 13.4557 38.1255 13.5074 37.9608C13.5592 37.7962 13.6419 37.6521 13.7453 37.5389C13.8488 37.4154 13.9832 37.3227 14.1383 37.261C14.2935 37.1992 14.4797 37.1581 14.6865 37.1581C14.8934 37.1581 15.0692 37.189 15.2347 37.261C15.3898 37.3227 15.5243 37.4154 15.638 37.5389C15.7414 37.6521 15.8242 37.7962 15.8862 37.9608C15.9483 38.1255 15.969 38.3108 15.969 38.5063V39.2164H16.331V39.8442H12.8869V39.8236ZM13.9832 36.7155C13.9108 36.6435 13.8694 36.5509 13.8694 36.448C13.8694 36.345 13.9108 36.2524 13.9832 36.1804C14.0556 36.1083 14.1487 36.0672 14.2521 36.0672C14.3555 36.0672 14.4486 36.1083 14.521 36.1804C14.5934 36.2524 14.6348 36.345 14.6348 36.448C14.6348 36.5509 14.5934 36.6435 14.521 36.7155C14.4486 36.7876 14.3555 36.8287 14.2521 36.8287C14.1487 36.8185 14.0556 36.7876 13.9832 36.7155ZM15.245 38.4857C15.245 38.3931 15.2347 38.3005 15.2243 38.2078C15.2036 38.1255 15.183 38.0432 15.1312 37.9814C15.0899 37.9197 15.0382 37.8682 14.9658 37.827C14.8934 37.7859 14.8106 37.7653 14.7072 37.7653C14.6038 37.7653 14.521 37.7859 14.4486 37.8167C14.3762 37.8579 14.3245 37.8991 14.2831 37.9711C14.2418 38.0329 14.2107 38.1049 14.1901 38.1975C14.1694 38.2799 14.159 38.3725 14.159 38.4754C14.159 38.568 14.1694 38.6607 14.1901 38.7533C14.2107 38.8356 14.2418 38.918 14.2831 38.9797C14.3245 39.0415 14.3866 39.0929 14.4486 39.1341C14.521 39.1753 14.6038 39.1855 14.7072 39.1855H15.245V38.4857ZM14.8934 36.7155C14.821 36.6435 14.7796 36.5509 14.7796 36.448C14.7796 36.345 14.821 36.2524 14.8934 36.1804C14.9658 36.1083 15.0588 36.0672 15.1623 36.0672C15.2657 36.0672 15.3588 36.1083 15.4312 36.1804C15.5036 36.2524 15.5449 36.345 15.5449 36.448C15.5449 36.5509 15.5036 36.6435 15.4312 36.7155C15.3588 36.7876 15.2657 36.8287 15.1623 36.8287C15.0588 36.8185 14.9658 36.7876 14.8934 36.7155Z" fill="#2F2B73"/>
<path d="M16.9827 39.1851V36.1079H17.6963V39.1851C17.6963 39.2674 17.6756 39.3497 17.6446 39.4218C17.6136 39.5041 17.5619 39.5659 17.5102 39.6276C17.4481 39.6894 17.386 39.7305 17.3033 39.7614C17.2206 39.7923 17.1482 39.8129 17.0551 39.8129H16.2897C16.269 39.8129 16.238 39.8129 16.207 39.8129C16.176 39.8129 16.1553 39.8129 16.1242 39.8026C16.1036 39.8026 16.0829 39.7923 16.0622 39.7717C16.0415 39.7614 16.0415 39.7408 16.0415 39.7099V39.288C16.0415 39.2674 16.0518 39.2468 16.0725 39.2365C16.0932 39.2262 16.1139 39.2159 16.1346 39.2057C16.1553 39.1954 16.1863 39.1954 16.2173 39.1954C16.2484 39.1954 16.269 39.1954 16.2897 39.1954L16.9827 39.1851C16.9827 39.1954 16.9723 39.1954 16.9827 39.1851Z" fill="#2F2B73"/>
<path d="M18.3066 39.8232V36.1182H19.0203V39.8232H18.3066Z" fill="#2F2B73"/>
<path d="M21.3368 39.7104C21.192 39.6383 21.0679 39.5354 20.9645 39.4119C20.8611 39.2884 20.7887 39.1443 20.737 38.9797C20.6852 38.815 20.6646 38.64 20.6646 38.4651C20.6646 38.2798 20.6956 38.1049 20.7576 37.9093C20.8197 37.7138 20.9231 37.5491 21.0783 37.3947H21.2231L21.4402 37.6109C21.492 37.6726 21.5126 37.7241 21.523 37.7858C21.5333 37.8476 21.523 37.9093 21.492 37.9814C21.4506 38.0534 21.4299 38.1357 21.4092 38.2078C21.3989 38.2901 21.3885 38.3725 21.3885 38.4548C21.3885 38.5474 21.3989 38.6298 21.4196 38.7224C21.4402 38.8047 21.4713 38.887 21.5126 38.9591C21.554 39.0311 21.6057 39.0826 21.6781 39.1238C21.7505 39.1649 21.8333 39.1855 21.9263 39.1855H23.6949V37.1683H24.4086V39.1855C24.4086 39.2678 24.3879 39.3502 24.3569 39.4222C24.3258 39.5046 24.2845 39.5663 24.2224 39.6281C24.1603 39.6898 24.0983 39.731 24.0156 39.7618C23.9328 39.7927 23.8604 39.8133 23.7673 39.8133H21.8333C21.6574 39.8236 21.492 39.7824 21.3368 39.7104ZM21.8436 37.4462C21.7712 37.3742 21.7298 37.2815 21.7298 37.1786C21.7298 37.0757 21.7712 36.9831 21.8436 36.911C21.916 36.839 22.0091 36.7978 22.1125 36.7978C22.2159 36.7978 22.309 36.839 22.3814 36.911C22.4538 36.9831 22.4952 37.0757 22.4952 37.1786C22.4952 37.2815 22.4538 37.3742 22.3814 37.4462C22.309 37.5183 22.2159 37.5594 22.1125 37.5594C22.0091 37.5491 21.916 37.5183 21.8436 37.4462ZM22.7641 37.4462C22.6917 37.3742 22.6503 37.2815 22.6503 37.1786C22.6503 37.0757 22.6917 36.9831 22.7641 36.911C22.8365 36.839 22.9296 36.7978 23.033 36.7978C23.1364 36.7978 23.2295 36.839 23.3019 36.911C23.3743 36.9831 23.4157 37.0757 23.4157 37.1786C23.4157 37.2815 23.3743 37.3742 23.3019 37.4462C23.2295 37.5183 23.1364 37.5594 23.033 37.5594C22.9296 37.5491 22.8365 37.5183 22.7641 37.4462Z" fill="#2F2B73"/>
<path d="M25.0291 39.8232V36.1182H25.7427V39.8232H25.0291Z" fill="#2F2B73"/>
<path d="M26.1252 40.6464L26.1666 40.3067C26.177 40.2553 26.1873 40.2244 26.1976 40.2038C26.208 40.1832 26.2287 40.1626 26.2597 40.1524C26.2804 40.1421 26.3114 40.1421 26.3424 40.1421H26.4562C26.5907 40.1421 26.6527 40.07 26.6527 39.9362V37.178H27.3664V39.9362C27.3664 40.1832 27.294 40.3891 27.1595 40.5331C27.0251 40.6772 26.8182 40.7596 26.5493 40.7596C26.4252 40.7493 26.2907 40.7184 26.1252 40.6464Z" fill="#2F2B73"/>
<path d="M28.618 39.8232C28.5353 39.8232 28.4526 39.8026 28.3698 39.7717C28.2871 39.7409 28.225 39.6894 28.163 39.6379C28.1009 39.5762 28.0595 39.5144 28.0285 39.4321C27.9975 39.3498 27.9768 39.2777 27.9768 39.1954V36.1182H28.6904V39.1954C28.6904 39.1954 28.6904 39.1954 28.7008 39.1954H29.1041V39.8232H28.618Z" fill="#2F2B73"/>
<path d="M32.2997 37.7546C32.2687 37.6826 32.2584 37.6105 32.248 37.5385C32.248 37.4665 32.279 37.4047 32.3411 37.343L32.6204 37.0754C32.941 37.4047 33.0961 37.7752 33.0961 38.1869V39.1749C33.0961 39.1852 33.1065 39.1852 33.1168 39.1852H33.5098V39.813H33.2202C33.0754 39.813 32.9513 39.7718 32.8479 39.6895C32.7445 39.7718 32.61 39.813 32.4652 39.813H31.9895C31.824 39.813 31.6792 39.7718 31.5551 39.6895C31.4516 39.7718 31.3275 39.813 31.1724 39.813H30.6966C30.5311 39.813 30.3864 39.7718 30.2622 39.6895C30.1588 39.7718 30.0347 39.813 29.8796 39.813H28.9694C28.9487 39.813 28.9177 39.813 28.8867 39.813C28.8556 39.813 28.835 39.813 28.8039 39.8027C28.7832 39.8027 28.7626 39.7924 28.7419 39.7718C28.7212 39.7615 28.7212 39.7409 28.7212 39.7101V39.2881C28.7212 39.2675 28.7315 39.2469 28.7522 39.2366C28.7729 39.2263 28.7936 39.2161 28.8143 39.2058C28.835 39.1955 28.866 39.1955 28.897 39.1955C28.928 39.1955 28.9487 39.1955 28.9694 39.1955H29.7865C29.7968 39.1955 29.7968 39.1955 29.7968 39.1955V37.5076H30.5105V39.1852C30.5105 39.1955 30.5208 39.1955 30.5311 39.1955H31.069C31.0793 39.1955 31.0793 39.1955 31.0793 39.1955V37.5076H31.7929V39.1852C31.7929 39.1955 31.8033 39.1955 31.8136 39.1955H32.3514C32.3618 39.1955 32.3618 39.1955 32.3618 39.1955V38.1972C32.3825 38.0325 32.3514 37.8884 32.2997 37.7546ZM30.6656 36.993C30.5932 36.921 30.5518 36.8284 30.5518 36.7255C30.5518 36.6225 30.5932 36.5299 30.6656 36.4579C30.738 36.3858 30.8311 36.3447 30.9345 36.3447C31.0379 36.3447 31.131 36.3858 31.2034 36.4579C31.2758 36.5299 31.3172 36.6225 31.3172 36.7255C31.3172 36.8284 31.2758 36.921 31.2034 36.993C31.131 37.0651 31.0379 37.1063 30.9345 37.1063C30.8311 37.1063 30.738 37.0651 30.6656 36.993ZM31.131 36.2315C31.0586 36.1594 31.0172 36.0668 31.0172 35.9639C31.0172 35.861 31.0586 35.7683 31.131 35.6963C31.2034 35.6243 31.2965 35.5831 31.3999 35.5831C31.5034 35.5831 31.5964 35.6243 31.6688 35.6963C31.7412 35.7683 31.7826 35.861 31.7826 35.9639C31.7826 36.0668 31.7412 36.1594 31.6688 36.2315C31.5964 36.3035 31.5034 36.3447 31.3999 36.3447C31.2965 36.3447 31.2034 36.3035 31.131 36.2315ZM31.5861 36.993C31.5137 36.921 31.4723 36.8284 31.4723 36.7255C31.4723 36.6225 31.5137 36.5299 31.5861 36.4579C31.6585 36.3858 31.7516 36.3447 31.855 36.3447C31.9584 36.3447 32.0515 36.3858 32.1239 36.4579C32.1963 36.5299 32.2377 36.6225 32.2377 36.7255C32.2377 36.8284 32.1963 36.921 32.1239 36.993C32.0515 37.0651 31.9584 37.1063 31.855 37.1063C31.7516 37.1063 31.6585 37.0651 31.5861 36.993Z" fill="#2F2B73"/>
<path d="M33.3962 39.8133C33.3652 39.8133 33.3445 39.8133 33.3135 39.803C33.2928 39.803 33.2721 39.7928 33.2514 39.7722C33.2307 39.7619 33.2307 39.7413 33.2307 39.7104V39.2885C33.2307 39.2679 33.2411 39.2473 33.2617 39.237C33.2824 39.2267 33.3031 39.2164 33.3238 39.2061C33.3445 39.1958 33.3755 39.1958 33.4065 39.1958C33.4376 39.1958 33.4582 39.1958 33.4789 39.1958H34.296V37.1787H35.02V39.1753C35.02 39.1855 35.0303 39.1958 35.0407 39.1958H35.4337V39.8236H35.1441C34.9993 39.8236 34.8648 39.7825 34.7614 39.7001C34.658 39.7825 34.5339 39.8236 34.3787 39.8236H33.4686C33.4479 39.8236 33.4169 39.8133 33.3962 39.8133ZM33.872 36.7155C33.7996 36.6435 33.7582 36.5509 33.7582 36.448C33.7582 36.345 33.7996 36.2524 33.872 36.1804C33.9444 36.1083 34.0374 36.0672 34.1409 36.0672C34.2443 36.0672 34.3374 36.1083 34.4098 36.1804C34.4822 36.2524 34.5235 36.345 34.5235 36.448C34.5235 36.5509 34.4822 36.6435 34.4098 36.7155C34.3374 36.7876 34.2443 36.8287 34.1409 36.8287C34.0374 36.8185 33.9547 36.7876 33.872 36.7155ZM34.7924 36.7155C34.72 36.6435 34.6787 36.5509 34.6787 36.448C34.6787 36.345 34.72 36.2524 34.7924 36.1804C34.8648 36.1083 34.9579 36.0672 35.0614 36.0672C35.1648 36.0672 35.2579 36.1083 35.3303 36.1804C35.4027 36.2524 35.444 36.345 35.444 36.448C35.444 36.5509 35.4027 36.6435 35.3303 36.7155C35.2579 36.7876 35.1648 36.8287 35.0614 36.8287C34.9579 36.8185 34.8648 36.7876 34.7924 36.7155Z" fill="#2F2B73"/>
<path d="M38.7124 37.7544C38.6814 37.6823 38.671 37.6103 38.6607 37.5382C38.6607 37.4662 38.6917 37.4044 38.7538 37.3427L39.033 37.0751C39.3537 37.4044 39.5088 37.7749 39.5088 38.1866V39.1849C39.5088 39.2672 39.4881 39.3496 39.4571 39.4216C39.4261 39.504 39.3743 39.5657 39.3226 39.6275C39.2606 39.6892 39.1985 39.7304 39.1158 39.7612C39.033 39.7921 38.9606 39.8127 38.8676 39.8127H38.3918C38.2263 39.8127 38.0815 39.7715 37.9574 39.6892C37.854 39.7715 37.7299 39.8127 37.5747 39.8127H37.099C36.9335 39.8127 36.7887 39.7715 36.6646 39.6892C36.5612 39.7715 36.437 39.8127 36.2819 39.8127H35.3718C35.3511 39.8127 35.32 39.8127 35.289 39.8127C35.258 39.8127 35.2373 39.8127 35.2063 39.8024C35.1856 39.8024 35.1649 39.7921 35.1442 39.7715C35.1235 39.7612 35.1235 39.7407 35.1235 39.7098V39.2878C35.1235 39.2672 35.1339 39.2467 35.1546 39.2364C35.1752 39.2261 35.1959 39.2158 35.2166 39.2055C35.2373 39.1952 35.2683 39.1952 35.2994 39.1952C35.3304 39.1952 35.3511 39.1952 35.3718 39.1952H36.1888C36.1992 39.1952 36.1992 39.1952 36.1992 39.1952V37.5074H36.9128V39.1849C36.9128 39.1952 36.9231 39.1952 36.9335 39.1952H37.4713C37.4816 39.1952 37.4816 39.1952 37.4816 39.1952V37.5074H38.1953V39.1849C38.1953 39.1952 38.2056 39.1952 38.216 39.1952H38.7538C38.7641 39.1952 38.7641 39.1952 38.7641 39.1952V38.1969C38.7848 38.0322 38.7641 37.8882 38.7124 37.7544Z" fill="#2F2B73"/>
<path d="M39.9224 39.7203C39.9224 39.6894 39.9327 39.6688 39.9327 39.6482C39.9327 39.6276 39.9327 39.6071 39.9327 39.5865C39.9327 39.5659 39.9327 39.535 39.943 39.5042C39.943 39.4733 39.9534 39.4321 39.9534 39.3909C39.9637 39.3292 39.9844 39.288 40.0258 39.2469C40.0672 39.2057 40.1189 39.1954 40.1706 39.1954H41.6806C41.6909 39.1954 41.6909 39.1954 41.6909 39.1851V36.1182H42.4149V39.1954C42.4149 39.2777 42.3942 39.3601 42.3632 39.4424C42.3322 39.5247 42.2805 39.5865 42.2288 39.6482C42.1667 39.71 42.1047 39.7512 42.0219 39.782C41.9392 39.8129 41.8564 39.8335 41.7737 39.8335H40.3464C40.2326 39.8232 40.0878 39.782 39.9224 39.7203ZM40.3981 38.7734V36.8592H41.1118V38.7734H40.3981Z" fill="#2F2B73"/>
<path d="M43.0254 39.8232V36.1182H43.739V39.8232H43.0254Z" fill="#2F2B73"/>
<path d="M44.3079 37.9607C44.3596 37.796 44.4424 37.6519 44.5458 37.5284C44.6492 37.4049 44.7837 37.3123 44.9388 37.2403C45.094 37.1682 45.2801 37.1374 45.4973 37.1374C45.7042 37.1374 45.88 37.1682 46.0351 37.2403C46.1903 37.302 46.3247 37.3946 46.4385 37.5181C46.5523 37.6416 46.635 37.7754 46.6867 37.9504C46.7384 38.1254 46.7695 38.3003 46.7695 38.5061V39.6588C46.7695 40.0396 46.666 40.3175 46.4488 40.4924C46.242 40.6674 45.9317 40.76 45.5387 40.76C45.3836 40.76 45.2698 40.7497 45.1767 40.7292C45.0836 40.7086 45.0009 40.688 44.9388 40.6571L44.9699 40.3175C44.9802 40.2557 45.0009 40.2146 45.0319 40.1837C45.0733 40.1528 45.1147 40.1322 45.1664 40.1322C45.4766 40.1322 45.7042 40.1117 45.8386 40.0602C45.9731 40.0087 46.0455 39.9161 46.0455 39.772V39.7617C45.9731 39.7926 45.9007 39.8132 45.8076 39.8338C45.7145 39.8544 45.6111 39.8647 45.4973 39.8647C45.2905 39.8647 45.1147 39.8338 44.9492 39.7617C44.794 39.7 44.6596 39.6074 44.5458 39.4839C44.4424 39.3604 44.3596 39.2163 44.2976 39.0516C44.2355 38.8869 44.2148 38.7017 44.2148 38.4959C44.2252 38.3003 44.2562 38.1254 44.3079 37.9607ZM45.2491 37.8269C45.1767 37.8681 45.125 37.9195 45.0836 37.9813C45.0423 38.043 45.0112 38.1254 44.9905 38.2077C44.9699 38.3003 44.9595 38.3929 44.9595 38.4856C44.9595 38.5782 44.9699 38.6708 44.9905 38.7634C45.0112 38.8458 45.0423 38.9281 45.0836 39.0001C45.125 39.0722 45.187 39.1237 45.2491 39.1648C45.3215 39.206 45.4042 39.2266 45.5077 39.2266C45.6318 39.2266 45.7352 39.2163 45.8076 39.1854C45.88 39.1648 45.9317 39.1236 45.9627 39.0825C45.9938 39.0413 46.0248 38.9796 46.0248 38.9178C46.0248 38.8561 46.0351 38.7737 46.0351 38.6914V38.4959C46.0351 38.4032 46.0248 38.3106 46.0145 38.218C45.9938 38.1356 45.9731 38.0533 45.9317 37.9916C45.8903 37.9195 45.8386 37.8681 45.7662 37.8372C45.6938 37.796 45.6111 37.7754 45.5077 37.7754C45.4042 37.7651 45.3215 37.7857 45.2491 37.8269Z" fill="#2F2B73"/>
<path d="M48.393 37.9814C48.4448 37.8168 48.5068 37.6727 48.6102 37.5492C48.7033 37.4257 48.8274 37.3227 48.9722 37.2507C49.117 37.1787 49.2928 37.1375 49.4894 37.1375C49.5721 37.1375 49.6548 37.1478 49.7272 37.1684C49.7996 37.189 49.872 37.2095 49.9237 37.2404C49.9961 37.2713 50.0582 37.3022 50.1099 37.3433C50.1409 37.2816 50.172 37.2404 50.2133 37.2198C50.2547 37.1992 50.2961 37.1787 50.3271 37.1787H50.6994V39.1958C50.6994 39.2782 50.6788 39.3605 50.6477 39.4325C50.6167 39.5149 50.565 39.5766 50.5133 39.6384C50.4512 39.7001 50.3892 39.7413 50.3064 39.7722C50.2237 39.803 50.1513 39.8236 50.0582 39.8236H49.3549C49.1584 39.8236 48.9929 39.7825 48.8585 39.7001C48.724 39.6178 48.6206 39.5149 48.5378 39.3914C48.4551 39.2679 48.4034 39.1238 48.362 38.9694C48.331 38.815 48.3103 38.6607 48.3103 38.5063C48.3206 38.321 48.3517 38.1461 48.393 37.9814ZM48.8895 36.7155C48.8171 36.6435 48.7757 36.5509 48.7757 36.448C48.7757 36.345 48.8171 36.2524 48.8895 36.1804C48.9619 36.1083 49.055 36.0672 49.1584 36.0672C49.2618 36.0672 49.3549 36.1083 49.4273 36.1804C49.4997 36.2524 49.5411 36.345 49.5411 36.448C49.5411 36.5509 49.4997 36.6435 49.4273 36.7155C49.3549 36.7876 49.2618 36.8287 49.1584 36.8287C49.055 36.8185 48.9619 36.7876 48.8895 36.7155ZM49.3342 37.8167C49.2722 37.8579 49.2204 37.9094 49.1791 37.9711C49.1377 38.0432 49.1067 38.1152 49.0963 38.2078C49.086 38.3005 49.0757 38.3828 49.0757 38.4857C49.0757 38.5577 49.086 38.6401 49.0963 38.7224C49.1067 38.8047 49.1274 38.8871 49.1584 38.9591C49.1894 39.0312 49.2308 39.0826 49.2928 39.1341C49.3549 39.1753 49.4273 39.2061 49.5204 39.2061H49.9961C50.0065 39.2061 50.0065 39.2061 50.0065 39.2061V37.9505C49.9031 37.8373 49.7686 37.7756 49.6031 37.7756C49.479 37.755 49.3963 37.7756 49.3342 37.8167ZM49.81 36.7155C49.7376 36.6435 49.6962 36.5509 49.6962 36.448C49.6962 36.345 49.7376 36.2524 49.81 36.1804C49.8824 36.1083 49.9755 36.0672 50.0789 36.0672C50.1823 36.0672 50.2754 36.1083 50.3478 36.1804C50.4202 36.2524 50.4616 36.345 50.4616 36.448C50.4616 36.5509 50.4202 36.6435 50.3478 36.7155C50.2754 36.7876 50.1823 36.8287 50.0789 36.8287C49.9755 36.8185 49.8824 36.7876 49.81 36.7155Z" fill="#2F2B73"/>
<path d="M51.9511 39.8232C51.8683 39.8232 51.7856 39.8026 51.7028 39.7717C51.6201 39.7409 51.558 39.6894 51.496 39.6379C51.4339 39.5762 51.3926 39.5144 51.3615 39.4321C51.3305 39.3498 51.3098 39.2777 51.3098 39.1954V36.1182H52.0234V39.1954C52.0234 39.1954 52.0235 39.1954 52.0338 39.1954H52.4372V39.8232H51.9511Z" fill="#2F2B73"/>
<path d="M53.5434 39.6177C53.4193 39.7515 53.2642 39.8132 53.078 39.8132H52.3127C52.292 39.8132 52.261 39.8132 52.2299 39.8132C52.1989 39.8132 52.1782 39.8132 52.1472 39.8029C52.1265 39.8029 52.1058 39.7926 52.0851 39.7721C52.0645 39.7618 52.0645 39.7412 52.0645 39.7103V39.2884C52.0645 39.2678 52.0748 39.2472 52.0955 39.2369C52.1162 39.2266 52.1369 39.2163 52.1575 39.206C52.1782 39.1957 52.2093 39.1957 52.2403 39.1957C52.2713 39.1957 52.292 39.1957 52.3127 39.1957H52.9849V38.4856C52.9849 38.2901 53.016 38.1151 53.0677 37.9504C53.1194 37.7858 53.2021 37.6417 53.3159 37.5285C53.4193 37.405 53.5538 37.3123 53.7193 37.2506C53.8744 37.1786 54.0606 37.1477 54.2674 37.1477C54.4743 37.1477 54.6501 37.1786 54.8052 37.2506C54.9604 37.3123 55.0948 37.405 55.1983 37.5285C55.3017 37.6417 55.3844 37.7858 55.4465 37.9504C55.5085 38.1151 55.5292 38.3004 55.5292 38.4959V39.1957C55.5292 39.3913 55.4672 39.5456 55.3534 39.6589C55.2396 39.7721 55.0845 39.8338 54.888 39.8338H54.2467C53.9882 39.8235 53.7503 39.7515 53.5434 39.6177ZM54.8052 39.1751V38.4753C54.8052 38.3827 54.7949 38.2901 54.7846 38.1974C54.7742 38.1048 54.7432 38.0328 54.7018 37.971C54.6604 37.9093 54.6087 37.8578 54.5363 37.8166C54.4639 37.7755 54.3812 37.7652 54.2778 37.7652C54.1743 37.7652 54.0916 37.7858 54.0192 37.8166C53.9468 37.8475 53.8951 37.899 53.8537 37.9607C53.8124 38.0225 53.7813 38.1048 53.7606 38.1871C53.74 38.2695 53.7296 38.3724 53.7296 38.465V38.5576C53.7296 38.7429 53.771 38.887 53.8537 39.0105C53.9365 39.134 54.0813 39.1854 54.2674 39.1854H54.7949C54.7949 39.1957 54.8052 39.1854 54.8052 39.1751Z" fill="#2F2B73"/>
<path d="M56.7809 39.8232C56.6981 39.8232 56.6154 39.8026 56.5327 39.7717C56.4499 39.7409 56.3879 39.6894 56.3258 39.6379C56.2638 39.5762 56.2224 39.5144 56.1914 39.4321C56.1603 39.3498 56.1396 39.2777 56.1396 39.1954V36.1182H56.8533V39.1954C56.8533 39.1954 56.8533 39.1954 56.8636 39.1954H57.267V39.8232H56.7809Z" fill="#2F2B73"/>
<path d="M57.153 39.8229C57.1323 39.8229 57.1013 39.8229 57.0703 39.8229C57.0392 39.8229 57.0186 39.8229 56.9875 39.8126C56.9668 39.8126 56.9462 39.8023 56.9255 39.7817C56.9048 39.7714 56.9048 39.7508 56.9048 39.7199V39.298C56.9048 39.2774 56.9151 39.2568 56.9358 39.2465C56.9565 39.2362 56.9772 39.2259 56.9979 39.2156C57.0186 39.2054 57.0496 39.2053 57.0806 39.2053C57.1116 39.2053 57.1323 39.2053 57.153 39.2053H59.4077C59.325 38.9069 59.2526 38.6702 59.1905 38.4849C59.1388 38.2997 59.0974 38.1762 59.0767 38.1041C59.0457 38.0115 58.994 37.9395 58.9113 37.8674C58.8285 37.8057 58.7147 37.7748 58.5699 37.7748C58.4872 37.7748 58.4251 37.7851 58.3838 37.7954C58.3321 37.816 58.2804 37.8366 58.2183 37.8777C58.1562 37.9292 58.0942 37.9498 58.0218 37.9498C57.939 37.9498 57.877 37.9086 57.8149 37.8263C57.8149 37.816 57.8046 37.8057 57.7839 37.7748C57.7632 37.7439 57.7425 37.7233 57.7219 37.6925C57.7012 37.6616 57.6805 37.641 57.6598 37.6101C57.6391 37.5896 57.6288 37.569 57.6288 37.569C57.939 37.2705 58.2597 37.1264 58.601 37.1264C58.8802 37.1264 59.1181 37.1985 59.325 37.3426C59.5318 37.4866 59.6869 37.6925 59.78 37.9806C59.7904 38.0115 59.8007 38.0424 59.8111 38.0836C59.8214 38.1247 59.8421 38.1762 59.8524 38.2276L60.0696 38.9275C60.0903 38.9789 60.1006 39.0304 60.111 39.0716C60.1213 39.1127 60.1317 39.1539 60.142 39.1745H60.2454V39.8023H57.153V39.8229Z" fill="#2F2B73"/>
<path d="M61.3936 39.6177C61.2695 39.7515 61.1143 39.8132 60.9282 39.8132H60.2145C60.1938 39.8132 60.1628 39.8132 60.1318 39.8132C60.1008 39.8132 60.0801 39.8132 60.049 39.8029C60.0284 39.8029 60.0077 39.7926 59.987 39.7721C59.9663 39.7618 59.9663 39.7412 59.9663 39.7103V39.2884C59.9663 39.2678 59.9766 39.2472 59.9973 39.2369C60.018 39.2266 60.0387 39.2163 60.0594 39.206C60.0801 39.1957 60.1111 39.1957 60.1421 39.1957C60.1732 39.1957 60.1938 39.1957 60.2145 39.1957H60.8351V38.4856C60.8351 38.2901 60.8661 38.1151 60.9178 37.9504C60.9695 37.7858 61.0523 37.6417 61.166 37.5285C61.2695 37.405 61.4039 37.3123 61.5694 37.2506C61.7246 37.1786 61.9107 37.1477 62.1176 37.1477C62.3244 37.1477 62.5002 37.1786 62.6554 37.2506C62.8105 37.3123 62.945 37.405 63.0484 37.5285C63.1518 37.6417 63.2346 37.7858 63.2966 37.9504C63.3587 38.1151 63.3794 38.3004 63.3794 38.4959V39.1957C63.3794 39.206 63.3897 39.206 63.4 39.206H63.7414V39.8338H63.5035C63.3587 39.8338 63.2449 39.7926 63.1415 39.7103C63.0898 39.7515 63.0277 39.7721 62.9657 39.8029C62.9036 39.8235 62.8312 39.8338 62.7485 39.8338H62.1072C61.828 39.8235 61.5901 39.7515 61.3936 39.6177ZM61.859 37.8269C61.7866 37.8578 61.7349 37.9093 61.6935 37.971C61.6521 38.0328 61.6211 38.1151 61.6004 38.1974C61.5798 38.2798 61.5694 38.3827 61.5694 38.4753V38.5679C61.5694 38.7532 61.6108 38.8973 61.6935 39.0208C61.7763 39.1443 61.9211 39.1957 62.1072 39.1957H62.6347C62.645 39.1957 62.645 39.1957 62.645 39.1854V38.4856C62.645 38.393 62.6347 38.3003 62.6244 38.2077C62.614 38.1151 62.583 38.0431 62.5416 37.9813C62.5002 37.9196 62.4485 37.8681 62.3761 37.8269C62.3037 37.7858 62.221 37.7755 62.1176 37.7755C62.0141 37.7652 61.9211 37.7858 61.859 37.8269Z" fill="#2F2B73"/>
<path d="M63.6276 39.8129C63.5966 39.8129 63.5759 39.8129 63.5449 39.8026C63.5242 39.8026 63.5035 39.7923 63.4828 39.7717C63.4622 39.7614 63.4622 39.7409 63.4622 39.71V39.288C63.4622 39.2674 63.4725 39.2469 63.4932 39.2366C63.5139 39.2263 63.5346 39.216 63.5552 39.2057C63.5759 39.1954 63.607 39.1954 63.638 39.1954C63.669 39.1954 63.6897 39.1954 63.7104 39.1954H64.5274V36.1182H65.2514V39.1748C65.2514 39.1851 65.2618 39.1954 65.2721 39.1954H65.6651V39.8232H65.3755C65.2307 39.8232 65.0963 39.782 64.9929 39.6997C64.8894 39.782 64.7653 39.8232 64.6102 39.8232H63.7C63.6794 39.8232 63.6483 39.8129 63.6276 39.8129Z" fill="#2F2B73"/>
<path d="M66.3064 39.1851V36.1079H67.0201V39.1851C67.0201 39.2674 66.9994 39.3497 66.9683 39.4218C66.9373 39.5041 66.8856 39.5659 66.8339 39.6276C66.7718 39.6894 66.7098 39.7305 66.627 39.7614C66.5443 39.7923 66.4719 39.8129 66.3788 39.8129H65.6135C65.5928 39.8129 65.5617 39.8129 65.5307 39.8129C65.4997 39.8129 65.479 39.8129 65.448 39.8026C65.4273 39.8026 65.4066 39.7923 65.3859 39.7717C65.3652 39.7614 65.3652 39.7408 65.3652 39.7099V39.288C65.3652 39.2674 65.3756 39.2468 65.3963 39.2365C65.417 39.2262 65.4376 39.2159 65.4583 39.2057C65.479 39.1954 65.51 39.1954 65.5411 39.1954C65.5721 39.1954 65.5928 39.1954 65.6135 39.1954L66.3064 39.1851C66.3064 39.1954 66.3064 39.1954 66.3064 39.1851Z" fill="#2F2B73"/>
<path d="M73.0808 39.8236C72.998 39.8236 72.9153 39.803 72.8325 39.7721C72.7498 39.7413 72.6877 39.6898 72.636 39.6383C72.574 39.5766 72.5326 39.5148 72.5016 39.4325C72.4705 39.3502 72.4499 39.2781 72.4499 39.1958V37.8064H72.0465V39.1855C72.0465 39.2678 72.0258 39.3502 71.9948 39.4325C71.9638 39.5148 71.912 39.5766 71.8603 39.6383C71.7983 39.7001 71.7362 39.7413 71.6535 39.7721C71.5707 39.803 71.488 39.8236 71.4053 39.8236H69.8228C69.6367 39.8236 69.4712 39.7824 69.3264 39.7104C69.1816 39.6383 69.0575 39.5354 68.9644 39.4119C68.8713 39.2884 68.7886 39.1443 68.7472 38.9797C68.6955 38.815 68.6748 38.64 68.6748 38.4651C68.6748 38.2798 68.7058 38.1049 68.7679 37.9093C68.8299 37.7138 68.9334 37.5491 69.0885 37.3947H69.2333L69.4505 37.6109C69.5022 37.6623 69.5229 37.7241 69.5332 37.7858C69.5436 37.8476 69.5332 37.9196 69.5022 37.9814C69.4402 38.1049 69.4091 38.2592 69.4091 38.4548C69.4091 38.5474 69.4195 38.6297 69.4298 38.7224C69.4505 38.8047 69.4712 38.887 69.5126 38.9591C69.5539 39.0311 69.6056 39.0826 69.6677 39.1238C69.7298 39.1649 69.8125 39.1855 69.9056 39.1855H71.3122V37.8064C71.3122 37.7138 71.3329 37.6315 71.3639 37.5594C71.3949 37.4771 71.4466 37.4153 71.4983 37.3536C71.5604 37.2918 71.6225 37.2507 71.7052 37.2198C71.7879 37.1889 71.8603 37.1683 71.9534 37.1683H73.1635V39.1855H73.5669V39.8133H73.0808V39.8236ZM69.8642 40.6984C69.7918 40.6263 69.7504 40.5337 69.7504 40.4308C69.7504 40.3279 69.7918 40.2353 69.8642 40.1632C69.9366 40.0912 70.0297 40.05 70.1331 40.05C70.2365 40.05 70.3296 40.0912 70.402 40.1632C70.4744 40.2353 70.5158 40.3279 70.5158 40.4308C70.5158 40.5337 70.4744 40.6263 70.402 40.6984C70.3296 40.7704 70.2365 40.8116 70.1331 40.8116C70.0297 40.8013 69.9366 40.7704 69.8642 40.6984ZM70.7847 40.6984C70.7123 40.6263 70.6709 40.5337 70.6709 40.4308C70.6709 40.3279 70.7123 40.2353 70.7847 40.1632C70.8571 40.0912 70.9502 40.05 71.0536 40.05C71.157 40.05 71.2501 40.0912 71.3225 40.1632C71.3949 40.2353 71.4363 40.3279 71.4363 40.4308C71.4363 40.5337 71.3949 40.6263 71.3225 40.6984C71.2501 40.7704 71.157 40.8116 71.0536 40.8116C70.9502 40.8013 70.8571 40.7704 70.7847 40.6984Z" fill="#2F2B73"/>
<path d="M73.4531 39.8133C73.422 39.8133 73.4014 39.8133 73.3703 39.803C73.3497 39.803 73.329 39.7928 73.3083 39.7722C73.2876 39.7619 73.2876 39.7413 73.2876 39.7104V39.2885C73.2876 39.2679 73.2979 39.2473 73.3186 39.237C73.3393 39.2267 73.36 39.2164 73.3807 39.2061C73.4014 39.1958 73.4324 39.1958 73.4634 39.1958C73.4945 39.1958 73.5151 39.1958 73.5358 39.1958H74.3529C74.3632 39.1958 74.3632 39.1958 74.3632 39.1958V37.1787H75.0769V39.1958C75.0769 39.2782 75.0562 39.3605 75.0252 39.4325C74.9941 39.5149 74.9528 39.5766 74.8907 39.6384C74.8286 39.7001 74.7666 39.7413 74.6838 39.7722C74.6011 39.803 74.5287 39.8236 74.4356 39.8236H73.5255C73.5151 39.8236 73.4841 39.8133 73.4531 39.8133ZM74.446 36.7155C74.3736 36.6435 74.3322 36.5509 74.3322 36.448C74.3322 36.345 74.3736 36.2524 74.446 36.1804C74.5184 36.1083 74.6114 36.0672 74.7149 36.0672C74.8183 36.0672 74.9114 36.1083 74.9838 36.1804C75.0562 36.2524 75.0976 36.345 75.0976 36.448C75.0976 36.5509 75.0562 36.6435 74.9838 36.7155C74.9114 36.7876 74.8183 36.8287 74.7149 36.8287C74.6114 36.8185 74.5184 36.7876 74.446 36.7155Z" fill="#2F2B73"/>
<path d="M76.4213 39.8232C76.3385 39.8232 76.2558 39.8026 76.173 39.7717C76.0903 39.7409 76.0283 39.6894 75.9662 39.6379C75.9041 39.5762 75.8628 39.5144 75.8317 39.4321C75.8007 39.3498 75.78 39.2777 75.78 39.1954V36.1182H76.4937V39.1954C76.4937 39.1954 76.4937 39.1954 76.504 39.1954H76.9074V39.8232H76.4213Z" fill="#2F2B73"/>
<path d="M78.0142 39.6177C77.89 39.7515 77.7349 39.8132 77.5487 39.8132H76.7834C76.7627 39.8132 76.7317 39.8132 76.7006 39.8132C76.6696 39.8132 76.6489 39.8132 76.6179 39.8029C76.5972 39.8029 76.5765 39.7926 76.5558 39.7721C76.5352 39.7618 76.5352 39.7412 76.5352 39.7103V39.2884C76.5352 39.2678 76.5455 39.2472 76.5662 39.2369C76.5869 39.2266 76.6076 39.2163 76.6282 39.206C76.6489 39.1957 76.68 39.1957 76.711 39.1957C76.742 39.1957 76.7627 39.1957 76.7834 39.1957H77.4557V38.4856C77.4557 38.2901 77.4867 38.1151 77.5384 37.9504C77.5901 37.7858 77.6728 37.6417 77.7866 37.5285C77.89 37.405 78.0245 37.3123 78.19 37.2506C78.3451 37.1786 78.5313 37.1477 78.7381 37.1477C78.945 37.1477 79.1208 37.1786 79.2759 37.2506C79.4311 37.3123 79.5655 37.405 79.669 37.5285C79.7724 37.6417 79.8551 37.7858 79.9172 37.9504C79.9792 38.1151 79.9999 38.3004 79.9999 38.4959V39.1957C79.9999 39.3913 79.9379 39.5456 79.8241 39.6589C79.7103 39.7721 79.5552 39.8338 79.3587 39.8338H78.7174C78.4589 39.8235 78.2107 39.7515 78.0142 39.6177ZM79.2759 39.1751V38.4753C79.2759 38.3827 79.2656 38.2901 79.2553 38.1974C79.2449 38.1048 79.2139 38.0328 79.1725 37.971C79.1311 37.9093 79.0794 37.8578 79.007 37.8166C78.9346 37.7755 78.8519 37.7652 78.7485 37.7652C78.645 37.7652 78.5623 37.7858 78.4899 37.8166C78.4175 37.8475 78.3658 37.899 78.3244 37.9607C78.2831 38.0225 78.252 38.1048 78.2313 38.1871C78.2107 38.2695 78.2003 38.3724 78.2003 38.465V38.5576C78.2003 38.7429 78.2417 38.887 78.3244 39.0105C78.4072 39.134 78.552 39.1854 78.7381 39.1854H79.2656C79.2656 39.1957 79.2759 39.1854 79.2759 39.1751Z" fill="#2F2B73"/>
<path d="M49.9236 50.4436C49.8512 50.4436 49.7788 50.423 49.7167 50.3716C49.6547 50.423 49.5926 50.4436 49.5099 50.4436H48.2791C48.1653 50.4436 48.0723 50.423 47.9895 50.3818C47.9068 50.3407 47.8344 50.2892 47.7827 50.2172C47.731 50.1451 47.6896 50.0731 47.6586 49.9805C47.6275 49.8878 47.6172 49.7952 47.6172 49.6923C47.6172 49.5894 47.6379 49.4865 47.6689 49.3836C47.6999 49.2806 47.762 49.188 47.8447 49.0954H47.9275L48.0412 49.2189C48.0723 49.2498 48.0929 49.2806 48.0929 49.3218C48.0929 49.363 48.0826 49.4041 48.0619 49.4453C48.0309 49.5173 48.0206 49.5997 48.0206 49.6923C48.0206 49.7438 48.0205 49.7849 48.0309 49.8364C48.0412 49.8878 48.0516 49.929 48.0826 49.9702C48.1033 50.0113 48.1343 50.0422 48.1757 50.0628C48.2171 50.0834 48.2584 50.104 48.3205 50.104H49.4582V48.3853H49.8615V50.0937C49.8615 50.104 49.8615 50.104 49.8719 50.104H50.0891V50.4539H49.9236V50.4436ZM48.4653 49.4041C48.4653 49.3733 48.4653 49.3527 48.4653 49.3424C48.4653 49.3115 48.4756 49.2909 48.486 49.2806C48.4963 49.2703 48.5067 49.26 48.517 49.26H48.5273C48.517 49.2395 48.5066 49.2292 48.5066 49.1983C48.4963 49.1777 48.4963 49.1468 48.4963 49.1057C48.4963 49.0645 48.5067 49.0336 48.517 48.9925C48.5273 48.9616 48.548 48.9204 48.579 48.8895C48.6101 48.8587 48.6411 48.8381 48.6825 48.8175C48.7238 48.7969 48.7652 48.7866 48.8169 48.7866C48.8686 48.7866 48.91 48.7969 48.9617 48.8278C49.0134 48.8484 49.0445 48.8793 49.0858 48.9204C49.0858 48.9204 49.0755 48.9307 49.0755 48.941C49.0651 48.9513 49.0548 48.9616 49.0548 48.9822C49.0445 48.9925 49.0341 49.013 49.0341 49.0233C49.0238 49.0336 49.0238 49.0439 49.0238 49.0439C49.0134 49.0645 49.0031 49.0645 48.9824 49.0645C48.9721 49.0645 48.9514 49.0645 48.941 49.0542C48.9307 49.0439 48.91 49.0336 48.8997 49.0233C48.8893 49.013 48.8686 49.013 48.8376 49.013C48.8066 49.013 48.7859 49.0233 48.7652 49.0439C48.7445 49.0645 48.7342 49.0954 48.7342 49.1263C48.7342 49.1674 48.7445 49.188 48.7652 49.2086C48.7859 49.2292 48.8169 49.2395 48.8686 49.2395H49.1065V49.4762H48.6101C48.5894 49.4762 48.5687 49.4762 48.548 49.4659C48.5273 49.4556 48.5067 49.4556 48.486 49.4453C48.4653 49.4453 48.4653 49.4247 48.4653 49.4041Z" fill="#2F2B73"/>
<path d="M50.0166 50.4437C49.9959 50.4437 49.9855 50.4437 49.9752 50.4334C49.9649 50.4334 49.9545 50.4231 49.9442 50.4128C49.9338 50.4025 49.9338 50.3922 49.9338 50.3819V50.1452C49.9338 50.1349 49.9338 50.1246 49.9442 50.1143C49.9545 50.1041 49.9649 50.1041 49.9856 50.0938C49.9959 50.0938 50.0166 50.0835 50.0269 50.0835C50.0476 50.0835 50.0579 50.0835 50.0683 50.0835H50.7199V50.4334H50.0683C50.0476 50.4437 50.0373 50.4437 50.0166 50.4437Z" fill="#2F2B73"/>
<path d="M50.6374 50.4437C50.6167 50.4437 50.6064 50.4437 50.5961 50.4334C50.5857 50.4334 50.5754 50.4231 50.565 50.4128C50.5547 50.4025 50.5547 50.3922 50.5547 50.3819V50.1452C50.5547 50.1349 50.5547 50.1246 50.565 50.1143C50.5754 50.1041 50.5857 50.1041 50.6064 50.0938C50.6167 50.0938 50.6374 50.0835 50.6478 50.0835C50.6685 50.0835 50.6788 50.0835 50.6891 50.0835H51.3407V50.4334H50.6891C50.6685 50.4437 50.6581 50.4437 50.6374 50.4437Z" fill="#2F2B73"/>
<path d="M51.2578 50.4437C51.2371 50.4437 51.2268 50.4437 51.2164 50.4334C51.2061 50.4334 51.1957 50.4231 51.1854 50.4128C51.175 50.4025 51.175 50.3922 51.175 50.3819V50.1452C51.175 50.1349 51.175 50.1246 51.1854 50.1143C51.1957 50.1041 51.2061 50.1041 51.2268 50.0938C51.2371 50.0938 51.2578 50.0835 51.2681 50.0835C51.2888 50.0835 51.2992 50.0835 51.3095 50.0835H51.9611V50.4334H51.3095C51.2888 50.4437 51.2785 50.4437 51.2578 50.4437Z" fill="#2F2B73"/>
<path d="M51.8886 50.4437C51.868 50.4437 51.8576 50.4437 51.8473 50.4334C51.8369 50.4334 51.8266 50.4231 51.8162 50.4128C51.8059 50.4025 51.8059 50.3922 51.8059 50.3819V50.1452C51.8059 50.1349 51.8059 50.1246 51.8162 50.1143C51.8266 50.1041 51.8369 50.1041 51.8576 50.0938C51.868 50.0938 51.8887 50.0835 51.899 50.0835C51.9197 50.0835 51.93 50.0835 51.9404 50.0835H52.5919V50.4334H51.9404C51.9093 50.4437 51.899 50.4437 51.8886 50.4437Z" fill="#2F2B73"/>
<path d="M52.5093 50.4437C52.4886 50.4437 52.4782 50.4437 52.4679 50.4334C52.4575 50.4334 52.4472 50.4231 52.4369 50.4128C52.4265 50.4025 52.4265 50.3922 52.4265 50.3819V50.1452C52.4265 50.1349 52.4265 50.1246 52.4369 50.1143C52.4472 50.104 52.4575 50.104 52.4782 50.0937C52.4886 50.0937 52.5093 50.0835 52.5196 50.0835C52.5403 50.0835 52.5506 50.0835 52.561 50.0835H53.016V48.9617H53.4194V50.0732C53.4194 50.0835 53.4194 50.0835 53.4297 50.0835H53.6469V50.4334H53.4815C53.3987 50.4334 53.3263 50.4128 53.2746 50.3613C53.2126 50.4128 53.1505 50.4334 53.0678 50.4334H52.561C52.5403 50.4437 52.5196 50.4437 52.5093 50.4437ZM53.0574 50.9377C53.016 50.8965 52.9954 50.845 52.9954 50.7936C52.9954 50.7318 53.016 50.6804 53.0574 50.6392C53.0988 50.598 53.1505 50.5775 53.2125 50.5775C53.2746 50.5775 53.316 50.598 53.3573 50.6392C53.3987 50.6804 53.4194 50.7318 53.4194 50.7936C53.4194 50.8553 53.3987 50.8965 53.3573 50.9377C53.316 50.9788 53.2643 50.9994 53.2125 50.9994C53.1505 50.9994 53.0988 50.9788 53.0574 50.9377Z" fill="#2F2B73"/>
<path d="M53.5744 50.4435C53.5538 50.4435 53.5434 50.4435 53.5331 50.4332C53.5227 50.4332 53.5124 50.423 53.502 50.4127C53.4917 50.4024 53.4917 50.3921 53.4917 50.3818V50.1451C53.4917 50.1348 53.4917 50.1245 53.502 50.1142C53.5124 50.1039 53.5227 50.1039 53.5434 50.0936C53.5538 50.0936 53.5744 50.0833 53.5848 50.0833C53.6055 50.0833 53.6158 50.0833 53.6262 50.0833H54.0812H54.0916V48.9615H54.4949V50.0833C54.4949 50.1348 54.4846 50.1759 54.4639 50.2171C54.4432 50.2583 54.4225 50.2995 54.3915 50.3303C54.3605 50.3612 54.3191 50.3921 54.2777 50.4024C54.2364 50.4127 54.1847 50.4332 54.1433 50.4332H53.6158C53.6055 50.4435 53.5848 50.4435 53.5744 50.4435ZM54.1226 48.7248C54.0812 48.6837 54.0605 48.6322 54.0605 48.5807C54.0605 48.519 54.0812 48.4675 54.1226 48.4264C54.164 48.3852 54.2157 48.3646 54.2777 48.3646C54.3398 48.3646 54.3812 48.3852 54.4225 48.4264C54.4639 48.4675 54.4846 48.519 54.4846 48.5807C54.4846 48.6425 54.4639 48.6837 54.4225 48.7248C54.3812 48.766 54.3295 48.7866 54.2777 48.7866C54.2157 48.7866 54.164 48.766 54.1226 48.7248Z" fill="#2F2B73"/>
<path d="M55.2188 50.4438C55.1671 50.4438 55.1258 50.4335 55.0844 50.413C55.043 50.3924 55.0016 50.3718 54.9706 50.3409C54.9396 50.31 54.9086 50.2689 54.8982 50.2277C54.8879 50.1865 54.8672 50.1351 54.8672 50.0939V48.3855H55.2706V50.0939C55.2706 50.0939 55.2705 50.0939 55.2809 50.0939H55.5084V50.4438H55.2188Z" fill="#2F2B73"/>
<path d="M55.4156 50.4442C55.4053 50.4442 55.3846 50.4442 55.3742 50.4442C55.3536 50.4442 55.3432 50.4442 55.3329 50.4339C55.3225 50.4339 55.3122 50.4236 55.3018 50.4133C55.2915 50.403 55.2915 50.3927 55.2915 50.3824V50.1457C55.2915 50.1354 55.2915 50.1252 55.3018 50.1149C55.3122 50.1046 55.3225 50.1046 55.3432 50.0943C55.3536 50.0943 55.3742 50.084 55.3846 50.084C55.4053 50.084 55.4156 50.084 55.426 50.084H56.6878C56.636 49.9193 56.5947 49.7855 56.574 49.6826C56.543 49.5797 56.5223 49.5076 56.5119 49.4768C56.4912 49.4253 56.4602 49.3841 56.4188 49.343C56.3775 49.3121 56.3154 49.2915 56.2327 49.2915C56.1913 49.2915 56.1499 49.2915 56.1293 49.3018C56.0982 49.3121 56.0672 49.3224 56.0362 49.3533C56.0051 49.3842 55.9638 49.3944 55.9327 49.3944C55.8914 49.3944 55.85 49.3739 55.819 49.3224C55.819 49.3224 55.8086 49.3121 55.7983 49.2915C55.7879 49.2812 55.7776 49.2607 55.7673 49.2504C55.7569 49.2298 55.7466 49.2195 55.7362 49.2092C55.7259 49.1989 55.7155 49.1886 55.7155 49.1886C55.881 49.0239 56.0672 48.9416 56.2534 48.9416C56.4085 48.9416 56.543 48.9828 56.6567 49.0651C56.7705 49.1474 56.8532 49.2606 56.9049 49.415C56.9049 49.4253 56.9153 49.4459 56.9256 49.4768C56.936 49.4974 56.9463 49.5282 56.9463 49.5591L57.0704 49.9502C57.0808 49.9811 57.0911 50.0119 57.0911 50.0325C57.1015 50.0531 57.1015 50.0737 57.1118 50.0943H57.1635V50.4442H55.4156ZM56.0982 50.9382C56.0569 50.897 56.0362 50.8456 56.0362 50.7941C56.0362 50.7324 56.0569 50.6809 56.0982 50.6397C56.1396 50.5986 56.1913 50.578 56.2534 50.578C56.3154 50.578 56.3568 50.5986 56.3982 50.6397C56.4395 50.6809 56.4602 50.7324 56.4602 50.7941C56.4602 50.8559 56.4395 50.897 56.3982 50.9382C56.3568 50.9794 56.3051 50.9999 56.2534 50.9999C56.1913 50.9999 56.1396 50.9794 56.0982 50.9382Z" fill="#2F2B73"/>
<path d="M57.0805 50.4437C57.0599 50.4437 57.0495 50.4437 57.0392 50.4334C57.0288 50.4334 57.0185 50.4231 57.0081 50.4128C56.9978 50.4025 56.9978 50.3922 56.9978 50.3819V50.1452C56.9978 50.1349 56.9978 50.1246 57.0081 50.1143C57.0185 50.104 57.0288 50.104 57.0495 50.0937C57.0599 50.0937 57.0805 50.0835 57.0909 50.0835C57.1116 50.0835 57.1219 50.0835 57.1323 50.0835H57.5873H57.5977V48.9617H58.001V50.0835C58.001 50.1349 57.9907 50.1761 57.97 50.2172C57.9493 50.2584 57.9286 50.2996 57.8976 50.3305C57.8666 50.3613 57.8252 50.3922 57.7838 50.4025C57.7425 50.4128 57.6908 50.4334 57.6494 50.4334H57.1426C57.1116 50.4437 57.0909 50.4437 57.0805 50.4437ZM57.608 50.9377C57.5666 50.8965 57.546 50.845 57.546 50.7936C57.546 50.7318 57.5666 50.6804 57.608 50.6392C57.6494 50.598 57.7011 50.5775 57.7632 50.5775C57.8252 50.5775 57.8666 50.598 57.908 50.6392C57.9493 50.6804 57.97 50.7318 57.97 50.7936C57.97 50.8553 57.9493 50.8965 57.908 50.9377C57.8666 50.9788 57.8149 50.9994 57.7632 50.9994C57.7011 50.9994 57.6494 50.9788 57.608 50.9377Z" fill="#2F2B73"/>
<path d="M59.5527 50.4435C59.4493 50.4435 59.3562 50.423 59.2735 50.3818C59.1907 50.3406 59.1183 50.2892 59.0666 50.2171C59.0149 50.1451 58.9632 50.073 58.9425 49.9804C58.9115 49.8878 58.9011 49.7952 58.9011 49.6922C58.9011 49.5893 58.9218 49.4864 58.9528 49.3835C58.9839 49.2806 59.0459 49.1879 59.1287 49.0953H59.2114L59.3252 49.2188C59.3562 49.2497 59.3769 49.2909 59.3769 49.332C59.3769 49.3732 59.3665 49.4144 59.3459 49.4555C59.3148 49.5276 59.3045 49.5996 59.3045 49.6922C59.3045 49.7437 59.3045 49.7952 59.3148 49.8466C59.3252 49.8981 59.3355 49.9392 59.3665 49.9804C59.3872 50.0216 59.4183 50.0525 59.4596 50.073C59.501 50.0936 59.5424 50.1039 59.6044 50.1039H60.1526C60.0905 49.9907 60.0595 49.8569 60.0595 49.7128C60.0595 49.6099 60.0698 49.507 60.1009 49.4144C60.1319 49.3217 60.1733 49.2394 60.2353 49.1777C60.2974 49.1159 60.3698 49.0542 60.4629 49.0233C60.5559 48.9821 60.649 48.9615 60.7731 48.9615C60.8869 48.9615 60.9903 48.9821 61.0731 49.013C61.1558 49.0439 61.2386 49.0953 61.2903 49.1674C61.3523 49.2291 61.3937 49.3114 61.4247 49.4041C61.4557 49.4967 61.4661 49.5996 61.4661 49.7128V50.1039H61.6729V50.4538H59.5527V50.4435ZM61.0627 49.7025C61.0627 49.6511 61.0627 49.5996 61.0524 49.5482C61.042 49.4967 61.0317 49.4555 61.0007 49.4247C60.9696 49.3938 60.949 49.3629 60.9076 49.3423C60.8662 49.3217 60.8248 49.3114 60.7628 49.3114C60.7111 49.3114 60.6594 49.3217 60.618 49.3423C60.5766 49.3629 60.5456 49.3938 60.5249 49.4247C60.5042 49.4658 60.4835 49.507 60.4732 49.5482C60.4629 49.5893 60.4629 49.6511 60.4629 49.7025C60.4629 49.754 60.4629 49.8054 60.4732 49.8569C60.4835 49.9084 60.5042 49.9495 60.5249 49.9804C60.5456 50.0113 60.5766 50.0422 60.618 50.0627C60.6594 50.0833 60.7007 50.0936 60.7628 50.0936H61.0627V49.7025ZM60.618 48.7248C60.5766 48.6837 60.5559 48.6322 60.5559 48.5807C60.5559 48.519 60.5766 48.4675 60.618 48.4264C60.6594 48.3852 60.7111 48.3646 60.7731 48.3646C60.8352 48.3646 60.8766 48.3852 60.9179 48.4264C60.9593 48.4675 60.98 48.519 60.98 48.5807C60.98 48.6425 60.9593 48.6837 60.9179 48.7248C60.8766 48.766 60.8249 48.7866 60.7731 48.7866C60.7111 48.7866 60.6594 48.766 60.618 48.7248Z" fill="#2F2B73"/>
<path d="M61.6003 50.4437C61.5796 50.4437 61.5693 50.4437 61.5589 50.4334C61.5486 50.4334 61.5383 50.4231 61.5279 50.4128C61.5176 50.4025 61.5176 50.3922 61.5176 50.3819V50.1452C61.5176 50.1349 61.5176 50.1246 61.5279 50.1143C61.5383 50.1041 61.5486 50.1041 61.5693 50.0938C61.5796 50.0938 61.6003 50.0835 61.6107 50.0835C61.6313 50.0835 61.6417 50.0835 61.652 50.0835H62.3036V50.4334H61.652C61.6313 50.4437 61.621 50.4437 61.6003 50.4437Z" fill="#2F2B73"/>
<path d="M62.2207 50.4437C62.2 50.4437 62.1896 50.4437 62.1793 50.4334C62.169 50.4334 62.1586 50.4231 62.1483 50.4128C62.1379 50.4025 62.1379 50.3922 62.1379 50.3819V50.1452C62.1379 50.1349 62.1379 50.1246 62.1483 50.1143C62.1586 50.1041 62.169 50.1041 62.1897 50.0938C62.2 50.0938 62.2207 50.0835 62.231 50.0835C62.2517 50.0835 62.262 50.0835 62.2724 50.0835H62.924V50.4334H62.2724C62.2517 50.4437 62.2414 50.4437 62.2207 50.4437Z" fill="#2F2B73"/>
<path d="M62.8932 50.4435C62.8828 50.4435 62.8621 50.4435 62.8518 50.4435C62.8311 50.4435 62.8208 50.4435 62.8104 50.4332C62.8001 50.4332 62.7897 50.423 62.7794 50.4127C62.769 50.4024 62.769 50.3921 62.769 50.3818V50.1451C62.769 50.1348 62.769 50.1245 62.7794 50.1142C62.7897 50.1039 62.8001 50.1039 62.8208 50.0936C62.8311 50.0936 62.8518 50.0833 62.8621 50.0833C62.8828 50.0833 62.8932 50.0833 62.9035 50.0833H63.2965C63.2345 49.9701 63.2034 49.8363 63.2034 49.6819C63.2034 49.579 63.2138 49.4761 63.2448 49.3835C63.2758 49.2909 63.3172 49.2188 63.3793 49.1468C63.4413 49.0747 63.5137 49.0233 63.5965 48.9924C63.6895 48.9512 63.7826 48.9409 63.8964 48.9409C64.0102 48.9409 64.1136 48.9615 64.1963 48.9924C64.2894 49.0336 64.3618 49.0747 64.4239 49.1468C64.4859 49.2188 64.5273 49.2909 64.5583 49.3835C64.5893 49.4761 64.61 49.579 64.61 49.6922V50.0833H64.8065V50.4332H62.8932V50.4435ZM63.493 48.7248C63.4517 48.6837 63.431 48.6322 63.431 48.5807C63.431 48.519 63.4517 48.4675 63.493 48.4264C63.5344 48.3852 63.5861 48.3646 63.6482 48.3646C63.7102 48.3646 63.7516 48.3852 63.793 48.4264C63.8343 48.4675 63.855 48.519 63.855 48.5807C63.855 48.6425 63.8343 48.6837 63.793 48.7248C63.7516 48.766 63.6999 48.7866 63.6482 48.7866C63.5861 48.7866 63.5344 48.766 63.493 48.7248ZM64.1963 49.7025C64.1963 49.6511 64.1963 49.5996 64.186 49.5482C64.1756 49.4967 64.1653 49.4555 64.1343 49.4247C64.1032 49.3938 64.0826 49.3629 64.0412 49.3423C63.9998 49.3217 63.9584 49.3114 63.8964 49.3114C63.8447 49.3114 63.793 49.3217 63.7516 49.3423C63.7102 49.3629 63.6792 49.3938 63.6585 49.4247C63.6378 49.4555 63.6171 49.4967 63.6068 49.5482C63.5964 49.5996 63.5965 49.6511 63.5965 49.7025C63.5965 49.754 63.5964 49.8054 63.6068 49.8569C63.6171 49.9084 63.6378 49.9495 63.6585 49.9804C63.6792 50.0216 63.7102 50.0422 63.7516 50.0627C63.793 50.0833 63.8343 50.0936 63.8964 50.0936H64.1963V49.7025ZM63.9998 48.7248C63.9584 48.6837 63.9378 48.6322 63.9378 48.5807C63.9378 48.519 63.9584 48.4675 63.9998 48.4264C64.0412 48.3852 64.0929 48.3646 64.155 48.3646C64.217 48.3646 64.2584 48.3852 64.2997 48.4264C64.3411 48.4675 64.3618 48.519 64.3618 48.5807C64.3618 48.6425 64.3411 48.6837 64.2997 48.7248C64.2584 48.766 64.2067 48.7866 64.155 48.7866C64.0929 48.7866 64.0412 48.766 63.9998 48.7248Z" fill="#2F2B73"/>
<path d="M64.7341 50.4435C64.7134 50.4435 64.7031 50.4435 64.6927 50.4332C64.6824 50.4332 64.672 50.423 64.6617 50.4127C64.6514 50.4024 64.6514 50.3921 64.6514 50.3818V50.1451C64.6514 50.1348 64.6514 50.1245 64.6617 50.1142C64.672 50.1039 64.6824 50.1039 64.7031 50.0936C64.7134 50.0936 64.7341 50.0833 64.7444 50.0833C64.7651 50.0833 64.7755 50.0833 64.7858 50.0833H65.2409H65.2512V48.9615H65.6546V50.0833C65.6546 50.1348 65.6443 50.1759 65.6236 50.2171C65.6029 50.2583 65.5822 50.2995 65.5512 50.3303C65.5201 50.3612 65.4788 50.3921 65.4374 50.4024C65.396 50.4127 65.3443 50.4332 65.3029 50.4332H64.7962C64.7651 50.4435 64.7548 50.4435 64.7341 50.4435ZM65.2823 48.7248C65.2409 48.6837 65.2202 48.6322 65.2202 48.5807C65.2202 48.519 65.2409 48.4675 65.2823 48.4264C65.3236 48.3852 65.3753 48.3646 65.4374 48.3646C65.4995 48.3646 65.5408 48.3852 65.5822 48.4264C65.6236 48.4675 65.6443 48.519 65.6443 48.5807C65.6443 48.6425 65.6236 48.6837 65.5822 48.7248C65.5408 48.766 65.4891 48.7866 65.4374 48.7866C65.3753 48.7866 65.3236 48.766 65.2823 48.7248Z" fill="#2F2B73"/>
<path d="M15.2864 50.3617C15.1726 50.2999 15.0692 50.2279 14.9761 50.1353L15.0795 49.9603C15.1002 49.9294 15.1105 49.9191 15.1312 49.9089C15.1519 49.8986 15.1726 49.8883 15.1933 49.8883C15.2243 49.8883 15.245 49.8986 15.2657 49.9089C15.2864 49.9191 15.3174 49.9397 15.3381 49.9603C15.3898 50.0015 15.4415 50.0221 15.4932 50.0426C15.5346 50.0632 15.5966 50.0735 15.6587 50.0735C15.7518 50.0735 15.8242 50.0529 15.8759 50.0015C15.9276 49.9603 15.9586 49.8986 15.9586 49.8162C15.9586 49.7854 15.9483 49.7545 15.9276 49.7236C15.9069 49.703 15.8862 49.6721 15.8552 49.6619C15.8242 49.6413 15.7931 49.631 15.7518 49.6207C15.7104 49.6104 15.669 49.6001 15.6277 49.5795C15.5553 49.5589 15.4932 49.5384 15.4208 49.5075C15.3484 49.4766 15.2967 49.4457 15.2346 49.4046C15.1829 49.3634 15.1312 49.3016 15.1002 49.2399C15.0692 49.1781 15.0485 49.0855 15.0485 48.9826C15.0485 48.89 15.0692 48.8076 15.1002 48.7356C15.1312 48.6636 15.1829 48.6018 15.245 48.5503C15.307 48.4989 15.3794 48.4577 15.4518 48.4371C15.5346 48.4063 15.6173 48.396 15.7001 48.396C15.9276 48.396 16.1344 48.4783 16.3103 48.6533L16.2172 48.8282C16.1862 48.89 16.1448 48.9106 16.1034 48.9106C16.0827 48.9106 16.0517 48.9003 16.0207 48.89C15.9896 48.8797 15.969 48.8591 15.9483 48.8488C15.9276 48.8385 15.9069 48.8179 15.8862 48.8076C15.8655 48.7973 15.8345 48.7871 15.8138 48.7768C15.7828 48.7665 15.7518 48.7665 15.7104 48.7665C15.6277 48.7665 15.5656 48.7871 15.5139 48.8282C15.4725 48.8694 15.4518 48.9106 15.4518 48.9723C15.4518 49.0032 15.4622 49.0238 15.4829 49.0546C15.5035 49.0855 15.5242 49.0958 15.5553 49.1164C15.5863 49.137 15.6173 49.1473 15.6587 49.1678C15.7001 49.1781 15.7414 49.1987 15.7828 49.209C15.8552 49.2296 15.9173 49.2502 15.9897 49.2811C16.062 49.3119 16.1241 49.3428 16.1758 49.384C16.2275 49.4251 16.2689 49.4766 16.3103 49.5384C16.3516 49.6001 16.362 49.6824 16.362 49.7853C16.362 49.8883 16.3413 49.9809 16.3103 50.0632C16.2792 50.1456 16.2275 50.2176 16.1655 50.2691C16.1034 50.3308 16.031 50.372 15.9379 50.4029C15.8552 50.4337 15.7621 50.444 15.6587 50.444C15.5242 50.444 15.4001 50.4234 15.2864 50.3617Z" fill="#2F2B73"/>
<path d="M17.1375 50.4237V48.7976H16.5376V48.4168H18.151V48.7976H17.5512V50.4237H17.1375Z" fill="#2F2B73"/>
<path d="M19.2062 48.4168L20.0026 50.4237H19.6923C19.6096 50.4237 19.5579 50.3825 19.5268 50.3105L19.382 49.9297H18.6684L18.5236 50.3208C18.5133 50.3517 18.4926 50.3825 18.4616 50.4031C18.4305 50.4237 18.3995 50.434 18.3581 50.434H18.0479L18.8546 48.4271H19.2062V48.4168ZM19.2476 49.5798L19.0304 49.0137L18.8132 49.5798H19.2476Z" fill="#2F2B73"/>
<path d="M20.54 48.4368C20.5607 48.4471 20.5814 48.4677 20.6021 48.4986L21.5122 49.6821C21.5122 49.6616 21.5122 49.6513 21.5122 49.6307V49.5689V48.4266H21.9052V50.4334H21.6984C21.657 50.4334 21.626 50.4231 21.6053 50.4129C21.5846 50.4026 21.5639 50.382 21.5329 50.3511L20.6228 49.1676V50.4334H20.2297V48.4266H20.4469C20.4883 48.4163 20.5193 48.4266 20.54 48.4368Z" fill="#2F2B73"/>
<path d="M22.2673 48.4168H23.043C23.1982 48.4168 23.3326 48.4374 23.4464 48.4889C23.5602 48.5403 23.6739 48.6021 23.7567 48.6947C23.8394 48.7873 23.9118 48.8902 23.9635 49.0137C24.0152 49.1372 24.0359 49.271 24.0359 49.4254C24.0359 49.5695 24.0152 49.7033 23.9635 49.8268C23.9118 49.9503 23.8498 50.0532 23.7567 50.1458C23.6739 50.2385 23.5602 50.3002 23.4464 50.3517C23.3326 50.4031 23.1878 50.4237 23.043 50.4237H22.2673V48.4168ZM23.4567 49.8885C23.5602 49.7753 23.6119 49.621 23.6119 49.4254C23.6119 49.2299 23.5602 49.0755 23.4567 48.9623C23.3533 48.8491 23.2189 48.7976 23.043 48.7976H22.6914V50.0635H23.043C23.2189 50.0532 23.3533 50.0017 23.4567 49.8885Z" fill="#2F2B73"/>
<path d="M24.3669 50.4237V48.4168H24.791V50.4237H24.3669Z" fill="#2F2B73"/>
<path d="M25.4531 48.4368C25.4738 48.4471 25.4945 48.4677 25.5152 48.4986L26.4253 49.6821C26.4253 49.6616 26.4253 49.6513 26.4253 49.6307V49.5689V48.4266H26.8183V50.4334H26.6115C26.5701 50.4334 26.5391 50.4231 26.5184 50.4129C26.4977 50.4026 26.477 50.382 26.446 50.3511L25.5358 49.1676V50.4334H25.1428V48.4266H25.36C25.4014 48.4163 25.4324 48.4266 25.4531 48.4368Z" fill="#2F2B73"/>
<path d="M27.7696 50.3725C27.6351 50.321 27.5317 50.2592 27.4386 50.1666C27.3455 50.074 27.2731 49.9711 27.2214 49.8476C27.1697 49.7241 27.1387 49.58 27.1387 49.4256C27.1387 49.2712 27.1594 49.1272 27.2111 49.0037C27.2628 48.8802 27.3352 48.767 27.4179 48.6846C27.5007 48.6023 27.6144 48.5302 27.7385 48.4788C27.8627 48.4273 28.0074 48.4067 28.1626 48.4067C28.4522 48.4067 28.7107 48.5097 28.9279 48.7052C28.9073 48.7361 28.8866 48.767 28.8762 48.7978C28.8555 48.8287 28.8452 48.8596 28.8245 48.8802C28.8038 48.911 28.7831 48.9316 28.7625 48.9419C28.7418 48.9522 28.7211 48.9625 28.7004 48.9625C28.6901 48.9625 28.6694 48.9625 28.659 48.9522C28.628 48.9419 28.597 48.9213 28.5659 48.911C28.5349 48.8904 28.5039 48.8802 28.4729 48.8596C28.4418 48.839 28.4005 48.8287 28.3488 48.8184C28.297 48.8081 28.235 48.7978 28.1626 48.7978C28.0695 48.7978 27.9868 48.8081 27.9144 48.839C27.842 48.8699 27.7799 48.911 27.7282 48.9728C27.6765 49.0345 27.6351 49.0963 27.6041 49.1786C27.5731 49.261 27.5627 49.3433 27.5627 49.4462C27.5627 49.652 27.6144 49.8064 27.7282 49.9299C27.842 50.0431 27.9971 50.1049 28.1833 50.1049C28.2453 50.1049 28.3074 50.0946 28.3694 50.0843C28.4315 50.074 28.4729 50.0534 28.5246 50.0328V49.7652H28.3177C28.2764 49.7652 28.2453 49.755 28.2143 49.7344C28.1936 49.7138 28.1729 49.6829 28.1729 49.6417V49.4153H28.9073V50.249C28.7935 50.3313 28.6797 50.393 28.5659 50.4342C28.4418 50.4754 28.3177 50.496 28.1833 50.496C28.0488 50.4445 27.904 50.4239 27.7696 50.3725Z" fill="#2F2B73"/>
<path d="M30.1177 48.4168C30.2107 48.4168 30.2624 48.458 30.2831 48.5403L30.6244 49.6724L31.0175 48.53C31.0278 48.4992 31.0485 48.4683 31.0795 48.4477C31.1105 48.4271 31.1416 48.4168 31.1829 48.4168H31.2553C31.3381 48.4168 31.4001 48.458 31.4208 48.53L31.8138 49.6724L32.1551 48.53C32.1655 48.4992 32.1862 48.4683 32.2172 48.4477C32.2482 48.4271 32.2793 48.4168 32.3206 48.4168H32.6309L32 50.4237H31.6587L31.2243 49.127L30.7899 50.4237H30.4383L29.8074 48.4168H30.1177Z" fill="#2F2B73"/>
<path d="M32.8376 50.4237V48.4168H33.2617V50.4237H32.8376Z" fill="#2F2B73"/>
<path d="M34.1616 50.4237V48.7976H33.5618V48.4168H35.1752V48.7976H34.5753V50.4237H34.1616Z" fill="#2F2B73"/>
<path d="M36.7263 50.4237V49.5901H35.8989V50.4237H35.4749V48.4168H35.8989V49.2402H36.7263V48.4168H37.1504V50.4237H36.7263Z" fill="#2F2B73"/>
<path d="M38.3917 48.4168C38.4641 48.4168 38.5158 48.4477 38.5468 48.5197L38.9709 49.2299L39.3949 48.5197C39.4156 48.4889 39.4363 48.458 39.457 48.4477C39.4777 48.4271 39.5087 48.4168 39.5501 48.4168H39.9224L39.1777 49.6312V50.4237H38.7537V49.6312L38.009 48.4168H38.3917Z" fill="#2F2B73"/>
<path d="M40.5221 50.3721C40.3979 50.3207 40.2945 50.2486 40.2118 50.156C40.129 50.0634 40.0566 49.9605 40.0153 49.8267C39.9636 49.7032 39.9429 49.5694 39.9429 49.415C39.9429 49.2606 39.9636 49.1269 40.0153 49.0034C40.067 48.8799 40.129 48.7666 40.2118 48.674C40.2945 48.5814 40.3979 48.5094 40.5221 48.4579C40.6462 48.4064 40.7806 48.3858 40.9358 48.3858C41.0909 48.3858 41.2254 48.4064 41.3495 48.4579C41.4736 48.5094 41.577 48.5814 41.6597 48.674C41.7425 48.7666 41.8149 48.8696 41.8563 49.0034C41.908 49.1269 41.9287 49.2606 41.9287 49.415C41.9287 49.5694 41.908 49.7032 41.8563 49.8267C41.8045 49.9502 41.7425 50.0634 41.6597 50.156C41.577 50.2486 41.4632 50.3207 41.3495 50.3721C41.2357 50.4236 41.0909 50.4442 40.9358 50.4442C40.7806 50.4442 40.6462 50.4236 40.5221 50.3721ZM41.3495 49.8884C41.4529 49.7752 41.5046 49.6209 41.5046 49.4253C41.5046 49.2195 41.4529 49.0651 41.3495 48.9519C41.246 48.8387 41.1116 48.7872 40.9358 48.7872C40.7599 48.7872 40.6255 48.8387 40.5221 48.9519C40.4186 49.0651 40.3669 49.2195 40.3669 49.4253C40.3669 49.6209 40.4186 49.7855 40.5221 49.8884C40.6255 50.0016 40.7599 50.0531 40.9358 50.0531C41.1116 50.0634 41.246 50.0016 41.3495 49.8884Z" fill="#2F2B73"/>
<path d="M42.7354 50.3825C42.6319 50.3414 42.5492 50.2796 42.4768 50.2076C42.4044 50.1355 42.3527 50.0429 42.3113 49.9503C42.27 49.8577 42.2493 49.7445 42.2493 49.621V48.4168H42.663V49.621C42.663 49.6827 42.6733 49.7445 42.694 49.7959C42.7147 49.8474 42.7354 49.8988 42.7767 49.94C42.8078 49.9812 42.8491 50.012 42.9009 50.0326C42.9526 50.0532 43.0043 50.0635 43.0663 50.0635C43.1904 50.0635 43.2939 50.0223 43.3663 49.94C43.4387 49.8577 43.4697 49.7547 43.4697 49.621V48.4168H43.8937V49.621C43.8937 49.7342 43.8731 49.8474 43.842 49.9503C43.8007 50.0532 43.7489 50.1355 43.6766 50.2076C43.6042 50.2796 43.5214 50.3414 43.418 50.3825C43.3146 50.4237 43.2008 50.4443 43.0767 50.4443C42.9422 50.4443 42.8388 50.4237 42.7354 50.3825Z" fill="#2F2B73"/>
<path d="M45.5901 50.6392V48.0663H45.9314V50.6392H45.5901Z" fill="#2F2B73"/>
</svg>
