<svg width="313" height="283" viewBox="0 0 313 283" fill="none" xmlns="http://www.w3.org/2000/svg">
<g opacity="0.1">
<path d="M120.314 1.98974C115.363 4.33667 110.896 6.34775 106.562 8.52879C85.1157 19.3287 73.8498 37.6794 70.8155 62.1603C67.9183 85.5245 67.9223 109.981 67.8618 134.397C67.7448 182.412 67.9304 230.533 68.1806 278.677C68.1967 282.052 66.97 283.015 63.4232 282.983C42.4812 282.801 21.6522 282.894 0.690025 282.894C0.419675 282.396 -0.00400646 281.914 2.86113e-05 281.583C0.625464 217.592 -0.867511 152.857 1.23879 89.3848C1.84405 71.1313 3.8172 53.5778 12.3312 39.2372C25.8931 16.387 48.9293 4.37309 79.4303 0.889103C92.1247 -0.559523 105.501 -0.268177 120.314 1.98569V1.98974Z" fill="#736FC4" fill-opacity="0.45"/>
<path d="M203.17 1.96534C198.767 3.98047 195.011 5.65569 191.31 7.39971C167.076 18.8309 155.33 39.3706 152.885 66.7974C149.858 100.771 150.468 136.056 150.423 171.107C150.375 206.853 150.613 242.696 150.875 278.548C150.899 281.752 149.983 283.043 146.251 282.999C126.193 282.76 106.255 282.837 86.3342 282.938C83.3926 282.954 82.5573 282.537 82.5775 279.543C83.0536 216.196 82.2708 152.408 83.6993 89.3968C84.1108 71.2283 86.4875 53.9257 94.7634 39.6296C108.293 16.2655 131.571 4.00475 162.799 0.844477C175.336 -0.426105 188.498 -0.017417 203.17 1.96129V1.96534Z" fill="#736FC4" fill-opacity="0.45"/>
<path d="M246.018 282.878C245.994 256.628 246.054 231.12 245.925 205.546C245.735 168.748 246.474 132.261 245.126 95.0701C244.69 83.0076 243.04 70.6458 237.621 57.5717C231.245 42.1871 220.06 29.3559 204.626 19.1629C199.514 15.7882 200.853 15.0274 203.23 13.3401C221.662 0.257921 264.172 5.03272 293.527 47.0429C306.084 65.0131 310.333 82.5666 311.785 99.853C313.932 125.422 312.552 149.822 312.681 174.72C312.863 209.58 312.613 244.295 312.528 279.066C312.524 280.895 313.206 282.967 310.131 282.946C288.939 282.813 267.827 282.878 246.014 282.878H246.018Z" fill="#736FC4" fill-opacity="0.45"/>
<path d="M165.296 282.886C165.216 265.352 165.042 248.471 165.075 231.658C165.175 183.092 163.674 133.964 165.353 85.9535C166.051 66.045 169.239 47.3423 179.637 32.4717C182.45 28.4495 185.847 24.9291 189.358 21.4896C190.891 19.9884 192.21 20.1422 194.817 22.0602C217.07 38.4321 228.352 57.6243 230.039 78.4837C232.045 103.288 231.161 127.179 231.274 151.38C231.472 193.973 231.351 236.457 231.516 279.042C231.528 281.991 230.544 283.003 227.311 282.979C206.842 282.817 186.468 282.898 165.296 282.898V282.886Z" fill="#736FC4" fill-opacity="0.45"/>
</g>
</svg>
