<svg width="149" height="134" viewBox="0 0 149 134" fill="none" xmlns="http://www.w3.org/2000/svg">
<g opacity="0.15">
<path d="M57.2739 0.942167C54.917 2.05344 52.7906 3.00568 50.7277 4.0384C40.5184 9.15215 35.1553 17.8411 33.7109 29.4328C32.3317 40.4957 32.3336 52.0759 32.3048 63.637C32.2491 86.372 32.3375 109.157 32.4566 131.953C32.4642 133.551 31.8803 134.007 30.1919 133.992C20.2227 133.906 10.3073 133.95 0.328478 133.95C0.199782 133.714 -0.00190723 133.486 1.36201e-05 133.329C0.297745 103.03 -0.412968 72.3777 0.589714 42.3236C0.877841 33.6806 1.81714 25.369 5.87012 18.5788C12.3261 7.75923 23.2922 2.07068 37.8119 0.421019C43.8549 -0.264903 50.2225 -0.126951 57.2739 0.940252V0.942167Z" fill="#2F2B73"/>
<path d="M96.7162 0.930616C94.6205 1.88478 92.8322 2.67799 91.0708 3.50378C79.5342 8.91643 73.9426 18.642 72.7786 31.6285C71.3379 47.7151 71.628 64.4225 71.6069 81.0187C71.5838 97.9445 71.6971 114.916 71.822 131.892C71.8335 133.409 71.3975 134.021 69.6207 133.999C60.0722 133.886 50.5813 133.923 41.098 133.971C39.6977 133.978 39.3001 133.781 39.3097 132.363C39.5364 102.368 39.1638 72.1649 39.8437 42.3293C40.0397 33.7265 41.171 25.5338 45.1107 18.7646C51.5513 7.7017 62.6327 1.89627 77.4981 0.399888C83.4662 -0.20173 89.732 -0.00821705 96.7162 0.928699V0.930616Z" fill="#2F2B73"/>
<path d="M117.114 133.942C117.102 121.513 117.131 109.435 117.069 97.3256C116.979 79.9017 117.331 62.6253 116.689 45.0155C116.482 39.3039 115.696 33.4506 113.116 27.2601C110.081 19.9755 104.757 13.8999 97.4095 9.07356C94.9758 7.47563 95.6135 7.11542 96.7449 6.31646C105.519 0.122085 125.755 2.38294 139.73 22.2747C145.707 30.7836 147.73 39.0951 148.421 47.2802C149.443 59.3873 148.786 70.9406 148.848 82.7297C148.934 99.2359 148.815 115.673 148.775 132.137C148.773 133.003 149.098 133.984 147.634 133.975C137.546 133.911 127.496 133.942 117.112 133.942H117.114Z" fill="#2F2B73"/>
<path d="M78.6873 133.946C78.6489 125.644 78.5663 117.65 78.5817 109.689C78.6297 86.6938 77.9151 63.4319 78.7142 40.6988C79.0465 31.2721 80.564 22.4165 85.514 15.3752C86.8528 13.4707 88.4702 11.8038 90.1413 10.1752C90.8713 9.46442 91.4994 9.53723 92.7402 10.4454C103.334 18.1975 108.704 27.285 109.507 37.1619C110.462 48.9068 110.041 60.2188 110.095 71.6783C110.189 91.8459 110.132 111.962 110.21 132.126C110.216 133.522 109.747 134.001 108.209 133.99C98.4644 133.913 88.766 133.952 78.6873 133.952V133.946Z" fill="#2F2B73"/>
</g>
</svg>
