<svg width="348" height="315" viewBox="0 0 348 315" fill="none" xmlns="http://www.w3.org/2000/svg">
<g opacity="0.9">
<path d="M129.601 2.83813C114.802 0.872621 101.302 0.7234 88.4498 2.19172L129.601 2.83813ZM129.601 2.83813C129.106 3.06993 128.614 3.29976 128.126 3.52805C124.587 5.18245 121.221 6.75597 117.933 8.41219L117.933 8.41233C93.6722 20.6434 80.9482 41.4568 77.5331 69.0401C74.373 94.5534 74.3086 121.22 74.2444 147.783C74.243 148.385 74.2415 148.988 74.24 149.591C74.1099 203.04 74.3163 256.605 74.5944 310.195C74.603 311.991 74.2647 312.729 73.8452 313.099C73.3807 313.508 72.4719 313.788 70.5263 313.77H70.5258C53.1248 313.619 35.7919 313.638 18.4219 313.658C12.7674 313.664 7.10902 313.671 1.44304 313.671C1.44191 313.669 1.44078 313.668 1.43966 313.666C1.38712 313.585 1.34276 313.517 1.29746 313.444C1.25724 313.38 1.22982 313.332 1.21146 313.298C1.46786 286.921 1.40218 260.45 1.33651 233.987C1.22482 188.976 1.11318 143.989 2.58681 99.5317L1.37738 99.4917L2.58681 99.5317C3.25912 79.2334 5.45381 59.9684 14.751 44.291L14.7511 44.2908C29.5808 19.2762 54.7907 6.04078 88.4497 2.19173L129.601 2.83813ZM1.18136 313.235C1.18149 313.235 1.18259 313.238 1.18426 313.243C1.18206 313.237 1.18122 313.235 1.18136 313.235Z" stroke="#F1F1F7" stroke-width="2.42032"/>
<path d="M212.187 7.14214L212.187 7.14229C184.775 20.0869 171.524 43.3824 168.775 74.2433C165.918 106.355 165.97 139.519 166.023 172.619C166.032 178.568 166.041 184.515 166.034 190.453C165.98 230.247 166.245 270.148 166.536 310.053L166.536 310.053C166.55 311.802 166.283 312.611 165.871 313.038C165.468 313.456 164.627 313.813 162.62 313.789C140.307 313.523 118.131 313.608 95.9825 313.721H95.982C95.1778 313.725 94.5939 313.699 94.1562 313.624C93.7238 313.55 93.533 313.446 93.4389 313.368C93.2764 313.233 93.0108 312.839 93.0221 311.161C93.2142 285.561 93.222 259.908 93.2298 234.261C93.2435 189.229 93.2572 144.213 94.269 99.5328L93.0591 99.5054L94.269 99.5328C94.7252 79.3684 97.3624 60.3601 106.408 44.7168C121.202 19.1405 146.671 5.63486 181.126 2.14411L181.126 2.14409C193.748 0.863458 206.962 1.12591 221.523 2.84945C221.265 2.96641 221.01 3.08258 220.756 3.19806C217.744 4.56779 214.949 5.83896 212.187 7.14214Z" stroke="#F1F1F7" stroke-width="2.42032"/>
</g>
</svg>
