<svg width="64" height="58" viewBox="0 0 64 58" fill="none" xmlns="http://www.w3.org/2000/svg">
<path d="M24.6009 0.40779C23.5885 0.888788 22.6752 1.30095 21.7891 1.74795C17.4039 3.96137 15.1003 7.72227 14.4799 12.7396C13.8875 17.528 13.8883 22.5403 13.8759 27.5443C13.852 37.3849 13.8899 47.247 13.9411 57.1141C13.9444 57.8057 13.6936 58.0031 12.9683 57.9965C8.68626 57.9591 4.42729 57.9782 0.141091 57.9782C0.0858123 57.8762 -0.000819212 57.7775 5.85024e-06 57.7095C0.127891 44.5949 -0.177383 31.3276 0.2533 18.3191C0.377059 14.5781 0.780515 10.9806 2.5214 8.04155C5.29443 3.35846 10.0047 0.896251 16.2414 0.182219C18.837 -0.114673 21.5721 -0.054962 24.6009 0.406961V0.40779Z" fill="#2F2B73"/>
<path d="M41.5427 0.402818C40.6425 0.815812 39.8744 1.15914 39.1178 1.51658C34.1625 3.85936 31.7607 8.06892 31.2607 13.69C30.6419 20.6528 30.7665 27.8844 30.7574 35.0678C30.7475 42.3939 30.7962 49.7399 30.8498 57.0875C30.8548 57.7444 30.6675 58.0089 29.9043 57.9998C25.8029 57.9509 21.7263 57.9666 17.653 57.9873C17.0515 57.9907 16.8807 57.9052 16.8848 57.2916C16.9822 44.3088 16.8221 31.2356 17.1142 18.3216C17.1984 14.5981 17.6843 11.0519 19.3765 8.122C22.143 3.33359 26.9027 0.820787 33.2879 0.173099C35.8514 -0.0873027 38.5427 -0.0035432 41.5427 0.401987V0.402818Z" fill="#2F2B73"/>
<path d="M50.304 57.9749C50.2991 52.5952 50.3114 47.3672 50.285 42.126C50.2463 34.5843 50.3972 27.1065 50.1217 19.4843C50.0326 17.0122 49.6951 14.4786 48.5871 11.7991C47.2835 8.64612 44.9964 6.01639 41.8405 3.92737C40.7952 3.23573 41.0691 3.07982 41.5551 2.734C45.3239 0.0528493 54.016 1.03143 60.0183 9.64128C62.5859 13.3242 63.4547 16.9218 63.7517 20.4646C64.1906 25.7049 63.9085 30.7057 63.9349 35.8084C63.972 42.9528 63.9208 50.0675 63.9035 57.1937C63.9027 57.5685 64.0421 57.9931 63.4134 57.989C59.0802 57.9616 54.7635 57.9749 50.3032 57.9749H50.304Z" fill="#2F2B73"/>
<path d="M33.7985 57.9766C33.782 54.3832 33.7465 50.9233 33.7531 47.4775C33.7737 37.5242 33.4668 27.4556 33.81 17.6159C33.9528 13.5357 34.6046 9.70265 36.7307 6.65495C37.3058 5.83062 38.0005 5.10913 38.7183 4.40422C39.0318 4.09654 39.3016 4.12806 39.8346 4.52115C44.3848 7.87652 46.6917 11.8099 47.0366 16.085C47.4466 21.1686 47.266 26.0649 47.2891 31.0249C47.3295 39.7542 47.3047 48.4611 47.3386 57.1887C47.341 57.7933 47.1397 58.0006 46.4789 57.9956C42.2933 57.9625 38.1276 57.979 33.7985 57.979V57.9766Z" fill="#2F2B73"/>
</svg>
