<svg width="94" height="84" viewBox="0 0 94 84" fill="none" xmlns="http://www.w3.org/2000/svg">
<path d="M35.7866 0.590595C34.3139 1.28721 32.9853 1.88415 31.6963 2.53152C25.3172 5.73717 21.9662 11.184 21.0636 18.4505C20.2019 25.3854 20.2031 32.6447 20.1851 39.8919C20.1503 54.1438 20.2055 68.4269 20.2799 82.7172C20.2847 83.7189 19.9198 84.0048 18.8649 83.9951C12.6358 83.9411 6.44032 83.9687 0.205244 83.9687C0.12483 83.821 -0.0011917 83.6781 8.51026e-06 83.5796C0.186041 64.5859 -0.258036 45.3712 0.368472 26.5313C0.548503 21.1132 1.1354 15.903 3.66784 11.6464C7.70174 4.86399 14.5537 1.29802 23.6261 0.263904C27.4019 -0.166078 31.3806 -0.0796005 35.7866 0.589394V0.590595Z" fill="#FDFDFF"/>
<path d="M60.4315 0.583166C59.1221 1.1813 58.0047 1.67854 56.9041 2.1962C49.6957 5.58922 46.2018 11.6858 45.4745 19.8267C44.5744 29.9108 44.7556 40.3842 44.7424 50.7878C44.728 61.398 44.7988 72.0371 44.8768 82.6786C44.884 83.6298 44.6116 84.0129 43.5014 83.9997C37.5352 83.9289 31.6049 83.9517 25.6795 83.9817C24.8046 83.9865 24.5561 83.8628 24.5621 82.974C24.7037 64.1713 24.4709 45.2377 24.8958 26.5346C25.0182 21.1418 25.7251 16.0061 28.1867 11.7627C32.211 4.82774 39.135 1.1885 48.4234 0.25047C52.1525 -0.126665 56.0675 -0.00535791 60.4315 0.581964V0.583166Z" fill="#FDFDFF"/>
<path d="M73.1765 83.9637C73.1693 76.1724 73.1873 68.6008 73.1489 61.0101C73.0925 50.0876 73.3121 39.2575 72.9112 28.2185C72.7816 24.6382 72.2907 20.9689 70.6789 17.0882C68.7825 12.5218 65.4556 8.7132 60.8648 5.68771C59.3441 4.68602 59.7426 4.46022 60.4495 3.95937C65.932 0.0763204 78.5762 1.49358 87.3077 13.9631C91.0428 19.297 92.3066 24.5072 92.7387 29.6382C93.3772 37.2277 92.9667 44.4702 93.0051 51.8604C93.0591 62.2076 92.9847 72.5115 92.9595 82.8323C92.9583 83.3752 93.1611 83.9901 92.2466 83.9841C85.9431 83.9445 79.6636 83.9637 73.1753 83.9637H73.1765Z" fill="#FDFDFF"/>
<path d="M49.1664 83.9661C49.1424 78.7619 49.0908 73.751 49.1004 68.7606C49.1304 54.3454 48.6839 39.7632 49.1832 25.5125C49.3908 19.6033 50.339 14.0519 53.4319 9.63801C54.2685 8.44415 55.279 7.39922 56.3232 6.37831C56.7793 5.93272 57.1718 5.97836 57.9471 6.54766C64.5663 11.4072 67.922 17.1038 68.4237 23.2954C69.0202 30.6579 68.7574 37.749 68.791 44.9326C68.8498 57.575 68.8138 70.185 68.863 82.8251C68.8666 83.7007 68.5737 84.0009 67.6124 83.9937C61.5237 83.9457 55.4639 83.9697 49.1664 83.9697V83.9661Z" fill="#FDFDFF"/>
</svg>
