<svg width="508" height="458" viewBox="0 0 508 458" fill="none" xmlns="http://www.w3.org/2000/svg">
<g opacity="0.15">
<path d="M195.269 3.22014C187.234 7.01836 179.984 10.273 172.951 13.8028C138.143 31.2811 119.859 60.9793 114.934 100.599C110.232 138.411 110.238 177.991 110.14 217.505C109.95 295.212 110.251 373.088 110.657 451.004C110.683 456.466 108.693 458.024 102.936 457.972C68.9471 457.677 35.1416 457.828 1.11991 457.828C0.681134 457.022 -0.00650249 456.243 4.64362e-05 455.706C1.01513 352.146 -1.40797 247.38 2.01057 144.658C2.99291 115.117 6.19533 86.709 20.0136 63.5005C42.0245 26.5203 79.4123 7.0773 128.916 1.4389C149.519 -0.905518 171.228 -0.434011 195.269 3.21359V3.22014Z" fill="#2F2B73"/>
<path d="M329.745 3.1808C322.6 6.44203 316.503 9.15317 310.498 11.9756C271.165 30.4756 252.101 63.7166 248.132 108.103C243.22 163.086 244.209 220.19 244.137 276.915C244.059 334.766 244.445 392.774 244.871 450.795C244.91 455.981 243.423 458.07 237.366 457.998C204.811 457.612 172.453 457.736 140.121 457.9C135.346 457.926 133.991 457.252 134.024 452.406C134.796 349.886 133.526 246.653 135.844 144.678C136.512 115.274 140.369 87.2721 153.801 64.1357C175.76 26.3238 213.541 6.48132 264.223 1.36682C284.57 -0.689461 305.933 -0.0280501 329.745 3.17424V3.1808Z" fill="#2F2B73"/>
<path d="M399.288 457.802C399.249 415.321 399.347 374.038 399.137 332.65C398.83 273.097 400.028 214.048 397.841 153.859C397.133 134.337 394.455 114.331 385.66 93.1725C375.312 68.2745 357.159 47.5087 332.109 31.0127C323.812 25.5511 325.986 24.3199 329.843 21.5892C359.759 0.417342 428.752 8.14475 476.395 76.1329C496.775 105.216 503.671 133.624 506.029 161.599C509.513 202.98 507.273 242.469 507.483 282.763C507.777 339.179 507.371 395.36 507.234 451.633C507.227 454.593 508.334 457.946 503.344 457.913C468.949 457.697 434.685 457.802 399.281 457.802H399.288Z" fill="#2F2B73"/>
<path d="M268.277 457.815C268.146 429.44 267.864 402.119 267.916 374.909C268.08 296.312 265.644 216.805 268.368 139.105C269.501 106.885 274.675 76.6175 291.552 52.5512C296.116 46.0418 301.63 40.3445 307.328 34.7781C309.816 32.3486 311.958 32.5974 316.189 35.7015C352.306 62.1974 370.617 93.2577 373.354 127.016C376.609 167.159 375.175 205.823 375.358 244.99C375.679 313.921 375.483 382.676 375.751 451.594C375.771 456.368 374.173 458.005 368.927 457.966C335.704 457.704 302.639 457.835 268.277 457.835V457.815Z" fill="#2F2B73"/>
</g>
</svg>
