<svg width="273" height="246" viewBox="0 0 273 246" fill="none" xmlns="http://www.w3.org/2000/svg">
<g opacity="0.15">
<path d="M104.938 1.72959C100.62 3.76969 96.7238 5.51784 92.944 7.41371C74.2383 16.8017 64.4122 32.7531 61.7656 54.0334C59.2386 74.3428 59.2421 95.602 59.1894 116.826C59.0873 158.563 59.2492 200.392 59.4674 242.242C59.4815 245.176 58.4116 246.013 55.318 245.985C37.0523 245.827 18.8851 245.908 0.601843 245.908C0.366043 245.475 -0.00349445 245.056 2.49549e-05 244.768C0.545533 189.144 -0.756647 132.872 1.08048 77.6984C1.60839 61.8314 3.32938 46.5729 10.7553 34.1073C22.584 14.2445 42.6763 3.80134 69.2795 0.77286C80.3515 -0.48637 92.0184 -0.233115 104.938 1.72608V1.72959Z" fill="#2F2B73"/>
<path d="M177.205 1.70848C173.366 3.46015 170.089 4.91635 166.862 6.43235C145.724 16.369 135.479 34.2233 133.347 58.0643C130.707 87.5964 131.238 118.268 131.2 148.736C131.158 179.809 131.365 210.966 131.594 242.13C131.615 244.916 130.816 246.038 127.561 245.999C110.066 245.792 92.6763 245.858 75.301 245.946C72.7354 245.96 72.0069 245.598 72.0245 242.995C72.4398 187.93 71.757 132.482 73.0029 77.709C73.3619 61.9158 75.4348 46.8754 82.6531 34.4485C94.4536 14.139 114.757 3.48125 141.994 0.734163C152.929 -0.370301 164.409 -0.0150454 177.205 1.70496V1.70848Z" fill="#2F2B73"/>
<path d="M214.578 245.894C214.557 223.076 214.609 200.902 214.497 178.673C214.331 146.685 214.975 114.969 213.8 82.6404C213.42 72.1551 211.98 61.4094 207.254 50.0447C201.693 36.6715 191.937 25.5178 178.476 16.6575C174.017 13.724 175.185 13.0627 177.258 11.596C193.335 0.2242 230.411 4.37473 256.015 40.8924C266.968 56.5132 270.673 71.7717 271.94 86.798C273.813 109.024 272.609 130.234 272.722 151.877C272.88 182.179 272.662 212.355 272.588 242.58C272.584 244.17 273.179 245.971 270.497 245.953C252.014 245.837 233.6 245.894 214.574 245.894H214.578Z" fill="#2F2B73"/>
<path d="M144.172 245.901C144.102 230.66 143.95 215.985 143.979 201.37C144.067 159.154 142.757 116.45 144.221 74.7157C144.83 57.4101 147.611 41.1526 156.68 28.2262C159.133 24.7299 162.097 21.6697 165.158 18.68C166.496 17.375 167.647 17.5087 169.92 19.1759C189.33 33.4073 199.17 50.0904 200.641 68.2226C202.39 89.7842 201.619 110.551 201.718 131.589C201.89 168.613 201.785 205.542 201.929 242.559C201.94 245.123 201.081 246.003 198.262 245.981C180.408 245.841 162.639 245.911 144.172 245.911V245.901Z" fill="#2F2B73"/>
</g>
</svg>
