<svg width="24" height="24" viewBox="0 0 24 24" fill="none" xmlns="http://www.w3.org/2000/svg">
<g clip-path="url(#clip0_730_3846)">
<path d="M20.8733 14.1048C19.2967 14.1048 17.7567 13.7754 16.29 13.1165C15.8867 12.9334 15.3733 13.0066 15.0433 13.3361L13.5033 14.9101C13.21 15.203 12.66 15.203 12.3667 14.9101L9.06667 11.6156C8.92 11.4692 8.84667 11.2496 8.84667 11.0299C8.84667 10.8103 8.92 10.6273 9.06667 10.4442L10.6433 8.8702C10.9733 8.54075 11.0467 8.06488 10.8633 7.62561C10.2033 6.19799 9.87333 4.69716 9.87333 3.12311C9.87333 1.91513 8.92 0.963379 7.71 0.963379H4.00667C2.35667 0.999985 1 2.35439 1 4.03825C1 14.5075 9.54333 23 19.9933 23C21.6433 23 23 21.6456 23 19.9983V16.2645C23 15.0932 22.0467 14.1048 20.8733 14.1048Z" fill="white"/>
</g>
<defs>
<clipPath id="clip0_730_3846">
<rect width="22" height="22" fill="white" transform="translate(1 1)"/>
</clipPath>
</defs>
</svg>
