<svg width="228" height="63" viewBox="0 0 228 63" fill="none" xmlns="http://www.w3.org/2000/svg">
<g opacity="0.6">
<ellipse cx="4.45331" cy="57.6552" rx="4.36526" ry="4.45331" transform="rotate(-90 4.45331 57.6552)" fill="#9A98D6"/>
<ellipse cx="29.1789" cy="57.6552" rx="4.36526" ry="4.45331" transform="rotate(-90 29.1789 57.6552)" fill="#9A98D6"/>
<ellipse cx="53.9045" cy="57.6552" rx="4.36526" ry="4.45331" transform="rotate(-90 53.9045 57.6552)" fill="#9A98D6"/>
<ellipse cx="78.6301" cy="57.6552" rx="4.36526" ry="4.45331" transform="rotate(-90 78.6301 57.6552)" fill="#9A98D6"/>
<ellipse cx="103.355" cy="57.6552" rx="4.36526" ry="4.45331" transform="rotate(-90 103.355 57.6552)" fill="#9A98D6"/>
<ellipse cx="128.08" cy="57.6552" rx="4.36526" ry="4.45331" transform="rotate(-90 128.08 57.6552)" fill="#9A98D6"/>
<ellipse cx="152.807" cy="57.6552" rx="4.36526" ry="4.45331" transform="rotate(-90 152.807 57.6552)" fill="#9A98D6"/>
<ellipse cx="177.531" cy="57.6552" rx="4.36526" ry="4.45331" transform="rotate(-90 177.531 57.6552)" fill="#9A98D6"/>
<ellipse cx="202.257" cy="57.6552" rx="4.36526" ry="4.45331" transform="rotate(-90 202.257 57.6552)" fill="#9A98D6"/>
<ellipse cx="226.983" cy="57.6552" rx="4.36526" ry="4.45331" transform="rotate(-90 226.983 57.6552)" fill="#9A98D6"/>
<ellipse cx="4.45331" cy="35.8908" rx="4.36526" ry="4.45331" transform="rotate(-90 4.45331 35.8908)" fill="#9A98D6"/>
<ellipse cx="29.1789" cy="35.8908" rx="4.36526" ry="4.45331" transform="rotate(-90 29.1789 35.8908)" fill="#9A98D6"/>
<ellipse cx="53.9045" cy="35.8908" rx="4.36526" ry="4.45331" transform="rotate(-90 53.9045 35.8908)" fill="#9A98D6"/>
<ellipse cx="78.6301" cy="35.8908" rx="4.36526" ry="4.45331" transform="rotate(-90 78.6301 35.8908)" fill="#9A98D6"/>
<ellipse cx="103.355" cy="35.8908" rx="4.36526" ry="4.45331" transform="rotate(-90 103.355 35.8908)" fill="#9A98D6"/>
<ellipse cx="128.08" cy="35.8908" rx="4.36526" ry="4.45331" transform="rotate(-90 128.08 35.8908)" fill="#9A98D6"/>
<ellipse cx="152.807" cy="35.8908" rx="4.36526" ry="4.45331" transform="rotate(-90 152.807 35.8908)" fill="#9A98D6"/>
<ellipse cx="177.531" cy="35.8908" rx="4.36526" ry="4.45331" transform="rotate(-90 177.531 35.8908)" fill="#9A98D6"/>
<ellipse cx="202.257" cy="35.8908" rx="4.36526" ry="4.45331" transform="rotate(-90 202.257 35.8908)" fill="#9A98D6"/>
<ellipse cx="226.983" cy="35.8908" rx="4.36526" ry="4.45331" transform="rotate(-90 226.983 35.8908)" fill="#9A98D6"/>
<ellipse cx="4.45331" cy="14.1279" rx="4.36526" ry="4.45331" transform="rotate(-90 4.45331 14.1279)" fill="#9A98D6"/>
<ellipse cx="29.1789" cy="14.1279" rx="4.36526" ry="4.45331" transform="rotate(-90 29.1789 14.1279)" fill="#9A98D6"/>
<ellipse cx="53.9045" cy="14.1279" rx="4.36526" ry="4.45331" transform="rotate(-90 53.9045 14.1279)" fill="#9A98D6"/>
<ellipse cx="78.6301" cy="14.128" rx="4.36526" ry="4.45331" transform="rotate(-90 78.6301 14.128)" fill="#9A98D6"/>
<ellipse cx="103.355" cy="14.128" rx="4.36526" ry="4.45331" transform="rotate(-90 103.355 14.128)" fill="#9A98D6"/>
<ellipse cx="128.08" cy="14.128" rx="4.36526" ry="4.45331" transform="rotate(-90 128.08 14.128)" fill="#9A98D6"/>
<ellipse cx="152.807" cy="14.128" rx="4.36526" ry="4.45331" transform="rotate(-90 152.807 14.128)" fill="#9A98D6"/>
<ellipse cx="177.531" cy="14.128" rx="4.36526" ry="4.45331" transform="rotate(-90 177.531 14.128)" fill="#9A98D6"/>
<ellipse cx="202.257" cy="14.128" rx="4.36526" ry="4.45331" transform="rotate(-90 202.257 14.128)" fill="#9A98D6"/>
<ellipse cx="226.983" cy="14.128" rx="4.36526" ry="4.45331" transform="rotate(-90 226.983 14.128)" fill="#9A98D6"/>
</g>
</svg>
