<svg width="75" height="204" viewBox="0 0 75 204" fill="none" xmlns="http://www.w3.org/2000/svg">
<g opacity="0.6">
<ellipse cx="4.36526" cy="0.806458" rx="4.36526" ry="4.45331" fill="#9A98D6"/>
<ellipse cx="4.36526" cy="25.5314" rx="4.36526" ry="4.45331" fill="#9A98D6"/>
<ellipse cx="4.36526" cy="50.2573" rx="4.36526" ry="4.45331" fill="#9A98D6"/>
<ellipse cx="4.36526" cy="74.9821" rx="4.36526" ry="4.45331" fill="#9A98D6"/>
<ellipse cx="4.36526" cy="99.7082" rx="4.36526" ry="4.45331" fill="#9A98D6"/>
<ellipse cx="4.36526" cy="99.7082" rx="4.36526" ry="4.45331" fill="#9A98D6"/>
<ellipse cx="4.36526" cy="99.7082" rx="4.36526" ry="4.45331" fill="#9A98D6"/>
<ellipse cx="4.36526" cy="99.7082" rx="4.36526" ry="4.45331" fill="#9A98D6"/>
<ellipse cx="4.36526" cy="124.434" rx="4.36526" ry="4.45331" fill="#9A98D6"/>
<ellipse cx="4.36526" cy="149.159" rx="4.36526" ry="4.45331" fill="#9A98D6"/>
<ellipse cx="4.36526" cy="173.884" rx="4.36526" ry="4.45331" fill="#9A98D6"/>
<ellipse cx="4.36526" cy="198.61" rx="4.36526" ry="4.45331" fill="#9A98D6"/>
<ellipse cx="26.1299" cy="0.806458" rx="4.36526" ry="4.45331" fill="#9A98D6"/>
<ellipse cx="26.1299" cy="25.5314" rx="4.36526" ry="4.45331" fill="#9A98D6"/>
<ellipse cx="26.1299" cy="50.2573" rx="4.36526" ry="4.45331" fill="#9A98D6"/>
<ellipse cx="26.1299" cy="74.9821" rx="4.36526" ry="4.45331" fill="#9A98D6"/>
<ellipse cx="26.1299" cy="99.7082" rx="4.36526" ry="4.45331" fill="#9A98D6"/>
<ellipse cx="26.1299" cy="99.7082" rx="4.36526" ry="4.45331" fill="#9A98D6"/>
<ellipse cx="26.1299" cy="99.7082" rx="4.36526" ry="4.45331" fill="#9A98D6"/>
<ellipse cx="26.1299" cy="99.7082" rx="4.36526" ry="4.45331" fill="#9A98D6"/>
<ellipse cx="26.1299" cy="124.434" rx="4.36526" ry="4.45331" fill="#9A98D6"/>
<ellipse cx="26.1299" cy="149.159" rx="4.36526" ry="4.45331" fill="#9A98D6"/>
<ellipse cx="26.1299" cy="173.884" rx="4.36526" ry="4.45331" fill="#9A98D6"/>
<ellipse cx="26.1299" cy="198.61" rx="4.36526" ry="4.45331" fill="#9A98D6"/>
<ellipse cx="47.8926" cy="0.806458" rx="4.36526" ry="4.45331" fill="#9A98D6"/>
<ellipse cx="47.8926" cy="25.5314" rx="4.36526" ry="4.45331" fill="#9A98D6"/>
<ellipse cx="47.8926" cy="50.2573" rx="4.36526" ry="4.45331" fill="#9A98D6"/>
<ellipse cx="47.8926" cy="74.9821" rx="4.36526" ry="4.45331" fill="#9A98D6"/>
<ellipse cx="47.8926" cy="99.7082" rx="4.36526" ry="4.45331" fill="#9A98D6"/>
<ellipse cx="47.8926" cy="99.7082" rx="4.36526" ry="4.45331" fill="#9A98D6"/>
<ellipse cx="47.8926" cy="99.7082" rx="4.36526" ry="4.45331" fill="#9A98D6"/>
<ellipse cx="47.8926" cy="99.7082" rx="4.36526" ry="4.45331" fill="#9A98D6"/>
<ellipse cx="47.8926" cy="124.434" rx="4.36526" ry="4.45331" fill="#9A98D6"/>
<ellipse cx="47.8926" cy="149.159" rx="4.36526" ry="4.45331" fill="#9A98D6"/>
<ellipse cx="47.8926" cy="173.884" rx="4.36526" ry="4.45331" fill="#9A98D6"/>
<ellipse cx="47.8926" cy="198.61" rx="4.36526" ry="4.45331" fill="#9A98D6"/>
<ellipse cx="69.6553" cy="0.806458" rx="4.36526" ry="4.45331" fill="#9A98D6"/>
<ellipse cx="69.6553" cy="25.5314" rx="4.36526" ry="4.45331" fill="#9A98D6"/>
<ellipse cx="69.6553" cy="50.2573" rx="4.36526" ry="4.45331" fill="#9A98D6"/>
<ellipse cx="69.6553" cy="74.9821" rx="4.36526" ry="4.45331" fill="#9A98D6"/>
<ellipse cx="69.6553" cy="99.7082" rx="4.36526" ry="4.45331" fill="#9A98D6"/>
<ellipse cx="69.6553" cy="99.7082" rx="4.36526" ry="4.45331" fill="#9A98D6"/>
<ellipse cx="69.6553" cy="99.7082" rx="4.36526" ry="4.45331" fill="#9A98D6"/>
<ellipse cx="69.6553" cy="99.7082" rx="4.36526" ry="4.45331" fill="#9A98D6"/>
<ellipse cx="69.6553" cy="124.434" rx="4.36526" ry="4.45331" fill="#9A98D6"/>
<ellipse cx="69.6553" cy="149.159" rx="4.36526" ry="4.45331" fill="#9A98D6"/>
<ellipse cx="69.6553" cy="173.884" rx="4.36526" ry="4.45331" fill="#9A98D6"/>
<ellipse cx="69.6553" cy="198.61" rx="4.36526" ry="4.45331" fill="#9A98D6"/>
</g>
</svg>
