<svg width="33" height="32" viewBox="0 0 33 32" fill="none" xmlns="http://www.w3.org/2000/svg">
<g clip-path="url(#clip0_730_3531)">
<path d="M23.1833 0H4.80835C3.77447 0 2.93335 0.841125 2.93335 1.875V8.25C2.93335 8.59519 3.21322 8.875 3.55835 8.875C3.90347 8.875 4.18335 8.59519 4.18335 8.25V1.875C4.18335 1.53038 4.46372 1.25 4.80835 1.25H23.1833C23.528 1.25 23.8083 1.53038 23.8083 1.875V25.125C23.8083 25.4696 23.528 25.75 23.1833 25.75H4.80835C4.46372 25.75 4.18335 25.4696 4.18335 25.125V13.5208C4.18335 13.1756 3.90347 12.8958 3.55835 12.8958C3.21322 12.8958 2.93335 13.1756 2.93335 13.5208V25.125C2.93335 26.1589 3.77447 27 4.80835 27H23.1833C24.2172 27 25.0583 26.1589 25.0583 25.125V1.875C25.0583 0.841125 24.2172 0 23.1833 0Z" fill="#5958B5"/>
<path d="M4.00016 10.6063C3.88397 10.49 3.72272 10.4238 3.55835 10.4238C3.39397 10.4238 3.23272 10.49 3.11647 10.6063C3.00016 10.7231 2.93335 10.8844 2.93335 11.0481C2.93335 11.2131 3.00022 11.3738 3.11647 11.4906C3.23272 11.6069 3.39397 11.6738 3.55835 11.6738C3.72266 11.6738 3.88391 11.6069 4.00016 11.4906C4.11647 11.3744 4.18335 11.2131 4.18335 11.0481C4.18335 10.8838 4.11641 10.7231 4.00016 10.6063Z" fill="#5958B5"/>
<path d="M6.50413 28.4368C6.38788 28.3206 6.22732 28.2537 6.06226 28.2537C5.89788 28.2537 5.73663 28.3206 5.62044 28.4368C5.50413 28.5531 5.43726 28.7143 5.43726 28.8787C5.43726 29.0437 5.50419 29.2043 5.62044 29.3206C5.73663 29.4375 5.89788 29.5037 6.06226 29.5037C6.22732 29.5037 6.38788 29.4375 6.50413 29.3206C6.62044 29.2043 6.68726 29.0437 6.68726 28.8787C6.68726 28.7143 6.62038 28.5531 6.50413 28.4368Z" fill="#5958B5"/>
<path d="M26.9375 2.50391C26.5924 2.50391 26.3125 2.78372 26.3125 3.12891V27.6289C26.3125 27.9735 26.0321 28.2539 25.6875 28.2539H8.5625C8.21738 28.2539 7.9375 28.5337 7.9375 28.8789C7.9375 29.2241 8.21738 29.5039 8.5625 29.5039H25.6875C26.7214 29.5039 27.5625 28.6628 27.5625 27.6289V3.12891C27.5625 2.78372 27.2826 2.50391 26.9375 2.50391Z" fill="#5958B5"/>
<path d="M29.4417 5C29.0965 5 28.8167 5.27981 28.8167 5.625V30.125C28.8167 30.4696 28.5363 30.75 28.1917 30.75H8.56665C8.22153 30.75 7.94165 31.0298 7.94165 31.375C7.94165 31.7202 8.22153 32 8.56665 32H28.1917C29.2255 32 30.0667 31.1589 30.0667 30.125V5.625C30.0667 5.27981 29.7868 5 29.4417 5Z" fill="#5958B5"/>
<path d="M13.0583 4.625H7.05835C6.71322 4.625 6.43335 4.90481 6.43335 5.25V11.25C6.43335 11.5952 6.71322 11.875 7.05835 11.875H13.0583C13.4035 11.875 13.6833 11.5952 13.6833 11.25V5.25C13.6833 4.90481 13.4035 4.625 13.0583 4.625ZM12.4333 10.625H7.68335V5.875H12.4333V10.625Z" fill="#5958B5"/>
<path d="M11.0477 14.7126C10.8036 14.4686 10.408 14.4686 10.1638 14.7126L8.50233 16.3741L7.72983 15.6015C7.48576 15.3574 7.09014 15.3575 6.84589 15.6015C6.60183 15.8456 6.60183 16.2413 6.84589 16.4854L8.06039 17.6999C8.17764 17.8171 8.33658 17.8829 8.50233 17.8829C8.66814 17.8829 8.82701 17.8171 8.94433 17.6999L11.0477 15.5965C11.2918 15.3524 11.2918 14.9567 11.0477 14.7126Z" fill="#5958B5"/>
<path d="M21.2875 15.5625H13.9958C13.6507 15.5625 13.3708 15.8423 13.3708 16.1875C13.3708 16.5327 13.6507 16.8125 13.9958 16.8125H21.2875C21.6327 16.8125 21.9125 16.5327 21.9125 16.1875C21.9125 15.8423 21.6327 15.5625 21.2875 15.5625Z" fill="#5958B5"/>
<path d="M20.9334 4.625H16.5584C16.2132 4.625 15.9333 4.90481 15.9333 5.25C15.9333 5.59519 16.2132 5.875 16.5584 5.875H20.9334C21.2785 5.875 21.5584 5.59519 21.5584 5.25C21.5584 4.90481 21.2785 4.625 20.9334 4.625Z" fill="#5958B5"/>
<path d="M20.9334 7.625H16.5584C16.2132 7.625 15.9333 7.90481 15.9333 8.25C15.9333 8.59519 16.2132 8.875 16.5584 8.875H20.9334C21.2785 8.875 21.5584 8.59519 21.5584 8.25C21.5584 7.90481 21.2785 7.625 20.9334 7.625Z" fill="#5958B5"/>
<path d="M20.9334 10.625H16.5584C16.2132 10.625 15.9333 10.9048 15.9333 11.25C15.9333 11.5952 16.2132 11.875 16.5584 11.875H20.9334C21.2785 11.875 21.5584 11.5952 21.5584 11.25C21.5584 10.9048 21.2785 10.625 20.9334 10.625Z" fill="#5958B5"/>
<path d="M11.0477 19.4855C10.8036 19.2415 10.408 19.2415 10.1638 19.4855L8.50233 21.1469L7.72983 20.3744C7.48576 20.1303 7.09014 20.1304 6.84589 20.3744C6.60183 20.6185 6.60183 21.0142 6.84589 21.2583L8.06039 22.4728C8.17764 22.59 8.33658 22.6558 8.50233 22.6558C8.66814 22.6558 8.82701 22.59 8.94433 22.4728L11.0477 20.3694C11.2918 20.1253 11.2918 19.7296 11.0477 19.4855Z" fill="#5958B5"/>
<path d="M21.2875 20.3125H13.9958C13.6507 20.3125 13.3708 20.5923 13.3708 20.9375C13.3708 21.2827 13.6507 21.5625 13.9958 21.5625H21.2875C21.6327 21.5625 21.9125 21.2827 21.9125 20.9375C21.9125 20.5923 21.6327 20.3125 21.2875 20.3125Z" fill="#5958B5"/>
</g>
<defs>
<clipPath id="clip0_730_3531">
<rect width="32" height="32" fill="white" transform="translate(0.5)"/>
</clipPath>
</defs>
</svg>
