<svg width="40" height="40" viewBox="0 0 40 40" fill="none" xmlns="http://www.w3.org/2000/svg">
<circle cx="20" cy="20" r="19.5" stroke="#FDFDFF"/>
<g clip-path="url(#clip0_890_4657)">
<path d="M24.9491 8H20.9337V24.2296C20.9337 26.1634 19.3893 27.7518 17.4674 27.7518C15.5454 27.7518 14.001 26.1634 14.001 24.2296C14.001 22.3304 15.5111 20.7765 17.3644 20.7074V16.6328C13.2803 16.7018 9.9856 20.0513 9.9856 24.2296C9.9856 28.4424 13.349 31.8264 17.5017 31.8264C21.6544 31.8264 25.0177 28.4079 25.0177 24.2296V15.9076C26.5278 17.0126 28.3811 17.6687 30.3373 17.7032V13.6286C27.3172 13.525 24.9491 11.0387 24.9491 8Z" fill="#F0F0F9"/>
</g>
<defs>
<clipPath id="clip0_890_4657">
<rect width="23.8264" height="23.8264" fill="white" transform="translate(8 8)"/>
</clipPath>
</defs>
</svg>
