<svg width="80" height="80" viewBox="0 0 80 80" fill="none" xmlns="http://www.w3.org/2000/svg">
<rect width="80" height="80" rx="8" fill="white"/>
<g clip-path="url(#clip0_1257_1081)">
<path d="M32.481 40.975C32.9404 41.7813 32.9404 42.775 32.481 43.5813C32.256 43.9844 32.3873 44.4907 32.781 44.725L32.9123 44.8094C33.3154 45.0532 33.831 44.9219 34.0748 44.5188C34.7779 43.3469 36.3904 42.9438 37.5904 43.6375C38.3873 44.0969 38.8935 44.9594 38.8935 45.8875C38.8935 46.3469 39.2685 46.7219 39.7279 46.7313H39.8873H39.8967C40.356 46.7313 40.731 46.3657 40.7404 45.9063C40.7779 44.4907 41.9217 43.375 43.3467 43.375C44.2748 43.375 45.1373 43.8719 45.606 44.6782C45.8404 45.0719 46.3467 45.2125 46.7498 44.9875L46.8904 44.9125C47.2935 44.6875 47.4435 44.1719 47.2185 43.7594C46.5529 42.5594 47.0123 40.9657 48.2123 40.2719C49.0185 39.8125 50.0123 39.8125 50.8185 40.2719C51.2123 40.5063 51.7373 40.3657 51.9717 39.9719L52.056 39.8407C52.1685 39.6438 52.206 39.4188 52.1498 39.2032C52.0935 38.9875 51.9529 38.8 51.7654 38.6875C50.5935 37.9844 50.1904 36.3719 50.8842 35.1719C51.3435 34.375 52.206 33.8688 53.1342 33.8688C53.5935 33.8688 53.9685 33.4938 53.9779 33.0344V32.875C53.9873 32.4157 53.6123 32.0313 53.1529 32.0125C51.7373 31.975 50.6217 30.8313 50.6217 29.4063C50.6217 28.4782 51.1185 27.6157 51.9248 27.1469C52.3279 26.9125 52.4685 26.3969 52.2342 26.0032L52.1592 25.8625C51.9342 25.4594 51.4185 25.3094 51.0154 25.5344C49.7967 26.2094 48.231 25.7594 47.5279 24.5407C47.0685 23.7344 47.0685 22.7407 47.5279 21.9344C47.7529 21.5407 47.6217 21.025 47.2279 20.7907L47.0967 20.7063C46.6935 20.4625 46.1779 20.5938 45.9342 20.9969C45.231 22.1688 43.6185 22.5719 42.4185 21.8782C41.6217 21.4188 41.1154 20.5563 41.1154 19.6282C41.1154 19.1688 40.7404 18.7938 40.281 18.7844H40.1217H40.1123C39.6529 18.7844 39.2779 19.15 39.2685 19.6094C39.231 21.025 38.0873 22.1407 36.6623 22.1407C35.7342 22.1407 34.8717 21.6438 34.4029 20.8375C34.1685 20.4344 33.6529 20.2938 33.2498 20.5282L33.1092 20.6032C32.706 20.8282 32.5654 21.3438 32.781 21.7469C33.456 22.9938 33.0248 24.5313 31.7873 25.2438C30.981 25.7032 29.9873 25.7032 29.181 25.2438C28.7873 25.0188 28.2717 25.15 28.0279 25.5438L27.9435 25.675C27.831 25.8719 27.7935 26.0969 27.8498 26.3125C27.906 26.5282 28.0467 26.7157 28.2342 26.8282C29.406 27.5313 29.8092 29.1438 29.1154 30.3438C28.656 31.1407 27.7935 31.6469 26.8654 31.6469C26.406 31.6469 26.031 32.0219 26.0217 32.4813V32.6407C26.0123 33.1 26.3873 33.4844 26.8467 33.5032C28.2623 33.5407 29.3779 34.6844 29.3779 36.1094C29.3779 37.0375 28.881 37.9 28.0748 38.3688C27.681 38.6032 27.5404 39.1094 27.7654 39.5126L27.8404 39.6532C28.0654 40.0563 28.581 40.2063 28.9935 39.9813C30.1842 39.3157 31.7873 39.775 32.481 40.975ZM28.9185 32.6032C29.5373 32.2469 30.0529 31.7313 30.4185 31.1032C31.1592 29.8282 31.131 28.3 30.4748 27.0813C31.1873 27.0813 31.8904 26.9032 32.5279 26.5375C33.8217 25.7875 34.5529 24.4657 34.5904 23.0875C35.2092 23.4438 35.9123 23.6407 36.6435 23.6407C38.1342 23.6407 39.4373 22.8625 40.1498 21.6813C40.506 22.3 41.0217 22.8157 41.6498 23.1813C42.9248 23.9219 44.4529 23.8938 45.6717 23.2375C45.6717 23.95 45.8498 24.6625 46.2154 25.2907C46.956 26.5657 48.2873 27.3063 49.6748 27.3438C49.3185 27.9625 49.1217 28.6657 49.1217 29.4063C49.1217 30.8969 49.8998 32.2 51.081 32.9125C50.4623 33.2688 49.9467 33.7844 49.581 34.4125C48.8404 35.6875 48.8685 37.2157 49.5248 38.4344C48.8123 38.4344 48.0998 38.6125 47.4717 38.9782C46.1967 39.7188 45.456 41.05 45.4185 42.4282C44.7998 42.0719 44.0967 41.875 43.3654 41.875C41.8748 41.875 40.5717 42.6532 39.8592 43.8344C39.5029 43.2157 38.9873 42.7 38.3592 42.3344C37.7123 41.9594 37.0092 41.7813 36.306 41.7813C35.6217 41.7813 34.9467 41.95 34.3373 42.2782C34.3373 41.5657 34.1592 40.8532 33.7935 40.225C33.0529 38.95 31.7217 38.2094 30.3435 38.1719C30.6998 37.5532 30.8967 36.85 30.8967 36.1188C30.8779 34.6282 30.0998 33.325 28.9185 32.6032Z" fill="#5958B5"/>
<path d="M58.0281 57.5781L50.95 45.4375C54.5031 42.3625 56.7625 37.8156 56.7625 32.7625C56.7625 23.5188 49.2437 16 40 16C30.7563 16 23.2375 23.5188 23.2375 32.7625C23.2375 37.825 25.4875 42.3625 29.05 45.4375L21.9719 57.5781C21.7656 57.9344 21.7844 58.375 22.0281 58.7125C22.2719 59.0406 22.6844 59.2 23.0875 59.1062L28.6 57.8688L30.2969 63.2688C30.4187 63.6625 30.7563 63.9437 31.1688 63.9906C31.2063 63.9906 31.2438 64 31.2906 64C31.6563 64 31.9938 63.8125 32.1813 63.4938L40 50.2469L47.8281 63.4938C48.0156 63.8125 48.3531 64 48.7188 64C48.7563 64 48.7937 64 48.8406 63.9906C49.2437 63.9437 49.5906 63.6625 49.7125 63.2688L51.4094 57.8688L56.9219 59.1062C57.325 59.2 57.7375 59.0406 57.9812 58.7031C58.2156 58.375 58.2344 57.9344 58.0281 57.5781ZM24.7375 32.7625C24.7375 24.3438 31.5812 17.5 40 17.5C48.4188 17.5 55.2625 24.3438 55.2625 32.7625C55.2625 41.1813 48.4188 48.025 40 48.025C31.5812 48.0156 24.7375 41.1719 24.7375 32.7625ZM23.8094 57.4094L30.2406 46.375C31.2531 47.1063 32.35 47.725 33.5125 48.2125L28.8531 56.275L23.8094 57.4094ZM31.4125 61.825L29.9969 57.2969L34.9375 48.7375C36.1469 49.1219 37.4031 49.3656 38.7062 49.4688L31.4125 61.825ZM48.5875 61.825L41.2844 49.4688C42.5875 49.3656 43.8531 49.1219 45.0531 48.7375L49.9938 57.2969L48.5875 61.825ZM51.1375 56.275L46.4781 48.2125C47.6406 47.725 48.7375 47.1063 49.75 46.375L56.1813 57.4094L51.1375 56.275Z" fill="#5958B5"/>
<path d="M32.659 31.9375L36.3996 34.6469L34.9652 39.0344C34.8527 39.3813 34.9746 39.7657 35.2746 39.9813C35.5746 40.1969 35.9684 40.1969 36.2684 39.9813L39.9996 37.2625L43.7309 39.9813C43.8809 40.0938 44.0496 40.1407 44.2277 40.1407C44.4059 40.1407 44.5746 40.0844 44.7246 39.9813C45.0246 39.7657 45.1465 39.3813 45.034 39.0344L43.5996 34.6469L47.3402 31.9375C47.6402 31.7219 47.7621 31.3375 47.6496 30.9907C47.5371 30.6438 47.209 30.4094 46.8434 30.4094L42.2215 30.4188L40.8059 26.0219C40.6934 25.675 40.3746 25.4407 39.9996 25.4407C39.6246 25.4407 39.3059 25.675 39.1934 26.0219L37.7777 30.4188L33.1559 30.4094C32.7902 30.4094 32.4621 30.6438 32.3496 30.9907C32.2371 31.3469 32.3684 31.7219 32.659 31.9375ZM38.8652 31.9188L39.9996 28.4125L41.134 31.9188L44.8184 31.9094L41.8371 34.0657L42.9809 37.5625L39.9996 35.3969L37.0277 37.5625L38.1715 34.0657L35.1902 31.9094L38.8652 31.9188Z" fill="#5958B5"/>
</g>
<defs>
<clipPath id="clip0_1257_1081">
<rect width="48" height="48" fill="white" transform="translate(16 16)"/>
</clipPath>
</defs>
</svg>
