<svg width="40" height="40" viewBox="0 0 40 40" fill="none" xmlns="http://www.w3.org/2000/svg">
<circle cx="20" cy="20" r="19.5" stroke="#FDFDFF"/>
<path d="M8 31.8264L9.6748 25.708C8.64133 23.917 8.09828 21.8868 8.09928 19.805C8.10225 13.2964 13.3987 8 19.9062 8C23.0642 8.00099 26.0286 9.23103 28.2584 11.4628C30.4871 13.6945 31.7142 16.6609 31.7132 19.8159C31.7102 26.3255 26.4138 31.6219 19.9062 31.6219C17.9306 31.6209 15.9838 31.1255 14.2594 30.1843L8 31.8264ZM14.5493 28.0469C16.2132 29.0347 17.8016 29.6264 19.9023 29.6274C25.3109 29.6274 29.7168 25.2255 29.7197 19.8139C29.7217 14.3914 25.3367 9.99546 19.9102 9.99347C14.4977 9.99347 10.0947 14.3954 10.0928 19.806C10.0918 22.0149 10.739 23.6688 11.8261 25.3992L10.8343 29.0208L14.5493 28.0469ZM25.8539 22.6224C25.7804 22.4993 25.5839 22.4259 25.288 22.278C24.9932 22.13 23.5427 21.4162 23.2717 21.318C23.0017 21.2197 22.8051 21.17 22.6076 21.4659C22.411 21.7607 21.8451 22.4259 21.6734 22.6224C21.5016 22.819 21.3289 22.8438 21.034 22.6959C20.7392 22.548 19.7881 22.2373 18.6613 21.2316C17.7847 20.4493 17.192 19.4833 17.0203 19.1875C16.8485 18.8926 17.0024 18.7328 17.1493 18.5859C17.2824 18.4538 17.4442 18.2414 17.5921 18.0686C17.742 17.8979 17.7907 17.7748 17.8899 17.5772C17.9882 17.3806 17.9396 17.2079 17.8651 17.06C17.7907 16.9131 17.201 15.4606 16.9557 14.8699C16.7155 14.2951 16.4723 14.3726 16.2916 14.3636L15.7257 14.3537C15.5291 14.3537 15.2095 14.4272 14.9394 14.723C14.6694 15.0189 13.907 15.7317 13.907 17.1841C13.907 18.6365 14.9643 20.0393 15.1112 20.2358C15.2591 20.4324 17.191 23.4127 20.1505 24.6904C20.8543 24.9942 21.4043 25.1758 21.8322 25.3119C22.5391 25.5362 23.1824 25.5044 23.6907 25.429C24.2575 25.3446 25.4359 24.7152 25.6822 24.0262C25.9284 23.3362 25.9284 22.7456 25.8539 22.6224Z" fill="#ECECF7"/>
</svg>
