<svg width="92" height="92" viewBox="0 0 92 92" fill="none" xmlns="http://www.w3.org/2000/svg">
<rect width="92" height="92" rx="10.9448" fill="#ECECF7"/>
<path d="M71.4762 25.9882C81.6969 38.927 80.8348 57.818 68.8948 69.759C56.0316 82.6233 35.1019 82.6307 22.2387 69.7664C9.37556 56.9021 9.37556 35.9631 22.2387 23.0988C34.1787 11.1577 53.0753 10.3028 66.013 20.5244L66.5686 18.2725C52.8275 8.01304 33.2104 9.12313 20.738 21.5979C7.04934 35.2877 7.04202 57.5701 20.738 71.2672C34.4266 84.9571 56.7069 84.9498 70.3955 71.2599C82.8679 58.7864 83.9791 39.1675 73.7206 25.4252L71.4762 25.9882Z" fill="#5958B5"/>
<path d="M59.3258 28.1716C50.3726 21.4097 37.5473 22.107 29.3977 30.2575C20.4824 39.1736 20.4897 53.6816 29.405 62.5977C38.3203 71.5138 52.8197 71.5138 61.735 62.5977C69.8847 54.4473 70.5832 41.6209 63.8292 32.6742L62.3053 34.1983C68.2411 42.2962 67.5585 53.772 60.2343 61.0969C52.1445 69.1874 38.9895 69.1801 30.907 61.0969C22.8171 53.0063 22.8098 39.8501 30.8996 31.7596C38.2238 24.4347 49.6986 23.752 57.8031 29.6957L59.327 28.1716H59.3258Z" fill="#5958B5"/>
<path d="M48.8798 38.6193L50.4782 37.0207C46.4705 34.9348 41.42 35.5723 38.0657 38.927C33.931 43.062 33.9237 49.7946 38.0657 53.937C42.2003 58.072 48.9396 58.072 53.0743 53.937C56.4287 50.5823 57.0588 45.524 54.9805 41.5233L53.382 43.1219C54.6947 46.2067 54.0878 49.9216 51.5736 52.4361C48.2644 55.7456 42.8756 55.7456 39.5664 52.4361C36.2572 49.1266 36.2572 43.7374 39.5664 40.4279C42.0807 37.9134 45.7953 37.3052 48.8798 38.6193Z" fill="#5958B5"/>
<path d="M59.4604 31.0392L52.2864 38.2138L50.7783 39.722L44.8193 45.6816C44.4066 46.0944 44.4066 46.7697 44.8193 47.1825C45.2321 47.5952 45.9073 47.5952 46.3201 47.1825L52.2791 41.2229L53.7871 39.7147L60.9611 32.5401L62.4619 31.0392L69.1181 24.3823L69.9363 24.1796L72.2552 23.602L75.6999 22.7544L81.5307 16.9231H75.0771V10.469L69.2464 16.3003L68.3989 19.7454L67.8213 22.0645L67.6186 22.8827L60.9624 29.5395L59.4616 31.0404L59.4604 31.0392Z" fill="#5958B5"/>
</svg>
