<svg width="92" height="92" viewBox="0 0 92 92" fill="none" xmlns="http://www.w3.org/2000/svg">
<rect width="92" height="92" rx="10.9448" fill="#ECECF7"/>
<path d="M46.0005 54.3217C50.4977 54.3217 54.1435 50.596 54.1435 46.0001C54.1435 41.4041 50.4977 37.6784 46.0005 37.6784C41.5032 37.6784 37.8574 41.4041 37.8574 46.0001C37.8574 50.596 41.5032 54.3217 46.0005 54.3217Z" fill="#5958B5"/>
<path d="M81.2448 45.2957C80.6012 44.6406 65.2669 29.2408 45.9998 29.2408C26.7326 29.2408 11.3983 44.6406 10.7548 45.2957C10.5723 45.4822 10.4688 45.7355 10.4688 45.9988C10.4688 46.2621 10.5723 46.5166 10.7548 46.7018C11.3983 47.3569 26.7326 62.758 45.9998 62.758C65.2669 62.758 80.6012 47.3582 81.2448 46.7018C81.4273 46.5153 81.5308 46.2621 81.5308 45.9988C81.5308 45.7355 81.4273 45.4809 81.2448 45.2957ZM12.8642 46C15.4421 43.6113 24.5283 35.7986 36.1813 32.6085C32.1954 35.6688 29.6003 40.5245 29.6003 46C29.6003 51.4756 32.1954 56.3312 36.1813 59.3916C24.5283 56.2002 15.4421 48.3888 12.8642 46ZM55.8183 59.3916C59.8054 56.3312 62.3993 51.4756 62.3993 46C62.3993 44.3962 62.1774 42.8074 61.7397 41.2817C61.5893 40.755 61.0468 40.4514 60.5327 40.6076C60.0174 40.7613 59.7228 41.3132 59.8732 41.8411C60.2578 43.1854 60.4538 44.5852 60.4538 46.0013C60.4538 54.1466 53.9702 60.7724 45.9998 60.7724C38.0293 60.7724 31.5457 54.1466 31.5457 46.0013C31.5457 37.856 38.0293 31.2302 45.9998 31.2302C50.1866 31.2302 54.165 33.0835 56.9143 36.3164C57.2669 36.7297 57.8809 36.775 58.2865 36.4147C58.6921 36.0543 58.7352 35.4269 58.3826 35.0124C57.6232 34.1191 56.7787 33.3241 55.8701 32.6236C67.4984 35.8238 76.5612 43.6163 79.1354 46.0013C76.5575 48.3901 67.4713 56.2027 55.8183 59.3928V59.3916Z" fill="#5958B5"/>
<path d="M46.0001 25.6866C46.5376 25.6866 46.9728 25.2419 46.9728 24.6926V14.001C46.9728 13.4517 46.5376 13.007 46.0001 13.007C45.4625 13.007 45.0273 13.4517 45.0273 14.001V24.6926C45.0273 25.2419 45.4625 25.6866 46.0001 25.6866Z" fill="#5958B5"/>
<path d="M23.3162 32.262C23.5073 32.5215 23.7982 32.6576 24.0941 32.6576C24.2975 32.6576 24.5034 32.5921 24.6785 32.4573C25.1075 32.1272 25.1926 31.5035 24.8696 31.0651L18.5696 22.5292C18.2466 22.0908 17.6376 22.0026 17.2073 22.3339C16.7783 22.664 16.6932 23.2877 17.0162 23.7261L23.3162 32.262Z" fill="#5958B5"/>
<path d="M67.906 32.6576C68.2006 32.6576 68.4916 32.5215 68.6839 32.262L74.9838 23.7261C75.3068 23.2877 75.2218 22.6653 74.7927 22.3339C74.3637 22.0026 73.7547 22.0908 73.4304 22.5292L67.1305 31.0651C66.8075 31.5035 66.8926 32.1259 67.3216 32.4573C67.4967 32.5921 67.7025 32.6576 67.906 32.6576Z" fill="#5958B5"/>
<path d="M46.0001 66.3134C45.4625 66.3134 45.0273 66.7581 45.0273 67.3074V77.999C45.0273 78.5483 45.4625 78.993 46.0001 78.993C46.5376 78.993 46.9728 78.5483 46.9728 77.999V67.3074C46.9728 66.7581 46.5376 66.3134 46.0001 66.3134Z" fill="#5958B5"/>
<path d="M23.3162 59.738L17.0162 68.2739C16.6932 68.7123 16.7783 69.3347 17.2073 69.6661C17.3824 69.8009 17.5883 69.8664 17.7917 69.8664C18.0864 69.8664 18.3773 69.7303 18.5696 69.4708L24.8696 60.9349C25.1926 60.4965 25.1075 59.8741 24.6785 59.5427C24.2494 59.2101 23.6404 59.2996 23.3162 59.738Z" fill="#5958B5"/>
<path d="M68.6829 59.7379C68.3587 59.3007 67.7496 59.2113 67.3206 59.5426C66.8916 59.8727 66.8065 60.4964 67.1295 60.9348L73.4294 69.4707C73.6205 69.7302 73.9115 69.8663 74.2074 69.8663C74.4108 69.8663 74.6167 69.8008 74.7917 69.6659C75.2208 69.3359 75.3059 68.7122 74.9828 68.2738L68.6829 59.7379Z" fill="#5958B5"/>
</svg>
