<svg width="1443" height="501" viewBox="0 0 1443 501" fill="none" xmlns="http://www.w3.org/2000/svg">
<rect width="1443" height="501" fill="#EFF1FF"/>
<g opacity="0.15">
<path d="M276.269 46.2201C268.234 50.0184 260.984 53.273 253.951 56.8028C219.143 74.2811 200.859 103.979 195.934 143.599C191.232 181.411 191.238 220.991 191.14 260.505C190.95 338.212 191.251 416.088 191.657 494.004C191.683 499.466 189.693 501.024 183.936 500.972C149.947 500.677 116.142 500.828 82.1199 500.828C81.6811 500.022 80.9935 499.243 81 498.706C82.0151 395.146 79.592 290.38 83.0106 187.658C83.9929 158.117 87.1953 129.709 101.014 106.501C123.025 69.5203 160.412 50.0773 209.916 44.4389C230.519 42.0945 252.228 42.566 276.269 46.2136V46.2201Z" fill="#2F2B73"/>
<path d="M410.745 46.1808C403.6 49.442 397.503 52.1532 391.498 54.9756C352.165 73.4756 333.101 106.717 329.132 151.103C324.22 206.086 325.209 263.19 325.137 319.915C325.059 377.766 325.445 435.774 325.871 493.795C325.91 498.981 324.424 501.07 318.366 500.998C285.811 500.612 253.453 500.736 221.121 500.9C216.347 500.926 214.991 500.252 215.024 495.406C215.796 392.886 214.526 289.653 216.844 187.678C217.512 158.274 221.37 130.272 234.801 107.136C256.76 69.3238 294.541 49.4813 345.223 44.3668C365.57 42.3105 386.933 42.9719 410.745 46.1742V46.1808Z" fill="#2F2B73"/>
<path d="M480.288 500.802C480.249 458.321 480.347 417.038 480.137 375.65C479.83 316.097 481.028 257.048 478.841 196.859C478.133 177.337 475.455 157.331 466.66 136.173C456.312 111.275 438.159 90.5087 413.109 74.0127C404.812 68.5511 406.986 67.3199 410.843 64.5892C440.759 43.4173 509.752 51.1448 557.395 119.133C577.775 148.216 584.671 176.624 587.029 204.599C590.513 245.98 588.273 285.469 588.483 325.763C588.777 382.179 588.371 438.36 588.234 494.633C588.227 497.593 589.334 500.946 584.344 500.913C549.949 500.697 515.685 500.802 480.281 500.802H480.288Z" fill="#2F2B73"/>
<path d="M349.277 500.815C349.146 472.44 348.864 445.119 348.917 417.909C349.08 339.312 346.644 259.805 349.368 182.105C350.501 149.885 355.675 119.618 372.552 95.5512C377.116 89.0418 382.63 83.3445 388.328 77.7781C390.817 75.3486 392.958 75.5974 397.189 78.7015C433.306 105.197 451.617 136.258 454.354 170.016C457.609 210.159 456.175 248.823 456.358 287.99C456.679 356.921 456.483 425.676 456.751 494.594C456.771 499.368 455.173 501.005 449.927 500.966C416.705 500.704 383.639 500.835 349.277 500.835V500.815Z" fill="#2F2B73"/>
</g>
</svg>
