<svg width="1443" height="662" viewBox="0 0 1443 662" fill="none" xmlns="http://www.w3.org/2000/svg">
<g clip-path="url(#clip0_1234_6550)">
<rect width="1443" height="662" fill="#FDFDFF"/>
<g opacity="0.7" clip-path="url(#clip1_1234_6550)">
<g opacity="0.6">
<path d="M88.5653 348.202C95.9472 348.202 103.198 348.202 110.384 348.202C120.771 348.267 131.093 348.071 141.545 348.463C144.942 348.594 148.47 349.051 152.128 350.684C156.44 352.578 160.098 355.845 162.972 360.418C163.952 361.92 164.148 361.528 164.606 360.81C168.329 355.388 166.957 342.779 155.068 334.091C149.972 330.367 145.073 329.126 140.173 328.669C132.987 328.016 126.063 328.473 119.073 328.408C109.209 328.342 99.4095 328.408 89.6106 328.473C89.0879 328.473 88.5 328.277 88.5 329.192C88.6307 335.528 88.5653 341.734 88.5653 348.202Z" stroke="#736FC4" stroke-width="1.3134" stroke-miterlimit="10"/>
<path d="M166.435 365.905C159.053 365.905 151.802 365.905 144.616 365.905C134.229 365.84 123.907 366.036 113.455 365.644C110.058 365.513 106.53 365.056 102.872 363.423C98.5603 361.528 94.902 358.262 92.0277 353.689C91.0478 352.187 90.8518 352.578 90.3945 353.297C86.6709 358.719 88.0427 371.327 99.9322 380.016C105.028 383.739 109.927 384.981 114.827 385.438C122.013 386.091 128.937 385.634 135.927 385.699C145.792 385.764 155.59 385.699 165.389 385.634C165.912 385.634 166.5 385.83 166.5 384.915C166.435 378.579 166.435 372.307 166.435 365.905Z" stroke="#736FC4" stroke-width="1.3134" stroke-miterlimit="10"/>
<path d="M88.5653 413.659C95.9472 413.659 103.198 413.659 110.384 413.659C120.771 413.724 131.093 413.528 141.545 413.92C144.942 414.051 148.47 414.508 152.128 416.141C156.44 418.036 160.098 421.302 162.972 425.875C163.952 427.377 164.148 426.985 164.606 426.267C168.329 420.845 166.957 408.237 155.068 399.548C149.972 395.825 145.073 394.583 140.173 394.126C132.987 393.473 126.063 393.93 119.073 393.865C109.209 393.8 99.4095 393.865 89.6106 393.93C89.0879 393.93 88.5 393.734 88.5 394.649C88.6307 400.985 88.5653 407.257 88.5653 413.659Z" stroke="#736FC4" stroke-width="1.3134" stroke-miterlimit="10"/>
<path d="M166.435 431.362C159.053 431.362 151.802 431.362 144.616 431.362C134.229 431.297 123.907 431.493 113.455 431.101C110.058 430.97 106.53 430.513 102.872 428.88C98.5603 426.985 94.902 423.719 92.0277 419.146C91.0478 417.644 90.8518 418.036 90.3945 418.754C86.6709 424.176 88.0427 436.784 99.9322 445.473C105.028 449.196 109.927 450.438 114.827 450.895C122.013 451.548 128.937 451.091 135.927 451.156C145.792 451.222 155.59 451.156 165.389 451.091C165.912 451.091 166.5 451.287 166.5 450.372C166.435 444.036 166.435 437.83 166.435 431.362Z" stroke="#736FC4" stroke-width="1.3134" stroke-miterlimit="10"/>
<path d="M88.5653 476.503C95.9472 476.503 103.198 476.503 110.384 476.503C120.771 476.568 131.093 476.372 141.545 476.764C144.942 476.895 148.47 477.352 152.128 478.985C156.44 480.88 160.098 484.146 162.972 488.719C163.952 490.222 164.148 489.83 164.606 489.111C168.329 483.689 166.957 471.081 155.068 462.392C149.972 458.669 145.073 457.428 140.173 456.97C132.987 456.317 126.063 456.774 119.073 456.709C109.209 456.644 99.4095 456.709 89.6106 456.774C89.0879 456.774 88.5 456.578 88.5 457.493C88.6307 463.83 88.5653 470.036 88.5653 476.503Z" stroke="#736FC4" stroke-width="1.3134" stroke-miterlimit="10"/>
<path d="M166.435 494.207C159.053 494.207 151.802 494.207 144.616 494.207C134.229 494.141 123.907 494.337 113.455 493.945C110.058 493.815 106.53 493.357 102.872 491.724C98.5603 489.83 94.902 486.563 92.0277 481.99C91.0478 480.488 90.8518 480.88 90.3945 481.598C86.6709 487.021 88.0427 499.629 99.9322 508.317C105.028 512.041 109.927 513.282 114.827 513.739C122.013 514.392 128.937 513.935 135.927 514C145.792 514.066 155.59 514 165.389 513.935C165.912 513.935 166.5 514.131 166.5 513.217C166.435 506.88 166.435 500.674 166.435 494.207Z" stroke="#736FC4" stroke-width="1.3134" stroke-miterlimit="10"/>
<path d="M88.5653 541.96C95.9472 541.96 103.198 541.96 110.384 541.96C120.771 542.026 131.093 541.83 141.545 542.222C144.942 542.352 148.47 542.81 152.128 544.443C156.44 546.337 160.098 549.604 162.972 554.177C163.952 555.679 164.148 555.287 164.606 554.569C168.329 549.146 166.957 536.538 155.068 527.85C149.972 524.126 145.073 522.885 140.173 522.428C132.987 521.775 126.063 522.232 119.073 522.167C109.209 522.101 99.4095 522.167 89.6106 522.232C89.0879 522.232 88.5 522.036 88.5 522.95C88.6307 529.287 88.5653 535.558 88.5653 541.96Z" stroke="#736FC4" stroke-width="1.3134" stroke-miterlimit="10"/>
<path d="M166.435 559.664C159.053 559.664 151.802 559.664 144.616 559.664C134.229 559.599 123.907 559.795 113.455 559.403C110.058 559.272 106.53 558.815 102.872 557.182C98.5603 555.287 94.902 552.021 92.0277 547.448C91.0478 545.945 90.8518 546.337 90.3945 547.056C86.6709 552.478 88.0427 565.086 99.9322 573.774C105.028 577.498 109.927 578.739 114.827 579.197C122.013 579.85 128.937 579.393 135.927 579.458C145.792 579.523 155.59 579.458 165.389 579.393C165.912 579.393 166.5 579.589 166.5 578.674C166.435 572.337 166.435 566.131 166.435 559.664Z" stroke="#736FC4" stroke-width="1.3134" stroke-miterlimit="10"/>
<path d="M88.5653 604.805C95.9472 604.805 103.198 604.805 110.384 604.805C120.771 604.87 131.093 604.674 141.545 605.066C144.942 605.197 148.47 605.654 152.128 607.287C156.44 609.181 160.098 612.448 162.972 617.021C163.952 618.523 164.148 618.131 164.606 617.413C168.329 611.991 166.957 599.382 155.068 590.694C149.972 586.97 145.073 585.729 140.173 585.272C132.987 584.619 126.063 585.076 119.073 585.011C109.209 584.945 99.4095 585.011 89.6106 585.076C89.0879 585.076 88.5 584.88 88.5 585.795C88.6307 592.131 88.5653 598.403 88.5653 604.805Z" stroke="#736FC4" stroke-width="1.3134" stroke-miterlimit="10"/>
<path d="M166.435 622.508C159.053 622.508 151.802 622.508 144.616 622.508C134.229 622.443 123.907 622.639 113.455 622.247C110.058 622.116 106.53 621.659 102.872 620.026C98.5603 618.131 94.902 614.865 92.0277 610.292C91.0478 608.79 90.8518 609.182 90.3945 609.9C86.6709 615.322 88.0427 627.93 99.9322 636.619C105.028 640.342 109.927 641.584 114.827 642.041C122.013 642.694 128.937 642.237 135.927 642.302C145.792 642.367 155.59 642.302 165.389 642.237C165.912 642.237 166.5 642.433 166.5 641.518C166.435 635.182 166.435 628.976 166.435 622.508Z" stroke="#736FC4" stroke-width="1.3134" stroke-miterlimit="10"/>
<path d="M88.5653 670.262C95.9472 670.262 103.198 670.262 110.384 670.262C120.771 670.327 131.093 670.131 141.545 670.523C144.942 670.654 148.47 671.111 152.128 672.744C156.44 674.639 160.098 677.905 162.972 682.478C163.952 683.98 164.148 683.589 164.606 682.87C168.329 677.448 166.957 664.84 155.068 656.151C149.972 652.428 145.073 651.186 140.173 650.729C132.987 650.076 126.063 650.533 119.073 650.468C109.209 650.403 99.4095 650.468 89.6106 650.533C89.0879 650.533 88.5 650.337 88.5 651.252C88.6307 657.588 88.5653 663.86 88.5653 670.262Z" stroke="#736FC4" stroke-width="1.3134" stroke-miterlimit="10"/>
</g>
<g opacity="0.6">
<path d="M88.5653 26.1166C95.9472 26.1166 103.198 26.1166 110.384 26.1166C120.771 26.1819 131.093 25.986 141.545 26.3779C144.942 26.5086 148.47 26.9659 152.128 28.599C156.44 30.4935 160.098 33.7598 162.972 38.3327C163.952 39.8352 164.148 39.4433 164.606 38.7247C168.329 33.3026 166.957 20.6945 155.068 12.0061C149.972 8.28246 145.073 7.04124 140.173 6.58395C132.987 5.93069 126.063 6.38798 119.073 6.32265C109.209 6.25732 99.4095 6.32265 89.6106 6.38798C89.0879 6.38798 88.5 6.19201 88.5 7.10658C88.6307 13.4433 88.5653 19.7146 88.5653 26.1166Z" stroke="#736FC4" stroke-width="1.3134" stroke-miterlimit="10"/>
<path d="M166.435 43.82C159.053 43.82 151.802 43.82 144.616 43.82C134.229 43.7547 123.907 43.9507 113.455 43.5587C110.058 43.4281 106.53 42.9708 102.872 41.3376C98.5603 39.4432 94.902 36.1768 92.0277 31.604C91.0478 30.1015 90.8518 30.4934 90.3945 31.212C86.6709 36.6341 88.0427 49.2422 99.9322 57.9306C105.028 61.6542 109.927 62.8954 114.827 63.3527C122.013 64.006 128.937 63.5487 135.927 63.614C145.792 63.6793 155.59 63.614 165.389 63.5487C165.912 63.5487 166.5 63.7447 166.5 62.8301C166.435 56.4934 166.435 50.2874 166.435 43.82Z" stroke="#736FC4" stroke-width="1.3134" stroke-miterlimit="10"/>
<path d="M88.5653 88.9607C95.9472 88.9607 103.198 88.9607 110.384 88.9607C120.771 89.0261 131.093 88.8301 141.545 89.222C144.942 89.3527 148.47 89.81 152.128 91.4431C156.44 93.3376 160.098 96.604 162.972 101.177C163.952 102.679 164.148 102.287 164.606 101.569C168.329 96.1467 166.957 83.5386 155.068 74.8502C149.972 71.1266 145.073 69.8854 140.173 69.4281C132.987 68.7748 126.063 69.2321 119.073 69.1668C109.209 69.1014 99.4095 69.1668 89.6106 69.2321C89.0879 69.2321 88.5 69.0361 88.5 69.9507C88.6307 76.2874 88.5653 82.5587 88.5653 88.9607Z" stroke="#736FC4" stroke-width="1.3134" stroke-miterlimit="10"/>
<path d="M166.435 106.664C159.053 106.664 151.802 106.664 144.616 106.664C134.229 106.599 123.907 106.795 113.455 106.403C110.058 106.272 106.53 105.815 102.872 104.182C98.5603 102.287 94.902 99.0211 92.0277 94.4482C91.0478 92.9457 90.8518 93.3377 90.3945 94.0562C86.6709 99.4784 88.0427 112.086 99.9322 120.775C105.028 124.498 109.927 125.74 114.827 126.197C122.013 126.85 128.937 126.393 135.927 126.458C145.792 126.524 155.59 126.458 165.389 126.393C165.912 126.393 166.5 126.589 166.5 125.674C166.435 119.338 166.435 113.132 166.435 106.664Z" stroke="#736FC4" stroke-width="1.3134" stroke-miterlimit="10"/>
<path d="M88.5653 154.418C95.9472 154.418 103.198 154.418 110.384 154.418C120.771 154.483 131.093 154.287 141.545 154.679C144.942 154.81 148.47 155.267 152.128 156.9C156.44 158.795 160.098 162.061 162.972 166.634C163.952 168.137 164.148 167.745 164.606 167.026C168.329 161.604 166.957 148.996 155.068 140.307C149.972 136.584 145.073 135.343 140.173 134.885C132.987 134.232 126.063 134.689 119.073 134.624C109.209 134.559 99.4095 134.624 89.6106 134.689C89.0879 134.689 88.5 134.493 88.5 135.408C88.6307 141.745 88.5653 148.016 88.5653 154.418Z" stroke="#736FC4" stroke-width="1.3134" stroke-miterlimit="10"/>
<path d="M166.435 172.122C159.053 172.122 151.802 172.122 144.616 172.122C134.229 172.056 123.907 172.252 113.455 171.86C110.058 171.73 106.53 171.272 102.872 169.639C98.5603 167.745 94.902 164.478 92.0277 159.905C91.0478 158.403 90.8518 158.795 90.3945 159.514C86.6709 164.936 88.0427 177.544 99.9322 186.232C105.028 189.956 109.927 191.197 114.827 191.654C122.013 192.308 128.937 191.85 135.927 191.916C145.792 191.981 155.59 191.916 165.389 191.85C165.912 191.85 166.5 192.046 166.5 191.132C166.435 184.795 166.435 178.589 166.435 172.122Z" stroke="#736FC4" stroke-width="1.3134" stroke-miterlimit="10"/>
<path d="M88.5653 217.262C95.9472 217.262 103.198 217.262 110.384 217.262C120.771 217.328 131.093 217.132 141.545 217.524C144.942 217.654 148.47 218.112 152.128 219.745C156.44 221.639 160.098 224.905 162.972 229.478C163.952 230.981 164.148 230.589 164.606 229.87C168.329 224.448 166.957 211.84 155.068 203.152C149.972 199.428 145.073 198.187 140.173 197.73C132.987 197.076 126.063 197.534 119.073 197.468C109.209 197.403 99.4095 197.468 89.6106 197.534C89.0879 197.534 88.5 197.338 88.5 198.252C88.6307 204.589 88.5653 210.86 88.5653 217.262Z" stroke="#736FC4" stroke-width="1.3134" stroke-miterlimit="10"/>
<path d="M166.435 234.966C159.053 234.966 151.802 234.966 144.616 234.966C134.229 234.9 123.907 235.096 113.455 234.704C110.058 234.574 106.53 234.116 102.872 232.483C98.5603 230.589 94.902 227.322 92.0277 222.75C91.0478 221.247 90.8518 221.639 90.3945 222.358C86.6709 227.78 88.0427 240.388 99.9322 249.076C105.028 252.8 109.927 254.041 114.827 254.498C122.013 255.152 128.937 254.694 135.927 254.76C145.792 254.825 155.59 254.76 165.389 254.694C165.912 254.694 166.5 254.89 166.5 253.976C166.435 247.639 166.435 241.433 166.435 234.966Z" stroke="#736FC4" stroke-width="1.3134" stroke-miterlimit="10"/>
<path d="M88.5653 282.785C95.9472 282.785 103.198 282.785 110.384 282.785C120.771 282.85 131.093 282.654 141.545 283.046C144.942 283.177 148.47 283.634 152.128 285.267C156.44 287.162 160.098 290.428 162.972 295.001C163.952 296.503 164.148 296.111 164.606 295.393C168.329 289.971 166.957 277.363 155.068 268.674C149.972 264.951 145.073 263.709 140.173 263.252C132.987 262.599 126.063 263.056 119.073 262.991C109.209 262.926 99.4095 262.991 89.6106 263.056C89.0879 263.056 88.5 262.86 88.5 263.775C88.6307 270.046 88.5653 276.318 88.5653 282.785Z" stroke="#736FC4" stroke-width="1.3134" stroke-miterlimit="10"/>
<path d="M166.435 300.423C159.053 300.423 151.802 300.423 144.616 300.423C134.229 300.358 123.907 300.554 113.455 300.162C110.058 300.031 106.53 299.574 102.872 297.941C98.5603 296.046 94.902 292.78 92.0277 288.207C91.0478 286.705 90.8518 287.097 90.3945 287.815C86.6709 293.237 88.0427 305.845 99.9322 314.534C105.028 318.257 109.927 319.499 114.827 319.956C122.013 320.609 128.937 320.152 135.927 320.217C145.792 320.282 155.59 320.217 165.389 320.152C165.912 320.152 166.5 320.348 166.5 319.433C166.435 313.162 166.435 306.891 166.435 300.423Z" stroke="#736FC4" stroke-width="1.3134" stroke-miterlimit="10"/>
</g>
</g>
</g>
<defs>
<clipPath id="clip0_1234_6550">
<rect width="1443" height="662" fill="white"/>
</clipPath>
<clipPath id="clip1_1234_6550">
<rect width="1461" height="89" fill="white" transform="matrix(0 -1 1 0 83 1352)"/>
</clipPath>
</defs>
</svg>
